<svg id="Layer_1" data-name="Layer 1" xmlns="http://www.w3.org/2000/svg" viewBox="0 0 216 432"><defs><style>.cls-1{fill:#8c8c8c;}.cls-2{fill:#4c76be;}</style></defs><title>FB Rotate (Color)</title><g id="Layer_1-2" data-name="Layer 1"><g id="FB"><path class="cls-1" d="M133.9,56.1H120.4c-15.1,0-24.9,10-24.9,25.5V93.4H82.1A2.05,2.05,0,0,0,80,95.5v17.1a2.05,2.05,0,0,0,2.1,2.1H95.6v43.1a2.05,2.05,0,0,0,2.1,2.1h17.7a2.05,2.05,0,0,0,2.1-2.1V114.7h15.8a2.05,2.05,0,0,0,2.1-2.1V95.5a2.05,2.05,0,0,0-2.1-2.1H117.5v-10c0-4.8,1.1-7.2,7.4-7.2H134a2.05,2.05,0,0,0,2.1-2.1V58.2A2.2,2.2,0,0,0,133.9,56.1Z"/><path class="cls-2" d="M133.9,272.2H120.4c-15.1,0-24.9,10-24.9,25.5v11.8H82.1a2.05,2.05,0,0,0-2.1,2.1v17.1a2.05,2.05,0,0,0,2.1,2.1H95.6v43.1a2.05,2.05,0,0,0,2.1,2.1h17.7a2.05,2.05,0,0,0,2.1-2.1V330.8h15.8a2.05,2.05,0,0,0,2.1-2.1V311.6a2.05,2.05,0,0,0-2.1-2.1H117.5v-10c0-4.8,1.1-7.2,7.4-7.2H134a2.05,2.05,0,0,0,2.1-2.1V274.4A2.22,2.22,0,0,0,133.9,272.2Z"/></g></g></svg>