<?xml version="1.0" encoding="utf-8"?>
<!-- Generator: Adobe Illustrator 22.1.0, SVG Export Plug-In . SVG Version: 6.00 Build 0)  -->
<svg version="1.1" id="Google_" xmlns="http://www.w3.org/2000/svg" xmlns:xlink="http://www.w3.org/1999/xlink" x="0px" y="0px"
	 viewBox="0 0 216 432" style="enable-background:new 0 0 216 432;" xml:space="preserve">
<style type="text/css">
	.st0{display:none;fill:#8C8C8C;}
	.st1{display:none;fill:#FC5345;}
	.st2{fill:#6CC644;}
	.st3{fill:#8C8C8C;}
</style>
<path class="st0" d="M144.2,102.3H95.7v16.2h29.6c-5.7,18.2-25.2,28.4-43.4,22.7S53.5,116,59.2,97.8S84.4,69.3,102.6,75
	c5.4,1.7,10.3,4.7,14.2,8.7l11.7-12.8C108,50.8,75.1,51.1,55.1,71.6S35.3,125,55.8,145c9.7,9.5,22.8,14.9,36.4,14.9
	c25.1,0,47.1-17.8,51.9-41.5L144.2,102.3L144.2,102.3z"/>
<polygon class="st0" points="175.7,102.2 165.8,102.2 165.8,92.3 157.3,92.3 157.3,102.2 147.3,102.2 147.3,110.7 157.3,110.7 
	157.3,120.7 165.8,120.7 165.8,110.7 175.7,110.7 "/>
<path class="st1" d="M144.2,318.4H95.7v16.2h29.6c-5.7,18.2-25.2,28.4-43.4,22.7c-18.2-5.7-28.4-25.2-22.7-43.4
	c5.7-18.2,25.2-28.4,43.4-22.7c5.4,1.7,10.3,4.7,14.2,8.7l11.7-12.8c-20.5-20.1-53.4-19.8-73.4,0.7s-19.8,53.4,0.7,73.4
	c9.7,9.5,22.8,14.9,36.4,14.9c25.1,0,47.1-17.8,51.9-41.5v-16.2H144.2z"/>
<polygon class="st1" points="175.7,318.3 165.8,318.3 165.8,308.4 157.3,308.4 157.3,318.3 147.3,318.3 147.3,326.8 157.3,326.8 
	157.3,336.7 165.8,336.7 165.8,326.8 175.7,326.8 "/>
<g>
	<path class="st2" d="M166,291.6c-6-10.3-14.1-18.4-24.4-24.4c-10.3-6-21.5-9-33.7-9c-12.2,0-23.4,3-33.7,9
		c-10.3,6-18.4,14.1-24.4,24.4c-6,10.3-9,21.5-9,33.7c0,14.6,4.3,27.8,12.8,39.4c8.5,11.7,19.5,19.7,33.1,24.2
		c1.6,0.3,2.7,0.1,3.5-0.6c0.8-0.7,1.1-1.6,1.1-2.6c0-0.2,0-1.7,0-4.7c0-3,0-5.6,0-7.8l-2,0.3c-1.3,0.2-2.9,0.3-4.8,0.3
		c-1.9,0-4-0.2-6.1-0.6c-2.1-0.4-4-1.2-5.9-2.6c-1.8-1.4-3.1-3.2-3.8-5.4l-0.9-2c-0.6-1.3-1.5-2.8-2.8-4.5c-1.3-1.6-2.5-2.7-3.8-3.3
		l-0.6-0.4c-0.4-0.3-0.8-0.6-1.1-1c-0.3-0.4-0.6-0.8-0.8-1.2c-0.2-0.4,0-0.7,0.4-1c0.5-0.3,1.3-0.4,2.5-0.4l1.7,0.3
		c1.2,0.2,2.6,0.9,4.3,2.1c1.7,1.2,3.1,2.7,4.2,4.5c1.3,2.4,3,4.2,4.8,5.5c1.9,1.3,3.8,1.9,5.7,1.9s3.6-0.1,5-0.4
		c1.4-0.3,2.7-0.7,3.9-1.3c0.5-3.9,2-6.9,4.3-9c-3.3-0.3-6.3-0.9-9-1.6c-2.6-0.7-5.4-1.8-8.2-3.4c-2.8-1.6-5.2-3.5-7-5.8
		c-1.9-2.3-3.4-5.4-4.6-9.2c-1.2-3.8-1.8-8.2-1.8-13.1c0-7,2.3-13,6.9-18c-2.2-5.3-2-11.2,0.6-17.8c1.7-0.5,4.2-0.1,7.5,1.2
		c3.3,1.3,5.7,2.4,7.3,3.4c1.5,0.9,2.8,1.7,3.7,2.4c5.4-1.5,11-2.3,16.8-2.3c5.8,0,11.4,0.8,16.8,2.3l3.3-2.1c2.3-1.4,4.9-2.7,8-3.8
		c3.1-1.2,5.4-1.5,7.1-1c2.6,6.6,2.9,12.5,0.7,17.8c4.6,4.9,6.9,10.9,6.9,18c0,4.9-0.6,9.3-1.8,13.1c-1.2,3.8-2.7,6.9-4.6,9.2
		c-1.9,2.3-4.3,4.2-7.1,5.8c-2.8,1.6-5.6,2.7-8.2,3.4c-2.6,0.7-5.6,1.2-9,1.6c3,2.6,4.5,6.8,4.5,12.4v18.4c0,1,0.4,1.9,1.1,2.6
		c0.7,0.7,1.9,0.9,3.4,0.6c13.5-4.5,24.5-12.6,33.1-24.2c8.5-11.7,12.8-24.8,12.8-39.4C175,313,172,301.8,166,291.6z"/>
</g>
<g>
	<path class="st3" d="M166,73.6c-6-10.3-14.1-18.4-24.4-24.4c-10.3-6-21.5-9-33.7-9c-12.2,0-23.4,3-33.7,9
		c-10.3,6-18.4,14.1-24.4,24.4c-6,10.3-9,21.5-9,33.7c0,14.6,4.3,27.8,12.8,39.4c8.5,11.7,19.5,19.7,33.1,24.2
		c1.6,0.3,2.7,0.1,3.5-0.6c0.8-0.7,1.1-1.6,1.1-2.6c0-0.2,0-1.7,0-4.7c0-3,0-5.6,0-7.8l-2,0.3c-1.3,0.2-2.9,0.3-4.8,0.3
		c-1.9,0-4-0.2-6.1-0.6c-2.1-0.4-4-1.2-5.9-2.6c-1.8-1.4-3.1-3.2-3.8-5.4l-0.9-2c-0.6-1.3-1.5-2.8-2.8-4.5c-1.3-1.6-2.5-2.7-3.8-3.3
		l-0.6-0.4c-0.4-0.3-0.8-0.6-1.1-1c-0.3-0.4-0.6-0.8-0.8-1.2c-0.2-0.4,0-0.7,0.4-1c0.5-0.3,1.3-0.4,2.5-0.4l1.7,0.3
		c1.2,0.2,2.6,0.9,4.3,2.1c1.7,1.2,3.1,2.7,4.2,4.5c1.3,2.4,3,4.2,4.8,5.5c1.9,1.3,3.8,1.9,5.7,1.9s3.6-0.1,5-0.4
		c1.4-0.3,2.7-0.7,3.9-1.3c0.5-3.9,2-6.9,4.3-9c-3.3-0.3-6.3-0.9-9-1.6c-2.6-0.7-5.4-1.8-8.2-3.4c-2.8-1.6-5.2-3.5-7-5.8
		c-1.9-2.3-3.4-5.4-4.6-9.2c-1.2-3.8-1.8-8.2-1.8-13.1c0-7,2.3-13,6.9-18c-2.2-5.3-2-11.2,0.6-17.8c1.7-0.5,4.2-0.1,7.5,1.2
		c3.3,1.3,5.7,2.4,7.3,3.4c1.5,0.9,2.8,1.7,3.7,2.4c5.4-1.5,11-2.3,16.8-2.3c5.8,0,11.4,0.8,16.8,2.3l3.3-2.1c2.3-1.4,4.9-2.7,8-3.8
		c3.1-1.2,5.4-1.5,7.1-1c2.6,6.6,2.9,12.5,0.7,17.8c4.6,4.9,6.9,10.9,6.9,18c0,4.9-0.6,9.3-1.8,13.1c-1.2,3.8-2.7,6.9-4.6,9.2
		c-1.9,2.3-4.3,4.2-7.1,5.8c-2.8,1.6-5.6,2.7-8.2,3.4c-2.6,0.7-5.6,1.2-9,1.6c3,2.6,4.5,6.8,4.5,12.4v18.4c0,1,0.4,1.9,1.1,2.6
		c0.7,0.7,1.9,0.9,3.4,0.6c13.5-4.5,24.5-12.6,33.1-24.2c8.5-11.7,12.8-24.8,12.8-39.4C175,95,172,83.8,166,73.6z"/>
</g>
</svg>
