<svg id="Google_" data-name="Google " xmlns="http://www.w3.org/2000/svg" viewBox="0 0 216 432">
  <defs>
    <style>
      .cls-1 {
        fill: #1aa77d;
      }

      .cls-2 {
        fill: #8c8c8c;
      }
    </style>
  </defs>
  <title>medium</title>
  <path id="Shape" class="cls-1" d="M48,289.29a5.86,5.86,0,0,0-1.91-4.93L32,267.39v-2.54H75.8L109.62,339l29.73-74.17h41.71v2.54L169,278.94a3.52,3.52,0,0,0-1.33,3.38V367.2a3.52,3.52,0,0,0,1.33,3.38l11.77,11.55v2.54H121.6v-2.54l12.19-11.83c1.19-1.2,1.19-1.55,1.19-3.38V298.31l-33.89,86.08H96.51L57.05,298.31V356a8,8,0,0,0,2.19,6.62l15.85,19.23v2.54H30.14v-2.54L46,362.62A7.66,7.66,0,0,0,48,356Z"/>
  <path id="Shape-2" data-name="Shape" class="cls-2" d="M48,71.57a5.86,5.86,0,0,0-1.91-4.93L32,49.67V47.13H75.8l33.82,74.17,29.73-74.17h41.71v2.54L169,61.22a3.52,3.52,0,0,0-1.33,3.38v84.88a3.52,3.52,0,0,0,1.33,3.38l11.77,11.55V167H121.6v-2.54l12.19-11.83C135,151.38,135,151,135,149.2V80.59l-33.89,86.07H96.51L57.05,80.59v57.69a8,8,0,0,0,2.19,6.62l15.85,19.23v2.53H30.14v-2.53L46,144.9a7.67,7.67,0,0,0,2-6.62Z"/>
</svg>
