<?xml version="1.0" encoding="utf-8"?>
<!-- Generator: Adobe Illustrator 22.1.0, SVG Export Plug-In . SVG Version: 6.00 Build 0)  -->
<svg version="1.1" id="Google_" xmlns="http://www.w3.org/2000/svg" xmlns:xlink="http://www.w3.org/1999/xlink" x="0px" y="0px"
	 viewBox="0 0 216 432" style="enable-background:new 0 0 216 432;" xml:space="preserve">
<style type="text/css">
	.st0{fill:#1FBF8F;}
	.st1{fill:#8C8C8C;}
</style>
<path class="st0" d="M153.8,300.3c-5.1-5.1-11-8.8-17.2-11.2c3.7-10.7,16.6-14.7,16.6-14.7s-30.2-15.7-63.6-9.4
	c-11.1,1.8-21.8,8.6-29.6,17.6c-16.9,19.6-14.7,49,5,65.8c3,2.6,9.8,6.6,9.9,6.8c-4.4,11.3-18.6,14.4-18.6,14.4s18.8,11.7,44,14.8
	c6.7,0.8,13.8,1,21.1,0.2c11.7-0.9,23.3-7.1,32.1-15.8C172.6,350.1,172.8,319.4,153.8,300.3z M145.1,361.5c-7.1,7-17.8,11.4-26,12.1
	c-5.8,0.6-12,0.7-18-0.1c-8.8-1.1-15.2-3.5-21.4-5.8c3.2-3,6.3-7.2,7.6-10.9c0.8-2.1,0.7-4.5-0.2-6.6c-6.7-13.8-3.8-30.2,7.2-40.9
	c8-7.8,18.9-11.4,30.1-10.1c8.2,1,15.6,4.6,21.4,10.4C159.9,323.6,159.4,347.6,145.1,361.5z"/>
<path class="st1" d="M153.8,82c-5.1-5.1-11-8.8-17.2-11.2c3.7-10.7,16.6-14.7,16.6-14.7s-30.2-15.7-63.6-9.4
	c-11.1,1.8-21.8,8.6-29.6,17.6c-16.9,19.6-14.7,49,5,65.8c3,2.6,9.8,6.6,9.9,6.8c-4.4,11.3-18.6,14.4-18.6,14.4s18.8,11.7,44,14.8
	c6.7,0.8,13.8,1,21.1,0.2c11.7-0.9,23.3-7.1,32.1-15.8C172.6,131.7,172.8,101,153.8,82z M145.1,143.1c-7.1,7-17.8,11.4-26,12.1
	c-5.8,0.6-12,0.7-18-0.1c-8.8-1.1-15.2-3.5-21.4-5.8c3.2-3,6.3-7.2,7.6-10.9c0.8-2.1,0.7-4.5-0.2-6.6c-6.7-13.8-3.8-30.2,7.2-40.9
	c8-7.8,18.9-11.4,30.1-10.1c8.2,1,15.6,4.6,21.4,10.4C159.9,105.3,159.4,129.2,145.1,143.1z"/>
</svg>
