<?xml version="1.0" encoding="utf-8"?>
<!-- Generator: Adobe Illustrator 19.2.1, SVG Export Plug-In . SVG Version: 6.00 Build 0)  -->
<svg version="1.1" id="Flickr" xmlns="http://www.w3.org/2000/svg" xmlns:xlink="http://www.w3.org/1999/xlink" x="0px" y="0px"
	 viewBox="0 0 216 432" style="enable-background:new 0 0 216 432;" xml:space="preserve">
<style type="text/css">
	.st0{fill:#8C8C8C;}
	.st1{fill:#00C7FF;}
</style>
<path class="st0" d="M171.9,68.4c-4.8,2.1-9.8,3.5-15,4.1c5.5-3.3,9.5-8.4,11.5-14.5c-5.1,3.1-10.8,5.2-16.6,6.4
	c-9.9-10.6-26.5-11.1-37.1-1.3c-6.9,6.4-9.8,16-7.6,25.2c-21.1-1.1-40.7-11-54-27.4c-7,12-3.4,27.3,8.1,35
	c-4.1-0.1-8.2-1.3-11.8-3.3c0,0.1,0,0.2,0,0.3c0,12.5,8.8,23.2,21,25.7c-3.9,1-7.9,1.2-11.8,0.4c3.4,10.7,13.3,18,24.5,18.2
	c-11,8.6-24.9,12.5-38.8,10.9c12,7.7,25.9,11.8,40.2,11.8c48.2,0,74.5-39.9,74.5-74.6c0-1.1,0-2.3-0.1-3.4
	C163.9,78.2,168.3,73.7,171.9,68.4z"/>
<path class="st1" d="M171.9,284.6c-4.8,2.1-9.8,3.5-15,4.1c5.5-3.3,9.6-8.4,11.5-14.5c-5.1,3.1-10.8,5.2-16.6,6.4
	c-9.8-10.6-26.4-11.2-37.1-1.4c-6.9,6.4-9.9,16.1-7.7,25.3c-21.1-1.1-40.7-11-54-27.4c-7,12-3.4,27.3,8.1,35
	c-4.2-0.1-8.2-1.3-11.9-3.3c0,0.1,0,0.2,0,0.3c0,12.5,8.8,23.2,21,25.7c-3.9,1-7.9,1.2-11.8,0.5c3.4,10.7,13.3,18,24.5,18.2
	c-11,8.6-24.9,12.5-38.8,10.9c12,7.7,25.9,11.8,40.2,11.8c48.2,0,74.5-39.9,74.5-74.6c0-1.1,0-2.3-0.1-3.4
	C163.9,294.5,168.3,289.9,171.9,284.6z"/>
</svg>
