<?xml version="1.0" encoding="utf-8"?>
<!-- Generator: Adobe Illustrator 19.2.1, SVG Export Plug-In . SVG Version: 6.00 Build 0)  -->
<svg version="1.1" id="Layer_4" xmlns="http://www.w3.org/2000/svg" xmlns:xlink="http://www.w3.org/1999/xlink" x="0px" y="0px"
	 viewBox="0 0 216 432" style="enable-background:new 0 0 216 432;" xml:space="preserve">
<style type="text/css">
	.st0{fill:#8C8C8C;}
	.st1{fill:#FD3832;}
</style>
<path class="st0" d="M180.4,72.8c-1.7-7.8-8.2-13.7-16.1-14.6c-18.5-2.1-37.2-2.1-55.8-2.1s-37.3,0-55.8,2.1
	c-7.9,1-14.4,6.8-16.1,14.6C34.1,84.1,34,96.4,34,108s0,23.9,2.6,35.2c1.7,7.8,8.2,13.7,16.1,14.6c18.5,2.1,37.2,2.1,55.8,2.1
	s37.3,0,55.8-2.1c7.9-1,14.4-6.8,16.1-14.6c2.6-11.3,2.6-23.6,2.6-35.2S183,84.1,180.4,72.8z M89.3,131.1V81.9l47.3,24.7L89.3,131.1
	z"/>
<path class="st1" d="M179.9,288.9c-1.7-7.8-8.2-13.7-16.1-14.6c-18.5-2.1-37.2-2.1-55.8-2.1s-37.3,0-55.8,2.1
	c-7.9,1-14.4,6.8-16.1,14.6c-2.6,11.3-2.6,23.6-2.6,35.2s0,23.9,2.6,35.2c1.7,7.8,8.2,13.7,16.1,14.6C70.7,376,89.4,376,108,376
	s37.3,0,55.8-2.1c7.9-1,14.4-6.8,16.1-14.6c2.6-11.3,2.6-23.6,2.6-35.2S182.5,300.2,179.9,288.9z M88.8,347.2V298l47.3,24.7
	L88.8,347.2z"/>
</svg>
