<?xml version="1.0" standalone="no"?>
<!DOCTYPE svg PUBLIC "-//W3C//DTD SVG 20010904//EN"
 "http://www.w3.org/TR/2001/REC-SVG-20010904/DTD/svg10.dtd">
<svg version="1.0" xmlns="http://www.w3.org/2000/svg"
 width="256.000000pt" height="256.000000pt" viewBox="0 0 256.000000 256.000000"
 preserveAspectRatio="xMidYMid meet">
<metadata>
Created by potrace 1.11, written by Peter Selinger 2001-2013
</metadata>
<g transform="translate(0.000000,256.000000) scale(0.100000,-0.100000)"
fill="#000000" stroke="none">
<path d="M1208 2455 c-2 -1 -30 -5 -64 -9 -251 -26 -512 -170 -686 -380 -49
-58 -52 -65 -26 -70 37 -8 76 -20 101 -33 27 -14 29 -13 100 59 110 111 243
192 392 238 147 45 352 47 500 6 152 -42 298 -128 413 -244 l73 -73 64 25 c35
15 68 26 74 26 25 0 5 27 -96 128 -113 113 -177 161 -291 216 -145 71 -279
105 -443 110 -60 2 -110 2 -111 1z"/>
<path d="M1160 2253 c-191 -28 -404 -143 -531 -287 l-32 -37 39 -40 38 -39 51
53 c113 120 265 205 420 234 73 14 256 8 324 -10 143 -39 266 -110 367 -213
l61 -63 38 39 c44 45 46 40 -45 126 -107 102 -212 162 -365 210 -76 23 -110
28 -215 29 -69 1 -136 0 -150 -2z"/>
<path d="M285 1961 c-93 -24 -181 -99 -223 -189 -23 -48 -27 -71 -27 -142 0
-70 4 -94 26 -140 33 -71 98 -136 168 -169 73 -34 202 -37 271 -6 90 39 153
105 191 200 l17 40 68 1 c133 3 119 -6 118 76 l-1 73 -93 0 c-75 0 -94 3 -97
15 -22 85 -107 183 -193 222 -49 23 -172 33 -225 19z m156 -122 c112 -34 177
-166 137 -280 -40 -118 -182 -181 -293 -130 -46 21 -89 62 -113 106 -22 41
-22 150 1 192 53 99 161 144 268 112z"/>
<path d="M319 1818 c-20 -5 -51 -22 -69 -37 l-33 -28 69 13 c38 7 69 13 69 14
0 1 14 4 30 6 17 3 31 9 33 14 2 5 11 7 20 4 14 -5 15 -4 2 4 -24 16 -82 20
-121 10z m18 -24 c-3 -3 -12 -4 -19 -1 -8 3 -5 6 6 6 11 1 17 -2 13 -5z"/>
<path d="M418 1768 c19 -19 14 -33 -6 -15 -16 15 -19 15 -30 -3 -6 -11 -8 -21
-2 -25 5 -3 11 -1 15 4 10 17 40 8 59 -16 16 -22 16 -23 -2 -23 -19 0 -62 -34
-62 -49 0 -5 -9 -7 -20 -4 -11 3 -20 1 -20 -4 0 -12 36 -30 75 -38 39 -8 79
-41 69 -57 -8 -15 -31 -41 -56 -66 -24 -22 -23 -31 4 -24 12 3 40 24 63 47 60
59 76 143 43 212 -11 23 -19 28 -46 25 -24 -1 -35 4 -48 23 -9 14 -23 25 -32
25 -12 0 -13 -3 -4 -12z"/>
<path d="M190 1701 c-45 -110 36 -251 150 -261 61 -5 62 -4 56 53 -3 28 -6 61
-6 73 0 12 -12 27 -28 35 -15 8 -30 18 -34 24 -5 6 -8 6 -8 1 0 -20 -29 30
-30 50 0 25 -24 48 -42 41 -7 -2 -20 -1 -29 4 -13 7 -20 2 -29 -20z"/>
<path d="M1181 1955 c-93 -29 -176 -108 -215 -205 -28 -69 -25 -183 7 -253 42
-92 130 -173 210 -191 30 -7 28 13 28 -211 0 -336 0 -325 -18 -331 -103 -33
-188 -110 -223 -201 -27 -70 -30 -176 -6 -241 86 -236 390 -302 564 -123 170
175 112 459 -114 552 l-54 23 0 260 0 261 48 18 c27 9 70 36 96 59 48 41 102
115 92 125 -3 3 -32 5 -65 5 -55 0 -64 -3 -102 -36 -143 -122 -356 -29 -361
157 -5 197 228 302 369 165 28 -28 38 -31 95 -31 35 0 63 4 63 9 0 20 -50 91
-86 123 -84 73 -219 100 -328 66z m208 -1324 c94 -48 139 -165 104 -268 -17
-50 -73 -110 -122 -130 -48 -20 -130 -19 -171 2 -85 42 -130 112 -132 201 -4
162 173 270 321 195z"/>
<path d="M1307 594 c-11 -13 -29 -24 -39 -24 -11 0 -17 -4 -14 -9 10 -16 -5
-39 -29 -45 -16 -4 -22 -11 -19 -21 9 -22 -13 -18 -29 6 l-15 20 -16 -23 -16
-22 0 22 c0 31 -17 27 -24 -5 -30 -137 48 -244 178 -245 117 -1 199 86 189
200 -4 56 -24 93 -69 130 -51 42 -71 45 -97 16z m-67 -149 c0 -8 -7 -15 -16
-15 -14 0 -14 3 -4 15 7 8 14 15 16 15 2 0 4 -7 4 -15z m-46 -11 c3 -8 2 -12
-4 -9 -6 3 -10 10 -10 16 0 14 7 11 14 -7z m141 -15 c11 -17 -1 -21 -15 -4 -8
9 -8 15 -2 15 6 0 14 -5 17 -11z m-25 -40 c0 -6 7 -9 15 -5 18 6 39 -29 31
-51 -4 -11 -13 -13 -29 -8 -12 3 -35 7 -52 8 -39 3 -43 27 -8 49 33 20 43 22
43 7z"/>
<path d="M2090 1953 c-95 -33 -182 -118 -211 -205 -7 -21 -17 -39 -23 -39 -6
-1 -166 -3 -356 -4 -190 -1 -350 -3 -357 -4 -26 -2 -33 -114 -9 -138 3 -3 168
-6 366 -6 l361 0 29 -63 c33 -73 95 -138 166 -174 41 -20 64 -24 139 -25 76 0
98 4 145 26 197 92 260 336 133 512 -85 116 -248 168 -383 120z m211 -130
c162 -83 154 -317 -14 -394 -148 -67 -320 58 -305 221 11 110 109 200 218 200
31 0 65 -9 101 -27z"/>
<path d="M2123 1805 c-18 -8 -33 -20 -33 -26 0 -7 -3 -9 -6 -6 -11 11 -63 -63
-69 -97 -6 -35 -3 -55 9 -75 5 -8 9 -27 10 -43 1 -32 46 -84 85 -100 102 -41
209 -1 255 96 19 40 22 121 4 110 -8 -5 -9 -2 -4 11 5 15 4 16 -8 5 -9 -6 -15
-15 -14 -18 2 -18 -3 -26 -10 -14 -12 17 -75 35 -69 19 3 -7 10 -11 16 -9 16
3 14 -13 -4 -28 -12 -10 -19 -8 -36 11 l-20 24 11 -23 c6 -13 18 -26 26 -29
13 -5 13 -8 -1 -29 -8 -13 -15 -29 -15 -36 0 -7 -11 -26 -25 -43 l-25 -30 -19
23 c-11 13 -17 30 -14 38 3 8 0 20 -6 28 -6 7 -8 16 -4 19 6 7 4 8 -35 12 -27
3 -28 4 -36 31 -12 38 58 88 78 56 7 -12 66 -13 66 -1 0 5 -5 9 -11 9 -5 0 -7
5 -4 10 4 6 11 8 16 5 5 -4 9 -1 9 4 0 14 -27 14 -35 1 -4 -6 -12 -7 -18 -3
-18 11 -36 12 -43 2 -3 -5 -10 -9 -16 -9 -21 0 14 29 48 40 19 7 31 16 28 22
-4 6 -10 5 -16 -3 -8 -11 -9 -11 -5 1 2 8 15 15 28 16 42 1 50 4 44 14 -3 6 0
10 7 11 7 0 4 4 -7 9 -31 13 -96 11 -132 -5z"/>
<path d="M2250 1720 c0 -4 6 -12 13 -18 10 -8 13 -6 13 7 0 10 -6 18 -13 18
-7 0 -13 -4 -13 -7z"/>
<path d="M214 1273 c2 -10 7 -38 11 -63 48 -334 279 -645 590 -796 50 -24 96
-44 101 -44 5 0 9 38 10 84 l0 85 -40 17 c-74 33 -171 102 -245 175 -127 127
-215 287 -249 451 -16 73 -18 78 -43 78 -14 0 -48 7 -75 15 -62 19 -66 19 -60
-2z"/>
<path d="M464 1272 l-51 -14 13 -63 c51 -243 224 -472 447 -591 l61 -32 28 44
c15 25 28 47 28 49 0 3 -19 14 -42 26 -150 76 -286 213 -354 356 -27 58 -61
162 -66 205 -2 15 -6 29 -8 31 -3 2 -28 -3 -56 -11z"/>
<path d="M2046 1273 c-3 -8 -6 -24 -6 -36 0 -24 -48 -166 -70 -207 -72 -137
-202 -265 -338 -334 l-52 -26 28 -49 27 -49 65 34 c126 66 258 190 337 317 58
93 135 319 112 332 -4 3 -28 12 -53 19 -39 12 -46 12 -50 -1z"/>
<path d="M2305 1275 c-22 -8 -56 -14 -76 -14 -36 -1 -37 -2 -43 -50 -3 -27
-17 -79 -30 -117 -76 -225 -237 -416 -441 -523 l-59 -32 -1 -84 c0 -99 -7 -97
120 -32 255 132 457 370 535 631 33 113 56 237 42 235 -4 -1 -25 -7 -47 -14z"/>
</g>
</svg>
