<?xml version="1.0" encoding="utf-8"?>
<!-- Generator: Adobe Illustrator 22.1.0, SVG Export Plug-In . SVG Version: 6.00 Build 0)  -->
<svg version="1.1"
	 id="svg2" inkscape:export-filename="C:\Users\u0094799\Documents\Icons\microscope_icon.png" inkscape:export-xdpi="10.55" inkscape:export-ydpi="10.55" inkscape:version="0.48.1 " sodipodi:docname="microscope.svg" xmlns:cc="http://creativecommons.org/ns#" xmlns:dc="http://purl.org/dc/elements/1.1/" xmlns:inkscape="http://www.inkscape.org/namespaces/inkscape" xmlns:rdf="http://www.w3.org/1999/02/22-rdf-syntax-ns#" xmlns:sodipodi="http://sodipodi.sourceforge.net/DTD/sodipodi-0.dtd" xmlns:svg="http://www.w3.org/2000/svg"
	 xmlns="http://www.w3.org/2000/svg" xmlns:xlink="http://www.w3.org/1999/xlink" x="0px" y="0px" viewBox="0 0 276 276"
	 style="enable-background:new 0 0 276 276;" xml:space="preserve">
<style type="text/css">
	.st0{fill:none;stroke:#0E8843;stroke-width:8;stroke-miterlimit:10;}
	.st1{fill:none;stroke:#3D3E3D;stroke-width:8;stroke-miterlimit:10;}
</style>
<sodipodi:namedview  bordercolor="#666666" borderopacity="1" gridtolerance="10" guidetolerance="10" id="namedview4" inkscape:current-layer="svg2" inkscape:cx="160.37256" inkscape:cy="112.2927" inkscape:pageopacity="0" inkscape:pageshadow="2" inkscape:window-height="706" inkscape:window-maximized="1" inkscape:window-width="1366" inkscape:window-x="-8" inkscape:window-y="-8" inkscape:zoom="1.4418349" objecttolerance="10" pagecolor="#ffffff" showgrid="false">
	</sodipodi:namedview>
<path id="path2991" inkscape:connector-curvature="0" sodipodi:nodetypes="sssss" class="st0" d="M152.2,110.8
	c-9.2-4.9-12.8-16-8.1-24.8c4.9-9.2,16-12.8,24.8-8.1c9.2,4.9,12.8,16,8.1,24.8C172,111.9,160.9,115.5,152.2,110.8z"/>
<path id="path2989" inkscape:connector-curvature="0" class="st1" d="M43.8,270.1c-0.4-0.4-0.8-5.4-0.8-11c0-12.1,2.8-19.1,9.3-23.5
	c3.9-2.7,4.5-2.7,44.8-2.7h40.7v-14.2v-14.2h11.3c10.5,0,11.5-0.2,14.2-2.9c2.7-2.7,2.9-3.8,2.9-14.1v-11.2l3.5-0.7
	c2-0.4,5.4-2.8,7.7-5.4c8.4-9.2,10.2-26.6,4.1-39l-3.1-6.2l6.2-6.2c10.3-10.3,13-25,7-37.3c-1.4-2.7-2.2-5-1.9-5
	c0.3,0,3.6,1.9,7.4,4.2c15.1,9.1,27.7,26.8,32.8,45.7c2.8,10.4,2.8,32.1,0,42.7c-4.6,17.3-16.5,34.7-30.1,44l-5.1,3.5v8.2v8.2h11.4
	c13.2,0,17.9,1.7,22.8,8.1c2.9,3.8,3.2,5.2,3.6,17L233,271h-94.2C87,271,44.2,270.7,43.8,270.1L43.8,270.1z M62,185.5V176h47.5h47.5
	v9.5v9.5h-47.5H62V185.5z M95.4,151.9l-5-5.1v-14.2v-14.2l-4.8-4.7l-4.8-4.7V80.4V51.9l4.8-4.7c4.8-4.7,4.8-4.7,4.8-13.9
	c0-9-0.1-9.2-2.9-9.2c-4.7,0-6.6-3-6.6-10c0-3.4,0.6-6.9,1.5-7.6c2-2,52.2-2,54.1,0c0.8,0.8,1.5,4.5,1.5,8.3c0,7.3-1.6,9.3-7.1,9.3
	c-2.3,0-2.5,0.7-2.5,9.2c0,9.2,0,9.2,4.8,13.9l4.8,4.7v10c0,8.7-0.3,10.4-2.9,13.8c-6.6,8.7-8.3,21-4.2,31.8c2.4,6.1,2.4,6.2,0,8.7
	c-2.1,2.2-2.4,4.2-2.4,16.7v14.2l-5.1,5c-5.1,5-5.1,5-14,5h-8.9C100.4,157,95.4,151.9,95.4,151.9z"/>
</svg>
