<svg xmlns="http://www.w3.org/2000/svg" xmlns:xlink="http://www.w3.org/1999/xlink" viewBox="0 0 45.59 45.41"><defs><style>.cls-1{isolation:isolate;}.cls-2{fill:url(#linear-gradient);}.cls-3{fill:url(#linear-gradient-2);}.cls-4{opacity:0.25;fill:url(#linear-gradient-3);}.cls-5{mix-blend-mode:multiply;}.cls-6{fill:#fff;}.cls-7{fill:#f5f3f1;}.cls-8{fill:#edeae8;}.cls-9{fill:#e7e3e0;}.cls-10{fill:#e1dcd8;}.cls-11{fill:#dbd4d0;}.cls-12{fill:#d5cec9;}.cls-13{fill:#cfc7c2;}.cls-14{fill:#cac1bb;}.cls-15{fill:#c5bbb5;}.cls-16{fill:#c0b5ae;}.cls-17{fill:#bbb0a8;}.cls-18{fill:#b6aaa2;}.cls-19{fill:#b1a49c;}.cls-20{fill:#ac9f96;}.cls-21{fill:#a79a90;}.cls-22{fill:#a3948b;}.cls-23{fill:#9e8f85;}.cls-24{fill:#9a8b80;}.cls-25{fill:#95867b;}.cls-26{fill:#918176;}.cls-27{fill:#8d7d72;}.cls-28{fill:url(#linear-gradient-4);}.cls-29{fill:url(#linear-gradient-5);}.cls-30{fill:url(#linear-gradient-6);}.cls-31{fill:#9e8165;}.cls-32{fill:#a2856a;}.cls-33{fill:#a58a6f;}.cls-34{fill:#a98e75;}.cls-35{fill:#ad937a;}.cls-36{fill:#b19880;}.cls-37{fill:#b59d86;}.cls-38{fill:#b9a28c;}.cls-39{fill:#bda892;}.cls-40{fill:#c1ad99;}.cls-41{fill:#c5b3a0;}.cls-42{fill:#c9b8a7;}.cls-43{fill:#cebeae;}.cls-44{fill:#d2c4b5;}.cls-45{fill:#d7cabd;}.cls-46{fill:#dbd0c5;}.cls-47{fill:#e0d6cc;}.cls-48{fill:#e5ddd5;}.cls-49{fill:#eae4dd;}.cls-50{fill:#f0ebe7;}.cls-51{fill:#f6f3f1;}</style><linearGradient id="linear-gradient" x1="23.93" y1="49.81" x2="23.93" y2="-23.24" gradientUnits="userSpaceOnUse"><stop offset="0.05" stop-color="#79797a"/><stop offset="0.56" stop-color="#404040"/><stop offset="1" stop-color="#393a3a"/></linearGradient><linearGradient id="linear-gradient-2" x1="23.94" y1="1.74" x2="23.94" y2="45.89" gradientUnits="userSpaceOnUse"><stop offset="0.05" stop-color="#575758"/><stop offset="0.25" stop-color="#525252"/><stop offset="0.56" stop-color="#404040"/><stop offset="1" stop-color="#393a3a"/></linearGradient><linearGradient id="linear-gradient-3" x1="23.94" y1="1.26" x2="23.94" y2="44.89" gradientUnits="userSpaceOnUse"><stop offset="0" stop-color="#74cbca"/><stop offset="0.84" stop-color="#41a1d2"/><stop offset="1" stop-color="#3799d4"/></linearGradient><linearGradient id="linear-gradient-4" x1="23.94" y1="-14.6" x2="23.94" y2="92.75" gradientUnits="userSpaceOnUse"><stop offset="0.05" stop-color="#616262"/><stop offset="0.35" stop-color="#555a5a"/><stop offset="0.39" stop-color="#515656"/><stop offset="0.43" stop-color="#474a49"/><stop offset="0.46" stop-color="#3a3b3a"/></linearGradient><linearGradient id="linear-gradient-5" x1="23.94" y1="-6.09" x2="23.94" y2="95.96" gradientUnits="userSpaceOnUse"><stop offset="0.05" stop-color="#5c5d5d"/><stop offset="0.25" stop-color="#555757"/><stop offset="0.35" stop-color="#505353"/><stop offset="0.4" stop-color="#4d4f4f"/><stop offset="0.45" stop-color="#434342"/><stop offset="0.46" stop-color="#40403f"/><stop offset="0.56" stop-color="#3d3d3d"/><stop offset="1" stop-color="#393a3a"/></linearGradient><linearGradient id="linear-gradient-6" x1="23.94" y1="2.21" x2="23.94" y2="99.06" xlink:href="#linear-gradient-2"/></defs><title>red_on</title><g class="cls-1"><g id="Layer_1" data-name="Layer 1"><path class="cls-2" d="M23.93,46.09A22.71,22.71,0,1,1,46.72,23.38,22.76,22.76,0,0,1,23.93,46.09Z" transform="translate(-1.13 -0.68)"/><path class="cls-3" d="M46,23.43a22,22,0,1,1-22-22A22,22,0,0,1,46,23.43Z" transform="translate(-1.13 -0.68)"/><path class="cls-4" d="M46,23.43a22,22,0,1,1-22-22A22,22,0,0,1,46,23.43Z" transform="translate(-1.13 -0.68)"/><g class="cls-5"><path class="cls-6" d="M23.86,43.64A19.34,19.34,0,1,1,43.2,24.3,19.33,19.33,0,0,1,23.86,43.64Z" transform="translate(-1.13 -0.68)"/><path class="cls-7" d="M23.87,43.56a19.3,19.3,0,1,1,19.3-19.3A19.3,19.3,0,0,1,23.87,43.56Z" transform="translate(-1.13 -0.68)"/><path class="cls-8" d="M23.87,43.47A19.26,19.26,0,1,1,43.13,24.21,19.26,19.26,0,0,1,23.87,43.47Z" transform="translate(-1.13 -0.68)"/><path class="cls-9" d="M23.87,43.39A19.23,19.23,0,1,1,43.1,24.17,19.23,19.23,0,0,1,23.87,43.39Z" transform="translate(-1.13 -0.68)"/><path class="cls-10" d="M23.88,43.31A19.19,19.19,0,1,1,43.07,24.12,19.19,19.19,0,0,1,23.88,43.31Z" transform="translate(-1.13 -0.68)"/><path class="cls-11" d="M23.88,43.23A19.15,19.15,0,1,1,43,24.08,19.15,19.15,0,0,1,23.88,43.23Z" transform="translate(-1.13 -0.68)"/><path class="cls-12" d="M23.89,43.14A19.11,19.11,0,1,1,43,24,19.1,19.1,0,0,1,23.89,43.14Z" transform="translate(-1.13 -0.68)"/><path class="cls-13" d="M23.89,43.06A19.08,19.08,0,1,1,43,24,19.07,19.07,0,0,1,23.89,43.06Z" transform="translate(-1.13 -0.68)"/><path class="cls-14" d="M23.9,43a19,19,0,1,1,19-19A19,19,0,0,1,23.9,43Z" transform="translate(-1.13 -0.68)"/><path class="cls-15" d="M23.9,42.9a19,19,0,1,1,19-19A19,19,0,0,1,23.9,42.9Z" transform="translate(-1.13 -0.68)"/><path class="cls-16" d="M23.91,42.82a19,19,0,1,1,19-19A19,19,0,0,1,23.91,42.82Z" transform="translate(-1.13 -0.68)"/><path class="cls-17" d="M23.91,42.73A18.92,18.92,0,1,1,42.84,23.81,18.92,18.92,0,0,1,23.91,42.73Z" transform="translate(-1.13 -0.68)"/><path class="cls-18" d="M23.92,42.65A18.89,18.89,0,1,1,42.8,23.76,18.89,18.89,0,0,1,23.92,42.65Z" transform="translate(-1.13 -0.68)"/><path class="cls-19" d="M23.92,42.57A18.85,18.85,0,1,1,42.77,23.72,18.85,18.85,0,0,1,23.92,42.57Z" transform="translate(-1.13 -0.68)"/><path class="cls-20" d="M23.92,42.49A18.82,18.82,0,1,1,42.74,23.68,18.82,18.82,0,0,1,23.92,42.49Z" transform="translate(-1.13 -0.68)"/><path class="cls-21" d="M23.93,42.4A18.77,18.77,0,1,1,42.7,23.63,18.77,18.77,0,0,1,23.93,42.4Z" transform="translate(-1.13 -0.68)"/><path class="cls-22" d="M23.93,42.32A18.74,18.74,0,1,1,42.67,23.59,18.74,18.74,0,0,1,23.93,42.32Z" transform="translate(-1.13 -0.68)"/><path class="cls-23" d="M23.94,42.24a18.7,18.7,0,1,1,18.7-18.7A18.7,18.7,0,0,1,23.94,42.24Z" transform="translate(-1.13 -0.68)"/><path class="cls-24" d="M23.94,42.16A18.67,18.67,0,1,1,42.6,23.5,18.67,18.67,0,0,1,23.94,42.16Z" transform="translate(-1.13 -0.68)"/><path class="cls-25" d="M24,42.07A18.62,18.62,0,1,1,42.57,23.45,18.62,18.62,0,0,1,24,42.07Z" transform="translate(-1.13 -0.68)"/><path class="cls-26" d="M24,42A18.59,18.59,0,1,1,42.54,23.41,18.58,18.58,0,0,1,24,42Z" transform="translate(-1.13 -0.68)"/><path class="cls-27" d="M24,41.91A18.55,18.55,0,1,1,42.5,23.36,18.54,18.54,0,0,1,24,41.91Z" transform="translate(-1.13 -0.68)"/></g><path class="cls-28" d="M42.43,23.43A18.49,18.49,0,1,1,23.94,4.94,18.48,18.48,0,0,1,42.43,23.43Z" transform="translate(-1.13 -0.68)"/><path class="cls-29" d="M42.19,23.43A18.25,18.25,0,1,1,23.94,5.17,18.25,18.25,0,0,1,42.19,23.43Z" transform="translate(-1.13 -0.68)"/><path class="cls-30" d="M42,23.43a18,18,0,1,1-18-18A18,18,0,0,1,42,23.43Z" transform="translate(-1.13 -0.68)"/><g class="cls-5"><path class="cls-31" d="M23.93,45.38A22,22,0,1,1,46,23.38,22,22,0,0,1,23.93,45.38Z" transform="translate(-1.13 -0.68)"/><path class="cls-32" d="M23.93,45.35A21.94,21.94,0,1,1,46,23.41,22,22,0,0,1,23.93,45.35Z" transform="translate(-1.13 -0.68)"/><path class="cls-33" d="M23.94,45.31a21.87,21.87,0,1,1,22-21.87A21.92,21.92,0,0,1,23.94,45.31Z" transform="translate(-1.13 -0.68)"/><path class="cls-34" d="M24,45.28A21.81,21.81,0,1,1,45.88,23.47,21.87,21.87,0,0,1,24,45.28Z" transform="translate(-1.13 -0.68)"/><path class="cls-35" d="M24,45.24A21.75,21.75,0,1,1,45.84,23.5,21.8,21.8,0,0,1,24,45.24Z" transform="translate(-1.13 -0.68)"/><path class="cls-36" d="M24,45.21A21.69,21.69,0,1,1,45.79,23.52,21.76,21.76,0,0,1,24,45.21Z" transform="translate(-1.13 -0.68)"/><path class="cls-37" d="M24,45.17A21.62,21.62,0,1,1,45.75,23.55,21.7,21.7,0,0,1,24,45.17Z" transform="translate(-1.13 -0.68)"/><path class="cls-38" d="M24,45.14A21.56,21.56,0,1,1,45.71,23.58,21.64,21.64,0,0,1,24,45.14Z" transform="translate(-1.13 -0.68)"/><path class="cls-39" d="M24,45.11a21.5,21.5,0,1,1,21.67-21.5A21.6,21.6,0,0,1,24,45.11Z" transform="translate(-1.13 -0.68)"/><path class="cls-40" d="M24,45.07A21.44,21.44,0,1,1,45.62,23.63,21.53,21.53,0,0,1,24,45.07Z" transform="translate(-1.13 -0.68)"/><path class="cls-41" d="M24,45A21.38,21.38,0,1,1,45.58,23.66,21.48,21.48,0,0,1,24,45Z" transform="translate(-1.13 -0.68)"/><path class="cls-42" d="M24,45A21.31,21.31,0,1,1,45.53,23.69,21.42,21.42,0,0,1,24,45Z" transform="translate(-1.13 -0.68)"/><path class="cls-43" d="M24,45A21.25,21.25,0,1,1,45.49,23.72,21.36,21.36,0,0,1,24,45Z" transform="translate(-1.13 -0.68)"/><path class="cls-44" d="M24,44.93A21.19,21.19,0,1,1,45.45,23.75,21.3,21.3,0,0,1,24,44.93Z" transform="translate(-1.13 -0.68)"/><path class="cls-45" d="M24,44.9A21.25,21.25,0,0,1,2.67,23.77a21.37,21.37,0,0,1,42.73,0A21.24,21.24,0,0,1,24,44.9Z" transform="translate(-1.13 -0.68)"/><path class="cls-46" d="M24,44.87A21.19,21.19,0,0,1,2.73,23.8,21.19,21.19,0,0,1,24,2.74,21.19,21.19,0,0,1,45.36,23.8,21.2,21.2,0,0,1,24,44.87Z" transform="translate(-1.13 -0.68)"/><path class="cls-47" d="M24.05,44.83a21.13,21.13,0,0,1-21.26-21,21.13,21.13,0,0,1,21.26-21,21.13,21.13,0,0,1,21.27,21A21.13,21.13,0,0,1,24.05,44.83Z" transform="translate(-1.13 -0.68)"/><path class="cls-48" d="M24.06,44.8A21.08,21.08,0,0,1,2.85,23.86,21.07,21.07,0,0,1,24.06,2.92,21.07,21.07,0,0,1,45.27,23.86,21.08,21.08,0,0,1,24.06,44.8Z" transform="translate(-1.13 -0.68)"/><path class="cls-49" d="M24.07,44.76A21,21,0,0,1,2.91,23.89,21,21,0,0,1,24.07,3,21,21,0,0,1,45.23,23.89,21,21,0,0,1,24.07,44.76Z" transform="translate(-1.13 -0.68)"/><path class="cls-50" d="M24.08,44.73A21,21,0,0,1,3,23.91,21,21,0,0,1,24.08,3.1,21,21,0,0,1,45.19,23.91,21,21,0,0,1,24.08,44.73Z" transform="translate(-1.13 -0.68)"/><path class="cls-51" d="M24.08,44.69A20.9,20.9,0,0,1,3,23.94a20.9,20.9,0,0,1,21-20.75A20.91,20.91,0,0,1,45.14,23.94,20.91,20.91,0,0,1,24.08,44.69Z" transform="translate(-1.13 -0.68)"/><path class="cls-6" d="M24.09,44.66A20.84,20.84,0,0,1,3.09,24a20.84,20.84,0,0,1,21-20.69A20.85,20.85,0,0,1,45.1,24,20.85,20.85,0,0,1,24.09,44.66Z" transform="translate(-1.13 -0.68)"/></g></g></g></svg>