<svg xmlns="http://www.w3.org/2000/svg" xmlns:xlink="http://www.w3.org/1999/xlink" version="1.1" id="Layer_1" x="0px" y="0px" viewBox="0 0 1000 1000" style="enable-background:new 0 0 1000 1000;" xml:space="preserve" width="100%" height="100%">
<style type="text/css">
	.st0{fill:#0E8843;}
</style>
<path class="st0" d="M816.7,616.7C751.7,616.7,700,565,700,500s51.7-116.7,116.7-116.7S933.3,435,933.3,500S881.7,616.7,816.7,616.7  z M816.7,416.7c-46.7,0-83.3,36.7-83.3,83.3s36.7,83.3,83.3,83.3c46.7,0,83.3-36.7,83.3-83.3S863.3,416.7,816.7,416.7z" style="stroke-dasharray: 1259px, 1263px; stroke-dashoffset: 0px;"></path>
<path class="st0" d="M833.3,483.3c10,0,16.7,6.7,16.7,16.7s-6.7,16.7-16.7,16.7s-16.7-6.7-16.7-16.7S823.3,483.3,833.3,483.3" style="stroke-dasharray: 107px, 111px; stroke-dashoffset: 0px;"></path>
<path class="st0" d="M883.3,450c10,0,16.7,6.7,16.7,16.7s-6.7,16.7-16.7,16.7s-16.7-6.7-16.7-16.7C866.7,456.7,873.3,450,883.3,450" style="stroke-dasharray: 107px, 111px; stroke-dashoffset: 0px;"></path>
<path class="st0" d="M883.3,516.7c10,0,16.7,6.7,16.7,16.7s-6.7,16.7-16.7,16.7s-16.7-6.7-16.7-16.7S873.3,516.7,883.3,516.7" style="stroke-dasharray: 107px, 111px; stroke-dashoffset: 0px;"></path>
<path class="st0" d="M833.3,416.7c10,0,16.7,6.7,16.7,16.7s-6.7,16.7-16.7,16.7s-16.7-6.7-16.7-16.7  C816.7,423.3,823.3,416.7,833.3,416.7" style="stroke-dasharray: 107px, 111px; stroke-dashoffset: 0px;"></path>
<path class="st0" d="M833.3,550c10,0,16.7,6.7,16.7,16.7s-6.7,16.7-16.7,16.7s-16.7-6.7-16.7-16.7C816.7,556.7,823.3,550,833.3,550" style="stroke-dasharray: 107px, 111px; stroke-dashoffset: 0px;"></path>
<path class="st0" d="M816.7,683.3H200c-36.7,0-66.7-30-66.7-66.7s30-66.7,66.7-66.7h100c28.3,0,50-21.7,50-50s-21.7-50-50-50H150  c-36.7,0-66.7-30-66.7-66.7s30-66.7,66.7-66.7h666.7c101.7,0,183.3,81.7,183.3,183.3S918.3,683.3,816.7,683.3z M200,583.3  c-18.3,0-33.3,15-33.3,33.3s15,33.3,33.3,33.3h616.7c83.3,0,150-66.7,150-150s-66.7-150-150-150H150c-18.3,0-33.3,15-33.3,33.3  s15,33.3,33.3,33.3h150c46.7,0,83.3,36.7,83.3,83.3s-36.7,83.3-83.3,83.3L200,583.3L200,583.3z" style="stroke-dasharray: 5163px, 5167px; stroke-dashoffset: 0px;"></path>
<path class="st0" d="M533.3,483.3c10,0,16.7,6.7,16.7,16.7s-6.7,16.7-16.7,16.7s-16.7-6.7-16.7-16.7S523.3,483.3,533.3,483.3" style="stroke-dasharray: 107px, 111px; stroke-dashoffset: 0px;"></path>
<path class="st0" d="M466.7,516.7h-33.3c-10,0-16.7-6.7-16.7-16.7s6.7-16.7,16.7-16.7h33.3c10,0,16.7,6.7,16.7,16.7  S476.7,516.7,466.7,516.7z" style="stroke-dasharray: 173px, 177px; stroke-dashoffset: 0px;"></path>
<path class="st0" d="M650,516.7h-50c-10,0-16.7-6.7-16.7-16.7s6.7-16.7,16.7-16.7h50c10,0,16.7,6.7,16.7,16.7S660,516.7,650,516.7z" style="stroke-dasharray: 207px, 211px; stroke-dashoffset: 0px;"></path>
<path class="st0" d="M533.3,433.3H400c-10,0-16.7-6.7-16.7-16.7S390,400,400,400h133.3c10,0,16.7,6.7,16.7,16.7  C550,426.7,543.3,433.3,533.3,433.3z" style="stroke-dasharray: 373px, 377px; stroke-dashoffset: 0px;"></path>
<path class="st0" d="M633.3,433.3H600c-10,0-16.7-6.7-16.7-16.7S590,400,600,400h33.3c10,0,16.7,6.7,16.7,16.7  C650,426.7,643.3,433.3,633.3,433.3z" style="stroke-dasharray: 173px, 177px; stroke-dashoffset: 0px;"></path>
<path class="st0" d="M633.3,600H500c-10,0-16.7-6.7-16.7-16.7s6.7-16.7,16.7-16.7h133.3c10,0,16.7,6.7,16.7,16.7  S643.3,600,633.3,600z" style="stroke-dasharray: 373px, 377px; stroke-dashoffset: 0px;"></path>
<path class="st0" d="M433.3,600H400c-10,0-16.7-6.7-16.7-16.7s6.7-16.7,16.7-16.7h33.3c10,0,16.7,6.7,16.7,16.7S443.3,600,433.3,600  z" style="stroke-dasharray: 173px, 177px; stroke-dashoffset: 0px;"></path>
<path class="st0" d="M866.7,100c0,10-6.7,16.7-16.7,16.7s-16.7-6.7-16.7-16.7S840,83.3,850,83.3S866.7,90,866.7,100" style="stroke-dasharray: 107px, 111px; stroke-dashoffset: 0px;"></path>
<path class="st0" d="M566.7,816.7c0,10-6.7,16.7-16.7,16.7s-16.7-6.7-16.7-16.7S540,800,550,800S566.7,806.7,566.7,816.7" style="stroke-dasharray: 107px, 111px; stroke-dashoffset: 0px;"></path>
<path class="st0" d="M350,200c0,10-6.7,16.7-16.7,16.7s-16.7-6.7-16.7-16.7s6.7-16.7,16.7-16.7S350,190,350,200" style="stroke-dasharray: 107px, 111px; stroke-dashoffset: 0px;"></path>
<path class="st0" d="M36.3,883.3c0,10-6.7,16.7-16.7,16.7S3,893.3,3,883.3s6.7-16.7,16.7-16.7S36.3,873.3,36.3,883.3" style="stroke-dasharray: 107px, 111px; stroke-dashoffset: 0px;"></path>
<path class="st0" d="M186.3,83.3h-26.7l-40-40V16.7C119.7,6.7,113,0,103,0S86.3,6.7,86.3,16.7v26.7l-40,40H19.7C9.7,83.3,3,90,3,100  s6.7,16.7,16.7,16.7h26.7l40,40v26.7c0,10,6.7,16.7,16.7,16.7s16.7-6.7,16.7-16.7v-26.7l40-40h26.7c10,0,16.7-6.7,16.7-16.7  S196.3,83.3,186.3,83.3z M103,126.7L76.3,100L103,73.3l26.7,26.7L103,126.7z" style="stroke-dasharray: 804px, 808px; stroke-dashoffset: 0px;"></path>
<path class="st0" d="M916.7,1000c-10,0-16.7-6.7-16.7-16.7c0-28.3-21.7-50-50-50c-10,0-16.7-6.7-16.7-16.7S840,900,850,900  c28.3,0,50-21.7,50-50c0-10,6.7-16.7,16.7-16.7s16.7,6.7,16.7,16.7c0,28.3,21.7,50,50,50c10,0,16.7,6.7,16.7,16.7  s-6.7,16.7-16.7,16.7c-28.3,0-50,21.7-50,50C933.3,993.3,926.7,1000,916.7,1000z M900,916.7c6.7,5,11.7,10,16.7,16.7  c5-6.7,10-11.7,16.7-16.7c-6.7-5-11.7-10-16.7-16.7C911.7,906.7,906.7,911.7,900,916.7z" style="stroke-dasharray: 623px, 627px; stroke-dashoffset: 0px;"></path>
</svg>
