<svg xmlns="http://www.w3.org/2000/svg" xmlns:xlink="http://www.w3.org/1999/xlink" version="1.1" id="Layer_1" x="0px" y="0px" viewBox="0 0 1000 1000" style="enable-background:new 0 0 1000 1000;" xml:space="preserve" width="100%" height="100%">
<style type="text/css">
	.st0{fill:#0D8843;}
	.st1{fill:#D3DADC;}
	.st2{fill:#D36447;}
	.st3{fill:#138843;}
</style>
<path class="st0" d="M192.5,796.2A16.8,16.8 0,1,1 226.10000000000002,796.2A16.8,16.8 0,1,1 192.5,796.2" style="stroke-dasharray: 106px, 110px; stroke-dashoffset: 0px;"></path>
<path class="st0" d="M920.3,679.6c-14.6-33-53.2-48-86.2-33.4c-0.1,0-0.2,0.1-0.3,0.1l-108.6,50.1c-8.4,3.9-12.1,13.9-8.2,22.3  c3.9,8.4,13.9,12.1,22.3,8.2l108.5-50c16-7,34.6,0.3,41.7,16.2c3.4,7.7,3.6,16.4,0.6,24.3s-9,14.1-16.8,17.5L651,833.1  c-35.2,15.5-75.1,14.6-109.5-2.5l-81.4-40.4c-43.4-21.6-93.8-22.7-138.1-3.1l-1.4,0.6l-60.7-137.4l84.2-37.2  c40.2-17.7,85-19.2,126.2-4L634,669.2c14.8,5.4,22.7,22,17.6,37c-5.2,15.2-21.8,23.4-37.1,18.3L488,681.6c-8.8-3-18.4,1.7-21.4,10.6  s1.7,18.4,10.6,21.4l126.6,42.8c6.7,2.3,13.4,3.3,20.1,3.3c26.2,0,50.7-16.5,59.7-42.6c11-32.1-6-67.8-37.9-79.5L482,577.5  c-49.5-18.2-103.3-16.4-151.5,4.8l-84.8,37.5c-4.8-7.3-11.7-13-20-16.2c-10.5-4.1-22.1-3.8-32.4,0.7L85,652.2  c-6.1,2.7-10,8.7-10,15.4l-0.8,293c0,5.9,3,11.3,8,14.4c2.7,1.7,5.8,2.5,8.8,2.5c2.6,0,5.2-0.6,7.6-1.8l211.9-107.1  c10.1-4.6,17.9-12.8,21.9-23.2c3.3-8.6,3.8-17.8,1.3-26.6l1.8-0.8c35.2-15.5,75.1-14.6,109.5,2.5l81.4,40.4  c43.4,21.6,93.8,22.7,138.1,3.1l222.3-98.2C919.9,751.2,934.9,712.6,920.3,679.6z M301,833.1c-0.8,2.2-2.5,3.9-4.6,4.8  c-0.3,0.1-188.6,95.2-188.6,95.2l0.2-72.4l48.8-24c8.4-4.1,11.8-14.2,7.7-22.5c-4.1-8.4-14.2-11.8-22.5-7.7l-33.8,16.6l0.4-144.6  l98.3-43.4c2.1-0.9,4.5-1,6.6-0.2c2.2,0.8,3.9,2.5,4.8,4.6l82.5,186.9C301.8,828.6,301.8,831,301,833.1z" style="stroke-dasharray: 5091px, 5095px; stroke-dashoffset: 0px;"></path>
<g>
	<path class="st0" d="M603.4,217.3c0-5.6,0.5-11.1,1.6-16.5h-44c-7.6-34.6-38.4-60.5-75.2-60.5c-42.5,0-77,34.5-77,77s34.5,77,77,77   c36.9,0,67.7-25.9,75.2-60.5h44C604,228.4,603.4,222.9,603.4,217.3 M485.7,267.7c-27.9,0-50.4-22.6-50.4-50.4   c0-27.9,22.6-50.4,50.4-50.4c27.9,0,50.4,22.6,50.4,50.4C536.2,245.1,513.6,267.7,485.7,267.7" style="stroke-dasharray: 889px, 893px; stroke-dashoffset: 0px;"></path>
	<path class="st0" d="M900.3,140.3c-36.9,0-67.7,25.9-75.2,60.5h-44h-54H659c-2.4,5-3.8,10.6-3.8,16.5s1.4,11.5,3.8,16.5h68.1H781   h44c7.6,34.6,38.4,60.5,75.2,60.5c42.5,0,77-34.5,77-77C977.3,174.7,942.8,140.3,900.3,140.3 M900.3,267.7   c-27.9,0-50.4-22.6-50.4-50.4c0-27.9,22.6-50.4,50.4-50.4c27.9,0,50.4,22.6,50.4,50.4S928.1,267.7,900.3,267.7" style="stroke-dasharray: 1134px, 1138px; stroke-dashoffset: 0px;"></path>
	<path class="st1" d="M709.5,412.8v-34.3v-44.8v-41.2c24.9-5.4,45.4-23,54.8-46.1h-30.1c-9.1,12.9-24.2,21.4-41.2,21.4   c-27.9,0-50.4-22.6-50.4-50.4c0-27.9,22.6-50.4,50.4-50.4c17,0,32.1,8.4,41.2,21.4h30.1c-11.5-28.1-39.1-47.9-71.3-47.9   c-42.5,0-77,34.5-77,77c0,36.9,25.9,67.7,60.5,75.2v41.2v44.8V413c-34.6,7.6-60.5,38.4-60.5,75.2c0,42.5,34.5,77,77,77   s77-34.5,77-77C770,451.1,744.1,420.3,709.5,412.8 M693,538.4c-27.9,0-50.4-22.6-50.4-50.4c0-27.9,22.6-50.4,50.4-50.4   c27.9,0,50.4,22.6,50.4,50.4C743.4,515.9,720.9,538.4,693,538.4" style="stroke-dasharray: 1715px, 1719px; stroke-dashoffset: 0px;"></path>
	<path class="st1" d="M522.1,192.9l-1.3,0.4l-7,0.6l-2,3.1l-1.4-0.4l-5.5-5l-0.8-2.6l-1.1-2.8l-3.5-3.1l-4.1-0.8l-0.1,1.9l4,3.9   l2,2.3l-2.2,1.2l-1.8-0.5l-2.7-1.1l0.1-2.2l-3.5-1.5l-1.2,5.1l-3.6,0.8l0.4,2.9l4.7,0.9l0.8-4.6l3.8,0.6l1.8,1h2.9l2,3.9l5.2,5.3   l-0.4,2.1l-4.2-0.5l-7.3,3.7l-5.2,6.3l-0.7,2.8h-1.9l-3.5-1.6l-3.4,1.6l0.8,3.6l1.5-1.7l2.6-0.1l-0.2,3.2l2.1,0.6l2.1,2.4l3.5-1   l4,0.6l4.7,1.2l2.3,0.3l3.9,4.5l7.6,4.5l-4.9,9.4l-5.2,2.4l-2,5.4l-7.5,5l-0.8,2.9c19.2-4.6,33.5-21.9,33.5-42.5   C529.5,208.3,526.8,199.9,522.1,192.9" style="stroke-dasharray: 302px, 306px; stroke-dashoffset: 0px;"></path>
	<path class="st1" d="M490.8,240.1l-3.2-5.9l2.9-6.1l-2.9-0.9l-3.3-3.3l-7.3-1.6l-2.4-5.1v3h-1.1l-6.3-8.5v-7l-4.6-7.5l-7.3,1.3   h-4.9L448,197l3.2-2.5l-3.1,0.7c-3.8,6.5-6,14-6,22c0,24.2,19.6,43.8,43.7,43.8c1.9,0,3.7-0.2,5.5-0.4l-0.5-5.3c0,0,2-7.9,2-8.1   C492.8,246.9,490.8,240.1,490.8,240.1" style="stroke-dasharray: 206px, 210px; stroke-dashoffset: 0px;"></path>
	<path class="st1" d="M458.3,187.6l7.8-1.1l3.6-2l4,1.2l6.4-0.4l2.2-3.5l3.2,0.5l7.8-0.7l2.1-2.4l3-2l4.3,0.6l1.6-0.2   c-5.7-2.7-12-4.2-18.6-4.2c-13.6,0-25.7,6.2-33.7,15.9l0,0L458.3,187.6z M487.6,177.9l4.5-2.5l2.9,1.7l-4.2,3.2l-4,0.4l-1.8-1.2   L487.6,177.9z M474.4,178.2l2,0.8l2.6-0.8l1.4,2.4l-6,1.6l-2.9-1.7C471.5,180.6,474.3,178.8,474.4,178.2" style="stroke-dasharray: 159px, 163px; stroke-dashoffset: 0px;"></path>
	<path class="st1" d="M693,65.6c66.5,0,125.8,31.3,164,79.9c10.3-6.4,22.2-10.6,34.8-12.1C847.7,71.1,775,30.4,693,30.4   S538.4,71.1,494.2,133.3c12.8,1.3,24.7,5.4,35.1,11.7C567.6,96.7,626.7,65.6,693,65.6" style="stroke-dasharray: 917px, 921px; stroke-dashoffset: 0px;"></path>
	<path class="st0" d="M612.6,466.3c-67-28.1-116.3-90.2-126.2-164.6c-0.2,0-0.5,0-0.7,0c-12.7,0-24.7-2.8-35.5-7.8   c7.9,97,72.7,178.1,161,209.6c-0.9-5-1.4-10.2-1.4-15.4C609.8,480.5,610.8,473.2,612.6,466.3" style="stroke-dasharray: 572px, 576px; stroke-dashoffset: 0px;"></path>
	<path class="st0" d="M899.6,301.6c-9.8,73.6-58.2,135.2-124.1,163.8c2,7.2,3.1,14.8,3.1,22.6c0,5-0.5,9.8-1.3,14.5   c86.8-32.1,150.5-112.4,158.5-208.2c-10.5,4.7-22.1,7.3-34.3,7.3C900.8,301.7,900.2,301.6,899.6,301.6" style="stroke-dasharray: 566px, 570px; stroke-dashoffset: 0px;"></path>
	<path class="st1" d="M759.4,435.4c5.1,6.4,9.3,13.6,12.4,21.3c62.6-27.1,108.6-85.4,118.3-155.1c-8.3-1-16.3-3.3-23.8-6.5   C858.7,358.6,816.7,411.8,759.4,435.4" style="stroke-dasharray: 439px, 443px; stroke-dashoffset: 0px;"></path>
	<path class="st0" d="M554.6,167.7c31.9-41.6,82.1-68.4,138.5-68.4c56.3,0,106.5,26.8,138.5,68.4c4.9-6.7,10.7-12.6,17.2-17.6   C812.3,104.3,756.1,75,693.2,75c-63,0-119.2,29.4-155.7,75.2C543.9,155.1,549.7,161.1,554.6,167.7" style="stroke-dasharray: 727px, 731px; stroke-dashoffset: 0px;"></path>
	<path class="st1" d="M519.7,294.9c-7.5,3.3-15.5,5.6-23.7,6.6c9.7,69.7,55.7,128,118.3,155.1c3.1-7.7,7.3-14.8,12.4-21.3   C569.4,411.7,527.4,358.5,519.7,294.9" style="stroke-dasharray: 439px, 443px; stroke-dashoffset: 0px;"></path>
	<path class="st1" d="M943,215c-0.1-0.1,0-0.2,0-0.3c0-0.9,0-1.8-0.1-2.7c-0.3-2.6-0.9-5.1-1.6-7.5c-1.1-3.5-2.6-6.8-4.6-9.9   c-1.7-2.8-3.8-5.3-6.1-7.6c-0.7-0.7-1.5-1.4-2.3-2.1c-2.4-2.1-5-3.9-7.8-5.4c-2.6-1.4-5.3-2.5-8.1-3.3c-0.4-0.1-0.8-0.2-1.2-0.3   c-0.1,0-0.1,0-0.2,0c-2.5-0.6-5-1.1-7.6-1.2c-0.5,0-1,0-1.4-0.1h-3.1c-0.1,0.1-0.2,0-0.2,0c-1,0-1.9,0-2.9,0.1s-1.9,0.2-2.8,0.4   c0,0,0,0-0.1,0c-1,0.2-2.1,0.4-3.1,0.7c-3.6,0.9-7.1,2.3-10.3,4.2c-0.6,0.3-1.1,0.7-1.7,1h-0.1c-0.1,0-0.1,0.1-0.2,0.1   c-0.1,0-0.2,0.1-0.3,0.2c-0.1,0-0.1,0.1-0.2,0.1c-0.3,0.2-0.6,0.4-0.9,0.6c-1.8,1.3-3.5,2.6-5.2,4.2c-1.2,1.2-2.4,2.4-3.5,3.7   c-2.6,3.1-4.7,6.5-6.3,10.2c-1.4,3.1-2.3,6.2-2.9,9.5c-0.3,1.8-0.6,3.6-0.6,5.4v0.1c0.1-1.5,0.2-3,0.5-4.6v-0.1c0,0,0-0.1,0.1-0.1   h0.1c0,0.1,0.1,0.1,0,0.2c-0.1,0.4,0,0.8-0.1,1.2v0.1c-0.2,0.3-0.1,0.7,0,1c0.1,0.5-0.1,1.1,0,1.6c0,0.2,0,0.3,0,0.5   c0,0.1,0,0.2,0.1,0.3c0.3,0.4,0.4,0.9,0.5,1.4c0.1,0.6,0.2,1.2,0.2,1.8c0,0.4,0,0.8,0.1,1.1s-0.1,0.5-0.1,0.8   c-0.2,0.2-0.3,0.4-0.2,0.6c0,0.1,0,0.2-0.1,0.3c-0.1,0-0.1,0.1-0.1,0.2c0.1,0.1,0.1,0,0.2,0c0.1-0.1,0.1-0.1,0.1-0.3   c0-0.1,0-0.2,0.1-0.2s0.1,0.2,0.2,0.2c0.3,0.2,0.2,0.5,0.1,0.8c0,0.1-0.1,0.2-0.2,0.2c0,0.1,0.1,0.2,0.1,0.3   c0.1-0.1,0.2-0.3,0.2-0.4c0-0.1,0.1-0.2,0.2-0.1c0.1,0.1,0.1,0.2,0.2,0.2c0.2,0.3,0.3,0.6,0.5,1c0.1,0.2,0.2,0.5,0.2,0.7   s0,0.2,0.2,0.2c0.1,0,0.2,0.1,0.3,0.2c0.2,0.3,0.4,0.6,0.7,0.7c0.1,0.1,0.2,0.2,0.3,0.3c0.2,0.3,0.4,0.7,0.6,1   c0.1,0.3,0.3,0.6,0.4,0.8c0.1,0.1,0.2,0.3,0.3,0.3c0.2,0.1,0.3,0.2,0.4,0.4c0.2,0.6,0.3,1.2,0.4,1.9c0,0.5-0.1,1-0.4,1.4   c-0.1,0.2-0.1,0.4-0.2,0.6c0,0.2,0,0.5-0.2,0.7c-0.1,0.1,0,0.2,0,0.3c0.1,0.2,0.1,0.5,0.2,0.7c0.2,0.6,0.3,1.2,0.5,1.8   c0,0.1,0,0.2,0,0.3s0,0.3,0.1,0.4c0.1,0.3,0.2,0.6,0.2,0.9c0,0.2,0,0.5,0.1,0.7s-0.1,0.3,0,0.5c-0.2,0-0.2-0.1-0.3-0.1   s-0.1-0.2-0.2-0.1c-0.1,0.1-0.3,0.2-0.3,0.4c0.1,0.2,0.1,0.5,0.2,0.7c0.2,0.4,0.4,0.8,0.6,1.2c0.1,0.1,0.1,0.2,0.1,0.4   c-0.1,0-0.1-0.1-0.2-0.2c-2.5-4-4.4-8.3-5.5-13c-0.4-1.8-0.8-3.7-1-5.6c-0.1-0.9-0.2-1.8-0.2-2.7l0,0c0,0.9,0.1,1.8,0.1,2.7   c0.2,2.1,0.6,4.2,1.1,6.2c0.9,3.6,2.3,7,4.1,10.3c2.1,3.7,4.6,7,7.6,9.9c1.6,1.5,3.2,2.9,5,4.2c2.3,1.6,4.7,3.1,7.3,4.2   c2.7,1.2,5.4,2.1,8.3,2.7c1.9,0.4,3.9,0.8,5.9,0.8c0.4,0,0.9,0,1.3,0.1h4.3c0.1-0.1,0.2,0,0.3,0c1.1,0,2.2-0.1,3.2-0.2   c3.5-0.5,6.8-1.3,10-2.6c2.6-1,5.1-2.3,7.4-3.8c2.4-1.5,4.6-3.3,6.6-5.2c1.5-1.4,2.9-3,4.2-4.7c2-2.6,3.8-5.5,5.1-8.5   c1.2-2.6,2.1-5.4,2.8-8.2c0.4-1.9,0.8-3.7,0.8-5.6c0-0.5,0-1,0.1-1.5L943,215L943,215z M895.1,176.5c0.1,0,0,0.2-0.1,0.3   c-0.2,0.1-0.4,0.3-0.7,0.3c-0.4-0.1-0.8,0-1.2-0.1c-0.2,0-0.4,0-0.7-0.1c-0.2-0.1-0.5,0.1-0.7,0.1c-0.1,0-0.2,0-0.3,0   c-0.2,0-0.4-0.1-0.6,0c-0.1,0.1-0.3,0-0.4,0c0.2-0.1,0.3-0.4,0.5-0.4c0.1,0,0.2-0.1,0.1-0.2c0,0,0,0,0.1,0s0.1,0.1,0.2,0.2   c0.4,0,0.7,0.1,1-0.2c0.1-0.1,0.2-0.1,0.4-0.1c0.1,0,0.2,0,0.3,0c0.4-0.1,0.9-0.2,1.3-0.1c-0.1,0.1-0.1,0.1-0.2,0.1   c-0.1,0-0.2,0-0.3,0.1l0,0l0,0c-0.1,0-0.3,0-0.4,0.1c-0.1,0-0.1,0-0.1,0.1s0,0.1,0.1,0.2c0.1,0.1,0.1,0,0.3,0c-0.1,0-0.2,0-0.1-0.1   c0.1-0.1,0.2,0,0.2-0.2c0.2,0.1,0.4,0,0.7-0.1C894.8,176.1,895,176.3,895.1,176.5 M871.2,187.5c-0.1,0.1-0.2,0.2-0.2,0.2   c-0.2,0.1-0.3,0.3-0.4,0.5c-0.1,0.2-0.2,0.3-0.1,0.5c0.2-0.1,0.4-0.3,0.7-0.4c-0.2,0.2-0.3,0.3-0.4,0.5l-0.1,0.1   c-0.2,0-0.4,0.2-0.7,0.1c-0.2-0.1-0.4,0-0.6,0.1h-0.1c0.2-0.3,0.4-0.6,0.8-0.6c0.2,0,0-0.2,0.2-0.3c-0.5,0-0.9,0-1.3,0.3   c-0.2,0.2-0.4,0.4-0.6,0.6c-0.1,0.1-0.1,0.2-0.2,0c0-0.1-0.1,0-0.1,0c0,0.2-0.3,0.2-0.4,0.3c-0.1,0.1-0.2,0.3-0.4,0.3   c0-0.1,0.1-0.2,0.1-0.2c2-2.4,4.2-4.4,6.6-6.3c0,0,0,0,0.1,0s0,0.2,0.2,0.1c0.4-0.2,0.8-0.6,1.2-0.9c0.3-0.2,0.6-0.4,1-0.5   c0.5-0.2,1-0.5,1.4-0.8c0.3-0.2,0.7-0.5,1.1-0.6c0.5-0.2,0.9-0.4,1.4-0.7c0.1-0.1,0.2-0.1,0.3-0.1c-0.2,0.5-0.6,0.7-1,0.9   c0,0,0,0-0.1,0c-0.3,0.5-0.9,0.6-1.4,0.9c-0.2,0.2-0.4,0.4-0.6,0.5c0.4,0.1,0.7-0.2,1.1-0.2c-0.3,0.2-0.6,0.4-0.8,0.7   c-0.3,0.3-0.6,0.5-0.9,0.8c-0.2,0.2-0.4,0.2-0.5,0.3c-0.2,0.2-0.3,0.4-0.6,0.6c-0.1,0.1-0.2,0.3-0.2,0.5c0,0.1-0.1,0.2-0.1,0.2   c-0.3,0.1-0.4,0.3-0.5,0.6v0.1c-0.3,0.3-0.7,0.7-1.1,0.8h-0.1c-0.2-0.2-0.5,0-0.7,0c-0.3,0.1-0.3,0.1-0.3-0.2v-0.1   c-0.1-0.2,0-0.4-0.1-0.5s-0.3,0.1-0.4,0.1c-0.3,0-0.5,0.1-0.7,0.3c0.2,0,0.3-0.1,0.5,0c0.1,0,0.1,0.1,0.1,0.2   c-0.1,0.2-0.4,0.5-0.6,0.5c-0.1,0-0.1,0.1-0.1,0.1C871.5,187.3,871.3,187.4,871.2,187.5 M940.3,210.8c-0.1-0.4-0.3-0.8-0.4-1.2   c-0.1-0.2-0.2-0.4-0.4-0.7c0.1,0.4,0,0.8,0,1.1c0,0.1,0,0.2-0.1,0.2s-0.2,0.1-0.2-0.1c0-0.2-0.1-0.3-0.1-0.5c0-0.4-0.2-0.8-0.4-1.1   c0,0,0-0.1-0.1-0.1c-0.2-0.1-0.3-0.3-0.3-0.5c0-0.1-0.1-0.1-0.3-0.2c-0.1,0-0.3-0.2-0.4-0.4c-0.1-0.1-0.2-0.3-0.3-0.5   s-0.2-0.4-0.4-0.6c-0.2,0.1-0.2,0.2-0.1,0.4c0.1,0.1,0,0.2-0.1,0.4c0,0,0,0.1-0.1,0.1c-0.1,0.2-0.2,0.4-0.5,0.5   c-0.1,0-0.3,0.5-0.2,0.7c0,0.2,0.1,0.3,0.1,0.5c0,0.3,0.1,0.6-0.3,0.8v0.1c0,0.7-0.1,1.5-0.4,2.2c-0.1,0.2-0.1,0.3-0.1,0.5   c0.1,0.2,0,0.4-0.2,0.4c-0.2,0.1,0,0.4-0.2,0.5s-0.2,0.2-0.2,0.4s0,0.3,0.1,0.5c0.1,0.4,0.2,0.7,0.3,1.1c0.1,0.2,0.1,0.4,0,0.7   s-0.1,0.6,0.1,0.9c0,0.1,0.1,0.3,0.1,0.4c0,0.1,0,0.2-0.1,0.3l-0.1,0.1c-0.1,0.2,0,0.5-0.1,0.7s-0.2,0.4-0.3,0.7   c0,0.1,0,0.2-0.1,0.2c-0.1,0.2-0.2,0.2-0.4,0.1c-0.2-0.2-0.3-0.5-0.4-0.7c-0.2-0.6-0.4-1.1-0.8-1.6c-0.2-0.3-0.3-0.6-0.4-0.9   c-0.1-0.4-0.3-0.7-0.5-1s-0.5-0.7-0.6-1.1c-0.1-0.4-0.3-0.8-0.4-1.1c-0.1-0.4-0.3-0.7-0.4-1.1c-0.1-0.1-0.1-0.3-0.1-0.4   c0-0.2,0-0.4-0.2-0.6c0,0,0-0.1-0.1-0.1c-0.1-0.1,0.1-0.2-0.1-0.3c-0.1,0-0.1-0.2-0.2-0.3c-0.1,0.2-0.1,0.3,0,0.4   c0.1,0.2,0.1,0.4,0,0.5s-0.2,0.2-0.3,0.3s-0.3,0.2-0.4,0c-0.3-0.2-0.6-0.5-1-0.9c0.2,0,0.3-0.1,0.4-0.2c0.1-0.1,0.2-0.2,0.2-0.4   h-0.1c-0.1,0.1-0.2,0.2-0.4,0.2s-0.4-0.1-0.5-0.3c-0.1-0.1-0.2-0.2-0.4-0.2s-0.3-0.1-0.4-0.3c-0.1-0.1-0.1-0.3-0.3-0.3   c-0.1,0-0.1-0.1-0.1-0.1c-0.2-0.3-0.2-0.3-0.5-0.1c-0.2,0.1-0.4,0.1-0.6,0.3l0,0c-0.6-0.1-1,0.3-1.5,0.4c-0.1,0-0.3,0.1-0.4,0.1   c-0.3-0.1-0.6,0-1,0c-0.3,0-0.7,0-1,0c-0.1,0-0.3-0.1-0.3-0.2c0-0.2-0.1-0.3-0.2-0.4c-0.2-0.3-0.4-0.3-0.6-0.1   c-0.2,0-0.3,0.2-0.3,0.3c-0.2,0.2-0.3,0.2-0.6,0.2c-0.4,0-0.8-0.2-1.1-0.4c-0.1-0.1-0.3-0.1-0.5-0.2c-0.2,0-0.4-0.1-0.5-0.3   c-0.2-0.4-0.6-0.8-0.9-1.1c-0.1-0.1-0.1-0.1-0.2,0c-0.2,0.1-0.3,0-0.4-0.1c0,0,0.1-0.1,0-0.1s-0.1,0.1-0.1,0.1   c0,0.2-0.1,0.3-0.2,0.3c0,0-0.1,0-0.1,0.1c0.1,0.2-0.2,0.2-0.2,0.3c0.3,0.2,0.4,0.5,0.6,0.7c0.3,0.4,0.6,0.7,1,1   c0.2,0.1,0.3,0.3,0.3,0.6c0,0.1,0,0.2,0.1,0.2c0.2,0.2,0.3,0.4,0.5,0.6c0-0.2-0.1-0.5,0-0.7c0-0.1,0-0.2,0.1-0.2s0.2,0.1,0.2,0.1   c0,0.3,0.2,0.5,0.1,0.8c-0.1,0.1-0.1,0.3,0.2,0.3c0.1,0,0.1,0.1,0.1,0.1c0.1,0.1,0.1,0.1,0.2,0c0.3-0.2,0.7-0.2,1-0.3   c0.1,0,0.3-0.1,0.3-0.2c0.1-0.3,0.3-0.6,0.5-0.9c0.1-0.2,0.2-0.5,0.4-0.7c0.1,0.2,0.1,0.5,0.2,0.7c0.2,0.6,0.5,1,1.2,1   c0.3,0,0.6,0.1,0.8,0.4c0.1,0.1,0.2,0.2,0.4,0.3c0.1,0,0.2,0.1,0.2,0.3s0,0.4-0.1,0.5c-0.1,0.3-0.3,0.5-0.3,0.8   c0,0.1-0.1,0.1-0.1,0.1c-0.2-0.1-0.2,0-0.2,0.1c0,0.2-0.1,0.5,0,0.7s0,0.3-0.2,0.4c-0.2,0.1-0.4,0.2-0.4,0.5c0,0.2-0.1,0.3-0.3,0.4   c-0.1,0-0.1,0-0.2,0.1c-0.2,0.1-0.3,0.2-0.3,0.4c0,0.3-0.1,0.3-0.3,0.4c-0.2,0-0.4,0.1-0.5,0.2c-0.2,0.1-0.4,0.2-0.5,0.3   c-0.2,0.1-0.4,0.3-0.3,0.6c0,0.1,0,0.2-0.1,0.3c-0.2,0.1-0.4,0.3-0.6,0.4c-0.3,0.1-0.6,0.3-0.9,0.4c-0.2,0.1-0.4,0.2-0.5,0.4   s-0.3,0.3-0.4,0.3c-0.1,0-0.3,0.1-0.4,0.2c-0.3,0.3-0.6,0.4-0.9,0.4c-0.2,0-0.4,0.1-0.6,0.3c-0.2,0.3-0.5,0.3-0.8,0.4   c-0.3,0.1-0.6-0.1-0.7-0.5c-0.1-0.5-0.2-0.9-0.4-1.3c-0.1-0.1-0.1-0.3,0-0.4c0.1-0.6-0.3-1-0.6-1.4c-0.3-0.3-0.5-0.5-0.7-0.9   s-0.5-0.8-1-1c-0.3-0.1-0.4-0.3-0.5-0.6c-0.1-0.2-0.2-0.5-0.2-0.7s0-0.4-0.2-0.6c-0.1-0.1-0.2-0.3-0.3-0.4   c-0.1-0.2-0.3-0.4-0.5-0.4c-0.3-0.1-0.4-0.3-0.4-0.5c0-0.1-0.1-0.3-0.2-0.4c-0.4-0.5-0.8-1-1.2-1.5c-0.2-0.2-0.3-0.4-0.6-0.4   c0-0.3,0.1-0.6,0.1-0.9c-0.2,0.3-0.2,0.5-0.2,0.8c0,0.1,0,0.3-0.1,0.4c-0.1,0.1-0.2-0.1-0.4-0.2c-0.4-0.3-0.5-0.7-0.7-1.1   c0,0,0-0.1-0.1-0.1s-0.1,0.1,0,0.2c0.2,0.2,0.2,0.5,0.4,0.8c0.4,0.4,0.6,0.9,0.8,1.4c0.3,0.6,0.6,1.3,1.2,1.8c0,0,0.1,0.1,0,0.1   c-0.1,0.3,0,0.7,0.3,0.8c0.2,0.1,0.3,0.3,0.5,0.4c0.1,0,0.1,0.1,0.1,0.2v0.1c0.3,0.4,0.3,0.9,0.3,1.4c0,0.6,0.4,0.9,0.8,1.1   c0.2,0.1,0.3,0.2,0.4,0.4c0.2,0.3,0.3,0.6,0.4,0.9c0.1,0.3,0.2,0.5,0.4,0.7c0.1,0.1,0.1,0.2,0.2,0h0.1c0.1,0.3,0.4,0.3,0.6,0.4   c0.2,0.1,0.4,0.2,0.5,0.4c0,0,0,0,0,0.1c0.3,0.2,0.6,0.5,0.9,0.8c0.1,0.1,0.3,0.1,0.3,0.3c0.2,0.3,0.1,0.3-0.1,0.5   c-0.1,0.1-0.2,0.1-0.2,0.2c0.3,0.1,0.3,0.1,0.6,0.4c0.2,0.2,0.4,0.5,0.8,0.4c0.1,0,0.3-0.1,0.4-0.2c0.2-0.1,0.4-0.2,0.6-0.2   c0.2,0,0.4-0.1,0.6-0.2c0.1-0.1,0.3-0.2,0.5-0.2c0.1,0,0.2,0,0.2-0.1c0.2-0.1,0.4-0.1,0.6-0.2c0.4-0.1,0.7-0.2,1-0.5l0.1-0.1   c0.1-0.1,0.2,0,0.3,0s0.1,0.1,0,0.2c-0.1,0.2,0,0.3,0,0.5s0.2,0.4-0.1,0.5c0,0,0,0.1,0,0.2c0.1,0.5-0.2,1-0.4,1.4   c-0.2,0.5-0.4,0.9-0.6,1.4c0,0.1-0.1,0.3-0.1,0.4c-0.5,1-1.1,1.9-1.9,2.7c-0.1,0.1-0.2,0.2-0.3,0.3c-0.8,0.6-1.5,1.3-2.2,2.1   c-0.2,0.3-0.5,0.5-0.6,0.8c-0.1,0.1-0.2,0.2-0.3,0.3s-0.3,0.2-0.3,0.3v0.1c-0.5,0.2-0.5,0.7-0.8,1.1c-0.1,0.2-0.2,0.3-0.3,0.5   c-0.2,0.3-0.3,0.6-0.4,1c0,0.1,0,0.2,0.1,0.3s0.1,0.2,0.2,0.2c0.2,0.1,0.2,0.2,0.1,0.4c-0.1,0.1-0.1,0.2,0,0.3c0,0.1,0.1,0.1,0,0.2   c-0.1,0.2,0,0.5,0.1,0.7c0,0.1,0.1,0.1,0.1,0.2c0,0.3,0.1,0.5,0.4,0.6c0.2,0.1,0.3,0.2,0.2,0.4c-0.1,0.3,0,0.7-0.1,1   c0,0.2,0,0.5,0,0.7c0,0.1,0,0.3,0,0.4c0.2,0.4,0,0.7-0.2,0.9c-0.3,0.3-0.5,0.7-0.9,0.9c-0.1,0.1-0.2,0.1-0.4,0.2   c-0.6,0.2-1.1,0.5-1.5,1c-0.1,0.1-0.2,0.2-0.4,0.3c-0.1,0-0.3,0.2-0.4,0.3c-0.1,0.1-0.2,0.2-0.4,0.3c-0.1,0-0.2,0-0.2,0.2   c0,0.1-0.1,0.3,0,0.4c0.1,0.1,0.2,0.3,0.2,0.5c0,0.3,0.2,0.5,0.2,0.7s-0.1,0.3-0.1,0.4c0.1,0.5-0.3,0.6-0.7,0.8   c-0.3,0.1-0.6,0.2-0.9,0.3c-0.2,0.1-0.3,0.2-0.4,0.3c0,0.1-0.1,0.1,0,0.2c0.2,0.1,0.1,0.2,0.1,0.3c-0.1,0.3-0.2,0.6-0.4,0.9   c-0.1,0.1-0.2,0.3-0.3,0.3c-0.3,0.1-0.5,0.3-0.6,0.5c-0.7,0.8-1.5,1.3-2.4,1.7c-0.3,0.1-0.6,0.3-0.9,0.2c-0.2,0-0.3,0.1-0.4,0.1   c-0.4,0.1-0.9,0-1.3,0c-0.3,0-0.6,0-0.9,0.1c-0.1,0-0.3,0-0.4,0c-0.2,0-0.3,0-0.5,0.1s-0.4,0.1-0.6,0c-0.2-0.1-0.3-0.2-0.5-0.2   h-0.1c0.1-0.3-0.3-0.3-0.3-0.6c0-0.1,0.2,0,0.2-0.2s-0.1-0.3-0.2-0.4c-0.1-0.2-0.3-0.3-0.4-0.5c-0.1-0.1-0.2-0.3-0.3-0.4   c-0.2-0.4-0.4-0.6-0.7-0.8c-0.6-0.4-0.8-0.9-1-1.6c0-0.2-0.1-0.3-0.2-0.5c-0.2-0.3-0.2-0.6-0.2-1c0-0.2,0-0.3-0.1-0.4   c-0.5-0.5-0.9-1.2-1.3-1.8c-0.1-0.2-0.2-0.3-0.4-0.4c-0.2-0.2-0.4-0.5-0.4-0.9c0-0.2,0-0.5,0-0.7v-0.1c0.3-0.4,0.3-0.9,0.4-1.3   c0.1-0.3,0.2-0.5,0.5-0.7c0.4-0.3,0.5-0.9,0.3-1.3c-0.2-0.3-0.3-0.6-0.4-0.9c0-0.1-0.1-0.2,0.1-0.3c0.2-0.1,0.2-0.2,0.1-0.4   c-0.2-0.4-0.3-0.9-0.6-1.2c-0.1-0.1-0.2-0.2-0.1-0.3c0.1-0.1,0-0.1-0.1-0.1c0-0.1-0.1-0.1-0.1-0.2c0-0.4-0.3-0.7-0.6-1   c-0.4-0.5-0.9-0.9-1.3-1.4c-0.2-0.2-0.4-0.4-0.3-0.6v-0.1c-0.3-0.1-0.2-0.3-0.4-0.5c0.3,0,0.4-0.2,0.4-0.4c0-0.1,0-0.2,0.1-0.2   s-0.2-0.2,0-0.3c0.1-0.1,0.2-0.1,0.1-0.2v-0.1c-0.1-0.1-0.1-0.2,0-0.3c0.3-0.3,0.2-0.8,0.3-1.2c0-0.1-0.1-0.2-0.1-0.2   c0-0.1-0.1-0.2-0.1-0.3c0-0.2,0-0.2-0.2-0.1c-0.2,0-0.3-0.1-0.3-0.3c0-0.1,0-0.2-0.2-0.2c-0.1,0-0.1-0.2-0.2-0.2   c-0.1,0,0,0.2-0.2,0.1h-0.1c-0.4-0.1-0.7,0-1.1,0.1c-0.4,0-0.7-0.2-0.8-0.6c-0.1-0.5-0.5-1-1.1-1.1c-0.1,0-0.2-0.1-0.3-0.1   c-0.4,0.1-0.8,0-1.2,0c-0.2,0-0.4,0-0.5,0.2c-0.1,0.1-0.2,0.1-0.3,0.1s-0.2,0-0.3,0c-0.4,0.2-0.9,0.3-1.3,0.4c-0.1,0-0.2,0.1-0.3,0   c0,0-0.1,0-0.1-0.1c-0.2-0.1-0.4-0.2-0.6-0.3c-0.2,0.1-0.4-0.1-0.6-0.1c-0.6,0-1.1,0-1.6,0.1c-0.1,0-0.2,0-0.2,0.1   c-0.2,0.1-0.4,0.1-0.6-0.1c-0.4-0.2-0.7-0.5-0.9-0.9c-0.4-0.6-0.9-1-1.3-1.5c-0.1-0.1-0.3-0.2-0.4-0.3c0.1-0.2,0-0.2-0.1-0.3   s-0.1-0.3-0.2-0.4c0-0.1,0-0.3,0-0.4c-0.1-0.4-0.2-0.8-0.5-1.1l0,0c-0.1-0.3-0.4-0.6-0.5-0.9c0-0.1,0-0.2,0-0.2   c0.2-0.1-0.2-0.2,0-0.3h-0.1c-0.1,0.1-0.2,0-0.3-0.1c-0.3-0.3-0.3-0.7-0.2-1.1c0-0.1,0.2-0.1,0.1-0.3c-0.1-0.3-0.1-0.6-0.3-0.9   c0.3-0.2,0.6-0.5,0.7-1c0-0.2,0.2-0.4,0.3-0.6c0.3-0.5,0.3-1,0.2-1.5c0-0.2,0-0.4,0.1-0.5c0.1-0.2,0.1-0.4,0-0.6   c-0.3-0.5-0.2-0.8,0.3-1.2c0.2-0.2,0.4-0.5,0.5-0.8c0.1-0.2,0.3-0.4,0.5-0.5s0.3-0.3,0.4-0.5c0.1-0.2,0.2-0.4,0.4-0.6   c0.1-0.1,0.2-0.2,0.3-0.2c0.3-0.1,0.4-0.2,0.5-0.4c0.1-0.1,0.1-0.2,0.2-0.3c0.1-0.1,0.2-0.2,0.4-0.2c0.8,0,1.4-0.5,2-1.1   c0.1-0.1,0.1-0.2,0.1-0.3c0-0.4,0.1-0.7,0.4-1c0.1-0.1,0.2-0.2,0.2-0.3c0.2-0.3,0.4-0.6,0.8-0.6c0.8-0.1,1.2-0.6,1.6-1.2   c0.1-0.2,0.2-0.3,0.5-0.3c0,0.1,0,0.2,0.1,0.3s0.2,0.3,0.3,0.2c0.2,0,0.4,0.1,0.7,0.1c0.1,0,0.1,0,0.1,0.1c0.2,0.2,0.5,0.2,0.7,0.1   c0.3-0.1,0.6-0.4,0.9-0.3h0.1c0.3-0.3,0.7-0.3,1.1-0.3c0.4,0,0.8-0.1,1.2-0.1c0.3,0,0.5,0,0.7,0.2c0.1,0.1,0.1,0.1,0.2,0   c0.1,0,0.3-0.1,0.4-0.1c0.1-0.1,0.2,0,0.3,0s0.2,0.1,0.3,0c0,0,0.1,0,0.2,0c0.3,0.2,0.6,0.1,0.9,0c0.1,0,0.2-0.1,0.3-0.1   c0.2,0,0.4,0.1,0.5,0.4c0.1,0,0.2-0.1,0.4-0.1l0,0c-0.1,0.1-0.2,0.2-0.3,0.3c-0.2,0.2-0.2,0.3-0.1,0.5c0.2,0.3,0.2,0.4,0,0.6   c-0.1,0.1-0.2,0.2-0.4,0.3c-0.1,0.1-0.2,0.1-0.2,0.3s0.1,0.2,0.3,0.2c0.1,0.2,0.1,0.2,0.2,0.1c0.2,0.3,0.5,0.4,0.7,0.5   c0.1,0.1,0.3,0.1,0.4,0.1c0.3-0.1,0.6,0.1,0.9,0.2l0,0c0.3,0.2,0.5,0.4,0.7,0.7c0.1,0.2,0.3,0.3,0.5,0.3c0.3,0.1,0.6,0.1,0.9,0.3   c0.2,0.1,0.4,0.2,0.6,0.4c0.3,0.2,0.4,0.2,0.6,0c0.3-0.2,0.4-0.4,0.3-0.7c-0.1-0.4,0-0.5,0.3-0.7c0.4-0.3,0.9-0.5,1.4-0.2   c0.1,0.1,0.3,0.1,0.3,0.3c0,0.1,0.1,0.1,0.2,0.1c0.2,0,0.4,0.2,0.7,0.1c0.2,0,0.3,0,0.4,0.2c0,0.1,0.1,0.1,0.2,0.1   c0.4-0.1,0.8,0,1.1,0.1c0.4,0.1,0.8,0.2,1.1,0.3c0.1,0,0.2,0,0.3-0.1c0.2-0.1,0.3-0.2,0.5-0.3c0.3-0.2,0.7-0.2,1-0.2l0,0   c0,0.2,0.1,0.3,0.3,0.1c0.2,0.2,0.4,0.1,0.6,0.1c0.5,0,0.7-0.2,0.8-0.6c0.1-0.5,0.2-1.1,0.4-1.6c0.1-0.4,0.1-0.7,0-1.1   c0-0.2-0.1-0.5,0.1-0.7v-0.1c-0.1-0.1-0.1,0-0.2,0c-0.2,0.2-0.3,0.2-0.5,0.1c-0.1-0.1-0.3,0-0.4,0.1c-0.2,0.2-0.4,0.3-0.7,0.4   c-0.2,0-0.4,0-0.5-0.1c-0.2-0.2-0.5-0.3-0.8-0.3c-0.1,0-0.2,0-0.2,0.1c0,0.2-0.1,0.3-0.3,0.3s-0.4,0.1-0.5-0.1   c-0.2-0.2-0.4-0.3-0.6-0.2c-0.2,0-0.1-0.1-0.1-0.2h-0.4c0-0.1,0.2-0.2,0-0.2c-0.1,0-0.1-0.1-0.1-0.2c0.1-0.3-0.2-0.3-0.4-0.4H902   c0-0.1,0-0.1,0-0.2c0.1-0.1,0.1,0,0.1,0c0.1,0.1,0.1,0.1,0.1-0.1c0.1-0.2-0.2-0.4,0-0.6c-0.1-0.1-0.2,0.1-0.4,0   c0-0.3,0-0.5,0.2-0.7c0-0.1-0.2,0-0.2-0.1c-0.4-0.3-0.8-0.2-1.2,0c-0.1,0-0.1,0.1,0,0.1c0.1,0.1-0.1,0.2,0,0.3c0,0,0,0.1,0,0   c-0.2-0.1-0.5-0.1-0.6-0.3c-0.2,0.2-0.1,0.3,0,0.5s0.3,0.3,0.3,0.5c-0.1,0-0.1-0.2-0.2-0.1c0,0.1,0,0.2-0.1,0.3   c0,0.1,0.1,0.1,0.2,0.1c0.1,0,0.1,0.1,0.2,0.1c0.1,0.1,0.1,0.1,0.2,0.1l0.1,0.1c0,0.1,0,0.2,0,0.3c-0.1-0.1-0.2-0.1-0.3-0.1   s-0.2-0.1-0.2,0s0,0.1,0.1,0.2c0,0,0.1,0.1,0,0.1h-0.1c-0.1,0-0.1-0.1-0.2-0.1c0,0.2,0.2,0.4,0.1,0.7c-0.2-0.1-0.2-0.1-0.3,0   c-0.1-0.1-0.1-0.2-0.1-0.2l-0.1-0.1c-0.2,0.1-0.2,0-0.2-0.2c0-0.1,0-0.2-0.1-0.3c-0.2-0.2-0.2-0.2,0.1-0.4c0,0,0,0,0.1,0   c0,0,0,0,0-0.1c-0.1-0.1-0.4,0-0.4-0.3c0-0.1-0.2-0.1,0-0.2l0,0c-0.2,0-0.2-0.2-0.4-0.2c0-0.2-0.1-0.3-0.2-0.4   c-0.4-0.2-0.2-0.6-0.2-0.9c0-0.2,0-0.3-0.1-0.5c-0.2-0.2-0.4-0.4-0.7-0.5c-0.1-0.1-0.1-0.1-0.2-0.2c-0.1-0.2-0.3-0.3-0.5-0.3   c-0.1,0-0.2,0-0.3-0.2c-0.1-0.1-0.2-0.1-0.3-0.2c0.1-0.3-0.1-0.6-0.2-0.8c-0.1-0.2-0.2-0.1-0.3,0.1c-0.1,0.1-0.1,0.2-0.2,0   c-0.1-0.2-0.1-0.3,0.1-0.4c-0.3-0.1-0.5,0.1-0.7,0.1l-0.1,0.1c0.1,0.2,0,0.3-0.1,0.4c-0.1,0.1,0,0.3,0.1,0.4   c0.1,0.1,0.2,0.2,0.3,0.2c0.1,0.1,0.2,0.2,0.2,0.4c0.1,0.7,0.5,1,1.1,1c0.1,0.1-0.1,0.2-0.1,0.3s0.2,0.1,0.3,0.2   c0.3,0.1,0.6,0.3,0.8,0.5c0.1,0.1,0.2,0.2,0.2,0.3s0,0.1-0.1,0.1h-0.1c-0.1-0.2-0.3-0.2-0.4-0.3c-0.2-0.1-0.2,0-0.3,0.1   c0,0.1-0.1,0.1-0.1,0.2c-0.1,0.1-0.1,0.2,0.1,0.3c0.1,0.1,0.2,0.2,0.2,0.3s0,0.1-0.1,0.2c-0.2,0-0.2,0.1-0.3,0.3   c0,0.2-0.2,0.2-0.3,0.4h-0.1c-0.1,0-0.1-0.3-0.2-0.1c-0.1,0.2-0.3,0.3-0.2,0.5c0,0,0,0,0,0.1s-0.1,0.2-0.1,0.3   c-0.1,0.1-0.2,0-0.3,0c-0.3-0.3-0.7-0.4-1-0.6c-0.1,0-0.1-0.1-0.1-0.2c0-0.1,0.1-0.2,0.1-0.2c0.2,0.1,0.3-0.1,0.4,0   c0.2,0.2,0.5,0.1,0.7,0.1c0.1,0,0.2-0.1,0.3,0c0.3,0,0.5-0.2,0.6-0.4c0-0.1,0-0.1,0-0.2c-0.1-0.2-0.1-0.3-0.1-0.5c0,0,0,0,0-0.1   c0-0.2-0.3-0.1-0.4-0.3c-0.1-0.1,0-0.4-0.3-0.3c-0.2-0.3-0.6-0.5-0.9-0.6c-0.1,0-0.1-0.2-0.2-0.2c-0.2-0.2-0.3-0.3-0.5-0.5   s-0.3-0.5-0.4-0.9c-0.1-0.4-0.6-0.6-0.9-0.4c-0.1,0.1-0.3,0.2-0.5,0.2s-0.3,0.1-0.5,0.2c-0.2,0.2-0.5,0.2-0.7,0s-0.5-0.1-0.7-0.3   c-0.2-0.1-0.6,0.3-0.6,0.5c0,0.4-0.2,0.6-0.5,0.7c-0.2,0.1-0.4,0.2-0.6,0.2c-0.2,0-0.3,0.1-0.4,0.2c-0.2,0.2-0.4,0.4-0.6,0.6   c-0.3,0.3-0.3,0.5-0.1,0.7c0,0.1-0.1,0.1-0.2,0.1c-0.1,0.1-0.2,0.1-0.3,0.2c-0.1,0.2-0.3,0.5-0.6,0.4c-0.1,0-0.1,0.1-0.2,0.1   c-0.2,0.3-0.5,0.3-0.8,0.2c-0.1,0-0.2,0-0.3,0c-0.4-0.1-0.8,0-1.1,0.2c-0.1,0.1-0.3,0.1-0.3-0.1c0-0.1-0.1-0.3-0.1-0.4   c0-0.2-0.2-0.4-0.3-0.3c-0.3,0.1-0.6-0.1-0.9-0.1c0.1-0.2,0.2-0.3,0.2-0.5c0.1-0.2,0.1-0.4,0-0.6c-0.1-0.2,0-0.4,0.2-0.5   c0.2-0.2,0.3-0.4,0.5-0.6c0.2-0.2,0.3-0.5,0.3-0.8c0-0.1,0.1-0.3,0.1-0.3c0.1-0.1,0.1-0.3,0.1-0.4c0-0.3,0-0.3,0.3-0.3h0.1   c0.3-0.2,0.5-0.2,0.8,0c0.2,0.1,0.6,0.1,0.8,0.2c0.1,0.1,0.3,0.1,0.4,0.1c0.3,0,0.6,0.1,0.8,0.2c0.3,0.1,0.5,0.1,0.6-0.2   c0.3-0.4,0.5-0.9,0.6-1.4c0-0.1,0-0.2-0.1-0.3s-0.2-0.2-0.1-0.4c0-0.2,0-0.4-0.3-0.5c-0.1,0-0.2-0.1-0.3-0.2   c-0.2-0.1-0.3-0.3-0.2-0.5c0,0,0-0.1,0.1-0.1c0.2-0.1,0.4,0,0.7-0.1c0.2,0.3,0.5,0.1,0.7,0.2c0.1-0.2,0.1-0.3,0.1-0.5   c0-0.1,0-0.1,0.1-0.1s0.1,0,0.2,0.1c0.1,0.2,0.3,0.2,0.4,0.3c0.1,0,0.2,0,0.2-0.1c0.1-0.2,0.3-0.2,0.4-0.2c0.2,0,0.3-0.1,0.4-0.3   c0.1-0.2,0.2-0.3,0.4-0.3s0.4-0.1,0.6-0.1c0.3,0.1,0.3,0.1,0.3-0.2c0.2-0.2,0.3-0.4,0.5-0.6c0.2-0.2,0.5-0.4,0.9-0.3   c0.1,0,0.2,0.1,0.3-0.1c0-0.1,0.2-0.1,0.3,0c0.2,0.2,0.3-0.1,0.5-0.1c0.1,0,0.1-0.1,0.1-0.1c0-0.2,0-0.5,0.1-0.7c0-0.1,0-0.1,0-0.1   c-0.1-0.1-0.1-0.1-0.1-0.3c0.1-0.3,0.1-0.4,0.4-0.5c-0.1,0-0.1,0-0.2-0.1c0.3-0.2,0.7-0.1,1-0.4c0,0.1,0,0.2-0.1,0.3   c-0.1,0.2-0.1,0.2,0.1,0.4c-0.2,0.1-0.5,0.2-0.6,0.5l0,0c-0.2,0.3-0.2,0.6,0.1,0.7h0.1c0.1,0.1,0,0.3,0.2,0.2   c0.1,0,0.3-0.1,0.4-0.1c0.1,0,0.2-0.1,0.3-0.1c0.1,0.1,0.1,0.2,0.2,0.2c0.4,0.3,0.9,0.1,1.3-0.1c0.2-0.1,0.4-0.2,0.6-0.2   c0.1,0,0.3,0,0.4,0.2c0.1,0.2,0.4,0.2,0.5,0s0.2-0.2,0.4-0.2c0.1,0,0.2,0,0.2-0.1s0-0.2,0-0.3c-0.1-0.3,0-0.6,0.2-0.9   c0.2-0.3,0.4-0.3,0.6-0.1l0.1,0.1c0.1,0.1,0.2,0.1,0.3,0.1s0.2-0.1,0.2-0.2c0-0.2,0-0.3,0-0.5c-0.2,0-0.3,0-0.4-0.2   c0-0.2,0-0.3,0.2-0.4c0.3-0.1,0.6-0.2,1-0.1c0.2,0,0.2,0,0.8-0.2c0.2-0.1,0.3-0.2,0.5-0.1c0-0.2-0.1-0.1-0.2-0.1   c-0.1,0-0.1,0-0.2,0c-0.4-0.4-0.8-0.1-1.2,0c-0.3,0-0.5,0.2-0.8,0.2c-0.2,0-0.4,0-0.6-0.2c0,0-0.1-0.1-0.2-0.1   c-0.1-0.1-0.2-0.2-0.2-0.3c0.1-0.2,0-0.5,0-0.7s0-0.4,0.2-0.4c0.4-0.2,0.7-0.6,1.1-0.9c0.1-0.1,0.1-0.3,0-0.4   c-0.4-0.3-0.9-0.1-1.1,0.3l-0.1,0.1c0.1,0.4-0.2,0.5-0.5,0.6s-0.6,0.3-0.8,0.6c-0.2,0.2-0.3,0.5-0.3,0.9c0,0.1,0.1,0.1,0.1,0.2   c0.1,0,0.2,0.1,0.2,0.2c0.2,0.2,0.2,0.2,0,0.4c-0.2,0.3-0.4,0.3-0.6,0.4c-0.1,0.1-0.2,0.2-0.2,0.3c-0.1,0.3-0.1,0.6-0.3,0.9   c-0.1,0.2-0.2,0.3-0.4,0.3s-0.4,0-0.5,0.3c0,0.1-0.2,0.1-0.2,0.1c-0.3,0-0.3,0-0.3-0.3v-0.1c-0.1,0.2-0.3,0.4-0.4,0.6   c-0.1,0,0-0.1-0.1-0.2c-0.1-0.1-0.2-0.2-0.2-0.3s0.1-0.1,0.3-0.1c0.1,0,0.3-0.1,0.4-0.2c0.1-0.1,0.1-0.2,0.1-0.3   c-0.2-0.4-0.3-0.8-0.3-1.2c0-0.2-0.2-0.2-0.1-0.4c-0.1,0.1-0.2,0.3-0.3,0.3s-0.2,0.1-0.3,0.2c-0.1,0.1-0.3,0.2-0.4,0.2   c-0.3,0.1-0.7,0-0.9-0.3c-0.1-0.1-0.1-0.2,0.1-0.2c0.1,0,0.2-0.1,0.2-0.2c0-0.1-0.2,0.1-0.3,0c0.2-0.4,0.3-0.9,0.5-1.3   c0-0.1,0.2-0.3,0.3-0.3s0.3-0.1,0.4-0.1c0.2,0,0.2-0.3,0.4-0.2c0.2,0,0.3,0,0.4-0.2c0,0,0.1-0.1,0.1,0c0.2,0.1,0.2,0,0.3-0.1   c0.3-0.2,0.5-0.4,0.8-0.6c0.1-0.1,0.2-0.2,0.2-0.2c0.3-0.3,0.6-0.7,1-0.9c0.1-0.1,0-0.2,0.2-0.3c0.1,0,0.3,0,0.3-0.1   c0.1,0,0.3,0.1,0.2-0.1l0.1-0.1c0.2-0.1,0.3-0.2,0.4-0.3c0.1-0.1,0.2-0.2,0.4,0c0.1,0.1,0.2,0,0.1-0.1c0.3-0.2,0.7-0.2,1-0.5   c0,0,0.1,0,0.2,0c0.1,0.1-0.1,0.2,0,0.2s0.1-0.1,0.2-0.1c0.1-0.2,0.2,0,0.2,0c0-0.1,0.1-0.1,0.1-0.2c0-0.1,0.2-0.1,0.2,0   c0,0.3,0.2,0.1,0.3,0.1c0.2,0,0.3,0.1,0.4,0.2c-0.1,0.1-0.2,0.1-0.3,0.1c0.2,0.1,0.3,0.2,0.6,0.1c0.1,0,0.2-0.1,0.3,0.1   c0.1,0.1,0.2,0.1,0.3,0.1c0.4,0,0.8,0.1,1.2,0.3c0.2,0.1,0.4,0.1,0.6,0.2c0.2,0,0.4,0.1,0.5,0.3s0.1,0.3,0,0.4   c-0.2,0.2-0.4,0.3-0.7,0.3c-0.6-0.1-1.1-0.1-1.7-0.3c0.2,0.2,0.3,0.3,0.6,0.4c0.1,0.1,0.2,0.1,0.2,0.3c0,0.3,0.1,0.6,0.5,0.6   c0.1,0,0.2,0.1,0.2,0.1c0.1,0.1,0.2,0.1,0.3,0.1s0.2,0,0.2-0.1s-0.1-0.1-0.2-0.1c-0.1,0-0.2,0-0.2-0.1c-0.1-0.1-0.2-0.1-0.1-0.2   c0.1-0.1,0.2-0.1,0.3,0c0.2,0.1,0.3,0.1,0.5,0.1h0.1c0.1,0,0.1,0,0.2-0.1c0-0.1,0-0.1-0.1-0.1c-0.3-0.2-0.1-0.3,0-0.4l0.1-0.1   c0.3-0.3,0.4-0.3,0.8-0.1c0-0.2,0-0.4-0.2-0.5c-0.1,0-0.1-0.1-0.1-0.2c0-0.2-0.1-0.4-0.3-0.4c0.4-0.1,0.7-0.1,0.9,0.2   c-0.1,0.1-0.3,0.1-0.3,0.3c0.1,0.1,0.3,0.2,0.5,0.2c0.2,0.1,0.3,0,0.3-0.3c0-0.1,0-0.1,0.1-0.2c0.1-0.1,0.3-0.2,0.4-0.3   c0.2-0.2,0.4-0.2,0.5-0.4c0.1,0,0.1,0.1,0.1,0.1c0.2,0.3,0.2,0.3,0.4,0c0.1-0.1,0.1-0.1,0.2-0.1c0.1,0,0.2,0,0.2-0.1   c0.2-0.3,0.3-0.3,0.5,0h0.1c-0.1-0.1,0.1-0.2,0-0.3c-0.1,0-0.2-0.1-0.3-0.1c-0.1-0.1-0.1-0.2,0-0.2c0.3,0,0.5-0.1,0.8,0   c0.4,0.1,0.9,0.1,1.3,0.3c0-0.2,0-0.3-0.2-0.3c-0.1,0-0.2,0-0.3-0.1c-0.2-0.1-0.4,0-0.6-0.2c-0.1-0.2-0.3-0.3-0.5-0.4l-0.1-0.1   c0-0.3-0.3-0.5-0.4-0.8c0.4-0.2,0.6-0.2,0.9,0.1c0.2,0.2,0.3,0.3,0.6,0.4c0.3,0.2,0.6,0.4,0.8,0.6c0.1,0.1,0.2,0.2,0.3,0.2   c0.4,0.1,0.6,0.4,0.7,0.7c0,0.1,0.1,0.2,0.1,0.3s0,0.1-0.1,0.1c0,0-0.1-0.1-0.2-0.1c-0.1,0-0.2-0.1-0.2,0.1c0,0.1,0.1,0.1,0.2,0.1   h0.1c0.2,0.1,0.3,0,0.5,0c0-0.2,0-0.5-0.2-0.7c-0.1-0.2-0.3-0.3-0.4-0.4c-0.1,0-0.2-0.1-0.1-0.2c0.1-0.1,0.2-0.1,0.3-0.1   c0.2,0.1,0.3,0.1,0.4,0.2c0.1,0.1,0.2,0.2,0.4,0.2c0.1,0,0.2,0,0.2-0.1c-0.2,0.1-0.4,0-0.5-0.1c-0.2-0.2-0.4-0.2-0.7-0.2   c-0.1,0-0.1,0-0.2,0c-0.3,0.3-0.5,0.1-0.6-0.1c-0.3-0.3-0.6-0.5-0.9-0.6c-0.2,0-0.2-0.2-0.2-0.4h0.1c0.1,0,0.1,0.1,0.2,0.1   c0-0.1,0-0.1,0.1-0.1h0.1c0-0.1-0.1,0-0.1-0.1V182l0,0c0.3,0,0.7,0.1,1,0l0,0l0,0c0.1,0.4,0.6,0.3,0.8,0.5   c-0.1-0.2-0.4-0.4-0.8-0.5l0,0l0,0c-0.1-0.1-0.3-0.1-0.5-0.1c-0.3,0-0.5-0.1-0.8-0.3c-0.2-0.1-0.2-0.1,0-0.2   c0.1-0.1,0.3-0.2,0.3-0.3c-0.1-0.1-0.3-0.1-0.4-0.1c-0.2-0.1-0.3-0.2-0.3-0.5c0-0.1,0-0.2,0-0.3c-0.1-0.1-0.1-0.2,0.1-0.2   c0.1,0,0.1-0.1,0-0.1c-0.1-0.1-0.1-0.3-0.3-0.3s-0.4-0.1-0.5-0.3c0-0.1,0.1-0.1,0.1-0.1c0.2,0.1,0.4,0,0.6,0.1c0.1,0,0.1,0,0.1-0.1   c0-0.2,0.1-0.2,0.2-0.2c0.5,0,1,0.1,1.4,0.4c0,0.1,0.1,0.1,0.2,0.1c0.1,0,0.1,0.1,0.2,0.1l0,0c0.1,0.2,0.3,0.3,0.6,0.4   c-0.1-0.3-0.3-0.4-0.5-0.5c0.2,0,0.3-0.1,0.2-0.3c0-0.1,0-0.2,0.1-0.1c0.1,0,0.1,0,0.2,0c0.1,0,0.1-0.1,0-0.2   c-0.1-0.1-0.2-0.1-0.3-0.1s-0.2,0-0.2-0.2s0.2-0.1,0.3-0.1c0.3,0.1,0.7,0.1,1,0.2c0.1,0,0.1,0,0.2,0v-0.1c-0.4-0.1-0.7-0.4-1-0.6   c-0.1-0.1-0.2-0.1-0.4-0.2c-0.4-0.1-0.8-0.2-1.1-0.5c0,0-0.1-0.1-0.2-0.1c0-0.1,0.2,0,0.2-0.1s0.1-0.1,0.2-0.1   c1.3,0.3,2.6,0.8,3.9,1.2c6.7,2.5,12.4,6.5,17.2,11.9c0.1,0.2,0.2,0.3,0.3,0.5c0.1,0.1-0.2,0-0.1,0.2c0.1,0.1,0.1,0.2,0.2,0.3   c0.1,0.1,0.1,0.2,0.2,0.3c0.1,0.1,0.1,0.2,0.2,0.3c0.2,0.2,0.2,0.4,0.3,0.6c0.1,0.1,0.2,0.2,0.4,0.2c0-0.1-0.1-0.1,0-0.2   c0.1,0,0.1,0.1,0.2,0.1c0.2,0.2,0.3,0.4,0.4,0.7c0.4,0.8,1,1.4,1.5,2.1c0.2,0.3,0.5,0.7,0.7,1c0.9,1.5,1.8,3,2.4,4.7   c0.3,0.7,0.6,1.3,0.6,2.1c0.3,0.6,0.2,1.2,0.4,1.8h-0.1c0,0,0-0.1-0.1-0.1s-0.1,0.1-0.1,0.2c0,0.3,0,0.6,0.1,0.8   c0.1,0.3,0.1,0.7,0.2,1c0.1,0.6,0.4,1,0.7,1.5c0.3,0.4,0.5,0.9,0.7,1.4c0.3,1.1,0.6,2.2,0.5,3.3c0,0.5,0,1,0,1.6   c0-0.2-0.1-0.4-0.1-0.6c0-0.1,0-0.2-0.1-0.3c-0.2-0.1-0.3-0.3-0.3-0.4c0-0.2-0.1-0.3-0.3-0.4l-0.1-0.1c-0.4,0.2-0.2-0.2-0.3-0.3   c0,0,0,0-0.1-0.1c-0.1,0.1-0.1,0.2-0.1,0.3c0.2,0.8,0.2,1.6,0.3,2.4c0,0.4,0.3,0.6,0.4,0.9c0,0.2,0.1,0.3,0.1,0.5s0,0.3,0.3,0.4   c0.2,0.1,0.3,0.5,0.4,0.7c0.1,0.3,0.1,0.5,0.1,0.8c0,0.4,0.1,0.9,0.2,1.3c0,0.2,0,0.3,0,0.5c-0.2-0.1-0.3-0.3-0.4-0.5   c-0.1-0.4-0.2-0.7-0.2-1.1c-0.1-0.6-0.1-1.3-0.5-1.9c-0.3-0.4-0.3-0.8-0.3-1.3c-0.1-0.8-0.2-1.6-0.4-2.3   C940.6,211.3,940.4,211.1,940.3,210.8" style="stroke-dasharray: 939px, 943px; stroke-dashoffset: 0px;"></path>
	<path class="st2" d="M910.8,181.1c0.2,0.3,0.4,0.1,0.5,0.1c0,0,0,0,0.1,0c0,0,0,0-0.1,0c0,0,0,0,0.1,0   C911.3,181.2,911.1,181.1,910.8,181.1L910.8,181.1L910.8,181.1L910.8,181.1L910.8,181.1L910.8,181.1" style="stroke-dasharray: 2px, 6px; stroke-dashoffset: 0px;"></path>
	<path class="st1" d="M909.6,198.8c-0.5-0.2-0.9-0.5-1.4-0.8c-0.1,0-0.1-0.1-0.2-0.1c-0.3-0.1-0.6-0.3-0.9-0.4l-0.1-0.1   c0-0.1,0.1-0.1,0.1-0.1c0.2,0,0.3-0.1,0.3-0.3s0.1-0.2,0.2-0.3c-0.1-0.2-0.3-0.1-0.3-0.3c0.3-0.1,0.3-0.1,0.6-0.4h-0.1   c-0.4,0.1-0.8,0.3-1.2,0.4c-0.2,0.1-0.4,0.2-0.6,0.3c-0.1,0-0.1,0.1-0.1,0.2c0.1,0.2,0.3,0.4,0.6,0.4c0.1,0,0.1,0,0.2,0   c0.1,0,0.1,0.1,0.1,0.2c0,0.1-0.1,0.1-0.2,0.1c-0.2-0.1-0.3,0-0.4,0.1c-0.2,0.1-0.4,0.2-0.5,0.3s-0.3,0-0.3-0.2s0-0.3-0.2-0.3   c-0.1,0-0.2-0.1-0.3-0.1c0.1-0.2,0.2-0.3,0.4-0.3c0,0,0.1-0.1,0-0.1c0,0,0,0-0.1-0.1c-0.1,0-0.2,0-0.3,0c-0.2,0-0.4,0-0.6-0.1   c0-0.1,0-0.1,0.1-0.1s0.1-0.1,0-0.1c-0.2-0.1-0.5,0.1-0.7,0.3c-0.1,0.1-0.1,0.3-0.3,0.3c-0.2,0.1-0.2,0.2-0.2,0.4s0,0.4-0.2,0.3   c-0.3-0.1-0.2,0.1-0.3,0.2c-0.1,0.2-0.1,0.3-0.1,0.5c0,0.1,0,0.2,0,0.2c-0.2,0.1-0.2,0.3-0.3,0.5s-0.1,0.3,0,0.4c0,0,0,0.1,0.1,0.1   c0.1,0.4,0.4,0.5,0.8,0.5c0.3,0,0.6,0,0.8,0c0.1,0,0.3-0.1,0.4-0.1c0.4-0.3,0.9-0.6,1.5-0.5c0.1,0,0.2,0,0.3,0s0.1,0,0.2,0   c0.2,0.3,0.6,0.1,0.8,0.4h0.1c0.1,0,0.1,0,0.2,0c0.4,0.1,0.8,0.3,1.1,0.1c0.1-0.1,0.2,0,0.3,0c0.3,0.1,0.8-0.2,0.9-0.5   c0-0.1,0.1-0.2,0-0.3C909.9,199.2,909.9,198.9,909.6,198.8" style="stroke-dasharray: 28px, 32px; stroke-dashoffset: 0px;"></path>
	<path class="st1" d="M916.5,200.3c-0.1,0-0.1-0.1,0-0.2c0.1-0.2,0-0.3-0.1-0.3c-0.2,0.1-0.3-0.1-0.3-0.2c0-0.1,0-0.3-0.1-0.4   c0.3,0,0.7,0.2,0.9-0.2c-0.2-0.2-0.5-0.3-0.6-0.6c-0.1-0.1-0.2-0.1-0.3-0.1c-0.2,0.1-0.2,0.2-0.1,0.3c0,0.1,0.1,0.1,0,0.2   c-0.2-0.2-0.3-0.4-0.3-0.6c0-0.2-0.1-0.2-0.3-0.3c-0.3,0-0.5-0.1-0.7-0.4c-0.1-0.2-0.3-0.3-0.5-0.4c-0.1,0-0.2,0-0.2-0.1   c0-0.2,0.2-0.1,0.3-0.1h0.1c-0.3-0.4-0.2-0.6,0.2-0.6c0.1,0,0.3,0,0.4,0c-0.1-0.1-0.1-0.2-0.1-0.3c0-0.2-0.1-0.3-0.1-0.5   c-0.1-0.1-0.2-0.2-0.3-0.2c-0.2,0.1-0.3,0.1-0.5,0c-0.1,0-0.2,0-0.3,0.1c-0.3,0.2-0.6,0.4-0.7,0.8c-0.4,0.2-0.5,0.5-0.6,0.9l0,0   c-0.1,0.1-0.1,0.2,0.1,0.2c0.3,0.1,0.5,0.4,0.5,0.7c0,0.1,0.1,0.2,0.2,0.3c0.4,0.4,0.9,0.7,1.3,1.2c0.1,0.1,0.2,0.2,0.3,0.2   s0.2,0,0.2,0.1c-0.2,0.1-0.4,0.1-0.3,0.4c0,0.2,0.2,0.5-0.1,0.6v0.1c0,0.2,0.1,0.4,0.2,0.5c0,0.1,0.1,0.2,0.2,0.2   c0.4,0,0.7,0.2,1,0.4c0.1,0,0.2,0,0.3,0.1c0.3,0,0.6-0.1,0.8-0.2c0.2-0.1,0.3-0.2,0.5-0.1c-0.2-0.4-0.3-0.7-0.4-1.1   C916.9,200.6,916.8,200.4,916.5,200.3" style="stroke-dasharray: 25px, 29px; stroke-dashoffset: 0px;"></path>
	<path class="st1" d="M906.6,232.1c0.3,0.1,0.3,0.1,0.4,0.3c0-0.1,0-0.3,0.2-0.2c0.2,0,0.3,0,0.4-0.2c-0.1-0.1-0.2,0-0.3-0.1   c0-0.1,0.1-0.1,0.1-0.2c0.2-0.2,0.4-0.4,0.4-0.6c0-0.3,0.2-0.3,0.3-0.4c0,0,0.2,0,0.2-0.1c-0.1-0.1-0.2,0-0.2,0.1   c-0.1,0.1-0.2,0-0.2,0c-0.1-0.2-0.3-0.2-0.5-0.3c-0.1,0-0.1-0.1-0.2,0c-0.1,0.1-0.2,0.2-0.4,0.2c-0.4,0-0.7,0.4-0.6,0.8   c0,0.2,0,0.3-0.1,0.4c-0.1,0.3-0.1,0.5,0.1,0.7C906.4,232.3,906.3,232,906.6,232.1" style="stroke-dasharray: 9px, 13px; stroke-dashoffset: 0px;"></path>
	<path class="st1" d="M905.1,235.3c0-0.1-0.1-0.2-0.2-0.3c-0.1,0-0.2,0-0.3-0.1s0.1-0.2,0.1-0.3v-0.1c-0.2-0.5-0.2-1.1-0.5-1.6   c-0.1,0.1-0.1,0.1-0.1,0.2c0.1,0.4-0.1,0.9,0.1,1.3v0.1c-0.2,0.4,0.1,0.6,0.3,0.8s0.4,0.4,0.5,0.6c0.1,0.1,0.2,0.2,0.1,0.4   c0,0.1,0,0.1,0.1,0.1s0.1,0,0.2,0.1c0.1,0,0.1,0.1,0.2,0v-0.1C905.3,236,905.2,235.6,905.1,235.3" style="stroke-dasharray: 9px, 13px; stroke-dashoffset: 0px;"></path>
	<path class="st1" d="M908.3,238.1c-0.2-0.2-0.2-0.4-0.2-0.7c0-0.1,0-0.2-0.1-0.3c-0.1-0.2-0.2-0.3-0.3-0.2s-0.1,0.2,0,0.4   c0.2,0.4,0.2,0.8,0,1.2c-0.1,0.1-0.1,0.2,0,0.3s0.1,0.3,0.1,0.5s0.2,0.3,0.1,0.5c0,0.1,0.1,0.1,0.1,0.1c0.2-0.2,0.3,0,0.4,0.1   c0.1-0.1,0-0.2-0.1-0.3c-0.3-0.4-0.2-0.8-0.1-1.2C908.3,238.3,908.3,238.2,908.3,238.1" style="stroke-dasharray: 8px, 12px; stroke-dashoffset: 0px;"></path>
	<path class="st1" d="M918.5,196.1c-0.3-0.1-0.1-0.5-0.5-0.4c0,0,0,0,0-0.1s0-0.1-0.1-0.2c0-0.1-0.1-0.1-0.2-0.1c-0.1,0,0,0.1,0,0.1   c0,0.1,0,0.1-0.1,0.1s-0.1-0.1-0.2,0c-0.1,0.1,0,0.2,0,0.2c0,0.1,0,0.1,0,0.2c0,0.2,0.1,0.3,0.2,0.5c0.1,0.1,0.2,0,0.3,0.1   c0,0,0.1,0,0.1,0.1c0.1,0.1,0.4,0,0.5-0.1C918.5,196.5,918.5,196.1,918.5,196.1" style="stroke-dasharray: 5px, 9px; stroke-dashoffset: 0px;"></path>
	<path class="st1" d="M924.4,192.8c-0.1,0-0.1,0-0.2,0.1c0,0,0,0.1-0.1,0.1c-0.2,0-0.4,0.2-0.6,0.2c-0.2,0-0.4,0.1-0.5,0.2   c-0.2,0.4,0,0.8,0.4,1c0-0.1,0-0.1-0.1-0.2c-0.1-0.2-0.1-0.4-0.1-0.6c0-0.1,0-0.2,0.2-0.2c0.3,0,0.5-0.2,0.7-0.2   c0.1,0,0.1,0,0.2-0.1c0.1,0,0.1-0.1,0.1-0.2C924.5,192.8,924.5,192.8,924.4,192.8" style="stroke-dasharray: 6px, 10px; stroke-dashoffset: 0px;"></path>
	<path class="st1" d="M926.6,186.3c-0.4-0.4-0.5-0.9-1-1.3c-0.3-0.2-0.6-0.5-0.9-0.7c0,0.1,0,0.1,0.1,0.1c0.5,0.4,0.9,0.9,1.3,1.4   c0.2,0.2,0.3,0.4,0.4,0.7c0,0.1,0,0.2,0.1,0.2S926.7,186.5,926.6,186.3C926.6,186.4,926.6,186.4,926.6,186.3" style="stroke-dasharray: 7px, 11px; stroke-dashoffset: 0px;"></path>
	<path class="st1" d="M901.9,200.9c0.3,0.1,0.6,0,0.9,0c0.1,0,0.2,0,0.2,0c0-0.2,0.2-0.1,0.3-0.2   C902.8,200.3,902.5,200.4,901.9,200.9" style="stroke-dasharray: 4px, 8px; stroke-dashoffset: 0px;"></path>
	<path class="st1" d="M899.1,202.3c0.3,0.3,0.5,0.3,0.6,0.1C899.4,202.3,899.4,202.3,899.1,202.3" style="stroke-dasharray: 2px, 6px; stroke-dashoffset: 0px;"></path>
	<path class="st1" d="M917.8,195.1c0.1,0.1,0.3,0,0.4,0.1c0,0,0.1,0,0.1-0.1s0-0.1-0.1-0.1s-0.2,0-0.2-0.1c-0.1,0-0.1,0-0.1,0h-0.1   C917.7,195.1,917.7,195.1,917.8,195.1" style="stroke-dasharray: 2px, 6px; stroke-dashoffset: 0px;"></path>
	<path class="st1" d="M894.3,190.1C894.3,190,894.3,190,894.3,190.1c-0.1-0.1-0.1,0-0.2,0.1l0,0   C894.2,190.2,894.3,190.2,894.3,190.1" style="stroke-dasharray: 1px, 5px; stroke-dashoffset: 0px;"></path>
	<path class="st1" d="M894.1,190.2L894.1,190.2L894.1,190.2L894.1,190.2L894.1,190.2" style="stroke-dasharray: 0px, 4px; stroke-dashoffset: 0px;"></path>
	<path class="st2" d="M934.1,191.3L934.1,191.3L934.1,191.3L934.1,191.3L934.1,191.3" style="stroke-dasharray: 0px, 4px; stroke-dashoffset: 0px;"></path>
	<path class="st2" d="M934.2,191.4L934.2,191.4c-0.1-0.1-0.1-0.2-0.1-0.2C934.1,191.4,934.1,191.4,934.2,191.4" style="stroke-dasharray: 1px, 5px; stroke-dashoffset: 0px;"></path>
	<path class="st1" d="M924.5,184.2c0,0.1,0,0.1,0.1,0.1l0,0C924.6,184.2,924.6,184.2,924.5,184.2   C924.5,184.2,924.5,184.1,924.5,184.2" style="stroke-dasharray: 1px, 5px; stroke-dashoffset: 0px;"></path>
</g>
<g>
	<path class="st3" d="M684.8,527.2c-0.4-0.1-0.8-0.2-1.2-0.3C684,527,684.4,527.1,684.8,527.2z" style="stroke-dasharray: 3px, 7px; stroke-dashoffset: 0px;"></path>
	<path class="st3" d="M686.7,527.6c-0.4-0.1-0.8-0.1-1.2-0.2C685.9,527.4,686.3,527.5,686.7,527.6z" style="stroke-dasharray: 3px, 7px; stroke-dashoffset: 0px;"></path>
	<path class="st3" d="M681.8,526.5c0.4,0.1,0.8,0.2,1.2,0.3C682.6,526.7,682.2,526.6,681.8,526.5   C681.8,526.4,681.8,526.4,681.8,526.5z" style="stroke-dasharray: 3px, 7px; stroke-dashoffset: 0px;"></path>
	<path class="st3" d="M691.2,528c0.6,0,1.2,0,1.8,0s1.3,0,1.9,0c-0.6,0-1.3,0-1.9,0C692.4,528.1,691.8,528.1,691.2,528z" style="stroke-dasharray: 8px, 12px; stroke-dashoffset: 0px;"></path>
	<path class="st3" d="M688.9,527.9c-0.6-0.1-1.1-0.1-1.7-0.2C687.8,527.7,688.3,527.8,688.9,527.9z" style="stroke-dasharray: 4px, 8px; stroke-dashoffset: 0px;"></path>
	<path class="st3" d="M698.9,527.7c-0.6,0.1-1.1,0.2-1.7,0.2C697.8,527.8,698.3,527.7,698.9,527.7z" style="stroke-dasharray: 4px, 8px; stroke-dashoffset: 0px;"></path>
	<path class="st3" d="M700.9,527.3c-0.5,0.1-1.1,0.2-1.6,0.3C699.8,527.5,700.3,527.4,700.9,527.3z" style="stroke-dasharray: 4px, 8px; stroke-dashoffset: 0px;"></path>
	<path class="st3" d="M690.7,528c-0.5,0-0.9-0.1-1.4-0.1C689.8,527.9,690.3,528,690.7,528z" style="stroke-dasharray: 3px, 7px; stroke-dashoffset: 0px;"></path>
	<path class="st3" d="M701.8,527.1L701.8,527.1c-0.2,0-0.4,0.1-0.6,0.1C701.4,527.2,701.6,527.2,701.8,527.1z" style="stroke-dasharray: 2px, 6px; stroke-dashoffset: 0px;"></path>
	<path class="st3" d="M696.9,527.9c-0.6,0.1-1.2,0.1-1.8,0.1C695.7,528,696.3,528,696.9,527.9z" style="stroke-dasharray: 4px, 8px; stroke-dashoffset: 0px;"></path>
	<path class="st3" d="M656.9,473.2c0.1-0.2,0.2-0.4,0.3-0.6C657.1,472.8,657,473,656.9,473.2z" style="stroke-dasharray: 2px, 6px; stroke-dashoffset: 0px;"></path>
	<path class="st3" d="M657.8,471.3c0,0,0,0.1-0.1,0.1L657.8,471.3L657.8,471.3z" style="stroke-dasharray: 1px, 5px; stroke-dashoffset: 0px;"></path>
	<path class="st3" d="M655.1,478.5L655.1,478.5c0-0.2,0.1-0.3,0.1-0.4C655.1,478.2,655.1,478.4,655.1,478.5z" style="stroke-dasharray: 1px, 5px; stroke-dashoffset: 0px;"></path>
	<path class="st3" d="M656.2,474.9c0.1-0.2,0.2-0.4,0.2-0.6C656.4,474.6,656.3,474.7,656.2,474.9z" style="stroke-dasharray: 2px, 6px; stroke-dashoffset: 0px;"></path>
	<path class="st3" d="M655.6,476.8c0.1-0.2,0.1-0.4,0.2-0.6C655.7,476.4,655.6,476.6,655.6,476.8z" style="stroke-dasharray: 2px, 6px; stroke-dashoffset: 0px;"></path>
	<path class="st3" d="M687.3,449.8c0.6-0.1,1.2-0.2,1.7-0.2C688.4,449.7,687.8,449.7,687.3,449.8z" style="stroke-dasharray: 4px, 8px; stroke-dashoffset: 0px;"></path>
	<path class="st3" d="M658.7,469.5L658.7,469.5c0.2-0.3,0.4-0.6,0.5-0.9C659.1,468.9,658.9,469.2,658.7,469.5z" style="stroke-dasharray: 3px, 7px; stroke-dashoffset: 0px;"></path>
	<path class="st3" d="M685.3,450.2c0.5-0.1,1-0.2,1.5-0.3C686.3,450,685.8,450.1,685.3,450.2z" style="stroke-dasharray: 4px, 8px; stroke-dashoffset: 0px;"></path>
	<path class="st3" d="M683.4,450.6c0.5-0.1,1.1-0.3,1.7-0.4C684.5,450.3,684,450.5,683.4,450.6z" style="stroke-dasharray: 4px, 8px; stroke-dashoffset: 0px;"></path>
	<path class="st3" d="M679.7,451.7c0.5-0.2,1-0.4,1.6-0.5C680.7,451.4,680.2,451.5,679.7,451.7z" style="stroke-dasharray: 4px, 8px; stroke-dashoffset: 0px;"></path>
	<path class="st3" d="M691.3,449.4c0.6,0,1.2,0,1.8,0C692.4,449.4,691.8,449.4,691.3,449.4z" style="stroke-dasharray: 4px, 8px; stroke-dashoffset: 0px;"></path>
	<path class="st3" d="M681.6,451.1c0.5-0.1,0.9-0.3,1.4-0.4C682.5,450.8,682,451,681.6,451.1z" style="stroke-dasharray: 3px, 7px; stroke-dashoffset: 0px;"></path>
	<path class="st3" d="M703.1,450.7c0.4,0.1,0.7,0.2,1.1,0.3C703.8,450.9,703.4,450.8,703.1,450.7z" style="stroke-dasharray: 3px, 7px; stroke-dashoffset: 0px;"></path>
	<path class="st3" d="M701.3,450.3c0.3,0.1,0.7,0.2,1,0.2C702,450.4,701.6,450.3,701.3,450.3z" style="stroke-dasharray: 3px, 7px; stroke-dashoffset: 0px;"></path>
	<path class="st3" d="M706.4,451.7c-0.5-0.2-1.1-0.4-1.6-0.5C705.4,451.4,705.9,451.5,706.4,451.7L706.4,451.7z" style="stroke-dasharray: 4px, 8px; stroke-dashoffset: 0px;"></path>
	<path class="st3" d="M693.1,449.4c0.6,0,1.3,0,1.9,0C694.3,449.4,693.7,449.4,693.1,449.4z" style="stroke-dasharray: 4px, 8px; stroke-dashoffset: 0px;"></path>
	<path class="st3" d="M695.6,449.5c0.4,0,0.8,0.1,1.2,0.1C696.4,449.5,696,449.5,695.6,449.5z" style="stroke-dasharray: 3px, 7px; stroke-dashoffset: 0px;"></path>
	<path class="st3" d="M697.6,449.7c0.4,0,0.7,0.1,1.1,0.1C698.3,449.7,697.9,449.7,697.6,449.7z" style="stroke-dasharray: 3px, 7px; stroke-dashoffset: 0px;"></path>
	<path class="st3" d="M699.5,449.9c0.4,0.1,0.7,0.1,1,0.2C700.2,450,699.8,450,699.5,449.9z" style="stroke-dasharray: 3px, 7px; stroke-dashoffset: 0px;"></path>
	<path class="st3" d="M689.1,449.6c0.5-0.1,1.1-0.1,1.6-0.1C690.2,449.5,689.7,449.5,689.1,449.6z" style="stroke-dasharray: 4px, 8px; stroke-dashoffset: 0px;"></path>
	<path class="st3" d="M662.9,463.5c0.3-0.3,0.5-0.6,0.8-0.9C663.4,462.9,663.2,463.2,662.9,463.5z" style="stroke-dasharray: 3px, 7px; stroke-dashoffset: 0px;"></path>
	<path class="st3" d="M661.7,464.9c0.3-0.3,0.5-0.7,0.8-1C662.2,464.3,662,464.6,661.7,464.9z" style="stroke-dasharray: 3px, 7px; stroke-dashoffset: 0px;"></path>
	<path class="st3" d="M664.1,462.1c0.3-0.3,0.6-0.7,1-1C664.7,461.5,664.4,461.8,664.1,462.1z" style="stroke-dasharray: 3px, 7px; stroke-dashoffset: 0px;"></path>
	<path class="st3" d="M665.5,460.7c0.3-0.3,0.6-0.5,0.8-0.8C666,460.1,665.8,460.4,665.5,460.7z" style="stroke-dasharray: 3px, 7px; stroke-dashoffset: 0px;"></path>
	<path class="st3" d="M678,452.4c0.4-0.2,0.8-0.3,1.2-0.5C678.8,452,678.4,452.2,678,452.4z" style="stroke-dasharray: 3px, 7px; stroke-dashoffset: 0px;"></path>
	<path class="st3" d="M659.6,468c0.2-0.3,0.4-0.7,0.6-1C660,467.3,659.8,467.7,659.6,468z" style="stroke-dasharray: 3px, 7px; stroke-dashoffset: 0px;"></path>
	<path class="st3" d="M660.6,466.5c0.2-0.3,0.5-0.7,0.7-1C661.1,465.8,660.8,466.1,660.6,466.5z" style="stroke-dasharray: 3px, 7px; stroke-dashoffset: 0px;"></path>
	<path class="st3" d="M666.7,459.5c0.4-0.3,0.8-0.7,1.2-1C667.5,458.9,667.1,459.2,666.7,459.5z" style="stroke-dasharray: 4px, 8px; stroke-dashoffset: 0px;"></path>
	<path class="st3" d="M672.8,455c0.5-0.3,0.9-0.5,1.4-0.8C673.7,454.5,673.2,454.7,672.8,455z" style="stroke-dasharray: 4px, 8px; stroke-dashoffset: 0px;"></path>
	<path class="st3" d="M674.6,454c0.4-0.2,0.8-0.4,1.1-0.6C675.3,453.6,675,453.8,674.6,454z" style="stroke-dasharray: 3px, 7px; stroke-dashoffset: 0px;"></path>
	<path class="st3" d="M671.3,455.9c0.3-0.2,0.7-0.4,1-0.7C672,455.5,671.7,455.7,671.3,455.9z" style="stroke-dasharray: 3px, 7px; stroke-dashoffset: 0px;"></path>
	<path class="st3" d="M669.6,457.1c0.4-0.3,0.8-0.6,1.3-0.9C670.5,456.5,670,456.8,669.6,457.1z" style="stroke-dasharray: 4px, 8px; stroke-dashoffset: 0px;"></path>
	<path class="st3" d="M668.3,458.2c0.3-0.2,0.6-0.5,0.9-0.7C668.9,457.7,668.6,457.9,668.3,458.2z" style="stroke-dasharray: 3px, 7px; stroke-dashoffset: 0px;"></path>
	<path class="st3" d="M676.1,453.2c0.5-0.2,1-0.5,1.5-0.7C677.1,452.7,676.6,453,676.1,453.2z" style="stroke-dasharray: 4px, 8px; stroke-dashoffset: 0px;"></path>
	<path class="st3" d="M683,450.7c0.1,0,0.3-0.1,0.4-0.1C683.3,450.6,683.1,450.7,683,450.7z" style="stroke-dasharray: 1px, 5px; stroke-dashoffset: 0px;"></path>
	<path class="st3" d="M685.1,450.2c0.1,0,0.2,0,0.3,0C685.2,450.2,685.1,450.2,685.1,450.2z" style="stroke-dasharray: 1px, 5px; stroke-dashoffset: 0px;"></path>
	<path class="st3" d="M675.7,453.4c0.1-0.1,0.3-0.1,0.4-0.2C676,453.3,675.9,453.3,675.7,453.4z" style="stroke-dasharray: 1px, 5px; stroke-dashoffset: 0px;"></path>
	<path class="st3" d="M670.9,456.2c0.1-0.1,0.3-0.2,0.4-0.3C671.2,456,671,456.1,670.9,456.2z" style="stroke-dasharray: 2px, 6px; stroke-dashoffset: 0px;"></path>
	<path class="st3" d="M660.2,467c0.1-0.2,0.2-0.4,0.4-0.5C660.5,466.7,660.4,466.8,660.2,467z" style="stroke-dasharray: 2px, 6px; stroke-dashoffset: 0px;"></path>
	<path class="st3" d="M659.3,468.6c0.1-0.2,0.2-0.4,0.3-0.6C659.5,468.2,659.4,468.4,659.3,468.6z" style="stroke-dasharray: 2px, 6px; stroke-dashoffset: 0px;"></path>
	<path class="st3" d="M657.2,472.6c0.2-0.4,0.4-0.8,0.6-1.2C657.5,471.8,657.4,472.2,657.2,472.6z" style="stroke-dasharray: 3px, 7px; stroke-dashoffset: 0px;"></path>
	<path class="st3" d="M681.3,451.2c0.1,0,0.2-0.1,0.3-0.1C681.5,451.1,681.4,451.2,681.3,451.2z" style="stroke-dasharray: 1px, 5px; stroke-dashoffset: 0px;"></path>
	<path class="st3" d="M677.6,452.5c0.1-0.1,0.3-0.1,0.4-0.2C677.9,452.4,677.8,452.5,677.6,452.5z" style="stroke-dasharray: 1px, 5px; stroke-dashoffset: 0px;"></path>
	<path class="st3" d="M672.4,455.3c0.1-0.1,0.3-0.2,0.4-0.3C672.6,455.1,672.5,455.2,672.4,455.3z" style="stroke-dasharray: 2px, 6px; stroke-dashoffset: 0px;"></path>
	<path class="st3" d="M686.8,449.9c0.2,0,0.3,0,0.5-0.1C687.1,449.8,687,449.9,686.8,449.9z" style="stroke-dasharray: 2px, 6px; stroke-dashoffset: 0px;"></path>
	<path class="st3" d="M656.4,474.4c0.2-0.4,0.3-0.8,0.5-1.2C656.7,473.6,656.6,474,656.4,474.4z" style="stroke-dasharray: 3px, 7px; stroke-dashoffset: 0px;"></path>
	<path class="st3" d="M669.2,457.4c0.1-0.1,0.3-0.2,0.4-0.3C669.5,457.2,669.4,457.3,669.2,457.4z" style="stroke-dasharray: 2px, 6px; stroke-dashoffset: 0px;"></path>
	<path class="st3" d="M679.3,451.9c0.1-0.1,0.3-0.1,0.4-0.2C679.5,451.8,679.4,451.8,679.3,451.9z" style="stroke-dasharray: 1px, 5px; stroke-dashoffset: 0px;"></path>
	<path class="st3" d="M689,449.6L689,449.6C689.1,449.6,689.1,449.6,689,449.6z" style="stroke-dasharray: 1px, 5px; stroke-dashoffset: 0px;"></path>
	<path class="st3" d="M665,461.1c0.1-0.1,0.3-0.3,0.4-0.4C665.3,460.8,665.2,461,665,461.1z" style="stroke-dasharray: 2px, 6px; stroke-dashoffset: 0px;"></path>
	<path class="st3" d="M696.8,449.6c0.2,0,0.5,0.1,0.7,0.1C697.3,449.6,697.1,449.6,696.8,449.6z" style="stroke-dasharray: 2px, 6px; stroke-dashoffset: 0px;"></path>
	<path class="st3" d="M666.3,459.9c0.1-0.1,0.2-0.2,0.4-0.3C666.6,459.6,666.4,459.8,666.3,459.9z" style="stroke-dasharray: 2px, 6px; stroke-dashoffset: 0px;"></path>
	<path class="st3" d="M661.3,465.5c0.1-0.2,0.3-0.4,0.4-0.5C661.6,465.1,661.5,465.3,661.3,465.5z" style="stroke-dasharray: 2px, 6px; stroke-dashoffset: 0px;"></path>
	<path class="st3" d="M690.8,449.5c0.2,0,0.3,0,0.5,0C691.1,449.4,690.9,449.5,690.8,449.5z" style="stroke-dasharray: 2px, 6px; stroke-dashoffset: 0px;"></path>
	<path class="st3" d="M674.2,454.2c0.1-0.1,0.3-0.2,0.4-0.2C674.4,454.1,674.3,454.1,674.2,454.2z" style="stroke-dasharray: 1px, 5px; stroke-dashoffset: 0px;"></path>
	<path class="st3" d="M667.8,458.5c0.1-0.1,0.3-0.2,0.5-0.4C668.1,458.3,668,458.4,667.8,458.5z" style="stroke-dasharray: 2px, 6px; stroke-dashoffset: 0px;"></path>
	<path class="st3" d="M695,449.4c0.2,0,0.4,0,0.6,0C695.4,449.5,695.2,449.5,695,449.4z" style="stroke-dasharray: 2px, 6px; stroke-dashoffset: 0px;"></path>
	<path class="st3" d="M704.2,451c0.2,0.1,0.5,0.1,0.7,0.2C704.6,451.1,704.4,451.1,704.2,451z" style="stroke-dasharray: 2px, 6px; stroke-dashoffset: 0px;"></path>
	<path class="st3" d="M662.5,464c0.1-0.2,0.3-0.3,0.4-0.5C662.8,463.6,662.6,463.8,662.5,464z" style="stroke-dasharray: 2px, 6px; stroke-dashoffset: 0px;"></path>
	<path class="st3" d="M702.3,450.5c0.3,0.1,0.5,0.1,0.8,0.2C702.8,450.6,702.6,450.6,702.3,450.5z" style="stroke-dasharray: 2px, 6px; stroke-dashoffset: 0px;"></path>
	<path class="st3" d="M663.7,462.6c0.1-0.1,0.3-0.3,0.4-0.4C663.9,462.3,663.8,462.4,663.7,462.6z" style="stroke-dasharray: 2px, 6px; stroke-dashoffset: 0px;"></path>
	<path class="st3" d="M700.5,450.1c0.3,0.1,0.5,0.1,0.8,0.2C701,450.2,700.8,450.2,700.5,450.1z" style="stroke-dasharray: 2px, 6px; stroke-dashoffset: 0px;"></path>
	<path class="st3" d="M698.7,449.8c0.3,0,0.5,0.1,0.8,0.1C699.2,449.9,698.9,449.8,698.7,449.8z" style="stroke-dasharray: 2px, 6px; stroke-dashoffset: 0px;"></path>
	<path class="st3" d="M655.8,476.2c0.1-0.4,0.3-0.8,0.4-1.2C656,475.4,655.9,475.8,655.8,476.2z" style="stroke-dasharray: 3px, 7px; stroke-dashoffset: 0px;"></path>
	<path class="st3" d="M687.2,527.6c-0.2,0-0.3-0.1-0.5-0.1C686.9,527.6,687,527.6,687.2,527.6z" style="stroke-dasharray: 2px, 6px; stroke-dashoffset: 0px;"></path>
	<path class="st3" d="M732.4,488.7c0-17-10.8-31.5-26-37c0.1,0.3,0.2,0.1,0.2,0.3c0.1,0.1,0.4,0.2,0.5,0.3c0.1,0.1,0.3,0.1,0.3,0.2   c-0.1,0.1-0.6,0.1-0.8,0.1s-0.1,0,0,0.3c0.1,0.2-0.3-0.1-0.5-0.1c-0.2-0.1-0.5,0-0.6,0c-0.1,0-0.2,0.1-0.3,0.1   c-0.2,0-0.2-0.1-0.4,0c-0.1,0,0,0.1,0.1,0.2c0.1,0.2,0.1,0.2,0.2,0.2c0.1,0.1,0.3,0.1,0.5,0.2s0.2,0.2,0.3,0.2   c0.1,0.1-0.1,0.1-0.1,0.2s0.1,0.3,0.3,0.4c0.1,0.1-0.2,0.1-0.3,0.1s-0.1,0.1,0,0.2c0,0.1,0,0.2-0.1,0.3c-0.1,0.1,0,0.2,0,0.4   c0,0.2-0.1,0.3-0.2,0.3c-0.1,0-0.2-0.1-0.3-0.3c-0.1-0.2-0.5-0.5-0.8-0.7s-0.6-0.6-0.7-1c-0.1-0.4,0.2-0.4,0.2-0.6   c0.1-0.1,0-0.2,0.1-0.3c0.1-0.2,0.2-0.2,0.3-0.2c0.1,0,0.1-0.1,0-0.1c-0.1-0.1-0.2-0.2-0.3-0.3c-0.1-0.1-0.2,0-0.2,0.1   s-0.1,0.1-0.2,0.2c-0.1,0-0.3-0.1-0.4-0.2c-0.1-0.1-0.3,0-0.6,0c-0.2,0-0.4,0.2-0.5,0.3c-0.1,0.1-0.1,0.1-0.2,0.2   c0,0.1-0.5,0-0.6,0c-0.2,0-0.1-0.1-0.2-0.1c-0.1-0.1-0.5,0-0.6-0.1c-0.2,0-0.5,0.1-0.7,0.1c-0.3,0-1.2-0.1-1.5-0.1s-1,0.3-1.4,0.6   c-0.4,0.2-0.9,0.5-1.1,0.6s-0.1,0.1,0.1,0.2c0.1,0,0.3,0.1,0.4,0.1c0.1,0,0.1,0.1,0.2,0.2c0.1,0.2,0.1,0,0.2-0.1   c0.1-0.1,0,0,0.1,0.2c0.1,0.2,0.1,0.1,0.2,0c0.1-0.1,0.2-0.2,0.4-0.2c0.2,0,0.5,0.1,0.7,0.2s0.4,0.1,0.6,0.1s0.1-0.2,0.2-0.3   c0-0.1,0.1,0.1,0.2,0.2c0.1,0.1,0.2,0.3,0.2,0.5s0.1,0.2,0.3,0.4c0.2,0.1,0.4,0.5,0.5,0.7c0.1,0.2-0.2,0.1-0.4,0.1   s-0.1,0.2-0.1,0.4s0,0.2,0.2,0.3c0.2,0.1,0.4,0.2,0.6,0.4c0.2,0.2-0.2-0.1-0.5-0.1c-0.2,0-0.1,0.2-0.2,0.3   c-0.1,0.1-0.2-0.2-0.2-0.4c0-0.1-0.1-0.2-0.1-0.4s0-0.1-0.1-0.2c-0.1-0.1-0.1-0.2-0.1-0.3c0-0.1,0-0.2-0.1-0.3   c0-0.1-0.1-0.2-0.2-0.3c-0.1-0.2,0-0.2-0.2-0.3c-0.2-0.1-0.4-0.2-0.5-0.1c-0.1,0.1-0.1,0.2-0.1,0.4c0,0.2,0.1,0.3,0.2,0.5   c0.1,0.2-0.1,0.4-0.2,0.5c-0.1,0.1-0.2,0.2-0.3,0.4c-0.1,0.2-0.2,0.3-0.4,0.6c-0.2,0.2-0.5,0.5-0.8,0.7c-0.3,0.3-0.5,0.4-0.9,0.6   c-0.4,0.1-0.9,0-1-0.1c-0.2-0.1-0.3,0-0.5,0.1c-0.1,0.1-0.4,0.3-0.6,0.4s-0.2,0.4-0.3,0.5c0,0.2-0.3,0.2-0.5,0.4   c-0.2,0.1-0.4,0.2-0.6,0.3c-0.2,0.1-0.3,0.3-0.2,0.4s0.2,0.1,0.3,0.3c0.1,0.2,0.5,0.5,0.7,0.6c0.2,0.2,0.1,0.4,0.1,0.6   s0.1,0.2,0.1,0.4c0,0.2-0.4,0.3-0.5,0.4c-0.2,0.1-0.3,0.1-0.4,0.1c-0.1,0-0.2,0-0.4,0.1c-0.2,0.1-0.3,0.2-0.6,0.2   c-0.3,0-0.3-0.2-0.3-0.4c0-0.1,0.2-0.2,0.3-0.5c0.1-0.2-0.2-0.4-0.3-0.5s0-0.1,0.2-0.2s0.1-0.2-0.1-0.3c-0.1-0.1-0.3-0.1-0.4-0.1   c-0.1,0-0.2,0-0.3-0.2c-0.1-0.1,0-0.2,0.1-0.4c0.1-0.2,0.2-0.3,0.1-0.5c-0.1-0.1-0.4-0.1-0.7-0.1c-0.4,0-0.9,0.2-1.2,0.4   c-0.2,0.2-0.3,0.2-0.5,0.2s0-0.1,0.1-0.2c0.1-0.1,0-0.1-0.1-0.1c-0.1-0.1,0-0.1,0.1-0.2c0.1-0.1,0.3-0.3,0.5-0.4   c0.1-0.1-0.1-0.2-0.3-0.3c-0.2,0-0.4,0-0.5,0.1c-0.1,0.1-0.4,0.3-0.6,0.3s-0.4,0.2-0.6,0.4c-0.1,0.2-0.4,0.2-0.6,0.1   c-0.3,0-0.5,0.1-0.4,0.4c0.1,0.3,0.6,0.2,0.8,0.2s0.1,0.1-0.1,0.3c-0.1,0.1,0,0.2,0.2,0.3c0.2,0.1,0.4-0.1,0.5-0.2   c0.1-0.1,0.2-0.1,0.4-0.2c0.1-0.1,0.3,0,0.4,0.1c0.1,0.1,0.2,0,0.4,0s0.4,0,0.5,0.2c0.1,0.1-0.2,0.2-0.5,0.2s-0.4,0.2-0.8,0.4   c-0.4,0.2-0.9,0.6-0.9,0.7c-0.1,0.1,0,0.1,0.2,0.2s0.3,0.1,0.5,0.2c0.2,0.2,0.2,0.6,0.2,0.8s0.1,0.2,0.2,0.3   c0.1,0.1,0.2,0.2,0.3,0.3c0.1,0.2,0,0.3,0.1,0.4c0.1,0.1-0.2,0.2-0.3,0.2c-0.2,0-0.4,0.2-0.5,0.4c-0.1,0.2,0.2,0,0.3,0   c0.2,0,0.3,0.1,0.4,0.2c0.1,0.1,0.1,0.3,0,0.5c0,0.2-0.1,0.1-0.2,0c-0.1,0,0,0.2-0.1,0.4c-0.1,0.2-0.2,0.1-0.4,0.2   s-0.3,0.3-0.3,0.5s-0.2,0.4-0.4,0.5c-0.2,0.1-0.4,0.5-0.5,0.7c-0.1,0.2-0.3,0.2-0.5,0.4c-0.2,0.1-0.4,0.4-0.7,0.7   c-0.3,0.3-0.8,0.5-1.1,0.6c-0.3,0.2-0.8,0.3-1,0.3s-0.4,0.1-0.5,0.2c-0.1,0.2-0.2,0.1-0.3,0.1c-0.2,0-0.3,0.2-0.4,0.2   c-0.1,0.1-0.5,0.1-0.6,0.1c-0.1,0-0.3,0.1-0.4,0.2c-0.1,0.1-0.5,0-0.6,0c-0.1,0-0.3,0.3-0.5,0.4c-0.1,0.1,0,0.1,0,0.2   c0.1,0.1,0.1,0.2,0.1,0.3c0,0.1-0.2,0.1-0.4,0.1c-0.1,0-0.1-0.1-0.2-0.2c0-0.1,0-0.2,0-0.3c0-0.1,0.1-0.2,0.2-0.3   c0.1-0.1-0.1-0.1-0.2-0.1c-0.1,0-0.2,0-0.3,0.1s-0.1-0.2-0.2-0.2c-0.1,0-0.3,0.1-0.5,0.1s-0.4,0.3-0.5,0.3   c-0.1,0.1-0.2,0.1-0.3,0.3c-0.1,0.2-0.3,0.4-0.4,0.5c-0.1,0.1-0.4,0.4-0.5,0.7c-0.1,0.2,0,0.3,0.1,0.5c0.1,0.1,0.1,0.2,0.2,0.3   c0.2,0.1,0,0.1,0,0.2s0.3,0.5,0.4,0.6c0.1,0.1,0.2,0.1,0.4,0.2c0.2,0.1,0.2,0.2,0.3,0.4c0.1,0.2,0.4,0.5,0.5,1.1   c0.1,0.6,0,1.1-0.1,1.3c0,0.2-0.1,0.6-0.3,0.8c-0.2,0.2-0.3,0.2-0.8,0.5c-0.4,0.3-0.3,0.1-0.6,0.3c0,0-0.1,0.3-0.3,0.6   c-0.2,0.3-0.5,0.4-0.6,0.4c-0.1,0-0.2,0.1-0.3,0.3c-0.1,0.2-0.2,0.2-0.3,0.2c-0.1,0,0-0.4,0-0.6s0-0.3,0-0.5s-0.2-0.3-0.3-0.4   c-0.1-0.1-0.3-0.1-0.4,0c-0.1,0.1,0-0.1,0-0.2s0-0.1-0.1-0.2c-0.1-0.1-0.1,0.1-0.3,0.2c-0.2,0-0.1-0.3-0.1-0.6   c0-0.2-0.2-0.4-0.4-0.3c-0.2,0.1,0-0.2-0.3-0.4c-0.2-0.1-0.3,0-0.4,0s-0.2,0-0.2-0.1c-0.1-0.1,0.1-0.3,0.1-0.4s0-0.2-0.1-0.2   c-0.1,0-0.3,0-0.4,0.2c-0.1,0.1-0.1,0.5-0.2,0.7c0,0.3-0.3,0.6-0.4,0.8c-0.1,0.2,0,0.3-0.2,0.6c-0.2,0.3-0.1,0.8-0.1,1   s0.1,0.1,0.3,0c0.1-0.1,0.1,0,0.1,0.2c0.1,0.1,0,0.3,0.1,0.5c0.1,0.2,0.1,0.7,0.1,0.8c0,0.2,0.3,0.3,0.5,0.3s0.2,0.1,0.3,0.2   c0.1,0.1,0,0.2,0.2,0.3c0.1,0.1,0.2,0.1,0.3,0.3c0.1,0.2,0.3,0.2,0.5,0.4s0.2,0.7,0.1,0.9c-0.1,0.3-0.1,0.7-0.1,0.9   c0,0.2,0,0.2,0.2,0.4c0.2,0.2,0.2,0.5,0.3,0.7c0,0.1-0.1,0.2-0.2,0.2c-0.1,0-0.2,0.1-0.3,0.1s-0.2-0.2-0.3-0.3   c-0.1-0.1-0.4-0.3-0.6-0.4c-0.3-0.1-0.4-0.3-0.5-0.4c-0.1-0.1-0.1-0.3-0.1-0.4s-0.1-0.2-0.2-0.4c-0.1-0.1-0.1-0.3-0.1-0.5   s-0.1-0.3-0.1-0.5s0-0.4,0-0.7c0-0.3-0.3-0.6-0.4-0.8c-0.1-0.2-0.2-0.5-0.3-0.5c-0.1-0.1-0.1-0.3-0.2-0.5c-0.1-0.2-0.1-0.1-0.2,0.1   c-0.1,0.1,0-0.1-0.1-0.3c-0.1-0.1,0.1-0.5,0.1-0.6c0.1-0.2,0.1-0.5,0.1-0.9c0-0.3,0.2-0.4,0.2-0.7c0.1-0.2,0-0.3,0-0.6   c0-0.3,0.1-0.3,0.1-0.4c0.1-0.2,0-0.5-0.1-0.7c-0.1-0.2-0.1-0.3-0.1-0.5s0.1-0.7,0.1-1.1s-0.1-0.5-0.2-0.6c-0.1-0.1-0.2,0-0.5,0.1   c-0.3,0.2-0.5,0.4-0.6,0.6c-0.2,0.1-0.5,0-0.6-0.1c-0.1-0.1,0.2-0.6,0.4-1c0.2-0.5,0.1-0.7,0-0.9c0-0.2-0.2-0.1-0.3,0   c-0.1,0.1,0,0,0-0.3s0.1-0.3,0.1-0.4c0.1-0.1,0-0.2-0.1-0.2c-0.1,0-0.1-0.1-0.4-0.4c-0.2-0.3-0.2-0.9-0.1-1.1   c0.1-0.2,0-0.3-0.1-0.5c-0.1-0.2-0.2,0-0.3,0.1c-0.1,0-0.1,0.1-0.2,0.3c-0.1,0.2-0.5,0.3-0.6,0.3c-0.1,0.1-0.3,0.1-0.5,0.1   c-0.1,0-0.1-0.1-0.2-0.2s-0.1,0.1-0.2,0.2s-0.3,0.1-0.4,0.3c-0.2,0.2-0.1,0.2-0.1,0.4c0,0.2-0.1,0.3-0.3,0.5   c-0.2,0.3-0.5,0.4-0.7,0.5s-0.5,0.5-0.7,0.9c-0.3,0.4-0.5,0.6-0.8,0.7c-0.3,0.2-0.2,0.4-0.4,0.6c-0.1,0.2-0.3,0.1-0.4,0.2   s-0.2,0.2-0.3,0.3c-0.2,0.1-0.2,0.1-0.3,0.3c-0.1,0.2-0.3,0.7-0.3,1.2c0,0.4-0.3,1-0.5,1.2c-0.2,0.2-0.2,0.3-0.2,0.7   c0,0.4-0.1,0.5-0.2,0.6s-0.1,0.1-0.2,0.3c-0.1,0.2-0.3,0.5-0.4,0.6c-0.1,0.2-0.2,0.4-0.2,0.6c-0.1,0.2-0.2,0.1-0.3,0   c-0.1-0.1-0.1-0.6-0.2-1.1c-0.1-0.6,0-0.8,0-1.2c0-0.4,0-0.8,0.1-1.1c0-0.3,0.1-0.8,0.1-1.4s0.1-1,0.2-1.2c0.1-0.2,0.1-0.8,0.2-1.2   c0-0.4,0.3-0.9,0.4-1.1s0.1-0.6,0.1-0.8c0-0.2-0.1-0.2-0.1-0.1c-0.1,0.1-0.1,0.2-0.1,0.4c-0.1,0.1-0.3,0.3-0.4,0.4s-0.2,0.1-0.2,0   c-0.1-0.1-0.1-0.6-0.1-0.8c0-0.2,0.1-0.2,0.3-0.3c0.2-0.1,0.2-0.2,0.3-0.2c0.1-0.1-0.1,0-0.2,0.1c-0.1,0.1-0.1,0-0.2-0.2   c-0.1-0.2-0.1-0.3-0.1-0.5s0.2-0.4,0.2-0.6s-0.2,0-0.5,0.2c-0.2,0.2-0.5,0.1-0.6,0.1c-0.2,0-0.2-0.1-0.2-0.2s0.2-0.4,0.2-0.6   c0-0.1-0.1-0.5-0.2-0.8c-0.3,0.6-0.6,1.2-0.9,1.8c0.1,0.2,0.3,0.5,0.3,0.7c0,0.3,0,0.5,0,0.7s-0.4,1.1-0.6,1.4s-0.4,0.8-0.5,1   c-0.1,0.3-0.2,0.4-0.3,0.5c-0.1,0.2-0.1,0.2-0.2,0.5c-0.2,0.3-0.5,1.5-0.6,1.9c-0.1,0.3-0.6,0.5-0.8,0.5c-0.9,3.3-1.4,6.7-1.4,10.2   c0,17.8,11.8,32.9,28.1,37.7c0-0.1,0-0.1,0-0.2c-0.1-0.2-0.2-0.2-0.5-0.3s0-0.2,0.2-0.1c0.2,0.1,0.3,0.1,0.4,0.2c0.1,0,0.3,0,0.4,0   c0.1,0,0.5,0.1,0.6,0.2c0.2,0.1,0.6,0,1,0.1c0.4,0,0.1-0.3,0-0.4c-0.1-0.1,0.2,0,0.4,0.1c0.2,0.1,0.5,0.1,0.7,0.1s0.1,0,0.3,0.1   c0.2,0.1,0.4,0,0.6-0.1c0.2,0,0.3,0,0.5,0.1c0.2,0.1,0.3,0.2,0.5,0.2s0.4,0.1,0.6,0.1c0.2,0.1,0.3,0,0.4-0.1   c0.2-0.1,0.5-0.1,0.7-0.1s0.5,0.2,0.6,0.2c0.1,0,0.3,0,0.6,0.1c0.3,0.1,0.9,0,1.1,0s0-0.1-0.1-0.2c-0.1-0.1,0-0.1,0.2,0   c0.2,0.1,0.1,0.1,0.3,0.2c0.1,0.1,0.3,0,0.4,0c0.1-0.1,0.1-0.1,0.3-0.1c0.2,0,0.4,0,0.6,0.1c0.2,0.1,0.5,0.1,0.7,0.1   s0.1-0.1,0.1-0.2c0-0.1,0.1,0,0.3,0c0.1,0,0.8,0,0.9,0c0.1,0,0.2-0.1,0.2-0.2c0.1-0.1,0.1,0,0.3,0.2c0.2,0.1,0.7,0,1.3,0.1   c0.6,0.1,0.9,0.1,1.1,0.1s0.3-0.1,0.4,0c0.2,0,0,0.1,0.1,0.2c0.1,0.1,0.3,0,0.6,0c0.3,0,1.4,0,1.6,0s0.2,0,0.5,0.1   c0.3,0.1,0.4,0,0.8,0c0,0,0.1,0,0.1,0.1C719.3,523.1,732.4,507.5,732.4,488.7z M728,498.3c0.3,0.3,0.1,0.3,0,0.3   C727.9,498.5,727.9,498.2,728,498.3z M724.4,500.5c0.1-0.1,0.3-0.2,0.5-0.3c0.2-0.1,0,0.2,0,0.3c0,0.1-0.3,0.2-0.5,0.2   C724.3,500.8,724.2,500.7,724.4,500.5z M723.6,501.3c0.3-0.4,0.5-0.1,0.5,0.1s-0.1,0.3-0.2,0.4c-0.1,0-0.3,0-0.4-0.1   C723.3,501.5,723.5,501.4,723.6,501.3z M696.8,453.6c0,0.1-0.2,0.1-0.3,0s-0.1-0.1,0.1-0.1C696.9,453.5,696.9,453.5,696.8,453.6z    M661.1,483.8c-0.2,0-0.2-0.2-0.3-0.6c0-0.4,0.1-1,0.1-1.3c0.1-0.2,0.1-0.6,0.1-0.8c-0.1-0.1,0-0.2,0.1-0.2c0.1,0,0.2,0.3,0.3,0.5   c0.1,0.2,0.3,0.6,0.3,1.2C661.9,483.4,661.4,483.7,661.1,483.8z M667.3,480c-0.1,0.2-0.2,0-0.1-0.2   C667.2,479.7,667.4,479.8,667.3,480z M667.5,479.3c0,0.2-0.1,0-0.1-0.2c0-0.1,0.2-0.5,0.2-0.7s0.1-0.3,0.1-0.5   c0.1-0.1,0.1-0.2,0.1-0.1s-0.1,0.2-0.1,0.3c0,0.2-0.1,0.4-0.2,0.5C667.6,478.9,667.5,479.1,667.5,479.3z M667.7,482.7   c0-0.2,0.1-0.2,0.2,0.1C667.9,483,667.7,482.9,667.7,482.7z M718.8,496.1c0.2,0,0.1,0.2,0,0.2C718.7,496.4,718.6,496.1,718.8,496.1   z M718.2,503.7c0.2,0,0.1,0.2,0,0.2C718,503.9,718,503.7,718.2,503.7z M716.7,503.4c0.1,0.1,0.4,0.5,0.5,0.6   c0.1,0.1,0.6,0.6,0.6,0.8c0,0.2-0.3,0-0.5-0.1s-0.3-0.3-0.5-0.6c-0.2-0.3-0.3-0.4-0.3-0.6C716.6,503.3,716.6,503.2,716.7,503.4z    M716.4,496.4c-0.1-0.1-0.3-0.2-0.3-0.3c0-0.1,0.2,0,0.4,0.2C716.7,496.4,716.5,496.5,716.4,496.4z M716,494.6c0,0.1,0,0.2,0.1,0.4   c0.1,0.2,0.2,0.3,0.3,0.5c0.1,0.2-0.3-0.2-0.4-0.3c-0.1-0.2-0.1-0.3-0.1-0.5S716,494.5,716,494.6z M715.5,494.9   c0.1-0.1,0.3,0,0.1,0.2C715.5,495.2,715.3,495,715.5,494.9z M714.7,456.1c0.2,0,0.2,0.1,0,0.2C714.6,456.3,714.6,456.1,714.7,456.1   z M714.6,493.9c0.1,0.1,0.2,0.1,0.3,0.3c0.2,0.1,0.3,0.2,0.3,0.4c0,0.2-0.3-0.1-0.4-0.2c-0.1-0.1-0.3-0.3-0.4-0.4   C714.4,493.9,714.5,493.8,714.6,493.9z M714.9,495.1c-0.1,0.1-0.3,0-0.1-0.2C714.9,494.8,715.1,495,714.9,495.1z M714.3,456.2   c0.2,0,0.3,0.2,0.1,0.2C714.3,456.4,714.2,456.2,714.3,456.2z M714,494.7c-0.1-0.1-0.1-0.2-0.2-0.2c-0.1,0-0.2,0-0.3-0.1   c0-0.1,0-0.3,0.1-0.1c0.1,0.1,0.1,0,0.2,0c0.1,0,0.1,0,0.2,0.2c0.1,0.1,0.1,0.1,0.1,0.3C714.3,494.9,714.1,494.9,714,494.7z    M713.6,456.2c0.3,0,0.1,0.2-0.1,0.1C713.3,456.3,713.4,456.2,713.6,456.2z M713.4,493.2c0.1,0,0.2,0.2,0.3,0.3   c0.1,0.1,0.3,0.2,0.4,0.2c0.1,0,0.1,0.1,0,0.2c-0.1,0-0.3,0-0.4-0.1c-0.1-0.1-0.3-0.3-0.4-0.4C713.1,493.2,713.3,493.1,713.4,493.2   z M713.2,493.9c0.1-0.1,0.3,0,0.1,0.2C713.2,494.2,713.1,494,713.2,493.9z M712.7,456.1c0.2,0,0.2,0.2,0,0.2S712.5,456,712.7,456.1   z M712,492c0,0,0.2,0.2,0.3,0.4c0.2,0.2,0.2,0.3,0.4,0.5c0.2,0.2,0.2,0.3,0.1,0.4c-0.1,0.1-0.3,0-0.5-0.2s-0.2-0.3-0.3-0.5   c0-0.2-0.2-0.3-0.2-0.4C711.9,492,712,492,712,492z M711.8,455.8c0.2,0,0.1,0.2-0.1,0.1C711.4,455.9,711.6,455.8,711.8,455.8z    M711.5,496.7c0.1-0.1,0.3,0,0.1,0.2C711.5,497,711.3,496.8,711.5,496.7z M711,455.5c0.1-0.1,0.2,0.1,0.1,0.2   C711,455.8,710.9,455.6,711,455.5z M710.3,455.3c0.2,0,0.1,0.2-0.1,0.1C710,455.4,710.1,455.2,710.3,455.3z M708.8,489.8   c0.1-0.1,0.3,0.1,0.4,0.2c0.1,0.1,0.3,0,0.5,0.2c0.2,0.1,0.8,0.6,1.1,0.9s0.2,0.6,0.1,0.7c-0.1,0.1-0.1-0.3-0.1-0.4   s-0.3-0.4-0.5-0.5c-0.2-0.2-0.5-0.5-0.7-0.6c-0.3-0.1-0.5-0.1-0.6-0.2C708.8,489.9,708.7,489.9,708.8,489.8z M708.6,489.1   c0.2,0,0.1,0.2,0,0.2C708.5,489.4,708.4,489.1,708.6,489.1z M707.2,492.3c0.2,0,0.1,0.2,0,0.2C707.1,492.5,707.1,492.3,707.2,492.3   z M706.6,489.5c0.2,0,0.4,0,0.4,0.1s-0.3,0.1-0.6,0C706.2,489.6,706.4,489.5,706.6,489.5z M706.7,492.2c-0.1,0.1-0.3,0-0.1-0.2   C706.7,491.9,706.9,492.1,706.7,492.2z M705.1,455.6c0.2-0.1,0.3,0,0.2,0.1S705,455.7,705.1,455.6z M704.6,477.5   c0.2-0.1,0.1,0.1,0,0.2C704.5,477.8,704.5,477.5,704.6,477.5z M704.8,491c0.2,0,0.4,0.2,0.8,0.5c0.3,0.3,0.2,0.5,0.2,0.6   s0,0.1,0.1,0.2c0.2,0,0.2,0,0.4,0c0.2,0,0.3,0.2,0.5,0.3c0.2,0,0.3,0.2,0.4,0.5c0.1,0.2-0.4,0.2-0.5,0.2c-0.1,0-0.1,0.3,0.1,0.5   s0.3,0.4,0.5,0.5s0.2,0.4,0.3,0.6c0.1,0.2,0.1,0.2,0.3,0.2c0.2,0,0.2,0,0.2,0.2s0.2,0.2,0.3,0.2c0.1,0,0.1,0.1,0.1,0.2   c0.1,0.2,0.3,0.3,0.4,0.4c0.1,0.2-0.1,0.2-0.3,0s-0.3-0.1-0.7-0.2c-0.3-0.1-0.6-0.1-0.8-0.1s-0.3-0.2-0.4-0.4   c-0.1-0.2-0.3-0.4-0.4-0.5c-0.1-0.1-0.2-0.3-0.3-0.5s-0.3-0.3-0.5-0.3s-0.5-0.1-0.6-0.2c-0.2-0.1-0.6,0-0.7,0.1   c-0.1,0.2-0.2,0.4-0.3,0.6c-0.1,0.2-0.4,0.4-0.7,0.5s-0.8,0-1.1,0c-0.2,0-0.4-0.3-0.7-0.6c-0.3-0.3-0.3-0.3-0.6-0.3   c-0.2,0-0.4,0.1-0.6,0.2c-0.1,0.1-0.6,0-0.8,0s0-0.2,0.2-0.4c0.1-0.2,0.4-0.3,0.6-0.4s-0.1-0.5-0.2-0.8c-0.1-0.3-0.4-0.7-0.7-0.9   c-0.2-0.2-0.6-0.3-0.8-0.3c-0.2-0.1-0.5-0.2-0.8-0.2s-0.5-0.1-0.7-0.3c-0.2-0.2-0.4-0.2-0.7-0.4c-0.3-0.2-0.2-0.1-0.3,0   c-0.1,0.1-0.1,0.2-0.3,0.3c-0.2,0.1-0.2-0.2-0.2-0.4c0-0.2-0.1-0.2-0.3-0.3c-0.2-0.1-0.4-0.2-0.3-0.3c0.1-0.1,0.3,0,0.5,0   c0.1,0,0.1,0,0.3-0.2s0.3-0.1,0.4-0.1c0.1,0,0.2,0,0.2-0.2c0-0.1-0.3,0-0.5,0s-0.6,0-0.8-0.1c-0.2,0-0.2-0.3-0.3-0.5   c-0.1-0.1-0.3-0.1-0.5-0.1s-0.3-0.1-0.4-0.3c-0.1-0.1,0-0.2,0.2-0.2c0.1,0.1,0.2,0.1,0.3,0s0.1-0.1,0.3-0.1s0.4-0.2,0.6-0.3   c0.2-0.1,0.5,0.1,0.7,0.2c0.1,0.1,0.5,0,0.6,0.1c0.2,0.1,0.1,0.7,0,0.9c0,0.2,0.1,0.4,0.3,0.4s0.1,0.2,0.2,0.3c0,0.1,0,0.2,0.1,0.4   c0.1,0.2,0.4,0,0.6-0.2s0.3-0.4,0.5-0.6c0.1-0.1,0.2-0.1,0.5-0.2c0.3,0,0.2-0.2,0.3-0.4c0.1-0.1,0.3-0.1,0.4-0.1   c0.2,0,0.5,0.2,0.9,0.5c0.4,0.3,0.7,0.3,1.1,0.4c0.4,0.1,1.4,0.5,1.7,0.6s0.4,0.1,0.6,0.3C704.3,491,704.6,491,704.8,491z    M708.7,495.1c0.2,0,0.1,0.2,0,0.2C708.6,495.3,708.6,495.1,708.7,495.1z M700.9,500.8c-0.1,0.1-0.3,0.1-0.4,0.1   c-0.2,0,0-0.2,0.2-0.2C700.9,500.6,700.9,500.6,700.9,500.8z M697.4,493.2c0,0.2-0.2,0.1-0.3,0s-0.1,0-0.3,0.1s-0.1-0.3,0-0.5   c0-0.2,0-0.2,0.1-0.4c0.1-0.1,0-0.2,0.1-0.3c0.3-0.2,0.3,0,0.3,0.3s0,0.2,0.1,0.3C697.4,492.9,697.4,493.1,697.4,493.2z M696,492.4   c0,0.1-0.1,0.2-0.3,0.2c-0.2,0-0.3-0.2-0.1-0.3C695.8,492.1,696,492.2,696,492.4z M692.8,490.5c-0.3,0-0.3,0-0.4,0.1   c-0.1,0.1-0.3,0-0.4-0.1c-0.1-0.1,0-0.1,0.2-0.3c0.2-0.1,0.5-0.1,0.9-0.1c0.4,0,0.4,0.1,0.6,0.1c0.3,0,0.4,0.3,0.5,0.5   c0.1,0.2-0.1,0.2-0.3,0.1s-0.3-0.2-0.4-0.2C693.3,490.6,693,490.5,692.8,490.5z M693.4,494.2c-0.1,0.1-0.3,0-0.1-0.2   C693.4,493.9,693.5,494.1,693.4,494.2z M691.7,488.9c0.2,0,0.2,0.1,0.3,0.2c0.2,0.2-0.4,0.1-0.5,0.1   C691.5,489.1,691.5,488.9,691.7,488.9z M691.3,488.2c-0.1-0.2,0.1-0.1,0.2-0.1c0.1,0.1,0.3,0.3,0.3,0.4c0.1,0.1-0.1,0.1-0.2-0.1   C691.4,488.4,691.4,488.4,691.3,488.2z M692.7,467c0-0.2,0.2-0.1,0.3-0.2s0,0.2-0.1,0.3C692.8,467.2,692.7,467.1,692.7,467z    M693.6,489.2c0.2,0,0.3,0.1,0.2,0.2s-0.2,0-0.4,0C693.2,489.3,693.5,489.2,693.6,489.2z M693.6,465.6c0.1-0.1,0.2,0.1,0.1,0.2   C693.6,465.9,693.5,465.7,693.6,465.6z M693.9,487.9c0.1-0.1,0.3,0,0.5,0s0.2,0.1,0.1,0.2c-0.1,0.1-0.4,0.1-0.6,0   C693.8,488.1,693.8,488,693.9,487.9z M693.8,496.8c0.1-0.1,0.1-0.1,0.3,0c0.1,0.1,0.3,0,0.5,0s0.2,0,0.2,0.2   c-0.1,0.2-0.3,0.2-0.4,0.2c-0.1,0-0.4,0-0.6,0C693.5,497.1,693.7,497,693.8,496.8z M694.5,494.2c-0.1,0-0.2-0.1-0.2-0.3   c0-0.1,0.1-0.1,0.3-0.3c0.1-0.2,0.4-0.3,0.5-0.2c0.1,0.1-0.1,0.2-0.1,0.3C694.8,493.9,694.7,494.2,694.5,494.2z M695.1,463.6   c0.1-0.1,0.2-0.1,0.3-0.2c0.1-0.1,0.1,0,0.2,0c0.1,0,0.1,0,0.2-0.1c0.1,0,0.1-0.1,0.2-0.2c0.2-0.1,0.3,0.1,0.4,0.1   c0.1,0.1,0,0.2-0.1,0.2c-0.1,0.1-0.1,0.1-0.2,0.2c0,0.1,0,0.1-0.2,0c-0.1-0.1-0.1-0.1-0.2-0.1c-0.1,0-0.2,0-0.3,0.1   s-0.2,0.3-0.2,0.3c0,0.1-0.3,0-0.4-0.1C695,463.8,695,463.7,695.1,463.6z M698.3,488.8c-0.2,0-0.3,0-0.4-0.3   c-0.1-0.2,0.1-0.1,0.3,0C698.5,488.7,698.5,488.8,698.3,488.8z M698.8,489.3c0.1,0.1-0.1,0.1-0.3,0.1s-0.4,0-0.5-0.1   c-0.1-0.1,0.1-0.1,0.3-0.1C698.5,489.2,698.7,489.2,698.8,489.3z M703.6,457.3c0.2-0.1,0.1,0.2,0,0.2   C703.4,457.5,703.5,457.3,703.6,457.3z M702.7,457.6c0.1-0.1,0.4-0.1,0.5-0.1c0.2,0-0.2,0.1-0.3,0.2c-0.1,0-0.2,0.1-0.4,0.2   C702.4,458,702.5,457.8,702.7,457.6z M701.9,457.9c0.1-0.1,0.2,0,0.3,0c0.1,0.1-0.1,0.1-0.2,0.1c-0.1,0-0.2,0.2-0.3,0.1   C701.6,458.1,701.8,458,701.9,457.9z M699.1,458.7c0.1,0,0.1-0.2,0-0.2c0-0.1,0-0.1,0.1,0c0.1,0.1,0.2,0,0.3,0.1s0.1-0.2,0.1-0.3   c0-0.1,0.1-0.1,0.1-0.3c0-0.2,0.1-0.4-0.1-0.5c-0.2-0.2,0.3-0.1,0.5,0s0.3,0.3,0.5,0.4s0.2,0.1,0.3,0.1c0.1,0,0.2,0.1,0.3,0.1   c0.1,0.1,0.3-0.1,0.4-0.2c0.1-0.1,0,0.1,0,0.2s0.1,0.2,0.2,0.3c0.1,0.1,0.1,0.1,0,0.1c-0.1,0-0.2,0.1-0.4,0.1s-0.4,0-0.5,0.1   c-0.2,0.1-0.2,0.3-0.2,0.3c0,0.1,0,0.1-0.2,0s-0.4-0.1-0.6-0.3c-0.2-0.1-0.3,0-0.4,0.1c-0.1,0.1-0.1,0-0.2-0.1   c-0.1-0.1-0.1,0-0.2,0.1c-0.1,0.1-0.1,0.1,0.1,0.2c0.1,0.1,0.2,0.1,0.3,0.2s-0.1,0.1-0.2,0.1c-0.1,0-0.1,0.1-0.2,0.1   c-0.1,0-0.1-0.1-0.1-0.2s0-0.1-0.1-0.2C698.8,458.9,698.9,458.8,699.1,458.7z M698.2,461.2c0.2-0.2,0.2-0.1,0.2,0.1   C698.3,461.4,698.1,461.2,698.2,461.2z M693.2,463.7c0.1-0.1,0.2,0,0.4-0.1c0.2-0.1,0.4-0.3,0.5-0.4c0.1-0.1,0.2-0.1,0.4-0.2   s0.5-0.3,0.6-0.4c0.2-0.1,0.4-0.1,0.6-0.1s0.7-0.1,0.9-0.1c0.2,0,0.3,0,0.5,0s0.1-0.1,0.1-0.2c0-0.2,0-0.1,0.2-0.2   c0.1-0.1,0.1-0.2,0.1-0.3c0-0.1,0-0.2,0.1-0.2c0.1-0.1,0,0.1,0,0.2s0,0.1,0.1,0.1c0.1,0,0.2-0.1,0.4-0.1c0.2-0.1,0.2-0.1,0.3-0.3   c0.1-0.2,0.2-0.2,0.3-0.3c0.1-0.1,0.2-0.2,0.2-0.4c0.1-0.1,0.1-0.3,0-0.5c0-0.2,0-0.3,0-0.5c0-0.1,0.2-0.2,0.3-0.2s0.1-0.1,0.2-0.1   c0.1,0,0.2,0.1,0.2,0.2s0.1,0.2,0.1,0.3c0.1,0.1,0.1,0.1,0.3,0.3c0.1,0.2,0.1,0.2,0,0.5c-0.1,0.2-0.2,0.3-0.3,0.4s0,0.1,0.1,0.3   c0.1,0.2,0,0.5-0.1,0.6c0,0.1,0,0.2,0.2,0.3c0.1,0.1,0,0.1-0.1,0.2c-0.1,0.1,0,0.2-0.1,0.3c-0.1,0.1-0.1,0-0.2-0.1   c-0.1-0.1-0.2,0-0.3,0s-0.1,0.1-0.2,0.2c-0.1,0.1-0.1-0.1-0.2-0.1c-0.1-0.1-0.1,0-0.3,0.1c-0.1,0.1-0.2,0.1-0.3,0   c-0.1,0-0.3-0.1-0.4-0.1c-0.1,0-0.2-0.1-0.3-0.1c-0.1,0-0.1,0.2-0.1,0.2c0,0.1,0.1,0.1,0.3,0.2c0.2,0.1-0.2,0.1-0.3,0.2   s-0.2,0.2-0.3,0.3c-0.1,0-0.2-0.1-0.3-0.2s-0.1-0.1-0.1-0.1c-0.1-0.1,0-0.2,0-0.3c0-0.1-0.1-0.1-0.2-0.1c-0.1,0-0.2,0-0.2,0   c-0.1,0-0.2,0-0.3,0.1c-0.1,0.1-0.1,0-0.3,0.1c-0.1,0.1-0.3,0.1-0.4,0.2c-0.1,0-0.3-0.1-0.4-0.1c-0.1,0-0.1,0-0.2,0.1   c-0.1,0.1-0.1,0.1-0.2,0.1c-0.1,0-0.3,0-0.4,0c-0.1,0-0.2,0-0.2,0.1s0,0.1,0.1,0.2c0.1,0.1,0.2,0,0.3-0.1c0.1,0,0,0.1,0,0.1   c0,0.1,0.1,0.1,0.2,0.3c0.1,0.2-0.2,0.3-0.3,0.4c-0.1,0.1-0.1,0.4-0.1,0.5s-0.1,0.2-0.2,0.2c-0.1,0-0.1,0.1-0.2,0.1   c-0.1,0-0.2,0-0.3-0.1s-0.1-0.1-0.1-0.2s0-0.2,0-0.3c0-0.2-0.1-0.1-0.1-0.1s0-0.1-0.1-0.3c-0.1-0.2-0.1-0.1-0.2-0.2   C693.1,463.8,693.1,463.8,693.2,463.7z M693,463.1c0.1-0.2,0.2-0.1,0.1,0.1C693,463.3,692.9,463.2,693,463.1z M692.7,464.1   c0.5-0.3,0.2,0.1,0,0.1S692.6,464.1,692.7,464.1z M692.2,485.9c0.3-0.2,0.3,0.1,0.1,0.3C692.2,486.5,692.1,486,692.2,485.9z    M691.8,468.1c0.2-0.2,0.3-0.1,0.3,0s-0.2,0.2-0.3,0.2C691.7,468.4,691.7,468.2,691.8,468.1z M691.9,486.3c0,0.1,0.1,0.1,0.1,0.2   s-0.1,0.4-0.2,0.5c-0.1,0.1-0.1,0.2,0,0.2c0.1,0,0.2-0.3,0.3-0.5s0.4-0.1,0.4,0c0,0.2-0.2,0.3-0.3,0.4c-0.2,0.1,0.3,0.2,0.3,0.4   c0,0.2-0.3,0-0.5,0c-0.1,0-0.1,0.1-0.1,0.3c0,0.2,0.1,0.5,0.2,0.6c0.1,0.1,0,0.1-0.2,0c-0.1-0.1-0.2-0.3-0.3-0.4   c0-0.1-0.1-0.3-0.1-0.8c-0.1-0.4,0-0.7,0.1-0.9C691.8,486.3,691.9,486.3,691.9,486.3z M691.3,463.6c0.1,0,0.3,0,0.3,0.1   s-0.3,0.2-0.4,0.1C691,463.7,691.1,463.6,691.3,463.6z M691.4,490.6c0.1,0.1-0.1,0.2-0.3,0.2c-0.3,0-0.5-0.1-0.6-0.3   c-0.1-0.1,0.1-0.2,0.3-0.2C691.1,490.3,691.3,490.5,691.4,490.6z M685.4,495.3c0.2,0,0.5,0.2,0.6,0.3c0.1,0.1,0.3,0.1,0.3,0.3   c0,0.2-0.5,0-0.6-0.1c-0.1-0.1-0.5-0.2-0.7-0.3C684.9,495.4,685.2,495.3,685.4,495.3z M684.5,494.9c-0.2,0-0.4,0.1-0.6,0.1   c-0.1,0-0.4,0-0.5,0c-0.1-0.1,0-0.3,0.2-0.4c0.1-0.1,0.3,0,0.5,0.1c0.1,0.1,0.2,0,0.3-0.1c0.1-0.1,0.2-0.1,0.3-0.1   c0.2,0,0.3,0,0.3,0.2C685.1,494.8,684.7,494.9,684.5,494.9z M686.1,494.9c-0.1,0-0.3,0-0.4-0.1c-0.1-0.1,0-0.3,0.1-0.3   c0.1,0,0.3-0.2,0.5-0.1s0.4,0.1,0.6,0.1s0.4,0,0.6,0c0.1,0,0.2,0,0.3,0c0.1-0.1,0.2-0.2,0.4-0.2s0.3,0,0.4,0c0.2,0.1,0.3,0,0.4,0   c0.2-0.1,0.3-0.1,0.4-0.1c0.1,0,0.3,0.2,0,0.2c-0.2,0-0.3,0-0.5,0.1c-0.2,0-0.3,0-0.5,0s-0.3,0-0.4,0c-0.2,0.1-0.4,0.1-0.6,0.1   c-0.2,0.1-0.2,0.1-0.6,0.1C686.5,494.9,686.2,494.9,686.1,494.9z M687.9,489.1c-0.1,0.1-0.1-0.2,0-0.3c0.1-0.1,0.2,0,0.2,0   c0.2,0,0.2,0.1,0.2,0.3c0,0.2-0.2,0-0.3-0.1C688.1,489,688,489.1,687.9,489.1z M688.1,491.2c-0.1,0.1-0.3,0-0.1-0.2   C688.1,490.9,688.2,491.1,688.1,491.2z M690.3,489.4c0.2,0.1,0,0.1-0.2,0.1c-0.2-0.1-0.2,0-0.4,0c-0.2,0-0.5,0-0.6,0   c-0.1,0,0-0.2,0-0.2C689.5,489.2,690.1,489.3,690.3,489.4z M689.9,485c0.1-0.1,0.3,0,0.1,0.2C689.9,485.3,689.8,485.1,689.9,485z    M688.5,495.6c0-0.1,0.1-0.2,0.3-0.3c0.2-0.1,0.3-0.1,0.5-0.2s0.3-0.2,0.4-0.3c0.1-0.1,0.4-0.2,0.6-0.2s0.3,0,0.6-0.1   c0.2,0,0.3-0.1,0.4,0c0.1,0.1,0,0.1-0.2,0.2s-0.8,0.3-0.9,0.4c-0.2,0-0.5,0.3-0.7,0.5s-0.4,0.2-0.6,0.3c-0.2,0.1-0.4,0.1-0.5,0   C688.2,495.9,688.5,495.7,688.5,495.6z M690.4,494c0.3-0.1,0.6-0.2,0.6,0s-0.3,0.1-0.5,0.2C690.4,494.2,690.3,494.1,690.4,494z    M690.9,484.5c0.1-0.2,0.2-0.1,0.1,0.1C690.9,484.8,690.8,484.6,690.9,484.5z M690.3,480.5c0.1,0.1,0.2,0.3,0.2,0.5   c0.1,0.2,0,0.2,0.1,0.3c0.1,0.1,0.2,0.6,0.2,0.8c0,0.2-0.1,0.3-0.2,0.3c-0.1,0.1-0.1,0.3-0.1,0.5c0,0.1-0.1-0.2-0.1-0.3   c0-0.2-0.1-0.2-0.2-0.3c-0.1-0.1-0.2,0.1-0.3,0.1c-0.1,0.1,0,0.2,0,0.3c0.1,0.1,0.1,0.1,0.2,0.3c0.1,0.2-0.1,0.4-0.2,0.5   c-0.1,0.1-0.1-0.2-0.2-0.3c0-0.1-0.1,0-0.2,0.1c-0.1,0-0.2,0-0.3-0.1c-0.1-0.1-0.3-0.1-0.4-0.2c-0.1-0.1-0.1-0.6,0-0.7   c0.1-0.1,0.1-0.1,0.1-0.3c0-0.2-0.3-0.2-0.5-0.2s-0.1,0.1-0.2,0.2c-0.1,0.1-0.1,0-0.2-0.1c-0.1-0.1-0.1,0.1-0.2,0.2   c-0.1,0.1-0.1-0.2-0.1-0.3c0-0.1-0.1-0.1-0.1,0.1c-0.1,0.2-0.1,0.2-0.2,0.3c-0.1,0.1-0.1,0.2-0.2,0.2c-0.1,0,0-0.2,0.1-0.3   c0-0.1,0.1-0.2,0.1-0.3s0.2-0.2,0.3-0.2s0.2-0.1,0.3-0.3c0.1-0.2,0.1-0.1,0.3-0.2c0.1-0.1,0.3,0.1,0.3,0.3c0,0.1,0.1,0.1,0.2,0.1   c0.1,0,0.1-0.1,0.1-0.2c0.1-0.1,0.1-0.1,0.3-0.1c0.1,0,0.1-0.1,0.2-0.2c0.1-0.1,0.1-0.1,0.2-0.1c0.1,0,0.2,0,0.3-0.1   c0.2-0.1,0-0.2,0-0.3c0-0.1,0-0.2,0.1-0.3S690.2,480.3,690.3,480.5z M687.4,482.8c-0.1,0.1-0.3,0-0.1-0.2   C687.4,482.5,687.5,482.7,687.4,482.8z M688.1,478.9c0.1,0.1-0.1,0.2-0.1,0.3c-0.1,0.1-0.1,0.2-0.1,0.3c0,0.1-0.1,0-0.2-0.1   c-0.1-0.1-0.2,0.1-0.3,0.1s-0.1-0.1-0.1-0.2s0.1-0.4,0.1-0.5s0.1-0.2,0.2-0.1C687.8,478.8,688.1,478.8,688.1,478.9z M687.8,478   c0.3,0,0.2,0.1,0,0.2S687.7,478,687.8,478z M689.2,480.1c0,0.2-0.3,0.2-0.5,0.2c-0.1,0,0.1-0.2,0.1-0.3   C689,479.8,689.2,479.9,689.2,480.1z M689.1,477.1c0.1-0.1,0.3,0,0.1,0.2C689.1,477.4,689,477.2,689.1,477.1z M688.9,479.6   c0,0.2-0.2,0.2-0.3,0.3c-0.1,0.1-0.1,0.2-0.2,0.4c-0.1,0.2-0.1-0.2-0.1-0.3c0-0.1,0.2-0.2,0.3-0.4c0.1-0.2,0.1-0.3,0.1-0.5   s0.2-0.1,0.2,0.1S689,479.5,688.9,479.6z M688.6,478.4c-0.1-0.1-0.2,0-0.3,0.1s0-0.2,0-0.3C688.3,478.1,688.5,478.2,688.6,478.4   c0.1-0.1,0.2,0.2,0.3,0.3C689,478.8,688.7,478.5,688.6,478.4z M688.4,479.3c0.2,0,0.1,0.1,0,0.2c-0.1,0.1-0.1,0.4-0.2,0.5   c-0.1,0.1,0,0.2,0,0.3c0,0.1,0.1,0.1,0,0.3c0,0.2-0.2,0.1-0.3-0.1c-0.1-0.1-0.1-0.1-0.2-0.1c-0.1,0-0.2-0.1-0.2-0.3   c0-0.2,0.2-0.2,0.3-0.2c0.1,0,0.1-0.1,0.1-0.2s0-0.3,0-0.5C688.1,479.3,688.2,479.3,688.4,479.3z M687.4,477.6   c-0.1,0.1-0.3,0-0.1-0.2C687.4,477.3,687.6,477.5,687.4,477.6z M690,478.4c0.1,0.2,0,0.4,0.1,0.6c0.1,0.2-0.2,0.1-0.3,0   s-0.1,0.1-0.1,0.2c0,0.2,0,0.2,0.1,0.3c0,0.1,0,0.2-0.1,0.2c-0.1,0.1-0.1,0.2-0.2,0.1c-0.1-0.1,0-0.4-0.1-0.5   c-0.1-0.1-0.1-0.1-0.2-0.2c-0.1-0.1,0-0.3,0-0.4s0-0.1,0.1-0.1c0.1,0.1,0,0.2,0.1,0.3c0.1,0.2,0.2,0,0.2-0.1s0.1-0.1,0.2-0.1   c0.1-0.1-0.1-0.1-0.3-0.2c-0.1-0.1-0.2-0.2-0.3-0.3c-0.1-0.1,0.1-0.2,0.1-0.2c0.1,0,0.2,0,0.4,0C689.8,478,689.9,478.2,690,478.4z    M689.1,469.5c0.3,0,0.2,0.1,0,0.2C688.9,469.7,689,469.5,689.1,469.5z M686.4,470.1c0.1-0.2,0.5-0.7,0.6-0.8   c0.1-0.1,0.4-0.3,0.5-0.3c0.1-0.1,0.2,0.2,0.2,0.3c0,0.1,0,0.3-0.2,0.5s-0.1,0.2-0.2,0.3c0,0.1,0,0.2-0.1,0.3   c-0.1,0.1-0.2,0.2-0.3,0.4c-0.1,0.1-0.1,0.2-0.1,0.3c-0.1,0.1-0.2,0-0.2-0.1s-0.1-0.2-0.2-0.3C686.4,470.5,686.4,470.3,686.4,470.1   z M686,475.4c0.1,0.1,0,0.1,0.2,0.1s0.1-0.4,0.1-0.5c0.1-0.1,0.1-0.7,0.1-0.9c0-0.2,0.1-0.2,0.3-0.3c0.3-0.1,0.3,0,0.6,0.1   c0.2,0.2,0.3,0.2,0.3,0.3c0,0.2,0,0.3,0.1,0.4c0.1,0.1,0.1,0.1,0.1,0.3c0,0.2-0.5,0.5-0.6,0.6c-0.1,0.1-0.2,0.3-0.2,0.4   s0,0.2,0.1,0.4c0.1,0.2,0.1,0.4,0.2,0.5c0.1,0.2,0.2,0,0.3-0.1c0.1-0.1,0.2-0.1,0.3-0.1c0.2,0,0.3,0.2,0.3,0.3   c0.1,0.1,0.1,0,0.1-0.1s0.2,0,0.3,0.1s0.1,0.2-0.1,0.2c-0.1,0,0.1,0.3,0.1,0.3s0.1,0.1,0.2,0.3c0.1,0.1,0.1,0.1,0,0.2   c0,0.1-0.2-0.1-0.4-0.2c-0.1-0.1-0.1-0.2-0.3-0.3c-0.1-0.1-0.2-0.1-0.3-0.3c-0.1-0.1-0.3-0.2-0.3-0.2c-0.1,0.1,0.1,0.2,0.2,0.4   c0.1,0.2,0,0.2-0.1,0.1c-0.1-0.1-0.2-0.2-0.3-0.3c-0.2-0.1-0.3-0.1-0.4-0.1c-0.1,0-0.2,0-0.2,0.1c-0.1,0.1-0.2,0.1-0.2,0   c-0.1-0.1-0.2-0.2-0.3-0.2s0.1-0.2,0.2-0.2c0.2,0,0-0.1,0-0.2c-0.1-0.1-0.1-0.1-0.2-0.2c-0.1,0-0.1,0.1-0.1,0.2s-0.1,0-0.2-0.2   c-0.1-0.2-0.2-0.6-0.3-0.8C685.8,475.5,685.9,475.3,686,475.4z M686.8,478.3c-0.1,0.1-0.2,0-0.2-0.2c-0.1-0.2,0-0.2-0.1-0.4   c-0.1-0.2-0.2-0.2-0.2-0.3c0-0.1,0.2-0.1,0.4-0.1c0.3,0.1,0.3,0.2,0.3,0.4C687,478.1,686.9,478.2,686.8,478.3z M686.4,483.3   c-0.3-0.2,0.2-0.2,0.3-0.1C686.9,483.3,686.6,483.3,686.4,483.3z M685.8,478.4c0-0.1,0.2-0.1,0.3,0c0.1,0.1,0,0.3-0.1,0.3   C685.7,478.6,685.8,478.5,685.8,478.4z M685.8,483.7c0.3,0,0.2,0.1,0,0.2C685.6,483.9,685.7,483.7,685.8,483.7z M685.7,487.5   c0.1-0.3,0.2-0.2,0.6-0.4c0.3-0.2,0.4-0.2,0.8-0.1c0.4,0.1,1.1,0.2,1.6,0.2c0.4,0,0.6-0.3,0.8-0.5s0.3-0.2,0.3,0   c0.1,0.2-0.3,0.6-0.5,0.8s-0.6,0.2-1,0.2c-0.4,0-1.2,0-1.4-0.1c-0.2,0-0.6-0.1-0.8-0.1s-0.3,0.2-0.3,0.3c0,0.2-0.2,0.3-0.1,0.5   c0.1,0.2,0.1,0.2,0.2,0.3c0.1,0.1,0.1,0.1,0.2,0.2c0.1,0.1,0.2,0.1,0.3,0.1c0.2,0,0.2-0.2,0.4-0.3c0.1-0.1,0.2,0,0.3,0   c0.1,0,0.2,0,0.3-0.1c0.1-0.1,0.1-0.1,0.3-0.1c0.2,0,0.2,0,0.3-0.1c0.2-0.1,0.3,0,0.3,0.2s-0.2,0.1-0.3,0.1s-0.2,0.2-0.4,0.4   c-0.2,0.2-0.6,0.3-0.7,0.4c-0.1,0.1,0,0.1,0.1,0.2c0.1,0.1,0.2,0.2,0.4,0.5s0.1,0.5,0.1,0.6c0,0.2,0.1,0.1,0.2,0.2   c0.2,0.1,0.1,0.2,0.2,0.4c0.1,0.1,0.2,0.1,0.3,0.2c0.1,0.1-0.1,0.2-0.1,0.3c0,0.1,0.1,0.2-0.1,0.3c-0.1,0.1-0.1,0.2-0.1,0.2   s-0.1,0-0.2-0.1c-0.1-0.1-0.1-0.1-0.2-0.1c-0.1,0,0-0.2,0-0.4c0-0.1,0-0.2,0-0.3c-0.1-0.1-0.1,0.1-0.1,0.1c0,0.1-0.1,0.1-0.2,0.1   c-0.1,0-0.2-0.1-0.2-0.1c0-0.1,0-0.2-0.1-0.4c-0.1-0.2-0.2-0.3-0.4-0.5c-0.1-0.1,0-0.1,0.1-0.3c0.1-0.2,0-0.4-0.2-0.5   s-0.3,0.1-0.4,0.2c-0.1,0.1,0,0.1,0.1,0.4c0.1,0.3-0.1,1-0.1,1.1c-0.1,0.1-0.1,0.2,0,0.5c0.1,0.2-0.1,0.1-0.2,0.1   c-0.1,0-0.3,0.1-0.5,0s-0.1-0.3,0-0.5c0.1-0.2,0.2-0.3,0.1-0.6c0-0.3-0.2-0.5-0.3-0.5c-0.1-0.1-0.2-0.1-0.3-0.3   c0-0.1,0.1-0.3,0.2-0.5c0.1-0.2,0.2-0.5,0.2-0.8s0.2-0.4,0.3-0.6c0.1-0.1,0.1-0.2,0-0.3C685.4,488,685.5,487.8,685.7,487.5z    M683.5,481.6c0.1-0.1,0.1-0.2,0.1-0.3c0-0.1,0.1-0.2,0.2-0.3c0.1-0.2,0.4-0.3,0.6-0.6c0.2-0.2,0.5-0.5,0.7-0.7s0.2-0.4,0.2-0.5   s0.2-0.1,0.3-0.1c0,0.1,0.1,0.3,0,0.5c0,0.1-0.1,0.2-0.3,0.3c-0.2,0.1-0.1,0.1-0.2,0.1c-0.1,0-0.1,0.2-0.2,0.3   c-0.1,0.1-0.2,0.3-0.4,0.4s-0.4,0.4-0.5,0.5c-0.1,0.1-0.2,0.2-0.3,0.4C683.6,481.7,683.5,481.7,683.5,481.6z M678.3,473.3   c0.1-0.1,0.5-0.5,0.6-0.5c0.1-0.1,0.3-0.1,0.5-0.1s0.3,0,0.4,0.1c0.1,0.1-0.1,0.3-0.2,0.4c-0.1,0.1-0.1,0.3-0.2,0.5   c-0.2,0.2-0.5,0.3-0.6,0.4c-0.1,0.1-0.2,0.1-0.3,0.1c-0.1,0-0.3-0.1-0.3-0.2C678.2,473.7,678.3,473.4,678.3,473.3z M677.4,487   c0.1-0.2,0.2-0.4,0.3-0.5c0.1-0.1,0.2-0.1,0.3,0c0.1,0.1,0.2,0.2,0.3,0.1c0.1-0.1,0.1,0,0.3,0.1c0.1,0.1,0,0.1,0.2,0.1   s0.2-0.3,0.2-0.5s0.1-0.4,0.3-0.5c0.2-0.1,0.5-0.2,0.7-0.2s0.3-0.1,0.5-0.2c0.1-0.1,0.1-0.3,0.2-0.5c0.1-0.2,0.3-0.2,0.4-0.4   c0.1-0.1,0-0.2,0.1-0.2c0.1-0.1,0.2,0,0.4-0.1s0.2-0.2,0.5-0.2s0-0.1-0.1-0.3c-0.1-0.1,0.2-0.1,0.4-0.2c0.2,0,0.1-0.2,0.2-0.3   c0.1-0.2,0.1-0.1,0.3-0.3c0.1-0.2,0.2-0.3,0.2-0.3s0.1-0.1,0.2-0.2c0.1-0.1,0.1,0.1,0.1,0.2c0,0.2,0.1-0.2,0.2-0.3   c0.1-0.1,0.1,0.1,0.3,0.2c0.2,0.2,0.1,0.2,0.2,0.4c0.1,0.2,0,0.1,0.2,0.2c0.1,0.1,0.1,0,0.3,0.1c0.1,0.1,0.3,0.2,0.4,0.3   c0.2,0.1,0.2,0.1,0.2,0.2c0,0.2-0.6,0.2-0.7,0.2c-0.1,0-0.1,0.1,0,0.2c0.1,0.1,0.2,0.1,0.3,0.1c0.2,0.1-0.1,0.2-0.2,0.2   c-0.1,0-0.3,0.1-0.4,0.2c-0.1,0.1-0.1,0.2,0,0.3c0.1,0.1-0.1,0.2-0.2,0.3c-0.1,0.1,0,0.1,0.1,0.2c0.1,0.1,0.1,0.3,0.1,0.4   s0,0.3,0,0.5s0.2,0.3,0.3,0.4c0.2,0,0.2,0.2,0.3,0.3c0.1,0.2-0.1,0.2-0.2,0.2c-0.1,0-0.3,0-0.5,0c-0.1,0-0.3,0.1-0.4,0.4   c-0.1,0.3,0,0.4,0.1,0.7c0.1,0.2-0.1,0.2-0.2,0.3c-0.1,0.1-0.1,0.1-0.3,0.2c-0.1,0.1-0.3,0.2-0.4,0.4c-0.1,0.2,0,0.3,0.1,0.5   c0.1,0.2-0.1,0.4-0.1,0.6c-0.1,0.2,0.1,0.3,0.1,0.5s-0.1,0.3-0.2,0.3c-0.1,0-0.1-0.1-0.1-0.2s-0.2,0-0.3,0.1   c-0.1,0.1-0.2,0.1-0.4,0.2c-0.1,0.1-0.2,0.2-0.3,0.1s-0.1-0.3-0.1-0.4s-0.2-0.2-0.2-0.2c-0.1,0-0.2,0.1-0.4,0   c-0.2,0-0.1-0.2-0.2-0.2c-0.1,0-0.1,0-0.2,0c-0.1,0-0.2,0.1-0.3,0.2c-0.2,0.1-0.2,0-0.3-0.1s-0.1,0-0.2,0.1c-0.1,0.1,0-0.3-0.1-0.4   c0-0.1-0.3,0-0.5,0s-0.4,0-0.5-0.1c-0.1-0.1-0.1-0.1-0.1-0.2c0-0.2-0.1-0.3-0.1-0.5c-0.1-0.2,0-0.3,0-0.4c0-0.2-0.1-0.1-0.3-0.2   c-0.2,0-0.1-0.1-0.2-0.2c0-0.1-0.1-0.1-0.2-0.3c-0.1-0.1,0-0.3,0-0.5s-0.1-0.2-0.2-0.3C677.3,487.6,677.4,487.2,677.4,487z    M683.3,494.8c0,0.1-0.1,0.2-0.3,0.2c-0.2,0-0.3-0.1-0.3-0.3c0-0.1,0.1-0.3,0.2-0.3c0.1,0,0.4,0,0.4,0.1   C683.3,494.6,683.3,494.6,683.3,494.8z M676.8,484.8c0.1-0.1,0.3,0,0.1,0.2C676.8,485.1,676.7,484.9,676.8,484.8z M676.5,490.1   c0.2-0.1,0.4,0,0.4,0.1s-0.1,0.2-0.3,0.2S676.4,490.2,676.5,490.1z M674.7,489.5c0.1-0.1,0.2-0.2,0.2-0.2s0-0.1,0.1-0.1   c0.1,0,0.3,0,0.3,0.1c0.1,0.1,0.1,0.3,0.2,0.5c0.1,0.1,0.2,0.1,0.3,0.2c0.1,0.1,0.1,0.3-0.1,0.3s-0.3,0-0.3-0.2   c-0.1-0.1-0.1-0.3-0.2-0.4c-0.1-0.1-0.1-0.1-0.3-0.1C674.8,489.6,674.6,489.6,674.7,489.5z M673.9,487.1c0.2-0.1,0.2,0,0.3,0   c0.1,0,0.2,0,0.2,0.2c0,0.1-0.1,0.1-0.2,0c-0.1-0.1-0.1,0.1-0.1,0.2s-0.1,0-0.2-0.1c-0.1-0.1-0.1,0-0.2,0   C673.7,487.4,673.8,487.2,673.9,487.1z M674.2,488.5c-0.2,0.1-0.2-0.3,0-0.2C674.4,488.3,674.4,488.4,674.2,488.5z M668.8,486   c-0.1-0.1,0-0.2,0.2-0.1c0.2,0.1,0.1,0.1,0.2,0.3C669.2,486.4,668.9,486.1,668.8,486z M669.9,487.6c0,0.1-0.2-0.3-0.3-0.5   c-0.1-0.2,0-0.3,0.2-0.2c0.1,0,0.1,0.2,0.2,0.3C670,487.4,669.9,487.5,669.9,487.6z M670.3,488.5c0,0.2-0.1-0.1-0.2-0.3   c-0.1-0.2,0.1-0.2,0.2,0C670.4,488.2,670.4,488.3,670.3,488.5z M670.6,489.2c-0.1-0.1-0.1-0.2-0.1-0.4c0-0.1,0.1-0.2,0.2,0   c0.1,0.1,0.2,0.3,0.2,0.5C670.8,489.5,670.7,489.4,670.6,489.2z M671,489.7c-0.1-0.2,0.1-0.2,0.1-0.1   C671.2,489.9,671.1,489.9,671,489.7z M671.3,490.2c-0.1-0.2,0-0.3,0.1-0.2c0.1,0.1,0.1,0.2,0.2,0.3   C671.6,490.6,671.4,490.4,671.3,490.2z M672.9,492.3c-0.1,0.1-0.3,0-0.1-0.2C672.9,492,673,492.1,672.9,492.3z M674.9,492.5   c0,0.1-0.1,0.1-0.2-0.1c-0.1-0.1-0.2-0.1-0.2-0.1s0,0.1,0.1,0.3c0,0.2-0.2,0-0.3-0.2c-0.1-0.1-0.2-0.2-0.3-0.4   c-0.1-0.2-0.9-0.6-1-0.7c-0.1-0.1-0.2-0.2-0.2-0.3c0-0.1,0-0.1-0.2-0.2c-0.1-0.1-0.3-0.2-0.4-0.3c-0.1-0.1-0.1-0.3-0.3-0.4   c-0.2-0.1-0.2-0.3-0.2-0.4c0-0.2-0.2-0.4-0.2-0.6c-0.1-0.1-0.2-0.3-0.3-0.5c-0.1-0.2-0.3-0.5-0.3-0.6c-0.1-0.1-0.2-0.1-0.2-0.2   s-0.1-0.4-0.1-0.6c-0.1-0.2,0-0.4-0.1-0.5c-0.1-0.1-0.3-0.3-0.5-0.3c-0.2-0.1-0.1-0.2-0.1-0.3c0-0.2-0.2-0.5-0.3-0.7   c-0.1-0.2-0.3-0.2-0.4-0.2c-0.1-0.1-0.6-0.8-0.6-1c-0.1-0.2,0.1-0.3,0.2-0.3c0.2,0,0.1,0.1,0.2,0.2c0.1,0.1,0.2,0.1,0.4,0   c0.2,0,0.4,0,0.6,0.1c0.2,0.2,0.2,0.5,0.3,0.6c0.1,0.1,0,0.1,0.1,0.2c0.1,0.1,0.2,0.1,0.4,0.2c0.2,0.1,0.3,0.4,0.5,0.5   c0.2,0.2,0.2,0.5,0.3,0.6c0.1,0.1,0.1-0.1,0.2-0.1c0.1,0,0.1,0.1,0.3,0.2c0.1,0.1,0.1,0,0.2,0.1c0.1,0.1,0,0.2,0.1,0.3   c0.1,0.1,0.1,0,0.3,0c0.1,0,0,0.1,0.2,0.2c0.1,0.2,0.2,0,0.3,0.1c0.2,0.1,0,0.2,0.1,0.3c0,0.1,0.1,0.1,0.3,0.2s0.1,0.3,0.1,0.3   c-0.1,0.1-0.1,0.1-0.1,0.3c0,0.1-0.1,0.3,0.1,0.4s0.3,0.1,0.6,0.2c0.2,0.1,0.1,0.5,0.1,0.6s0,0.1,0.1,0.1c0.1,0.1,0.1,0.1,0.2,0.2   c0.1,0.1,0.2,0.1,0.4,0.2c0.2,0,0.2,0.1,0.2,0.2s0.1,0.2,0.3,0.2c0.1,0.1,0,0.2,0,0.3c0,0.2,0,0.2,0,0.4c0,0.2,0.1,0.5,0.1,0.7   s0,0.5,0,0.7s-0.1,0.1-0.3-0.1C675,492.2,675,492.3,674.9,492.5z M681.4,494.4c0.1,0.3,0,0.3-0.2,0.3s-0.4-0.2-0.5-0.2   c-0.1,0-0.3-0.1-0.4,0c-0.1,0-0.2,0-0.4,0s-0.7-0.1-1-0.1c-0.3-0.1-0.6-0.2-0.7-0.3c-0.2-0.1-0.9,0-1,0c-0.1,0-0.3,0-0.5-0.1   c-0.1-0.1-0.2-0.1-0.4-0.1c-0.1,0-0.4,0-0.5-0.1c-0.1-0.1-0.1-0.2-0.2-0.3c-0.1-0.1-0.2-0.1-0.3-0.1c-0.1,0-0.2-0.1-0.2-0.1   s0.2-0.2,0.2-0.3c0.1-0.1,0-0.2,0.1-0.3c0.1-0.1,0.5-0.1,0.7-0.1s0.3,0,0.4,0.1c0.2,0.1,0.2,0,0.4,0c0.1,0,0.3,0.2,0.4,0.4   c0.1,0.2,0.1,0.1,0.3,0.2s0.5,0.1,0.7,0c0.2,0,0.3-0.3,0.4-0.4c0.1-0.1,0.2,0,0.3,0.1c0.1,0.1,0.1,0.1,0.2,0.1   c0.1,0,0.2,0.2,0.5,0.2c0.3,0.1,0.2,0,0.3,0.1c0.2,0,0.2-0.1,0.4-0.1s0.5,0,0.5,0.1s-0.6,0.2-0.7,0.2c-0.2,0-0.1,0.2-0.1,0.3   c0.1,0.1,0.2,0.2,0.4,0.2s0.5,0,0.6,0C681.6,494,681.4,494.2,681.4,494.4z M681.7,494.5c-0.1-0.1,0-0.2,0.1-0.2   c0.1,0,0.5,0,0.6,0.1c0.1,0.1-0.2,0.2-0.3,0.2C682,494.7,681.8,494.6,681.7,494.5z M701.8,516.2c-0.2,0.2-0.2,0-0.1-0.1   C701.8,515.9,701.9,516.1,701.8,516.2z M702.4,526.5C702.3,526.7,702.2,526.6,702.4,526.5C702.3,526.4,702.5,526.3,702.4,526.5z    M703.8,517.1c0,0.2-0.2,0.3-0.3,0.4c-0.1,0.1-0.3,0.3-0.5,0.4c-0.2,0.1-0.3,0.2-0.4,0.3c-0.2,0.1-0.4,0-0.6-0.2   c-0.1-0.2-0.1-0.3-0.1-0.5c0.1-0.2,0-0.2-0.1-0.3c-0.1-0.1,0-0.2,0-0.3s0.2-0.2,0.3-0.1c0.1,0,0.2,0.1,0.4,0.2c0.2,0.1,0.4,0,0.6,0   s0.5-0.1,0.7-0.1C704,516.7,703.9,516.9,703.8,517.1z M703.8,516.3c0-0.3,0.3,0,0.3,0.2S703.8,516.4,703.8,516.3z M709.1,508.8   c0,0.1,0,0.5-0.1,0.7c-0.1,0.2-0.3,0.5-0.5,0.8s-0.2,0.5-0.3,0.7c-0.1,0.2-0.4,0.6-0.5,0.7c-0.1,0.1-0.1,0.3-0.3,0.4   c-0.2,0.1-0.5,0.4-0.6,0.5c-0.1,0.1-0.2,0.3-0.3,0.4c-0.1,0.1-0.2,0.1-0.2,0.3c0,0.2-0.4,0.4-0.5,0.5c-0.1,0.1-0.2,0.3-0.2,0.4   c0,0.1-0.1,0.3-0.2,0.5c-0.1,0.2-0.6,0.2-0.8,0.2s-0.5,0.1-0.7,0.2c-0.2,0.1-0.6,0.3-0.7,0.4c-0.1,0.1-0.2,0-0.3-0.1   c-0.1-0.1-0.4-0.1-0.6-0.2c-0.2-0.1-0.4,0.1-0.5,0.2c-0.2,0.1-0.3,0-0.5-0.1c-0.1-0.1-0.3-0.1-0.5-0.1s-0.2,0-0.3-0.1   c-0.1-0.1-0.3-0.1-0.4-0.1c-0.1,0-0.1-0.1-0.2-0.2c-0.1-0.1-0.2-0.1-0.3-0.2c-0.1-0.1,0-0.2,0.1-0.3c0.1-0.1,0-0.1-0.1-0.3   c-0.1-0.2-0.4-0.3-0.5-0.3c-0.1,0-0.3,0.1-0.5,0.2c-0.1,0.1-0.4,0.1-0.6,0.1s-0.4,0-0.3-0.1c0.1-0.1,0.3-0.1,0.5-0.1s0.3,0,0.5-0.1   c0.2-0.1,0.2-0.1,0.3-0.2c0.1-0.1,0-0.2-0.1-0.4c-0.1-0.2-0.1-0.1-0.2-0.1c-0.1,0.1-0.1,0.2-0.2,0.4c-0.1,0.1-0.2,0.1-0.3,0.1   c-0.2,0.1-0.2,0.1-0.2,0c0-0.1,0.2-0.1,0.3-0.2c0.1-0.1,0.1-0.2,0.1-0.3c0-0.2,0.1-0.1,0.2-0.3c0.1-0.2,0.1-0.2,0.1-0.3   c0-0.1,0.1-0.1,0.2-0.2c0-0.1-0.1-0.1-0.1,0c-0.1,0.1-0.1,0.1-0.2,0.1c-0.1,0.1-0.1,0.2-0.2,0.3c-0.1,0.1-0.2,0.2-0.4,0.2   s-0.2,0.1-0.3,0.3c-0.2,0.1-0.2,0.2-0.3,0.3c-0.1,0.1-0.2-0.1-0.3-0.3s0-0.2-0.1-0.3c-0.1-0.1-0.1-0.1-0.1-0.2   c0-0.1-0.1-0.1-0.3-0.2c-0.2-0.1-0.1-0.3-0.1-0.4c0-0.1-0.1-0.1-0.2-0.2c-0.1-0.1-0.2-0.1-0.3-0.1c-0.2,0-0.2-0.1-0.3-0.1   c-0.1,0-0.2,0-0.3,0c-0.1,0-0.2-0.1-0.3-0.2c-0.1-0.1-0.1-0.1-0.3-0.1c-0.1,0-0.2,0-0.4,0s-0.3,0-0.7,0c-0.3,0-0.7,0.1-1.1,0.3   c-0.4,0.2-0.9,0.1-1,0.1c-0.1,0-0.4,0-0.7,0.2s-0.6,0.3-0.8,0.3c-0.2,0-0.1,0.1-0.2,0.1c-0.1,0.1,0,0.2-0.1,0.3   c-0.1,0.2-0.3,0.2-0.6,0.1c-0.3,0-1.2,0-1.4,0c-0.1,0-0.4,0.1-0.5,0.1c-0.1,0.1-0.2,0.2-0.3,0.2s-0.2,0.1-0.4,0.2   c-0.2,0.2-0.7,0.1-0.9,0.1s-0.5-0.1-0.6-0.2c-0.1-0.1-0.4-0.2-0.6-0.2s-0.2-0.2-0.2-0.3c0-0.2,0-0.1,0.2-0.1s0.1-0.1,0.2-0.2   c0.1-0.1,0-0.3-0.1-0.4c-0.1-0.1,0.1-0.2,0.1-0.5c0-0.2,0-0.2-0.3-0.6c-0.3-0.5-0.4-0.8-0.4-1s-0.1-0.2-0.2-0.3   c-0.1-0.1-0.3-0.4-0.4-0.5c-0.1-0.1-0.2-0.2-0.2-0.3c0-0.1-0.1-0.2-0.1-0.3c-0.1-0.1-0.2-0.3-0.3-0.4c-0.1-0.1,0-0.2,0-0.3   c0-0.1,0.1,0,0.2-0.1c0.1,0,0.1-0.1,0-0.3c-0.1-0.1-0.2-0.3-0.4-0.5s-0.3-0.4-0.3-0.6c-0.1-0.2,0.1-0.4,0.2-0.5   c0-0.2-0.1-0.3-0.1-0.4s0-0.3,0.1-0.5c0.1-0.1,0.1,0.1,0.2,0.2c0.1,0.1,0.2-0.1,0.2-0.3c0.1-0.1,0.2-0.2,0.4-0.3   c0.1-0.1,0.2,0,0.4-0.2c0.2-0.2,0.5-0.4,0.7-0.5c0.1-0.1,0.2-0.1,0.3,0c0.1,0.1,0.2,0,0.4,0s0.2-0.1,0.3-0.2s0.2,0,0.3,0   s0.2-0.1,0.3-0.2s0.2-0.1,0.4,0c0.2,0,0.5-0.1,0.9-0.2c0.3-0.1,0.5-0.4,0.6-0.6c0.1-0.2,0.3-0.4,0.5-0.5s0.1-0.2,0-0.3   c-0.1-0.1-0.1-0.3,0-0.5c0.1-0.2,0.2-0.3,0.3-0.4c0.1-0.1,0.1,0,0.2,0.1c0.1,0.1,0.1,0.2,0.2,0.3c0.1,0.1,0.2-0.1,0.2-0.2   s0-0.1,0-0.2s-0.1-0.1-0.1-0.2c-0.1-0.1,0-0.2,0.1-0.3c0.1-0.1,0.2,0.1,0.4,0.1c0.2,0.1,0.2-0.1,0.2-0.1c0-0.1,0-0.2-0.1-0.2   c-0.1-0.1,0.1-0.2,0.1-0.3c0.1-0.1,0.2-0.2,0.3-0.2c0.1-0.1,0.2-0.1,0.2-0.2c0.1-0.1,0.1-0.2,0.2-0.3c0.1-0.1,0.2,0,0.3,0   s0.1-0.1,0.2-0.2c0.1-0.1,0.1-0.1,0.2-0.1c0.1-0.1,0.1,0,0.2,0c0.2,0,0.1-0.1,0.1-0.2c0.1-0.1,0.1,0,0.2,0.1   c0.1,0.1,0.1,0.1,0.3,0.1c0.1,0,0.2,0.2,0.3,0.4c0.1,0.2,0.4,0.3,0.7,0.4s0.7-0.1,0.7-0.2c0.1-0.1-0.1-0.3-0.2-0.3   c-0.1-0.1,0.2-0.3,0.2-0.5c0.1-0.2,0.1-0.1,0.3-0.2c0.2-0.1,0-0.2,0.1-0.4c0.1-0.2,0.3-0.3,0.6-0.4c0.3-0.1,0.2-0.1,0.5,0   s0.5-0.1,0.8-0.1c0.2-0.1-0.1-0.3-0.1-0.4c-0.1-0.1-0.2-0.1-0.3-0.1c-0.2,0-0.1-0.1,0-0.2c0.1-0.1,0.4,0.1,0.5,0.1   c0.1,0.1,0.2,0.1,0.3,0.2s0.3,0.1,0.5,0.1s0.3,0.1,0.5,0.2c0.2,0,0.3,0,0.5,0.2s0.1,0,0.2-0.1c0.1-0.1,0.1-0.1,0.3-0.1   s0.2,0.2,0.3,0.3c0.1,0.1,0.1-0.1,0.1-0.3c0-0.1,0.1,0,0.3,0c0.2,0.1,0.1,0.1,0.1,0.3c0,0.1-0.2,0.3-0.3,0.5   c-0.1,0.2-0.3,0.1-0.5,0.2c-0.1,0.1,0,0.3,0,0.4s-0.1,0.3-0.2,0.5c-0.2,0.2-0.2,0.2-0.1,0.4c0.1,0.2,0.3,0.3,0.7,0.5   s0.5,0.2,0.7,0.3c0.2,0.1,0.3,0.3,0.5,0.4c0.1,0.1,0.3,0.1,0.6,0.3c0.4,0.2,0.4,0.3,0.7,0.5c0.2,0.2,0.3,0.1,0.5,0.2   s0.4-0.5,0.5-0.7c0.1-0.2,0.2-0.5,0.3-0.9s0.1-0.7,0.1-1.1s0-0.5,0.1-0.6c0-0.1,0.1-0.4,0.1-0.5c0.1-0.1,0-0.2-0.1-0.2   c-0.1-0.1,0.1-0.2,0.2-0.4c0.1-0.2,0.1-0.5,0.2-0.7c0.1-0.3,0.2-0.2,0.3-0.1s0.2,0.6,0.3,0.7c0,0.2,0.1,0.3,0.2,0.5   c0.2,0.2,0.2,0.6,0.2,0.8c0.1,0.2,0.1,0.6,0.1,0.7s0.1,0.1,0.2,0.1c0.1,0,0.1-0.2,0.2-0.2c0.1,0,0.1,0.1,0.2,0.2   c0.1,0.1,0.2,0.1,0.3,0.3c0.1,0.1,0.1,0.6,0.1,0.8c0,0.2,0.1,0.4,0.1,0.5c0.1,0.1,0.1,0.2,0.2,0.4c0.1,0.2,0,0.5,0,0.6   s0,0.1,0.1,0.2c0.1,0.1,0,0.3,0,0.4s0,0.1,0.1,0.1c0.1,0.1,0.3,0.2,0.4,0.2c0.2,0.1,0.2,0.1,0.4,0.4c0.2,0.2,0.2,0.2,0.3,0.2   c0.1,0,0.2,0.1,0.3,0.1c0.1,0.1,0,0.1,0,0.2c-0.1,0.1,0.1,0.2,0.3,0.3c0.2,0.2,0.1,0.4,0.1,0.5s-0.1,0.3,0.1,0.4   c0.1,0.2,0.2-0.1,0.2-0.2c0.1-0.1,0,0,0.1,0.1c0.1,0.1,0.1,0.1,0.3,0.2s0,0.4,0,0.5s0.1,0.2,0.2,0.2c0.1,0.1,0.1,0.2,0.2,0.3   c0.1,0.1,0.1,0,0.2,0.2c0.2,0.2,0.2,0.2,0.2,0.3c0.1,0.1,0.2,0.2,0.3,0.3c0.1,0.1-0.1,0.7-0.1,0.9   C709.1,508.3,709.1,508.6,709.1,508.8z M698.5,499.1c-0.2,0-0.2-0.2-0.1-0.3c0.1-0.1,0.2-0.1,0.2,0   C698.7,498.9,698.7,499.1,698.5,499.1z M709.4,521.1C709.3,521.1,709.2,521,709.4,521.1C709.4,520.9,709.5,521,709.4,521.1z    M709.4,495.9c-0.1,0.1-0.2-0.1-0.3-0.2c0-0.1-0.1-0.2-0.2-0.3c-0.1-0.1,0-0.1,0.2-0.1c0.1,0,0.1,0.1,0.2,0.3   C709.3,495.8,709.5,495.8,709.4,495.9z M709.4,494.8c-0.1,0-0.2-0.2,0-0.2S709.6,494.8,709.4,494.8z M709.9,492.3   c-0.2,0.1-0.3,0.3-0.3,0.3s-0.4,0.2-0.6,0.3c-0.2,0.1-0.7,0-0.8-0.1c-0.1-0.1-0.2,0-0.3-0.1s-0.2-0.1-0.3-0.2   c-0.1-0.1,0-0.2,0.1-0.2c0.1,0,0.6,0,0.8,0c0.2,0,0.2-0.2,0.2-0.3c0-0.1,0.1,0.2,0.1,0.3c0.1,0.2,0.2,0.1,0.3,0.1s0.2-0.1,0.3-0.2   c0-0.1,0.3-0.2,0.4-0.3c0.2-0.1,0-0.4,0-0.5s0.1-0.1,0.2-0.1c0.1,0,0.2,0,0.3,0.3c0.1,0.3-0.1,0.3-0.2,0.4c-0.1,0,0,0.1,0,0.3   C710.3,492.4,710.1,492.2,709.9,492.3z M710.4,495.1c-0.3-0.2,0.2-0.1,0.3,0C710.8,495.2,710.5,495.2,710.4,495.1z M711.1,497.1   c-0.2,0-0.2,0-0.3-0.2c-0.1-0.1,0-0.2,0.2-0.1C711.1,497,711.2,497,711.1,497.1z M711.3,519.5c-0.2,0-0.1-0.1,0-0.2   C711.5,519.3,711.5,519.5,711.3,519.5z M715.8,516.3c0,0.1-0.2,0.2-0.3,0.3c-0.2,0.1-0.7,0.6-0.8,0.7c-0.1,0.1-0.1,0.2-0.3,0.3   c-0.2,0.2-0.2,0.1-0.4,0.2c-0.2,0.1-0.3,0.3-0.6,0.6c-0.3,0.3-0.9,0.7-1.1,0.7c-0.2,0.1-0.5,0-0.5,0s-0.2-0.1-0.3-0.1   c-0.1,0-0.1,0-0.1-0.1c0.1-0.1,0.3-0.3,0.4-0.4c0.2-0.1,0.6-0.4,0.8-0.5c0.2-0.1,1.1-0.6,1.3-0.7c0.2-0.1,0.6-0.6,0.8-0.7   c0.1-0.1,0.2-0.2,0.3-0.3s0.3-0.3,0.4-0.4c0.2-0.1,0.1,0.2,0,0.4c-0.1,0.2,0.1,0,0.3-0.1C715.8,516.1,715.8,516.2,715.8,516.3z    M715.6,495.7c-0.1,0-0.2,0-0.4-0.1c-0.2-0.1-0.1-0.2,0-0.4c0.1-0.2,0.1,0.1,0.2,0.2c0.1,0.1,0.3,0,0.4,0.2   C716,495.7,715.8,495.8,715.6,495.7z M717.7,517.5c-0.2,0.2-0.3,0-0.1-0.1C717.8,517.3,717.8,517.3,717.7,517.5z M718.4,514.4   c-0.1,0.2-0.3,0.4-0.5,0.6c-0.1,0.1-0.3,0.1-0.4,0.1c-0.1,0-0.3,0.3-0.3,0.4c-0.1,0.1-0.4,0.4-0.6,0.6c-0.2,0.1-0.4,0.3-0.5,0.4   c-0.1,0.1-0.2,0.1-0.2,0c0-0.1,0-0.1,0.2-0.2c0.2-0.1,0.3-0.3,0.4-0.5c0.1-0.2,0-0.1-0.2-0.3c-0.1-0.1,0-0.2,0.2-0.3   s0.4-0.3,0.6-0.7c0.3-0.4,0.2-0.9,0.2-1c0-0.2,0-0.2,0-0.5s0.1-0.3,0.1-0.1s0.1,0.1,0.2,0.2c0.1,0.1,0,0.3-0.1,0.4   c-0.1,0.2-0.1,0.3-0.1,0.4c0,0.2,0.1,0.2,0.3-0.2s0,0.2,0.1,0.1c0.1-0.2-0.1,0.3-0.2,0.4c0,0.1,0,0.1,0,0.3c0,0.1,0.1,0.2,0.4,0   C718.4,514.1,718.6,514.2,718.4,514.4z M718.6,504.4c-0.1,0-0.2-0.2,0-0.2C718.8,504.1,718.7,504.4,718.6,504.4z M718.7,499.7   c0-0.1,0-0.2,0.1-0.3c0.1-0.1,0.2,0,0.3,0.2c0.1,0.1,0,0.3-0.1,0.4C718.8,500,718.7,499.8,718.7,499.7z M718.9,500.3   c0.1-0.2,0.3,0.1,0.3,0.3C719.2,500.7,718.8,500.4,718.9,500.3z M719.4,501.4c-0.1,0.1-0.3,0-0.1-0.2   C719.4,501.1,719.5,501.3,719.4,501.4z M719.4,500.6c0.1-0.1,0.3,0,0.1,0.2C719.4,500.9,719.2,500.7,719.4,500.6z M719.6,502.3   c-0.1,0-0.2-0.2,0-0.2C719.9,502.1,719.8,502.3,719.6,502.3z" style="stroke-dasharray: 966px, 970px; stroke-dashoffset: 0px;"></path>
	<path class="st3" d="M655.2,478.1c0.1-0.4,0.2-0.9,0.4-1.3C655.4,477.2,655.3,477.6,655.2,478.1z" style="stroke-dasharray: 3px, 7px; stroke-dashoffset: 0px;"></path>
	<path class="st3" d="M699.2,527.6c-0.1,0-0.2,0-0.4,0.1C699,527.6,699.1,527.6,699.2,527.6z" style="stroke-dasharray: 1px, 5px; stroke-dashoffset: 0px;"></path>
	<path class="st3" d="M701.2,527.2c-0.1,0-0.2,0-0.3,0.1C701,527.3,701.1,527.3,701.2,527.2z" style="stroke-dasharray: 1px, 5px; stroke-dashoffset: 0px;"></path>
	<path class="st3" d="M695.1,528c-0.1,0-0.1,0-0.2,0C695,528,695.1,528,695.1,528z" style="stroke-dasharray: 1px, 5px; stroke-dashoffset: 0px;"></path>
	<path class="st3" d="M689.3,527.9c-0.1,0-0.3,0-0.4,0C689,527.9,689.2,527.9,689.3,527.9z" style="stroke-dasharray: 1px, 5px; stroke-dashoffset: 0px;"></path>
	<path class="st3" d="M697.2,527.9c-0.1,0-0.2,0-0.3,0C697,527.9,697.1,527.9,697.2,527.9z" style="stroke-dasharray: 1px, 5px; stroke-dashoffset: 0px;"></path>
	<path class="st3" d="M685.5,527.3c-0.2,0-0.4-0.1-0.6-0.1C685,527.3,685.3,527.3,685.5,527.3z" style="stroke-dasharray: 2px, 6px; stroke-dashoffset: 0px;"></path>
	<path class="st3" d="M691.2,528c-0.2,0-0.3,0-0.5,0C690.9,528,691.1,528,691.2,528z" style="stroke-dasharray: 1px, 5px; stroke-dashoffset: 0px;"></path>
	<path class="st3" d="M683.6,526.9c-0.2-0.1-0.4-0.1-0.6-0.2C683.2,526.8,683.4,526.9,683.6,526.9z" style="stroke-dasharray: 2px, 6px; stroke-dashoffset: 0px;"></path>
</g>
</svg>
