<svg xmlns="http://www.w3.org/2000/svg" xmlns:xlink="http://www.w3.org/1999/xlink" version="1.1" id="Layer_1" x="0px" y="0px" viewBox="0 0 1000 1000" style="enable-background:new 0 0 1000 1000;" xml:space="preserve" width="100%" height="100%">
<style type="text/css">
	.st0{fill:#0D8843;}
</style>
<path class="st0" d="M159,901L285,732L325,732L198,901Z" style="stroke-dasharray: 502px, 506px; stroke-dashoffset: 0px;"></path>
<path class="st0" d="M250,1000H83.3c-10,0-16.7-6.7-16.7-16.7V950c0-28.3,21.7-50,50-50h100c28.3,0,50,21.7,50,50v33.3  C266.7,993.3,260,1000,250,1000z M100,966.7h133.3V950c0-10-6.7-16.7-16.7-16.7h-100c-10,0-16.7,6.7-16.7,16.7L100,966.7L100,966.7z  " style="stroke-dasharray: 864px, 868px; stroke-dashoffset: 0px;"></path>
<path class="st0" d="M583.3,1000H416.7c-10,0-16.7-6.7-16.7-16.7V950c0-28.3,21.7-50,50-50h100c28.3,0,50,21.7,50,50v33.3  C600,993.3,593.3,1000,583.3,1000z M433.3,966.7h133.3V950c0-10-6.7-16.7-16.7-16.7H450c-10,0-16.7,6.7-16.7,16.7V966.7L433.3,966.7  z" style="stroke-dasharray: 864px, 868px; stroke-dashoffset: 0px;"></path>
<path class="st0" d="M675,732L714,732L841,901L801,901Z" style="stroke-dasharray: 502px, 506px; stroke-dashoffset: 0px;"></path>
<path class="st0" d="M916.7,1000H750c-10,0-16.7-6.7-16.7-16.7V950c0-28.3,21.7-50,50-50h100c28.3,0,50,21.7,50,50v33.3  C933.3,993.3,926.7,1000,916.7,1000z M766.7,966.7H900V950c0-10-6.7-16.7-16.7-16.7h-100c-10,0-16.7,6.7-16.7,16.7L766.7,966.7  L766.7,966.7z" style="stroke-dasharray: 864px, 868px; stroke-dashoffset: 0px;"></path>
<path class="st0" width="33.3" height="168" d="M483.3 732.7 L516.6 732.7 L516.6 900.7 L483.3 900.7 Z" style="stroke-dasharray: 403px, 407px; stroke-dashoffset: 0px;"></path>
<path class="st0" d="M766.7,733.3H233.3c-55,0-100-45-100-100v-400c0-55,45-100,100-100h533.3c55,0,100,45,100,100v400  C866.7,688.3,821.7,733.3,766.7,733.3z M233.3,166.7c-36.7,0-66.7,30-66.7,66.7v400c0,36.7,30,66.7,66.7,66.7h533.3  c36.7,0,66.7-30,66.7-66.7v-400c0-36.7-30-66.7-66.7-66.7L233.3,166.7L233.3,166.7z" style="stroke-dasharray: 4781px, 4785px; stroke-dashoffset: 0px;"></path>
<path class="st0" d="M750,166.7H250c-10,0-16.7-6.7-16.7-16.7v-33.3c0-28.3,21.7-50,50-50h433.3c28.3,0,50,21.7,50,50V150  C766.7,160,760,166.7,750,166.7z M266.7,133.3h466.7v-16.7c0-10-6.7-16.7-16.7-16.7H283.3c-10,0-16.7,6.7-16.7,16.7L266.7,133.3  L266.7,133.3z" style="stroke-dasharray: 2198px, 2202px; stroke-dashoffset: 0px;"></path>
<path class="st0" d="M333.3,67.9V16.7C333.3,6.7,340,0,350,0s16.7,6.7,16.7,16.7V68" style="stroke-dasharray: 156px, 160px; stroke-dashoffset: 0px;"></path>
<path class="st0" d="M400,66.8V51.2c0-11.4,10.8-20.2,21.8-17.2c7.1,1.9,11.5,7.9,11.5,16.1v18" style="stroke-dasharray: 88px, 92px; stroke-dashoffset: 0px;"></path>
<path class="st0" d="M642.1,263.5c-61.2-7.8-103.5-29.5-128.3-46.3c-4.1-2.8-8.9-4.3-13.9-4.3s-9.8,1.5-13.9,4.3  c-24.7,16.8-67.1,38.5-128.3,46.3c-12.3,1.6-21.6,12.1-21.6,24.5v116.9c0,79.7,35.6,155.2,95.2,202c18.8,14.8,38.8,26.4,59.5,34.5  c2.9,1.1,5.9,1.7,9,1.7s6.1-0.6,9-1.7c20.7-8.1,40.7-19.7,59.5-34.5c59.6-46.9,95.2-122.4,95.2-202v-117  C663.7,275.6,654.4,265,642.1,263.5z M631.7,404.9c0,69.9-31,136-83,176.9c-15.5,12.2-31.9,21.9-48.7,28.8  c-16.8-6.9-33.2-16.6-48.7-28.8c-52-40.8-83-107-83-176.9V294.3c60.9-8.8,104.6-30.3,131.7-48c27.2,17.7,70.8,39.2,131.7,48V404.9z" style="stroke-dasharray: 2250px, 2254px; stroke-dashoffset: 0px;"></path>
<path class="st0" d="M530.8,415.6c8.9-8.4,14-20.2,14-32.5c0-24.7-20.1-44.8-44.8-44.8s-44.8,20.1-44.8,44.8  c0,12.3,5.2,24.1,14,32.5l-22.7,90.9c-0.7,2.7-0.1,5.5,1.6,7.7s4.3,3.5,7.1,3.5h89.7c2.8,0,5.4-1.3,7.1-3.5c1.7-2.2,2.3-5,1.6-7.7  L530.8,415.6z" style="stroke-dasharray: 524px, 528px; stroke-dashoffset: 0px;"></path>
</svg>
