<?xml version="1.0" encoding="UTF-8" standalone="no"?>
<!-- Generator: Adobe Illustrator 19.2.1, SVG Export Plug-In . SVG Version: 6.00 Build 0)  -->

<svg
   xmlns:dc="http://purl.org/dc/elements/1.1/"
   xmlns:cc="http://creativecommons.org/ns#"
   xmlns:rdf="http://www.w3.org/1999/02/22-rdf-syntax-ns#"
   xmlns:svg="http://www.w3.org/2000/svg"
   xmlns="http://www.w3.org/2000/svg"
   xmlns:sodipodi="http://sodipodi.sourceforge.net/DTD/sodipodi-0.dtd"
   xmlns:inkscape="http://www.inkscape.org/namespaces/inkscape"
   version="1.1"
   x="0px"
   y="0px"
   width="42"
   height="42"
   viewBox="0 0 42 42"
   xml:space="preserve"
   id="svg2"
   inkscape:version="0.91 r13725"
   sodipodi:docname="mac_os.svg"><metadata
     id="metadata21"><rdf:RDF><cc:Work
         rdf:about=""><dc:format>image/svg+xml</dc:format><dc:type
           rdf:resource="http://purl.org/dc/dcmitype/StillImage" /><dc:title></dc:title></cc:Work></rdf:RDF></metadata><defs
     id="defs19" /><sodipodi:namedview
     pagecolor="#ffffff"
     bordercolor="#666666"
     borderopacity="1"
     objecttolerance="10"
     gridtolerance="10"
     guidetolerance="10"
     inkscape:pageopacity="0"
     inkscape:pageshadow="2"
     inkscape:window-width="1041"
     inkscape:window-height="657"
     id="namedview17"
     showgrid="false"
     inkscape:zoom="4.3703704"
     inkscape:cx="21"
     inkscape:cy="27"
     inkscape:window-x="0"
     inkscape:window-y="0"
     inkscape:window-maximized="0"
     inkscape:current-layer="svg2" /><g
     id="FPO_Dark"
     style="display:none"
     transform="translate(0,-12)"><g
       id="Mac_FPO_1_"
       style="display:inline"><g
         id="Menu_Component_5_"><rect
           id="Background_5_"
           x="-799"
           y="-62"
           style="fill:#808080"
           width="1000"
           height="160" /></g></g></g><g
     id="FPO_Light"
     style="display:none"
     transform="translate(0,-12)" /><g
     id="Spacing_Guide"
     transform="translate(0,-12)" /><g
     id="Artboard_Guides"
     style="display:none"
     transform="translate(0,-12)" /><g
     id="Dark"
     transform="translate(0,-9)"><g
       id="Mac_2_"><path
         id="macOS_Finder_1_"
         style="fill:#efefef"
         d="m 23.091,23.018 0,-0.342 -1.063,0.073 c -0.301,0.019 -0.527,0.083 -0.679,0.191 -0.152,0.109 -0.228,0.26 -0.228,0.453 0,0.188 0.075,0.338 0.226,0.449 0.15,0.112 0.352,0.167 0.604,0.167 0.161,0 0.312,-0.025 0.451,-0.074 0.139,-0.049 0.261,-0.118 0.363,-0.206 0.102,-0.087 0.182,-0.191 0.239,-0.312 0.058,-0.121 0.087,-0.254 0.087,-0.399 z M 21,9.25 C 9.421,9.25 0.25,18.421 0.25,30 0.25,41.58 9.421,50.75 21,50.75 32.579,50.75 41.75,41.58 41.75,30 41.75,18.421 32.58,9.25 21,9.25 Z m 4.028,12.299 c 0.098,-0.275 0.236,-0.511 0.415,-0.707 0.179,-0.196 0.394,-0.347 0.646,-0.453 0.252,-0.106 0.533,-0.159 0.842,-0.159 0.279,0 0.531,0.042 0.755,0.125 0.225,0.083 0.417,0.195 0.578,0.336 0.161,0.141 0.289,0.305 0.383,0.493 0.094,0.188 0.15,0.387 0.169,0.596 l -0.833,0 C 27.962,21.665 27.924,21.557 27.87,21.458 27.816,21.359 27.745,21.273 27.657,21.2 c -0.089,-0.073 -0.193,-0.13 -0.312,-0.171 -0.12,-0.042 -0.254,-0.062 -0.405,-0.062 -0.177,0 -0.338,0.036 -0.481,0.107 -0.144,0.071 -0.267,0.172 -0.369,0.302 -0.102,0.13 -0.181,0.289 -0.237,0.475 -0.057,0.187 -0.085,0.394 -0.085,0.622 0,0.236 0.028,0.448 0.085,0.634 0.056,0.187 0.136,0.344 0.24,0.473 0.103,0.129 0.228,0.228 0.373,0.296 0.145,0.068 0.305,0.103 0.479,0.103 0.285,0 0.517,-0.067 0.697,-0.201 0.18,-0.134 0.296,-0.33 0.35,-0.588 l 0.834,0 c -0.024,0.228 -0.087,0.436 -0.189,0.624 -0.102,0.188 -0.234,0.348 -0.396,0.481 -0.163,0.133 -0.354,0.236 -0.574,0.308 -0.22,0.072 -0.462,0.109 -0.725,0.109 -0.312,0 -0.593,-0.052 -0.846,-0.155 -0.252,-0.103 -0.469,-0.252 -0.649,-0.445 -0.18,-0.193 -0.319,-0.428 -0.417,-0.705 -0.098,-0.277 -0.147,-0.588 -0.147,-0.935 -0.002,-0.339 0.047,-0.647 0.145,-0.923 z m -11.853,-1.262 0.834,0 0,0.741 0.016,0 c 0.051,-0.123 0.118,-0.234 0.2,-0.33 0.082,-0.097 0.176,-0.179 0.284,-0.248 0.107,-0.069 0.226,-0.121 0.354,-0.157 0.129,-0.036 0.265,-0.054 0.407,-0.054 0.306,0 0.565,0.073 0.775,0.219 0.211,0.146 0.361,0.356 0.449,0.63 l 0.021,0 c 0.056,-0.132 0.13,-0.25 0.221,-0.354 0.091,-0.104 0.196,-0.194 0.314,-0.268 0.118,-0.074 0.248,-0.13 0.389,-0.169 0.141,-0.039 0.289,-0.058 0.445,-0.058 0.215,0 0.41,0.034 0.586,0.103 0.176,0.069 0.326,0.165 0.451,0.29 0.125,0.125 0.221,0.277 0.288,0.455 0.067,0.178 0.101,0.376 0.101,0.594 l 0,2.981 -0.87,0 0,-2.772 c 0,-0.287 -0.074,-0.51 -0.222,-0.667 -0.147,-0.157 -0.358,-0.236 -0.632,-0.236 -0.134,0 -0.257,0.024 -0.369,0.071 -0.111,0.047 -0.208,0.113 -0.288,0.198 -0.081,0.084 -0.144,0.186 -0.189,0.304 -0.046,0.118 -0.069,0.247 -0.069,0.387 l 0,2.715 -0.858,0 0,-2.844 c 0,-0.126 -0.02,-0.24 -0.059,-0.342 -0.039,-0.102 -0.094,-0.189 -0.167,-0.262 -0.072,-0.073 -0.161,-0.128 -0.264,-0.167 -0.104,-0.039 -0.22,-0.059 -0.349,-0.059 -0.134,0 -0.258,0.025 -0.373,0.075 -0.114,0.05 -0.212,0.119 -0.294,0.207 -0.082,0.089 -0.146,0.193 -0.191,0.314 C 14.072,21.704 14,21.836 14,21.978 l 0,2.683 -0.825,0 0,-4.374 z m 1.893,20.939 c -3.825,0 -6.224,-2.658 -6.224,-6.9 0,-4.242 2.399,-6.909 6.224,-6.909 3.825,0 6.215,2.667 6.215,6.909 0,4.241 -2.39,6.9 -6.215,6.9 z M 22.15,24.651 c -0.141,0.036 -0.285,0.054 -0.433,0.054 -0.218,0 -0.417,-0.031 -0.598,-0.093 -0.182,-0.062 -0.337,-0.149 -0.467,-0.262 -0.13,-0.113 -0.232,-0.249 -0.304,-0.409 -0.073,-0.16 -0.109,-0.338 -0.109,-0.534 0,-0.384 0.143,-0.684 0.429,-0.9 0.286,-0.216 0.7,-0.342 1.243,-0.377 l 1.18,-0.068 0,-0.338 c 0,-0.252 -0.08,-0.445 -0.24,-0.576 -0.16,-0.131 -0.386,-0.197 -0.679,-0.197 -0.118,0 -0.229,0.015 -0.331,0.044 -0.102,0.03 -0.192,0.072 -0.27,0.127 -0.078,0.055 -0.143,0.121 -0.193,0.198 -0.051,0.076 -0.086,0.162 -0.105,0.256 l -0.818,0 c 0.005,-0.193 0.053,-0.372 0.143,-0.536 0.09,-0.164 0.212,-0.306 0.367,-0.427 0.155,-0.121 0.336,-0.215 0.546,-0.282 0.21,-0.067 0.438,-0.101 0.685,-0.101 0.266,0 0.507,0.033 0.723,0.101 0.216,0.068 0.401,0.163 0.554,0.288 0.153,0.125 0.271,0.275 0.354,0.451 0.083,0.176 0.125,0.373 0.125,0.59 l 0,3.001 -0.833,0 0,-0.729 -0.021,0 c -0.062,0.118 -0.14,0.225 -0.235,0.32 -0.096,0.095 -0.203,0.177 -0.322,0.244 -0.12,0.067 -0.25,0.119 -0.391,0.155 z m 5.503,16.575 c -2.917,0 -4.9,-1.528 -5.038,-3.927 l 1.899,0 c 0.148,1.371 1.473,2.279 3.288,2.279 1.741,0 2.992,-0.908 2.992,-2.149 0,-1.074 -0.76,-1.723 -2.519,-2.167 l -1.714,-0.426 c -2.464,-0.611 -3.584,-1.732 -3.584,-3.575 0,-2.269 1.982,-3.844 4.807,-3.844 2.76,0 4.686,1.584 4.76,3.862 l -1.88,0 c -0.13,-1.371 -1.25,-2.214 -2.918,-2.214 -1.658,0 -2.806,0.852 -2.806,2.084 0,0.972 0.722,1.547 2.482,1.991 l 1.445,0.361 c 2.751,0.667 3.881,1.751 3.881,3.696 -10e-4,2.482 -1.964,4.029 -5.095,4.029 z M 15.068,29.12 c -2.621,0 -4.26,2.01 -4.26,5.205 0,3.186 1.639,5.196 4.26,5.196 2.612,0 4.26,-2.01 4.26,-5.196 0.001,-3.195 -1.648,-5.205 -4.26,-5.205 z"
         inkscape:connector-curvature="0" /></g></g><g
     id="Light"
     transform="translate(0,-12)" /><g
     id="WORKING_LAYER"
     transform="translate(0,-12)" /><g
     id="LOCATION_NOTE"
     transform="translate(0,-12)" /></svg>