<svg xmlns="http://www.w3.org/2000/svg" xmlns:xlink="http://www.w3.org/1999/xlink" viewBox="0 0 45.59 45.41"><defs><style>.cls-1{isolation:isolate;}.cls-2{fill:url(#linear-gradient);}.cls-3{fill:url(#linear-gradient-2);}.cls-4{fill:url(#linear-gradient-3);}.cls-5{mix-blend-mode:multiply;}.cls-6{fill:#fff;}.cls-7{fill:#f2efed;}.cls-8{fill:#e9e5e2;}.cls-9{fill:#e1dbd7;}.cls-10{fill:#d9d2cd;}.cls-11{fill:#d2cac4;}.cls-12{fill:#cbc1bb;}.cls-13{fill:#c4bab2;}.cls-14{fill:#beb2aa;}.cls-15{fill:#b7aaa2;}.cls-16{fill:#b1a39a;}.cls-17{fill:#ab9c92;}.cls-18{fill:#a5958a;}.cls-19{fill:#9f8e83;}.cls-20{fill:#99887c;}.cls-21{fill:#938176;}.cls-22{fill:#8e7b6f;}.cls-23{fill:#897669;}.cls-24{fill:#837064;}.cls-25{fill:#7f6b5e;}.cls-26{fill:#7a6659;}.cls-27{fill:#756154;}.cls-28{fill:url(#linear-gradient-4);}.cls-29{fill:url(#linear-gradient-5);}.cls-30{fill:url(#linear-gradient-6);}.cls-31{fill:#a08266;}.cls-32{fill:#a3866b;}.cls-33{fill:#a78a70;}.cls-34{fill:#ab8f76;}.cls-35{fill:#ae947b;}.cls-36{fill:#b29981;}.cls-37{fill:#b69e87;}.cls-38{fill:#baa38d;}.cls-39{fill:#bea893;}.cls-40{fill:#c2ae9a;}.cls-41{fill:#c6b3a1;}.cls-42{fill:#cab9a8;}.cls-43{fill:#cfbeaf;}.cls-44{fill:#d3c4b6;}.cls-45{fill:#d7cabe;}.cls-46{fill:#dcd0c5;}.cls-47{fill:#e1d7cd;}.cls-48{fill:#e5ddd5;}.cls-49{fill:#ebe4de;}.cls-50{fill:#f0ebe7;}.cls-51{fill:#f6f4f1;}</style><linearGradient id="linear-gradient" x1="23.92" y1="49.77" x2="23.92" y2="-23.28" gradientUnits="userSpaceOnUse"><stop offset="0.05" stop-color="#79797a"/><stop offset="0.56" stop-color="#404040"/><stop offset="1" stop-color="#393a3a"/></linearGradient><linearGradient id="linear-gradient-2" x1="23.94" y1="1.7" x2="23.94" y2="45.85" gradientUnits="userSpaceOnUse"><stop offset="0.05" stop-color="#575758"/><stop offset="0.25" stop-color="#525252"/><stop offset="0.56" stop-color="#404040"/><stop offset="1" stop-color="#393a3a"/></linearGradient><linearGradient id="linear-gradient-3" x1="23.94" y1="1.22" x2="23.94" y2="44.85" gradientUnits="userSpaceOnUse"><stop offset="0" stop-color="#f69369"/><stop offset="1" stop-color="#f1646a"/></linearGradient><linearGradient id="linear-gradient-4" x1="23.94" y1="-14.64" x2="23.94" y2="92.71" gradientUnits="userSpaceOnUse"><stop offset="0.05" stop-color="#616262"/><stop offset="0.35" stop-color="#555a5a"/><stop offset="0.39" stop-color="#515656"/><stop offset="0.43" stop-color="#474a49"/><stop offset="0.46" stop-color="#3a3b3a"/></linearGradient><linearGradient id="linear-gradient-5" x1="23.94" y1="-6.13" x2="23.94" y2="95.92" gradientUnits="userSpaceOnUse"><stop offset="0.05" stop-color="#5c5d5d"/><stop offset="0.25" stop-color="#555757"/><stop offset="0.35" stop-color="#505353"/><stop offset="0.4" stop-color="#4d4f4f"/><stop offset="0.45" stop-color="#434342"/><stop offset="0.46" stop-color="#40403f"/><stop offset="0.56" stop-color="#3d3d3d"/><stop offset="1" stop-color="#393a3a"/></linearGradient><linearGradient id="linear-gradient-6" x1="23.94" y1="2.17" x2="23.94" y2="99.02" xlink:href="#linear-gradient-2"/></defs><title>red_on</title><g class="cls-1"><g id="Layer_1" data-name="Layer 1"><path class="cls-2" d="M23.92,46.05a22.71,22.71,0,1,1,22.8-22.71A22.75,22.75,0,0,1,23.92,46.05Z" transform="translate(-1.13 -0.64)"/><path class="cls-3" d="M46,23.39a22,22,0,1,1-22-22A22,22,0,0,1,46,23.39Z" transform="translate(-1.13 -0.64)"/><path class="cls-4" d="M46,23.39a22,22,0,1,1-22-22A22,22,0,0,1,46,23.39Z" transform="translate(-1.13 -0.64)"/><g class="cls-5"><path class="cls-6" d="M23.86,43.6A19.34,19.34,0,1,1,43.19,24.26,19.34,19.34,0,0,1,23.86,43.6Z" transform="translate(-1.13 -0.64)"/><path class="cls-7" d="M23.86,43.52a19.3,19.3,0,1,1,19.3-19.3A19.3,19.3,0,0,1,23.86,43.52Z" transform="translate(-1.13 -0.64)"/><path class="cls-8" d="M23.87,43.43A19.26,19.26,0,1,1,43.13,24.17,19.26,19.26,0,0,1,23.87,43.43Z" transform="translate(-1.13 -0.64)"/><path class="cls-9" d="M23.87,43.35A19.23,19.23,0,1,1,43.1,24.13,19.22,19.22,0,0,1,23.87,43.35Z" transform="translate(-1.13 -0.64)"/><path class="cls-10" d="M23.88,43.27A19.19,19.19,0,1,1,43.06,24.08,19.19,19.19,0,0,1,23.88,43.27Z" transform="translate(-1.13 -0.64)"/><path class="cls-11" d="M23.88,43.19A19.15,19.15,0,1,1,43,24,19.16,19.16,0,0,1,23.88,43.19Z" transform="translate(-1.13 -0.64)"/><path class="cls-12" d="M23.88,43.1A19.11,19.11,0,1,1,43,24,19.11,19.11,0,0,1,23.88,43.1Z" transform="translate(-1.13 -0.64)"/><path class="cls-13" d="M23.89,43A19.08,19.08,0,1,1,43,24,19.07,19.07,0,0,1,23.89,43Z" transform="translate(-1.13 -0.64)"/><path class="cls-14" d="M23.89,42.94a19,19,0,1,1,19-19A19,19,0,0,1,23.89,42.94Z" transform="translate(-1.13 -0.64)"/><path class="cls-15" d="M23.9,42.86a19,19,0,1,1,19-19A19,19,0,0,1,23.9,42.86Z" transform="translate(-1.13 -0.64)"/><path class="cls-16" d="M23.9,42.78a19,19,0,1,1,19-19A19,19,0,0,1,23.9,42.78Z" transform="translate(-1.13 -0.64)"/><path class="cls-17" d="M23.91,42.69A18.92,18.92,0,1,1,42.83,23.77,18.93,18.93,0,0,1,23.91,42.69Z" transform="translate(-1.13 -0.64)"/><path class="cls-18" d="M23.91,42.61A18.89,18.89,0,1,1,42.8,23.72,18.88,18.88,0,0,1,23.91,42.61Z" transform="translate(-1.13 -0.64)"/><path class="cls-19" d="M23.92,42.53A18.85,18.85,0,1,1,42.77,23.68,18.85,18.85,0,0,1,23.92,42.53Z" transform="translate(-1.13 -0.64)"/><path class="cls-20" d="M23.92,42.45A18.82,18.82,0,1,1,42.73,23.64,18.81,18.81,0,0,1,23.92,42.45Z" transform="translate(-1.13 -0.64)"/><path class="cls-21" d="M23.92,42.36A18.77,18.77,0,1,1,42.7,23.59,18.77,18.77,0,0,1,23.92,42.36Z" transform="translate(-1.13 -0.64)"/><path class="cls-22" d="M23.93,42.28A18.74,18.74,0,1,1,42.67,23.55,18.74,18.74,0,0,1,23.93,42.28Z" transform="translate(-1.13 -0.64)"/><path class="cls-23" d="M23.93,42.2a18.7,18.7,0,1,1,18.7-18.7A18.69,18.69,0,0,1,23.93,42.2Z" transform="translate(-1.13 -0.64)"/><path class="cls-24" d="M23.94,42.12A18.67,18.67,0,1,1,42.6,23.46,18.66,18.66,0,0,1,23.94,42.12Z" transform="translate(-1.13 -0.64)"/><path class="cls-25" d="M23.94,42A18.62,18.62,0,1,1,42.57,23.41,18.62,18.62,0,0,1,23.94,42Z" transform="translate(-1.13 -0.64)"/><path class="cls-26" d="M24,42A18.59,18.59,0,1,1,42.53,23.37,18.58,18.58,0,0,1,24,42Z" transform="translate(-1.13 -0.64)"/><path class="cls-27" d="M24,41.87A18.55,18.55,0,1,1,42.5,23.32,18.55,18.55,0,0,1,24,41.87Z" transform="translate(-1.13 -0.64)"/></g><path class="cls-28" d="M42.43,23.39A18.49,18.49,0,1,1,23.94,4.9,18.48,18.48,0,0,1,42.43,23.39Z" transform="translate(-1.13 -0.64)"/><path class="cls-29" d="M42.19,23.39A18.25,18.25,0,1,1,23.94,5.13,18.25,18.25,0,0,1,42.19,23.39Z" transform="translate(-1.13 -0.64)"/><path class="cls-30" d="M42,23.39a18,18,0,1,1-18-18A18,18,0,0,1,42,23.39Z" transform="translate(-1.13 -0.64)"/><g class="cls-5"><path class="cls-31" d="M23.92,45.34A22,22,0,1,1,46,23.34,22,22,0,0,1,23.92,45.34Z" transform="translate(-1.13 -0.64)"/><path class="cls-32" d="M23.93,45.31A21.94,21.94,0,1,1,46,23.37,22,22,0,0,1,23.93,45.31Z" transform="translate(-1.13 -0.64)"/><path class="cls-33" d="M23.94,45.27a21.87,21.87,0,1,1,22-21.87A21.92,21.92,0,0,1,23.94,45.27Z" transform="translate(-1.13 -0.64)"/><path class="cls-34" d="M24,45.24A21.81,21.81,0,1,1,45.88,23.43,21.88,21.88,0,0,1,24,45.24Z" transform="translate(-1.13 -0.64)"/><path class="cls-35" d="M24,45.2A21.75,21.75,0,1,1,45.83,23.46,21.81,21.81,0,0,1,24,45.2Z" transform="translate(-1.13 -0.64)"/><path class="cls-36" d="M24,45.17A21.69,21.69,0,1,1,45.79,23.48,21.76,21.76,0,0,1,24,45.17Z" transform="translate(-1.13 -0.64)"/><path class="cls-37" d="M24,45.13A21.62,21.62,0,1,1,45.75,23.51,21.7,21.7,0,0,1,24,45.13Z" transform="translate(-1.13 -0.64)"/><path class="cls-38" d="M24,45.1A21.56,21.56,0,1,1,45.7,23.54,21.64,21.64,0,0,1,24,45.1Z" transform="translate(-1.13 -0.64)"/><path class="cls-39" d="M24,45.07a21.5,21.5,0,1,1,21.67-21.5A21.59,21.59,0,0,1,24,45.07Z" transform="translate(-1.13 -0.64)"/><path class="cls-40" d="M24,45A21.44,21.44,0,1,1,45.62,23.59,21.53,21.53,0,0,1,24,45Z" transform="translate(-1.13 -0.64)"/><path class="cls-41" d="M24,45A21.38,21.38,0,1,1,45.57,23.62,21.48,21.48,0,0,1,24,45Z" transform="translate(-1.13 -0.64)"/><path class="cls-42" d="M24,45A21.31,21.31,0,1,1,45.53,23.65,21.41,21.41,0,0,1,24,45Z" transform="translate(-1.13 -0.64)"/><path class="cls-43" d="M24,44.93A21.25,21.25,0,1,1,45.49,23.68,21.36,21.36,0,0,1,24,44.93Z" transform="translate(-1.13 -0.64)"/><path class="cls-44" d="M24,44.89A21.19,21.19,0,1,1,45.44,23.71,21.3,21.3,0,0,1,24,44.89Z" transform="translate(-1.13 -0.64)"/><path class="cls-45" d="M24,44.86A21.13,21.13,0,1,1,24,2.61,21.25,21.25,0,0,1,45.4,23.73,21.25,21.25,0,0,1,24,44.86Z" transform="translate(-1.13 -0.64)"/><ellipse class="cls-46" cx="22.91" cy="23.12" rx="21.31" ry="21.06"/><ellipse class="cls-47" cx="22.92" cy="23.15" rx="21.26" ry="21"/><ellipse class="cls-48" cx="22.93" cy="23.18" rx="21.21" ry="20.94"/><ellipse class="cls-49" cx="22.94" cy="23.21" rx="21.16" ry="20.88"/><ellipse class="cls-50" cx="22.95" cy="23.23" rx="21.11" ry="20.81"/><path class="cls-51" d="M24.08,44.65A20.91,20.91,0,0,1,3,23.9,20.91,20.91,0,0,1,24.08,3.15,20.91,20.91,0,0,1,45.14,23.9,20.91,20.91,0,0,1,24.08,44.65Z" transform="translate(-1.13 -0.64)"/><path class="cls-6" d="M24.09,44.62a20.85,20.85,0,0,1-21-20.69,20.85,20.85,0,0,1,21-20.69,20.84,20.84,0,0,1,21,20.69A20.84,20.84,0,0,1,24.09,44.62Z" transform="translate(-1.13 -0.64)"/></g></g></g></svg>