<svg id="Layer_1" data-name="Layer 1" xmlns="http://www.w3.org/2000/svg" viewBox="0 0 25.79 28"><title>trans_parency-01</title><path d="M23.53,24.9A3.93,3.93,0,0,0,24,25c1.55.07,2.06.74,1.56,2.23-.09.26-.7.49-1.07.5-3.91,0-7.82,0-11.74,0s-7.54,0-11.31,0c-1.06,0-1.24-.42-1.2-1.32S.12,24.79,1.37,25a7.36,7.36,0,0,0,1,0V23.79c0-7.3,0-14.6,0-21.89C2.3.86,2.63.6,3.63.61Q13,.67,22.35.61c.92,0,1.2.25,1.2,1.19,0,7.26,0,14.52,0,21.78Zm-19.31,0V23.67c0-6.67,0-13.33,0-20,0-.93.24-1.21,1.18-1.2,5,0,10,0,14.92,0,1.06,0,1.39.25,1.38,1.35-.05,6.73,0,13.47,0,20.21,0,1,0,1,1,.84V1.52H3.22V24.94Zm8.25-14.09H5.12v6.57h7.35Zm8.32,0H13.42v6.55h7.37Zm-15.7,14h7.39V18.37H5.09Zm8.3,0h7.39V18.37H13.39Zm-.93-15V3.38H5.1V9.91Zm8.31-6.53H13.39V9.89h7.38ZM1.1,26.83H24.78l0-1H1.1Z"/></svg>