<?xml version="1.0" encoding="utf-8"?>
<!-- Generator: Adobe Illustrator 22.1.0, SVG Export Plug-In . SVG Version: 6.00 Build 0)  -->
<svg version="1.1" id="Layer_1" xmlns="http://www.w3.org/2000/svg" xmlns:xlink="http://www.w3.org/1999/xlink" x="0px" y="0px"
	 viewBox="0 0 133.2 124.5" style="enable-background:new 0 0 133.2 124.5;" xml:space="preserve">
<style type="text/css">
	.st0{fill:none;}
	.st1{fill:#138843;}
	.st2{fill:#3E3E3E;}
</style>
<circle class="st0" cx="66.4" cy="106.7" r="11.7"/>
<path class="st1" d="M45.7,44.2c0-1.3,0.1-2.6,0.3-3.8H35.9c-1.8-8-8.9-14-17.4-14c-9.8,0-17.8,7.9-17.8,17.8S8.7,62,18.6,62
	c8.5,0,15.6-6,17.4-14h10.2C45.8,46.7,45.7,45.5,45.7,44.2z M18.6,55.8c-6.4,0-11.6-5.2-11.6-11.6c0-6.4,5.2-11.7,11.6-11.7
	s11.6,5.2,11.6,11.7S25,55.8,18.6,55.8z"/>
<path class="st1" d="M114.2,26.4c-8.5,0-15.6,6-17.3,14H86.7H74.3H58.6c-0.5,1.2-0.9,2.5-0.9,3.8s0.3,2.7,0.9,3.8h15.7h12.4h10.2
	c1.8,8,8.8,14,17.3,14c9.8,0,17.8-8,17.8-17.8S124.1,26.4,114.2,26.4z M114.2,55.8c-6.4,0-11.7-5.2-11.7-11.6
	c0-6.4,5.2-11.7,11.7-11.7c6.4,0,11.6,5.2,11.6,11.7C125.9,50.6,120.7,55.8,114.2,55.8z"/>
<path class="st2" d="M70.2,89.3v-7.9V71.1v-9.5c5.8-1.2,10.5-5.3,12.7-10.7h-6.9c-2.1,3-5.6,4.9-9.5,4.9c-6.4,0-11.7-5.2-11.7-11.6
	S60,32.5,66.4,32.5c3.9,0,7.4,2,9.5,4.9h6.9c-2.7-6.5-9-11.1-16.4-11.1c-9.8,0-17.8,8-17.8,17.8c0,8.5,6,15.6,14,17.3V71v10.3v7.9
	c-8,1.8-14,8.8-14,17.3c0,9.8,8,17.8,17.8,17.8s17.8-7.9,17.8-17.8C84.2,98.1,78.2,91.1,70.2,89.3z M66.4,118.3
	c-6.4,0-11.7-5.2-11.7-11.7c0-6.4,5.2-11.6,11.7-11.6c6.4,0,11.7,5.2,11.7,11.6C78,113.1,72.8,118.3,66.4,118.3z"/>
<path class="st2" d="M66.4,9.1c15.3,0,29,7.2,37.8,18.5c2.4-1.5,5.1-2.5,8.1-2.8C102.1,10.4,85.3,1,66.4,1s-35.7,9.4-45.9,23.8
	c3,0.3,5.7,1.2,8.1,2.7C37.4,16.3,51.1,9.1,66.4,9.1z"/>
<path class="st1" d="M47.8,101.6c-15.5-6.5-26.9-20.8-29.1-38c0,0-0.1,0-0.1,0c-2.9,0-5.7-0.7-8.2-1.8c1.8,22.4,16.8,41.1,37.2,48.4
	c-0.2-1.1-0.3-2.3-0.3-3.6C47.2,104.9,47.4,103.2,47.8,101.6z"/>
<path class="st1" d="M114.1,63.6c-2.2,17-13.4,31.2-28.7,37.8c0.4,1.7,0.7,3.4,0.7,5.2c0,1.1-0.1,2.3-0.3,3.3
	c20-7.4,34.7-25.9,36.6-48c-2.4,1.1-5.1,1.7-7.9,1.7C114.4,63.6,114.2,63.6,114.1,63.6z"/>
<path class="st0" d="M63.1,97.4c1.1,0.1,2.2,0.1,3.3,0.1c1.1,0,2.2-0.1,3.3-0.1c-1-0.4-2.2-0.6-3.3-0.6
	C65.2,96.8,64.1,97.1,63.1,97.4z"/>
<path class="st0" d="M28.4,43.9c-0.6,1.8-1.1,3.6-1.5,5.5c1-1.5,1.5-3.3,1.5-5.2C28.4,44.1,28.4,44,28.4,43.9z"/>
<path class="st0" d="M104.4,44.2c0,1.9,0.6,3.7,1.5,5.2c-0.4-1.9-0.9-3.8-1.5-5.6C104.4,44,104.4,44.1,104.4,44.2z"/>
<path class="st0" d="M18.6,34.3c-5.4,0-9.8,4.4-9.8,9.8s4.4,9.8,9.8,9.8c0.7,0,1.4-0.1,2-0.2c0.5-6,2-11.7,4.6-16.8
	C23.5,35.3,21.1,34.3,18.6,34.3z"/>
<path class="st2" d="M81.7,94.5c1.2,1.5,2.2,3.2,2.8,4.9c14.4-6.2,25.1-19.7,27.3-35.8c-1.9-0.2-3.8-0.8-5.5-1.5
	C104.6,76.8,94.9,89.1,81.7,94.5z"/>
<path class="st1" d="M34.4,32.7c7.4-9.6,19-15.8,32-15.8c13,0,24.6,6.2,31.9,15.8c1.1-1.5,2.4-2.9,4-4.1
	c-8.4-10.5-21.4-17.4-35.9-17.4s-27.5,6.8-35.9,17.4C32,29.8,33.3,31.2,34.4,32.7z"/>
<path class="st2" d="M26.4,62.1c-1.7,0.8-3.6,1.3-5.5,1.5c2.2,16.1,12.9,29.5,27.3,35.8c0.7-1.8,1.7-3.4,2.8-4.9
	C37.9,89.1,28.2,76.8,26.4,62.1z"/>
<g>
	<path class="st2" d="M124.1,43.6C124.1,43.6,124.1,43.6,124.1,43.6c0-0.3,0-0.5,0-0.7c-0.1-0.6-0.2-1.2-0.4-1.7
		c-0.2-0.8-0.6-1.6-1.1-2.3c-0.4-0.7-0.9-1.2-1.4-1.8c-0.2-0.2-0.3-0.3-0.5-0.5c-0.6-0.5-1.2-0.9-1.8-1.2c-0.6-0.3-1.2-0.6-1.9-0.8
		c-0.1,0-0.2,0-0.3-0.1c0,0,0,0-0.1,0c-0.6-0.2-1.2-0.2-1.8-0.3c-0.1,0-0.2,0-0.3,0c-0.2,0-0.5,0-0.7,0c0,0,0,0-0.1,0
		c-0.2,0-0.4,0-0.7,0c-0.2,0-0.4,0-0.7,0.1c0,0,0,0,0,0c-0.2,0-0.5,0.1-0.7,0.2c-0.8,0.2-1.6,0.5-2.4,1c-0.1,0.1-0.2,0.2-0.4,0.2
		c0,0,0,0,0,0l0,0c0,0-0.1,0-0.1,0c0,0,0,0-0.1,0c-0.1,0-0.1,0.1-0.2,0.1c-0.4,0.3-0.8,0.6-1.2,1c-0.3,0.3-0.6,0.5-0.8,0.8
		c-0.6,0.7-1.1,1.5-1.4,2.3c-0.3,0.7-0.6,1.5-0.7,2.2c-0.1,0.4-0.1,0.8-0.2,1.2v0c0-0.3,0.1-0.7,0.1-1v0c0,0,0,0,0,0h0c0,0,0,0,0,0
		c0,0.1,0,0.2,0,0.3v0c0,0.1,0,0.2,0,0.2c0,0.1,0,0.2,0,0.4c0,0,0,0.1,0,0.1c0,0,0,0,0,0.1c0.1,0.1,0.1,0.2,0.1,0.3
		c0,0.1,0.1,0.3,0.1,0.4c0,0.1,0,0.2,0,0.2s0,0.1,0,0.2c-0.1,0-0.1,0.1-0.1,0.2c0,0,0,0,0,0.1c0,0,0,0,0,0c0,0,0,0,0.1,0
		c0,0,0,0,0,0c0,0,0,0,0,0s0,0,0.1,0c0.1,0,0.1,0.1,0,0.2c0,0,0,0-0.1,0c0,0,0,0,0,0c0,0,0.1,0,0.1-0.1c0,0,0,0,0.1,0c0,0,0,0,0,0
		c0,0.1,0.1,0.2,0.1,0.2c0,0,0.1,0.1,0,0.2c0,0,0,0,0.1,0c0,0,0.1,0,0.1,0c0.1,0.1,0.1,0.1,0.2,0.2c0,0,0.1,0,0.1,0.1
		c0.1,0.1,0.1,0.2,0.1,0.2c0,0.1,0.1,0.1,0.1,0.2c0,0,0.1,0.1,0.1,0.1c0.1,0,0.1,0,0.1,0.1c0.1,0.2,0.1,0.3,0.1,0.4s0,0.2-0.1,0.3
		c0,0,0,0.1,0,0.1s0,0.1-0.1,0.2c0,0,0,0,0,0.1c0,0,0,0.1,0.1,0.2c0.1,0.1,0.1,0.3,0.1,0.4c0,0,0,0,0,0.1s0,0.1,0,0.1
		c0,0.1,0.1,0.1,0.1,0.2c0,0,0,0.1,0,0.2s0,0.1,0,0.1c-0.1,0-0.1,0-0.1,0c0,0,0,0-0.1,0c0,0-0.1,0-0.1,0.1c0,0,0,0.1,0.1,0.2
		c0.1,0.1,0.1,0.2,0.2,0.3c0,0,0,0,0,0.1c0,0,0,0-0.1,0c-0.6-0.9-1-1.9-1.3-3c-0.1-0.4-0.2-0.8-0.2-1.3c0-0.2,0-0.4-0.1-0.6l0,0
		c0,0.2,0,0.4,0,0.6c0.1,0.5,0.1,1,0.2,1.4c0.2,0.8,0.5,1.6,0.9,2.4c0.5,0.8,1.1,1.6,1.8,2.3c0.3,0.3,0.8,0.7,1.2,1
		c0.5,0.4,1.1,0.7,1.7,1c0.6,0.3,1.2,0.5,1.9,0.6c0.4,0.1,0.9,0.2,1.3,0.2c0.1,0,0.2,0,0.3,0c0.3,0,0.7,0,1,0c0,0,0.1,0,0.1,0
		c0.2,0,0.5,0,0.8,0c0.8-0.1,1.6-0.3,2.3-0.6c0.6-0.2,1.2-0.5,1.7-0.9s1.1-0.8,1.5-1.2c0.3-0.3,0.7-0.7,1-1.1c0.5-0.6,0.9-1.3,1.2-2
		c0.3-0.6,0.5-1.2,0.6-1.9c0.1-0.4,0.2-0.8,0.2-1.3c0-0.1,0-0.2,0-0.3C124.1,44.3,124.1,44,124.1,43.6z M113,34.7
		C113.1,34.7,113,34.8,113,34.7c-0.1,0.1-0.1,0.1-0.2,0.1c-0.1,0-0.2,0-0.3,0c-0.1,0-0.1,0-0.2,0s-0.1,0-0.2,0c0,0-0.1,0-0.1,0
		c-0.1,0-0.1,0-0.2,0c0,0-0.1,0-0.1,0c0.1,0,0.1-0.1,0.1-0.1c0,0,0.1,0,0,0c0,0,0,0,0,0s0,0,0.1,0c0.1,0,0.2,0,0.2,0
		c0,0,0.1,0,0.1,0c0,0,0.1,0,0.1,0c0.1,0,0.2,0,0.3,0c0,0,0,0-0.1,0s-0.1,0-0.1,0l0,0l0,0c0,0-0.1,0-0.1,0c0,0,0,0,0,0s0,0,0,0
		c0,0,0,0,0.1,0c0,0-0.1,0,0,0s0.1,0,0.1,0c0.1,0,0.1,0,0.2,0C113,34.7,113,34.7,113,34.7z M107.5,37.3
		C107.5,37.3,107.5,37.3,107.5,37.3c-0.1,0.1-0.1,0.1-0.2,0.2c0,0-0.1,0.1,0,0.1c0.1,0,0.1-0.1,0.2-0.1c-0.1,0-0.1,0.1-0.1,0.1l0,0
		c-0.1,0-0.1,0-0.2,0c-0.1,0-0.1,0-0.1,0h0c0.1-0.1,0.1-0.1,0.2-0.1c0.1,0,0,0,0.1-0.1c-0.1,0-0.2,0-0.3,0.1c-0.1,0-0.1,0.1-0.1,0.2
		c0,0,0,0-0.1,0c0,0,0,0,0,0c0,0-0.1,0-0.1,0.1c0,0-0.1,0-0.1,0.1c0,0,0,0,0,0c0.4-0.5,1-1,1.5-1.5c0,0,0,0,0,0s0,0,0,0
		c0.1,0,0.2-0.1,0.3-0.2c0.1,0,0.2-0.1,0.2-0.1c0.1,0,0.2-0.1,0.3-0.2c0.1,0,0.2-0.1,0.2-0.2c0.1,0,0.2-0.1,0.3-0.2c0,0,0.1,0,0.1,0
		c-0.1,0.1-0.1,0.2-0.2,0.2c0,0,0,0,0,0c-0.1,0.1-0.2,0.2-0.3,0.2c-0.1,0-0.1,0.1-0.2,0.1c0.1,0,0.2,0,0.2,0c-0.1,0-0.1,0.1-0.2,0.2
		c-0.1,0-0.2,0.1-0.2,0.2c0,0-0.1,0-0.1,0.1c-0.1,0-0.1,0.1-0.1,0.1c0,0-0.1,0.1-0.1,0.1c0,0,0,0,0,0c-0.1,0-0.1,0.1-0.1,0.1
		c0,0,0,0,0,0c-0.1,0.1-0.2,0.2-0.2,0.2h0c-0.1,0-0.1,0-0.2,0c-0.1,0-0.1,0-0.1,0c0,0,0,0,0,0s0-0.1,0-0.1c0,0-0.1,0-0.1,0
		c-0.1,0-0.1,0-0.2,0.1c0.1,0,0.1,0,0.1,0c0,0,0,0,0,0C107.7,37.2,107.6,37.3,107.5,37.3C107.6,37.3,107.6,37.3,107.5,37.3
		C107.6,37.2,107.6,37.3,107.5,37.3z M123.5,42.7c0-0.1-0.1-0.2-0.1-0.3c0,0-0.1-0.1-0.1-0.2c0,0.1,0,0.2,0,0.2c0,0,0,0,0,0
		s-0.1,0-0.1,0c0,0,0-0.1,0-0.1c0-0.1-0.1-0.2-0.1-0.2c0,0,0,0,0,0c-0.1,0-0.1-0.1-0.1-0.1c0,0,0,0-0.1,0c0,0-0.1,0-0.1-0.1
		c0,0-0.1-0.1-0.1-0.1s-0.1-0.1-0.1-0.2c0,0-0.1,0,0,0.1s0,0,0,0.1c0,0,0,0,0,0c0,0,0,0.1-0.1,0.1c0,0-0.1,0.1-0.1,0.2
		c0,0,0,0.1,0,0.1c0,0.1,0,0.1-0.1,0.2c0,0,0,0,0,0c0,0.2,0,0.3-0.1,0.5c0,0,0,0.1,0,0.1c0,0,0,0.1-0.1,0.1c-0.1,0,0,0.1-0.1,0.1
		c-0.1,0-0.1,0-0.1,0.1s0,0.1,0,0.1c0,0.1,0.1,0.2,0.1,0.2c0,0,0,0.1,0,0.2c0,0.1,0,0.2,0,0.2c0,0,0,0,0,0.1c0,0,0,0,0,0.1
		c0,0,0,0,0,0c0,0,0,0.1,0,0.2s-0.1,0.1-0.1,0.2c0,0,0,0,0,0c0,0-0.1,0-0.1,0c-0.1,0-0.1-0.1-0.1-0.2c-0.1-0.1-0.1-0.3-0.2-0.4
		c-0.1,0-0.1-0.1-0.1-0.2s-0.1-0.2-0.1-0.2c-0.1-0.1-0.1-0.2-0.1-0.2s-0.1-0.2-0.1-0.3c0-0.1-0.1-0.2-0.1-0.2c0,0,0,0,0-0.1
		s0-0.1-0.1-0.2c0,0,0,0,0,0c0,0,0,0,0-0.1c0,0,0,0-0.1-0.1c0,0,0,0.1,0,0.1c0,0,0,0.1,0,0.1c0,0-0.1,0-0.1,0.1c0,0-0.1,0-0.1,0
		c-0.1,0-0.2-0.1-0.2-0.2c0.1,0,0.1,0,0.1,0c0,0,0.1,0,0.1-0.1h0c0,0-0.1,0-0.1,0s-0.1,0-0.1-0.1c0,0-0.1,0-0.1,0
		c-0.1,0-0.1,0-0.1-0.1c0,0,0-0.1-0.1-0.1c0,0,0,0,0,0c-0.1-0.1-0.1-0.1-0.1,0c-0.1,0-0.1,0-0.1,0.1l0,0c-0.1,0-0.2,0.1-0.3,0.1
		c0,0-0.1,0-0.1,0c-0.1,0-0.2,0-0.2,0s-0.2,0-0.2,0c0,0-0.1,0-0.1,0c0,0,0-0.1-0.1-0.1c0-0.1-0.1-0.1-0.2,0c-0.1,0-0.1,0-0.1,0.1
		c-0.1,0-0.1,0-0.2,0c-0.1,0-0.2,0-0.2-0.1c0,0-0.1,0-0.1,0c-0.1,0-0.1,0-0.1-0.1c-0.1-0.1-0.1-0.2-0.2-0.2c0,0,0,0-0.1,0
		c-0.1,0-0.1,0-0.1,0v0c0,0,0,0,0,0c0,0,0,0-0.1,0.1c0,0,0,0,0,0c0,0,0,0-0.1,0.1c0.1,0,0.1,0.1,0.1,0.2c0.1,0.1,0.1,0.2,0.2,0.2
		c0.1,0,0.1,0.1,0.1,0.1c0,0,0,0,0,0c0.1,0,0.1,0.1,0.1,0.1c0,0,0-0.1,0-0.2c0,0,0,0,0,0s0.1,0,0.1,0c0,0.1,0.1,0.1,0,0.2
		c0,0,0,0.1,0.1,0.1c0,0,0,0,0,0c0,0,0,0,0.1,0c0.1,0,0.2,0,0.2,0c0,0,0.1,0,0.1,0c0-0.1,0.1-0.2,0.1-0.2s0.1-0.1,0.1-0.2
		c0,0,0,0.1,0.1,0.2c0.1,0.1,0.1,0.2,0.3,0.2c0.1,0,0.1,0,0.2,0.1c0,0,0.1,0,0.1,0.1c0,0,0.1,0,0,0c0,0,0,0.1,0,0.1
		c0,0-0.1,0.1-0.1,0.2c0,0,0,0,0,0c-0.1,0-0.1,0-0.1,0c0,0,0,0.1,0,0.2c0,0,0,0.1-0.1,0.1c-0.1,0-0.1,0-0.1,0.1c0,0,0,0.1-0.1,0.1
		s0,0-0.1,0c-0.1,0-0.1,0-0.1,0.1c0,0.1,0,0.1-0.1,0.1c-0.1,0-0.1,0-0.1,0c-0.1,0-0.1,0-0.1,0.1s-0.1,0.1-0.1,0.1c0,0,0,0,0,0
		c-0.1,0-0.1,0.1-0.1,0.1c-0.1,0-0.1,0.1-0.2,0.1c-0.1,0-0.1,0-0.1,0.1s-0.1,0.1-0.1,0.1c0,0-0.1,0-0.1,0c-0.1,0-0.1,0.1-0.2,0.1
		c-0.1,0-0.1,0-0.1,0.1c-0.1,0-0.1,0.1-0.2,0.1c-0.1,0-0.2,0-0.2-0.1c0-0.1-0.1-0.2-0.1-0.3c0,0,0-0.1,0-0.1c0-0.1-0.1-0.2-0.2-0.3
		c-0.1,0-0.1-0.1-0.2-0.2c-0.1-0.1-0.1-0.2-0.2-0.2c-0.1,0-0.1-0.1-0.1-0.1s-0.1-0.1-0.1-0.2c0,0,0-0.1-0.1-0.1c0,0-0.1-0.1-0.1-0.1
		c0,0-0.1-0.1-0.1-0.1c-0.1,0-0.1-0.1-0.1-0.1c0,0,0,0-0.1-0.1c-0.1-0.1-0.2-0.2-0.3-0.3c0,0-0.1-0.1-0.1-0.1c0-0.1,0-0.2,0-0.2
		c-0.1,0,0,0.1-0.1,0.2c0,0,0,0.1,0,0.1c0,0-0.1,0-0.1,0c-0.1-0.1-0.1-0.2-0.2-0.2c0,0,0,0,0,0s0,0,0,0c0.1,0,0.1,0.1,0.1,0.2
		c0.1,0.1,0.1,0.2,0.2,0.3c0.1,0.2,0.2,0.3,0.3,0.4c0,0,0,0,0,0c0,0.1,0,0.2,0.1,0.2c0.1,0,0.1,0.1,0.1,0.1c0,0,0,0,0,0c0,0,0,0,0,0
		c0.1,0.1,0.1,0.2,0.1,0.3c0,0.1,0.1,0.2,0.2,0.2c0.1,0,0.1,0,0.1,0.1c0,0.1,0.1,0.1,0.1,0.2c0,0,0.1,0.1,0.1,0.2c0,0,0,0,0.1,0h0
		c0,0.1,0.1,0.1,0.2,0.1c0.1,0,0.1,0,0.1,0.1c0,0,0,0,0,0c0.1,0,0.1,0.1,0.2,0.2c0,0,0.1,0,0.1,0.1c0,0,0,0.1,0,0.1c0,0-0.1,0-0.1,0
		c0.1,0,0.1,0,0.2,0.1c0.1,0,0.1,0.1,0.2,0.1c0,0,0.1,0,0.1,0c0.1,0,0.1,0,0.1,0s0.1,0,0.1,0c0,0,0.1,0,0.1,0s0.1,0,0.1,0
		c0.1,0,0.1,0,0.1,0c0.1,0,0.2,0,0.2-0.1l0,0c0,0,0.1,0,0.1,0s0,0,0,0c0,0,0,0.1,0,0.1c0,0,0.1,0.1,0,0.1c0,0,0,0,0,0
		c0,0.1-0.1,0.2-0.1,0.3c-0.1,0.1-0.1,0.2-0.1,0.3c0,0,0,0.1,0,0.1c-0.1,0.2-0.2,0.5-0.4,0.6c0,0-0.1,0-0.1,0
		c-0.2,0.1-0.3,0.3-0.5,0.5c-0.1,0-0.1,0.1-0.2,0.2c0,0,0,0-0.1,0.1c0,0-0.1,0-0.1,0.1c0,0,0,0,0,0c-0.1,0-0.1,0.2-0.2,0.3
		c0,0-0.1,0.1-0.1,0.1c-0.1,0.1-0.1,0.2-0.1,0.2c0,0,0,0,0,0.1s0,0,0.1,0c0.1,0,0.1,0,0,0.1s0,0,0,0.1c0,0,0,0,0,0c0,0,0,0.1,0,0.2
		c0,0,0,0,0,0c0,0,0,0.1,0.1,0.1c0.1,0,0.1,0,0.1,0.1c0,0.1,0,0.2,0,0.2c0,0,0,0.1,0,0.2c0,0,0,0,0,0.1c0.1,0.1,0,0.2-0.1,0.2
		c-0.1,0.1-0.1,0.2-0.2,0.2c0,0-0.1,0-0.1,0c-0.1,0-0.2,0.1-0.3,0.2c0,0-0.1,0-0.1,0.1c0,0-0.1,0-0.1,0c0,0-0.1,0-0.1,0.1
		c0,0-0.1,0-0.1,0s0,0,0,0.1c0,0,0.1,0.1,0.1,0.1c0,0,0.1,0.1,0.1,0.2c0,0,0,0.1,0,0.1c0,0.1-0.1,0.2-0.2,0.2c-0.1,0-0.2,0-0.2,0.1
		c0,0-0.1,0-0.1,0.1c0,0,0,0,0,0c0.1,0,0,0,0,0c0,0.1-0.1,0.1-0.1,0.2c0,0-0.1,0-0.1,0.1c-0.1,0-0.1,0.1-0.2,0.1
		c-0.2,0.2-0.3,0.3-0.6,0.4c-0.1,0-0.2,0-0.2,0c-0.1,0-0.1,0-0.1,0c-0.1,0-0.2,0-0.3,0c-0.1,0-0.1,0-0.2,0c0,0-0.1,0-0.1,0
		c-0.1,0-0.1,0-0.1,0s-0.1,0-0.2,0s-0.1,0-0.1,0h0c0-0.1-0.1-0.1-0.1-0.1c0,0,0.1,0,0.1,0c0,0,0-0.1,0-0.1c0,0-0.1-0.1-0.1-0.1
		s-0.1,0-0.1-0.1c0-0.1-0.1-0.2-0.2-0.2c-0.1-0.1-0.2-0.2-0.2-0.4c0,0,0-0.1,0-0.1c-0.1-0.1-0.1-0.2-0.1-0.2c0,0,0-0.1,0-0.1
		c-0.1-0.1-0.2-0.3-0.3-0.4c0,0-0.1-0.1-0.1-0.1c-0.1,0-0.1-0.1-0.1-0.2c0,0,0-0.1,0-0.2v0c0.1-0.1,0.1-0.2,0.1-0.3
		c0-0.1,0.1-0.1,0.1-0.2c0.1-0.1,0.1-0.2,0.1-0.3c-0.1-0.1-0.1-0.1-0.1-0.2c0,0,0,0,0-0.1c0,0,0,0,0-0.1c-0.1-0.1-0.1-0.2-0.2-0.3
		c0,0-0.1,0,0-0.1c0,0,0,0,0,0c0,0,0,0,0,0c0-0.1-0.1-0.2-0.1-0.2c-0.1-0.1-0.2-0.2-0.3-0.3c0,0-0.1-0.1-0.1-0.2v0
		c-0.1,0-0.1-0.1-0.1-0.1c0.1,0,0.1,0,0.1-0.1c0,0,0,0,0,0s-0.1,0,0,0c0,0,0.1,0,0,0c0,0,0,0,0,0c0,0,0,0,0-0.1
		c0.1-0.1,0.1-0.2,0.1-0.3c0,0,0,0,0,0c0,0,0,0,0,0c0,0,0,0,0,0c-0.1,0-0.1,0-0.1-0.1c0,0,0,0-0.1,0c0,0,0,0-0.1,0s0,0-0.1,0
		c0,0,0,0,0,0c-0.1,0-0.2,0-0.2,0c-0.1,0-0.2,0-0.2-0.2c0-0.1-0.1-0.2-0.2-0.2c0,0-0.1,0-0.1,0c-0.1,0-0.2,0-0.3,0
		c-0.1,0-0.1,0-0.1,0c0,0-0.1,0-0.1,0c0,0-0.1,0-0.1,0c-0.1,0-0.2,0-0.3,0.1c0,0-0.1,0-0.1,0c0,0,0,0,0,0c-0.1,0-0.1,0-0.1-0.1
		c-0.1,0-0.1,0-0.2,0c-0.1,0-0.2,0-0.4,0c0,0-0.1,0-0.1,0c-0.1,0-0.1,0-0.1,0c-0.1,0-0.2-0.1-0.2-0.2c-0.1-0.1-0.2-0.2-0.3-0.3
		c0,0-0.1,0-0.1-0.1c0,0,0,0,0-0.1s0,0-0.1-0.1c0,0,0-0.1,0-0.1c0-0.1-0.1-0.2-0.1-0.2l0,0c0-0.1-0.1-0.2-0.1-0.2c0,0,0,0,0,0
		c0,0-0.1,0,0-0.1h0c0,0-0.1,0-0.1,0c-0.1-0.1-0.1-0.2-0.1-0.2c0,0,0.1,0,0-0.1c0-0.1,0-0.2-0.1-0.2c0.1,0,0.1-0.1,0.2-0.2
		c0,0,0.1-0.1,0.1-0.2c0.1-0.1,0.1-0.2,0.1-0.3c0,0,0-0.1,0-0.1s0-0.1,0-0.1c-0.1-0.1-0.1-0.2,0.1-0.3c0.1,0,0.1-0.1,0.1-0.2
		c0,0,0.1-0.1,0.1-0.1s0.1-0.1,0.1-0.1s0.1-0.1,0.1-0.2c0,0,0,0,0.1,0c0.1,0,0.1,0,0.1-0.1c0,0,0,0,0.1-0.1s0.1,0,0.1,0
		c0.2,0,0.3-0.1,0.4-0.2c0,0,0,0,0-0.1c0-0.1,0-0.2,0.1-0.2c0,0,0.1,0,0.1-0.1c0.1-0.1,0.1-0.1,0.2-0.2c0.2,0,0.3-0.1,0.3-0.3
		c0,0,0.1-0.1,0.1-0.1c0,0,0,0,0,0.1s0.1,0,0.1,0c0.1,0,0.1,0,0.2,0c0,0,0,0,0,0c0.1,0,0.1,0,0.2,0c0.1,0,0.1-0.1,0.2-0.1h0
		c0.1,0,0.2-0.1,0.2-0.1s0.2,0,0.3,0c0.1,0,0.1,0,0.2,0c0,0,0,0,0.1,0c0,0,0.1,0,0.1,0c0,0,0.1,0,0.1,0c0,0,0.1,0,0.1,0
		c0,0,0,0,0.1,0c0.1,0,0.1,0,0.2,0c0,0,0.1,0,0.1,0c0.1,0,0.1,0,0.1,0.1c0,0,0.1,0,0.1,0l0,0c0,0,0,0-0.1,0.1c-0.1,0-0.1,0,0,0.1
		c0.1,0.1,0.1,0.1,0,0.2c0,0-0.1,0-0.1,0.1c0,0-0.1,0-0.1,0.1c0,0,0,0,0.1,0c0,0,0,0,0.1,0c0.1,0,0.1,0.1,0.2,0.1c0,0,0.1,0,0.1,0
		c0.1,0,0.2,0,0.2,0l0,0c0.1,0,0.1,0.1,0.2,0.2c0,0,0.1,0.1,0.1,0.1c0.1,0,0.2,0,0.2,0c0.1,0,0.1,0,0.1,0.1c0.1,0,0.1,0,0.2,0
		c0.1,0,0.1-0.1,0.1-0.2c0-0.1,0-0.1,0.1-0.2c0.1-0.1,0.2-0.1,0.3,0c0,0,0.1,0,0.1,0.1c0,0,0,0,0,0c0.1,0,0.1,0,0.2,0s0.1,0,0.1,0
		c0,0,0,0,0.1,0c0.1,0,0.2,0,0.2,0s0.2,0,0.3,0.1c0,0,0.1,0,0.1,0c0.1,0,0.1,0,0.1-0.1c0.1,0,0.2,0,0.2,0l0,0c0,0,0,0,0.1,0
		c0.1,0,0.1,0,0.2,0c0.1,0,0.2,0,0.2-0.2c0-0.1,0.1-0.2,0.1-0.4c0-0.1,0-0.2,0-0.2c0,0,0-0.1,0-0.2v0c0,0,0,0,0,0c0,0-0.1,0-0.1,0
		c0,0-0.1,0-0.1,0c-0.1,0-0.1,0.1-0.2,0.1c-0.1,0-0.1,0-0.1,0c-0.1,0-0.1-0.1-0.2-0.1c0,0-0.1,0-0.1,0c0,0,0,0.1-0.1,0.1
		c-0.1,0-0.1,0-0.1,0c-0.1,0-0.1,0-0.2,0c-0.1,0,0,0,0,0c0,0-0.1,0-0.1,0c0,0,0.1,0,0,0c0,0,0,0,0,0c0-0.1-0.1-0.1-0.1-0.1h0
		c0,0,0,0,0,0c0,0,0,0,0,0c0,0,0,0,0,0c0,0,0-0.1,0-0.2c0,0-0.1,0-0.1,0c0,0,0-0.1,0.1-0.2c0,0-0.1,0-0.1,0c-0.1-0.1-0.2,0-0.3,0
		c0,0,0,0,0,0c0,0,0,0,0,0.1c0,0,0,0,0,0c-0.1,0-0.1,0-0.1-0.1c0,0,0,0.1,0,0.1c0,0,0.1,0.1,0.1,0.1c0,0,0,0-0.1,0c0,0,0,0,0,0.1
		c0,0,0,0,0.1,0s0,0,0.1,0c0,0,0,0,0.1,0c0,0,0,0,0,0s0,0,0,0.1c0,0,0,0-0.1,0s-0.1,0-0.1,0s0,0,0,0c0,0,0,0,0,0h0c0,0,0,0-0.1,0
		c0,0,0.1,0.1,0,0.2c-0.1,0-0.1,0-0.1,0c0,0,0,0,0,0l0,0c-0.1,0-0.1,0-0.1,0c0,0,0,0,0-0.1c-0.1,0,0,0,0-0.1c0,0,0,0,0,0l0,0
		c0,0-0.1,0-0.1-0.1c0,0-0.1,0,0,0l0,0c-0.1,0-0.1,0-0.1,0c0,0,0-0.1-0.1-0.1c-0.1,0-0.1-0.2-0.1-0.2c0,0,0-0.1,0-0.1
		c-0.1,0-0.1-0.1-0.2-0.1c0,0,0,0-0.1,0c0,0-0.1-0.1-0.1-0.1s-0.1,0-0.1,0c0,0-0.1,0-0.1,0c0-0.1,0-0.1-0.1-0.2c0,0-0.1,0-0.1,0
		c0,0,0,0-0.1,0c0,0,0-0.1,0-0.1c-0.1,0-0.1,0-0.2,0l0,0c0,0,0,0,0,0.1c0,0,0,0.1,0,0.1c0,0,0.1,0,0.1,0c0,0,0.1,0,0.1,0.1
		c0,0.2,0.1,0.2,0.2,0.2c0,0,0,0,0,0.1s0.1,0,0.1,0c0.1,0,0.1,0.1,0.2,0.1c0,0,0.1,0,0.1,0.1c0,0,0,0,0,0h0c0,0-0.1,0-0.1-0.1
		s-0.1,0-0.1,0c0,0,0,0,0,0c0,0,0,0,0,0.1c0,0,0.1,0,0.1,0.1c0,0,0,0,0,0c0,0-0.1,0-0.1,0c0,0-0.1,0-0.1,0.1h0c0,0,0,0-0.1,0
		c0,0-0.1,0.1-0.1,0.1c0,0,0,0,0,0s0,0,0,0.1c0,0-0.1,0-0.1,0c-0.1-0.1-0.2-0.1-0.2-0.2c0,0,0,0,0,0c0,0,0,0,0,0c0,0,0.1,0,0.1,0
		c0.1,0,0.1,0,0.2,0c0,0,0.1,0,0.1,0c0.1,0,0.1,0,0.2-0.1c0,0,0,0,0,0c0,0,0-0.1,0-0.1c0,0,0,0,0,0c0,0-0.1,0-0.1,0
		c0,0,0-0.1-0.1-0.1c-0.1-0.1-0.1-0.1-0.2-0.2c0,0,0,0-0.1,0c0,0-0.1-0.1-0.1-0.1c-0.1,0-0.1-0.1-0.1-0.2c0-0.1-0.2-0.2-0.2-0.1
		c0,0-0.1,0-0.1,0c-0.1,0-0.1,0-0.1,0c-0.1,0-0.1,0-0.2,0s-0.1,0-0.2,0c-0.1,0-0.2,0.1-0.2,0.1c0,0.1,0,0.2-0.1,0.2
		c-0.1,0-0.1,0-0.2,0c0,0-0.1,0-0.1,0c-0.1,0-0.1,0.1-0.2,0.1c-0.1,0.1-0.1,0.1,0,0.2c0,0,0,0-0.1,0c0,0-0.1,0-0.1,0
		c0,0-0.1,0.1-0.2,0.1c0,0,0,0-0.1,0c-0.1,0.1-0.1,0.1-0.2,0c0,0-0.1,0-0.1,0c-0.1,0-0.2,0-0.2,0c0,0-0.1,0-0.1,0c0,0,0-0.1,0-0.1
		c0,0,0-0.1-0.1-0.1c-0.1,0-0.1,0-0.2,0c0,0,0.1-0.1,0.1-0.1c0,0,0-0.1,0-0.1s0-0.1,0.1-0.1c0.1,0,0.1-0.1,0.1-0.2
		c0,0,0.1-0.1,0.1-0.2c0,0,0,0,0-0.1c0,0,0-0.1,0-0.1c0-0.1,0-0.1,0.1-0.1h0c0.1,0,0.1,0,0.2,0c0.1,0,0.1,0,0.2,0c0,0,0.1,0,0.1,0
		c0.1,0,0.1,0,0.2,0c0.1,0,0.1,0,0.2,0c0.1-0.1,0.1-0.2,0.2-0.3c0,0,0,0,0-0.1s-0.1,0,0-0.1c0,0,0-0.1-0.1-0.1c0,0-0.1,0-0.1,0
		c-0.1,0-0.1-0.1-0.1-0.1c0,0,0,0,0,0c0.1,0,0.1,0,0.2,0c0.1,0,0.1,0,0.2,0c0,0,0-0.1,0-0.1c0,0,0,0,0,0s0,0,0,0c0,0,0.1,0,0.1,0
		c0,0,0.1,0,0.1,0c0,0,0.1,0,0.1,0c0.1,0,0.1,0,0.1-0.1s0.1-0.1,0.1-0.1c0.1,0,0.1,0,0.2,0c0.1,0,0.1,0,0.1,0c0,0,0.1-0.1,0.1-0.1
		c0.1,0,0.1-0.1,0.2-0.1c0,0,0.1,0,0.1,0c0,0,0.1,0,0.1,0c0.1,0,0.1,0,0.1,0c0,0,0,0,0,0c0,0,0-0.1,0-0.2v0c0,0,0,0,0,0
		c0-0.1,0-0.1,0.1-0.1c0,0,0,0-0.1,0c0.1,0,0.2,0,0.2-0.1c0,0,0,0,0,0.1c0,0,0,0,0,0.1c-0.1,0-0.1,0-0.1,0.1l0,0
		c-0.1,0-0.1,0.1,0,0.2h0c0,0,0,0.1,0.1,0c0,0,0.1,0,0.1,0c0,0,0.1,0,0.1,0c0,0,0,0,0.1,0c0.1,0.1,0.2,0,0.3,0c0.1,0,0.1,0,0.2,0
		c0,0,0.1,0,0.1,0c0,0,0.1,0,0.1,0s0.1,0,0.1,0c0,0,0.1,0,0.1,0s0,0,0-0.1c0-0.1,0-0.2,0.1-0.2c0.1-0.1,0.1-0.1,0.2,0l0,0
		c0,0,0.1,0,0.1,0c0,0,0.1,0,0.1,0c0,0,0-0.1,0-0.1c-0.1,0-0.1,0-0.1,0s0-0.1,0.1-0.1c0.1,0,0.2,0,0.2,0c0.1,0,0.1,0,0.2,0
		c0,0,0.1,0,0.1,0c0,0,0,0-0.1,0s0,0-0.1,0c-0.1-0.1-0.2,0-0.3,0c-0.1,0-0.1,0-0.2,0c-0.1,0-0.1,0-0.1,0l0,0c0,0-0.1,0,0-0.1
		c0,0,0-0.1,0-0.2s0-0.1,0-0.1c0.1,0,0.2-0.2,0.3-0.2c0,0,0-0.1,0-0.1c-0.1,0-0.2,0-0.2,0.1c0,0,0,0,0,0c0,0.1-0.1,0.1-0.1,0.2
		c-0.1,0-0.2,0.1-0.2,0.1c-0.1,0-0.1,0.1-0.1,0.2c0,0,0,0,0,0c0,0,0.1,0,0.1,0c0.1,0,0,0,0,0.1s-0.1,0.1-0.2,0.1c0,0,0,0-0.1,0.1
		c0,0.1,0,0.2-0.1,0.2c0,0-0.1,0.1-0.1,0c-0.1,0-0.1,0-0.1,0.1c0,0,0,0-0.1,0c-0.1,0-0.1,0-0.1,0v0c0,0-0.1,0.1-0.1,0.2c0,0,0,0,0,0
		c0,0-0.1,0,0-0.1c0,0,0,0,0.1,0c0,0,0.1,0,0.1,0c0,0,0,0,0-0.1c-0.1-0.1-0.1-0.2-0.1-0.3c0,0,0,0,0-0.1c0,0-0.1,0.1-0.1,0
		c0,0-0.1,0-0.1,0c0,0-0.1,0-0.1,0c-0.1,0-0.2,0-0.2-0.1c0,0,0,0,0,0c0,0,0.1,0,0,0c0,0,0,0-0.1,0c0-0.1,0.1-0.2,0.1-0.3
		c0,0,0.1,0,0.1-0.1c0,0,0.1,0,0.1,0c0,0,0.1,0,0.1,0c0.1,0,0.1,0,0.1,0c0,0,0,0,0,0c0,0,0.1,0,0.1,0c0.1,0,0.1-0.1,0.2-0.1
		c0,0,0.1,0,0.1,0c0.1-0.1,0.1-0.2,0.2-0.2c0,0,0,0,0.1,0c0,0,0.1,0,0.1,0l0,0c0,0,0.1,0,0,0l0,0c0,0,0.1,0,0.1,0c0,0,0.1,0,0.1,0
		c0,0,0.1,0,0,0c0.1,0,0.2,0,0.2-0.1c0,0,0,0,0.1,0c0,0,0,0,0,0s0,0,0,0c0,0,0.1,0,0.1,0c0,0,0,0,0,0c0,0,0.1,0,0.1,0
		c0,0.1,0.1,0,0.1,0c0,0,0.1,0,0.1,0c0,0-0.1,0-0.1,0c0,0,0.1,0,0.1,0c0,0,0.1,0,0.1,0c0,0,0.1,0,0.1,0c0.1,0,0.2,0,0.3,0.1
		c0.1,0,0.1,0,0.1,0c0.1,0,0.1,0,0.1,0.1c0,0,0,0.1,0,0.1c-0.1,0-0.1,0.1-0.2,0c-0.1,0-0.3,0-0.4-0.1c0.1,0,0.1,0.1,0.1,0.1
		c0,0,0.1,0,0.1,0.1s0,0.1,0.1,0.2c0,0,0,0,0.1,0c0,0,0.1,0,0.1,0c0,0,0.1,0,0.1,0s0,0-0.1,0s-0.1,0-0.1,0c0,0-0.1,0,0,0
		c0,0,0.1,0,0.1,0c0,0,0.1,0,0.1,0h0c0,0,0,0,0.1,0c0,0,0,0,0,0c-0.1,0,0,0,0-0.1l0,0c0.1-0.1,0.1-0.1,0.2,0c0,0,0-0.1-0.1-0.1
		c0,0,0,0,0,0c0,0,0-0.1-0.1-0.1c0.1,0,0.2,0,0.2,0c0,0-0.1,0-0.1,0.1c0,0,0.1,0,0.1,0c0.1,0,0.1,0,0.1,0c0,0,0,0,0,0
		c0,0,0.1,0,0.1-0.1c0.1,0,0.1,0,0.1-0.1c0,0,0,0,0,0c0.1,0,0.1,0,0.1,0c0,0,0,0,0.1,0s0.1,0,0.1,0c0.1,0,0.1-0.1,0.1,0h0
		c0,0,0,0,0-0.1c0,0-0.1,0-0.1,0c0,0,0,0,0,0c0.1,0,0.1,0,0.2,0c0.1,0,0.2,0,0.3,0c0,0,0,0-0.1-0.1c0,0-0.1,0-0.1,0
		c-0.1,0-0.1,0-0.1,0s-0.1-0.1-0.1-0.1l0,0c0-0.1-0.1-0.1-0.1-0.2c0.1,0,0.2,0,0.2,0c0.1,0,0.1,0.1,0.1,0.1c0.1,0,0.1,0.1,0.2,0.2
		c0,0,0.1,0,0.1,0c0.1,0,0.1,0.1,0.2,0.2c0,0,0,0,0,0.1s0,0,0,0l0,0c0,0-0.1,0-0.1,0c0,0,0,0,0.1,0h0c0.1,0,0.1,0,0.1,0
		c0,0,0-0.1,0-0.2c0,0-0.1,0-0.1-0.1c0,0-0.1,0,0,0c0,0,0,0,0.1,0c0,0,0.1,0,0.1,0c0,0,0.1,0,0.1,0c0,0,0,0,0.1,0
		c-0.1,0-0.1,0-0.1,0c-0.1,0-0.1,0-0.2,0c0,0,0,0-0.1,0c-0.1,0-0.1,0-0.2,0c-0.1,0-0.1-0.1-0.2-0.1c-0.1,0-0.1,0-0.1-0.1h0
		c0,0,0,0,0.1,0c0,0,0,0,0,0h0c0,0,0,0,0,0v0l0,0c0.1,0,0.2,0,0.2,0l0,0l0,0c0,0.1,0.1,0.1,0.2,0.1c0,0-0.1-0.1-0.2-0.1l0,0l0,0
		c0,0-0.1,0-0.1,0c-0.1,0-0.1,0-0.2,0c0,0,0,0,0,0c0,0,0.1,0,0.1-0.1c0,0-0.1,0-0.1,0c-0.1,0-0.1,0-0.1-0.1c0,0,0,0,0-0.1
		c0,0,0,0,0,0c0,0,0,0,0,0c0,0,0,0-0.1-0.1c-0.1,0-0.1,0-0.1-0.1c0,0,0,0,0,0c0.1,0,0.1,0,0.1,0c0,0,0,0,0,0s0,0,0.1,0
		c0.1,0,0.2,0,0.3,0.1c0,0,0,0,0,0c0,0,0,0,0.1,0l0,0c0,0,0.1,0.1,0.1,0.1c0-0.1-0.1-0.1-0.1-0.1c0,0,0.1,0,0.1,0c0,0,0,0,0,0
		s0,0,0.1,0s0,0,0,0c0,0-0.1,0-0.1,0c0,0-0.1,0-0.1,0s0,0,0.1,0c0.1,0,0.2,0,0.2,0c0,0,0,0,0.1,0v0c-0.1,0-0.2-0.1-0.2-0.1
		c0,0-0.1,0-0.1,0c-0.1,0-0.2,0-0.2-0.1l0,0c0,0,0,0,0,0s0,0,0.1,0c0.3,0.1,0.6,0.2,0.9,0.3c1.6,0.6,2.9,1.5,4,2.8
		c0,0,0.1,0.1,0.1,0.1c0,0-0.1,0,0,0s0,0,0.1,0c0,0,0,0,0.1,0.1s0,0,0.1,0c0,0,0,0.1,0.1,0.2c0,0,0.1,0,0.1,0c0,0,0,0,0,0
		c0,0,0,0,0.1,0c0,0,0.1,0.1,0.1,0.2c0.1,0.2,0.2,0.3,0.3,0.5c0.1,0.1,0.1,0.2,0.2,0.2c0.2,0.3,0.4,0.7,0.6,1.1
		c0.1,0.2,0.1,0.3,0.2,0.5c0.1,0.1,0.1,0.3,0.1,0.4h0c0,0,0,0,0,0s0,0,0,0c0,0.1,0,0.1,0,0.2s0,0.2,0.1,0.2c0,0.1,0.1,0.2,0.2,0.3
		s0.1,0.2,0.2,0.3c0.1,0.2,0.1,0.5,0.1,0.8c0,0.1,0,0.2,0,0.3c0,0,0-0.1,0-0.2c0,0,0,0,0-0.1c-0.1,0-0.1,0-0.1-0.1
		c0,0,0-0.1-0.1-0.1l0,0c-0.1,0-0.1,0-0.1-0.1c0,0,0,0,0,0c0,0,0,0,0,0.1c0.1,0.2,0.1,0.4,0.1,0.5c0,0.1,0.1,0.1,0.1,0.2
		c0,0,0,0.1,0,0.1s0,0.1,0.1,0.1c0.1,0,0.1,0.1,0.1,0.2c0,0,0,0.1,0,0.2c0,0.1,0,0.2,0.1,0.3c0,0,0,0.1,0,0.1
		c-0.1,0-0.1-0.1-0.1-0.1c0-0.1-0.1-0.2-0.1-0.2c0-0.2,0-0.3-0.1-0.4c-0.1-0.1-0.1-0.2-0.1-0.3c0-0.2-0.1-0.3-0.1-0.5
		C123.5,42.8,123.5,42.7,123.5,42.7z"/>
	<path class="st2" d="M116.7,35.8c0,0.1,0.1,0,0.1,0c0,0,0,0,0,0c0,0,0,0,0,0c0,0,0,0,0,0C116.8,35.8,116.7,35.8,116.7,35.8
		L116.7,35.8L116.7,35.8L116.7,35.8L116.7,35.8L116.7,35.8L116.7,35.8z"/>
	<path class="st2" d="M116.4,39.9c-0.1,0-0.2-0.1-0.3-0.2c0,0,0,0-0.1,0c-0.1,0-0.2,0-0.2-0.1l0,0c0,0,0,0,0,0c0.1,0,0.1,0,0.1,0
		c0,0,0,0,0.1-0.1c0,0-0.1,0-0.1-0.1c0.1,0,0.1,0,0.2-0.1h0c-0.1,0-0.2,0.1-0.3,0.1c-0.1,0-0.1,0-0.2,0.1c0,0,0,0,0,0
		c0,0,0.1,0.1,0.1,0.1c0,0,0,0,0.1,0s0,0,0,0c0,0,0,0-0.1,0c-0.1,0-0.1,0-0.1,0c-0.1,0-0.1,0-0.1,0.1c0,0-0.1,0-0.1,0
		c0,0,0-0.1-0.1-0.1c0,0-0.1,0-0.1,0c0,0,0.1,0,0.1-0.1c0,0,0,0,0,0c0,0,0,0,0,0c0,0-0.1,0-0.1,0c-0.1,0-0.1,0-0.1,0c0,0,0,0,0,0
		s0,0,0,0c-0.1,0-0.1,0-0.2,0.1c0,0,0,0-0.1,0.1c-0.1,0-0.1,0-0.1,0.1s0,0.1-0.1,0.1c-0.1,0-0.1,0-0.1,0c0,0,0,0.1,0,0.1
		c0,0,0,0,0,0c-0.1,0-0.1,0.1-0.1,0.1c0,0,0,0.1,0,0.1c0,0,0,0,0,0c0,0.1,0.1,0.1,0.2,0.1c0.1,0,0.1,0,0.2,0c0,0,0.1,0,0.1,0
		c0.1-0.1,0.2-0.2,0.3-0.1c0,0,0.1,0,0.1,0c0,0,0,0,0.1,0c0.1,0,0.1,0,0.2,0.1h0c0,0,0,0,0.1,0c0.1,0,0.2,0,0.3,0c0,0,0.1,0,0.1,0
		c0.1,0,0.2,0,0.2-0.1c0,0,0,0,0,0C116.5,40,116.4,39.9,116.4,39.9z"/>
	<path class="st2" d="M118,40.3C118,40.3,118,40.2,118,40.3C118,40.2,118,40.2,118,40.3c-0.1,0-0.1-0.1-0.1-0.1c0,0,0,0,0-0.1
		c0.1,0,0.2,0,0.2,0c-0.1,0-0.1-0.1-0.2-0.1c0,0-0.1,0-0.1,0c0,0-0.1,0,0,0.1c0,0,0,0,0,0c-0.1,0-0.1-0.1-0.1-0.2c0,0,0,0-0.1,0
		c-0.1,0-0.1,0-0.2-0.1c0,0-0.1-0.1-0.1-0.1c0,0-0.1,0-0.1,0c0,0,0.1,0,0.1,0h0c-0.1-0.1-0.1-0.1,0.1-0.2c0,0,0.1,0,0.1,0
		c0,0,0,0,0-0.1c0,0,0-0.1,0-0.1c0,0-0.1,0-0.1,0c-0.1,0-0.1,0-0.1,0c0,0-0.1,0-0.1,0c-0.1,0-0.1,0.1-0.2,0.2
		c-0.1,0-0.1,0.1-0.1,0.2l0,0c0,0,0,0,0,0c0.1,0,0.1,0.1,0.1,0.2c0,0,0,0,0.1,0.1c0.1,0.1,0.2,0.2,0.3,0.3c0,0,0.1,0,0.1,0
		c0,0,0.1,0,0.1,0c-0.1,0-0.1,0-0.1,0.1c0,0,0,0.1,0,0.2v0c0,0,0,0.1,0.1,0.1c0,0,0,0,0.1,0c0.1,0,0.2,0,0.2,0.1c0,0,0.1,0,0.1,0
		c0.1,0,0.1,0,0.2,0c0,0,0.1,0,0.1,0c-0.1-0.1-0.1-0.2-0.1-0.2C118.1,40.3,118.1,40.3,118,40.3z"/>
	<path class="st2" d="M115.7,47.6C115.7,47.6,115.8,47.6,115.7,47.6c0.1,0,0.1,0,0.1,0s0.1,0,0.1,0c0,0-0.1,0-0.1,0c0,0,0,0,0,0
		c0.1,0,0.1-0.1,0.1-0.2c0-0.1,0.1-0.1,0.1-0.1c0,0,0,0,0,0c0,0,0,0-0.1,0c0,0-0.1,0-0.1,0c0,0-0.1,0-0.1-0.1c0,0,0,0-0.1,0
		s-0.1,0-0.1,0c-0.1,0-0.2,0.1-0.2,0.2c0,0,0,0.1,0,0.1c0,0,0,0.1,0,0.2C115.6,47.6,115.6,47.6,115.7,47.6z"/>
	<path class="st2" d="M115.4,48.3C115.4,48.3,115.3,48.3,115.4,48.3c-0.1,0-0.1,0-0.1-0.1c0,0,0,0,0-0.1c0,0,0,0,0,0
		c-0.1-0.1-0.1-0.2-0.1-0.4c0,0,0,0,0,0c0,0.1,0,0.2,0,0.3v0c-0.1,0.1,0,0.2,0.1,0.2c0.1,0,0.1,0.1,0.1,0.2c0,0,0.1,0,0,0.1
		c0,0,0,0,0,0s0,0,0.1,0c0,0,0,0,0.1,0v0C115.4,48.5,115.4,48.4,115.4,48.3z"/>
	<path class="st2" d="M116.1,49c-0.1,0-0.1-0.1-0.1-0.2c0,0,0,0,0-0.1c0,0-0.1-0.1-0.1,0c0,0,0,0,0,0.1c0.1,0.1,0.1,0.2,0,0.3
		c0,0,0,0,0,0.1s0,0.1,0,0.1s0.1,0,0,0.1c0,0,0,0,0,0c0,0,0.1,0,0.1,0c0,0,0,0,0-0.1C116,49.2,116,49.2,116.1,49
		C116.1,49,116.1,49,116.1,49z"/>
	<path class="st2" d="M118.4,39.3c-0.1,0,0-0.1-0.1-0.1c0,0,0,0,0,0s0,0,0,0c0,0,0,0-0.1,0s0,0,0,0c0,0,0,0,0,0s0,0-0.1,0s0,0,0,0
		c0,0,0,0,0,0c0,0,0,0.1,0.1,0.1c0,0,0.1,0,0.1,0c0,0,0,0,0,0C118.3,39.4,118.4,39.4,118.4,39.3C118.5,39.4,118.5,39.3,118.4,39.3z"
		/>
	<path class="st2" d="M119.8,38.5C119.8,38.5,119.8,38.5,119.8,38.5L119.8,38.5c-0.1,0.1-0.1,0.1-0.2,0.1c-0.1,0-0.1,0-0.1,0
		c-0.1,0.1,0,0.2,0.1,0.2c0,0,0,0,0,0c0,0,0-0.1,0-0.2c0,0,0,0,0.1,0S119.7,38.6,119.8,38.5C119.8,38.6,119.8,38.6,119.8,38.5
		C119.9,38.6,119.9,38.5,119.8,38.5C119.8,38.5,119.8,38.5,119.8,38.5z"/>
	<path class="st2" d="M120.3,37c-0.1-0.1-0.1-0.2-0.2-0.3c-0.1,0-0.1-0.1-0.2-0.2c0,0,0,0,0,0C120,36.7,120.1,36.8,120.3,37
		C120.2,37,120.3,37,120.3,37c0,0.1,0,0.1,0,0.1S120.4,37.1,120.3,37C120.3,37,120.3,37,120.3,37z"/>
	<path class="st2" d="M114.6,40.4c0.1,0,0.2,0,0.2,0c0,0,0.1,0,0.1,0c0,0,0.1,0,0.1,0C114.8,40.2,114.7,40.3,114.6,40.4z"/>
	<path class="st2" d="M114,40.7c0.1,0,0.1,0.1,0.2,0C114,40.7,114,40.7,114,40.7z"/>
	<path class="st2" d="M118.3,39C118.3,39.1,118.3,39,118.3,39c0.1,0,0.1,0,0.1,0S118.4,39,118.3,39C118.3,39,118.3,39,118.3,39
		C118.3,39,118.3,39,118.3,39C118.3,39,118.3,39,118.3,39L118.3,39z"/>
	<path class="st2" d="M112.9,37.9C112.9,37.9,112.9,37.9,112.9,37.9C112.8,37.9,112.8,37.9,112.9,37.9L112.9,37.9
		C112.8,37.9,112.9,37.9,112.9,37.9z"/>
	<path class="st2" d="M112.8,37.9L112.8,37.9L112.8,37.9L112.8,37.9L112.8,37.9L112.8,37.9z"/>
	<polygon class="st2" points="122,38.2 122,38.2 122,38.2 	"/>
	<path class="st2" d="M122.1,38.2C122.1,38.2,122.1,38.2,122.1,38.2C122,38.2,122,38.2,122.1,38.2C122,38.2,122,38.2,122.1,38.2z"/>
	<path class="st2" d="M119.8,36.5C119.8,36.5,119.8,36.5,119.8,36.5C119.8,36.5,119.8,36.5,119.8,36.5
		C119.8,36.5,119.8,36.5,119.8,36.5C119.8,36.5,119.8,36.5,119.8,36.5z"/>
</g>
<g>
	<path class="st2" d="M18.7,34.2c0.1,0,0.3,0,0.5,0C19,34.2,18.8,34.2,18.7,34.2z"/>
	<path class="st2" d="M18.2,34.2c0.1,0,0.3,0,0.5,0C18.5,34.2,18.4,34.2,18.2,34.2z"/>
	<path class="st2" d="M17.7,34.3c0.1,0,0.2,0,0.3,0C18,34.3,17.8,34.3,17.7,34.3z"/>
	<path class="st2" d="M19.2,34.3c0.1,0,0.3,0,0.4,0C19.5,34.3,19.3,34.3,19.2,34.3z"/>
	<path class="st2" d="M19.7,34.3c0.1,0,0.3,0,0.4,0C20,34.3,19.9,34.3,19.7,34.3z"/>
	<path class="st2" d="M21,34.5c-0.1,0-0.2,0-0.3-0.1C20.8,34.5,20.9,34.5,21,34.5L21,34.5z"/>
	<path class="st2" d="M20.2,34.4c0.1,0,0.2,0,0.3,0C20.5,34.4,20.4,34.4,20.2,34.4z"/>
	<path class="st2" d="M15.7,34.7L15.7,34.7c0.1,0,0.3-0.1,0.4-0.1C16,34.6,15.9,34.6,15.7,34.7z"/>
	<path class="st2" d="M16.7,34.4c0.1,0,0.3,0,0.4-0.1C17,34.4,16.9,34.4,16.7,34.4z"/>
	<path class="st2" d="M16.3,34.5c0.1,0,0.2,0,0.3-0.1C16.5,34.5,16.4,34.5,16.3,34.5z"/>
	<path class="st2" d="M17.2,34.3c0.1,0,0.3,0,0.5,0C17.5,34.3,17.3,34.3,17.2,34.3z"/>
	<path class="st2" d="M28.1,41.3c0,0.1,0,0.2,0,0.2C28.2,41.4,28.2,41.4,28.1,41.3z"/>
	<path class="st2" d="M27.5,39.6L27.5,39.6C27.5,39.6,27.5,39.7,27.5,39.6C27.5,39.7,27.5,39.6,27.5,39.6z"/>
	<path class="st2" d="M28.3,41.8c0,0.1,0,0.2,0,0.2C28.3,41.9,28.3,41.8,28.3,41.8z"/>
	<path class="st2" d="M27.6,39.9c0,0.1,0,0.1,0.1,0.2C27.7,40.1,27.7,40,27.6,39.9z"/>
	<path class="st2" d="M28.5,42.7c0,0.1,0,0.2,0,0.2C28.5,42.9,28.5,42.8,28.5,42.7z"/>
	<path class="st2" d="M28,40.8c0,0.1,0,0.1,0.1,0.2C28,41,28,40.9,28,40.8z"/>
	<path class="st2" d="M27.8,40.4c0,0.1,0,0.1,0.1,0.2C27.9,40.5,27.9,40.5,27.8,40.4z"/>
	<path class="st2" d="M28.5,43.3C28.5,43.3,28.5,43.3,28.5,43.3C28.5,43.3,28.5,43.3,28.5,43.3L28.5,43.3z"/>
	<path class="st2" d="M28.4,42.3c0,0.1,0,0.2,0,0.2C28.4,42.4,28.4,42.3,28.4,42.3z"/>
	<path class="st2" d="M27.9,40.6c0,0.1,0.1,0.2,0.1,0.2C28,40.8,27.9,40.7,27.9,40.6z"/>
	<path class="st2" d="M28.1,41c0,0.1,0,0.2,0.1,0.2C28.1,41.2,28.1,41.1,28.1,41z"/>
	<path class="st2" d="M28.5,43c0,0.1,0,0.2,0,0.3C28.5,43.2,28.5,43.1,28.5,43z"/>
	<path class="st2" d="M28.4,42.5c0,0.1,0,0.2,0,0.3C28.4,42.7,28.4,42.6,28.4,42.5z"/>
	<path class="st2" d="M28.2,41.5c0,0.1,0,0.2,0.1,0.2C28.3,41.7,28.2,41.6,28.2,41.5z"/>
	<path class="st2" d="M20.6,34.4c0,0,0.1,0,0.1,0C20.7,34.4,20.6,34.4,20.6,34.4z"/>
	<path class="st2" d="M16.6,34.5c0,0,0.1,0,0.1,0C16.7,34.4,16.6,34.4,16.6,34.5z"/>
	<path class="st2" d="M27.7,40.1c0,0.1,0.1,0.2,0.1,0.2C27.8,40.3,27.8,40.2,27.7,40.1z"/>
	<path class="st2" d="M19.1,34.2C19.1,34.2,19.2,34.2,19.1,34.2C19.2,34.2,19.1,34.2,19.1,34.2z"/>
	<path class="st2" d="M17.1,34.4L17.1,34.4C17.2,34.3,17.1,34.4,17.1,34.4z"/>
	<path class="st2" d="M18.1,34.3c0,0,0.1,0,0.1,0C18.2,34.2,18.1,34.3,18.1,34.3z"/>
	<path class="st2" d="M19.6,34.3c0,0,0.1,0,0.1,0C19.7,34.3,19.7,34.3,19.6,34.3z"/>
	<path class="st2" d="M16.1,34.6c0,0,0.1,0,0.1,0C16.2,34.5,16.2,34.5,16.1,34.6z"/>
	<path class="st2" d="M27.5,39.7c0,0.1,0.1,0.2,0.1,0.2C27.6,39.9,27.6,39.8,27.5,39.7z"/>
	<path class="st2" d="M20.1,34.3c0,0,0.1,0,0.1,0C20.2,34.4,20.2,34.4,20.1,34.3z"/>
	<path class="st2" d="M17.6,34.3c0,0,0.1,0,0.1,0C17.7,34.3,17.6,34.3,17.6,34.3z"/>
	<path class="st2" d="M28.3,42c0,0.1,0,0.2,0,0.3C28.4,42.2,28.3,42.1,28.3,42z"/>
	<path class="st2" d="M20.2,36.6C20.2,36.6,20.2,36.6,20.2,36.6C20.2,36.6,20.2,36.6,20.2,36.6z"/>
	<path class="st2" d="M20.2,38c0,0,0.1,0,0.1,0s0.1,0,0.1,0c0,0,0.1,0,0.2,0c0,0,0,0,0-0.1s0-0.1,0-0.1c0,0,0,0-0.1,0
		c0,0-0.1,0-0.1,0s-0.1,0-0.1,0C20.2,38,20.2,38,20.2,38z"/>
	<path class="st2" d="M19.2,37.7C19.1,37.7,19.1,37.7,19.2,37.7c-0.1,0.1-0.1,0.2-0.1,0.1C19.2,37.8,19.2,37.8,19.2,37.7
		c0,0.1,0,0.1,0,0.1c0,0-0.1,0.1-0.1,0.2s0,0.1,0,0.1s0,0.2,0,0.2c0,0,0.1,0.1,0.1,0c0.1,0,0.1-0.1,0.1-0.2c0,0,0-0.1,0-0.2
		c0,0,0-0.1,0-0.2c0,0,0-0.1,0,0s0,0,0,0c0,0,0-0.1,0-0.1s0,0,0,0s0,0,0.1,0s0.1,0,0.1,0s0,0,0,0.1s0,0,0,0.1s-0.1,0.1,0,0.1
		c0,0,0,0,0,0s0,0,0,0c0,0,0,0,0,0c0,0,0,0,0,0.1s0,0,0,0s0.1,0,0.1,0s0-0.1,0-0.1c0,0,0-0.1,0-0.1c0,0,0,0,0,0c0,0,0.1,0.1,0.1,0.1
		s0,0,0,0c0,0,0-0.1-0.1-0.1c0,0,0,0-0.1,0c0,0-0.1,0-0.1,0s0,0,0,0s-0.1,0-0.1,0c0,0,0,0,0,0s0.1,0,0,0c0,0-0.1,0-0.1,0
		c0,0-0.1,0-0.1,0s0,0,0,0S19.3,37.7,19.2,37.7C19.3,37.6,19.2,37.6,19.2,37.7z"/>
	<path class="st2" d="M21,37.3C21,37.3,21.1,37.3,21,37.3C21,37.2,20.9,37.3,21,37.3z"/>
	<path class="st2" d="M20.4,38.1c0,0-0.1,0-0.1,0s-0.1,0-0.1,0s0,0,0,0c0,0-0.1,0-0.1,0c0,0,0,0-0.1,0.1c0,0,0,0-0.1,0
		c0,0,0,0-0.1,0c0,0,0,0,0,0s0.1,0,0.1,0s0,0,0,0c0,0,0.1,0,0.1,0c0,0,0.2-0.1,0.3-0.1C20.4,38.2,20.4,38.1,20.4,38.1z"/>
	<path class="st2" d="M18.7,37.5C18.7,37.5,18.7,37.5,18.7,37.5c0,0,0,0,0.1,0c0.1,0,0.1,0,0.1-0.1s0.1,0,0,0c0,0,0,0.1,0,0.1
		c0,0,0,0,0.1,0c0,0,0,0,0.1,0c0,0,0.1,0,0.2,0s0.1,0,0.1,0c0,0,0,0,0,0s0,0,0,0s0,0,0,0c0,0,0,0,0,0c0,0,0,0,0,0s0,0,0,0
		c0,0-0.1,0-0.1,0c0,0,0-0.1-0.1-0.1c0,0-0.1,0-0.1,0c0,0,0,0-0.1,0c0,0,0,0,0,0s0,0-0.1,0.1C18.7,37.5,18.7,37.5,18.7,37.5
		c-0.1,0-0.1,0-0.1,0c0,0,0,0,0,0C18.6,37.5,18.6,37.5,18.7,37.5z"/>
	<path class="st2" d="M20.4,36.6C20.4,36.6,20.5,36.6,20.4,36.6C20.4,36.6,20.4,36.6,20.4,36.6C20.4,36.6,20.4,36.6,20.4,36.6z"/>
	<path class="st2" d="M20.7,37C20.7,37,20.7,37,20.7,37C20.7,37,20.8,37,20.7,37C20.7,37,20.7,37,20.7,37C20.7,37,20.6,37,20.7,37
		C20.6,37,20.6,37.1,20.7,37z"/>
	<path class="st2" d="M19,37.2C19,37.2,19,37.1,19,37.2C19,37.1,19,37.1,19,37.2C18.9,37.1,18.9,37.2,19,37.2z"/>
	<path class="st2" d="M16.6,35.3C16.5,35.4,16.5,35.4,16.6,35.3C16.6,35.4,16.6,35.4,16.6,35.3c0.1,0,0.1,0,0.1,0c0,0,0.1,0,0.1,0
		c0,0,0,0,0,0c0,0-0.1,0-0.1,0c0,0,0,0,0,0s0.1,0,0.1,0c0,0-0.1,0-0.1,0c0,0-0.2,0-0.2,0c0,0-0.1,0-0.1,0c0,0,0.1,0,0.1,0
		s0.1,0,0.1,0S16.5,35.3,16.6,35.3c-0.1,0-0.2,0-0.1,0C16.5,35.3,16.5,35.3,16.6,35.3C16.6,35.3,16.6,35.3,16.6,35.3z"/>
	<path class="st2" d="M16.9,35.9C16.9,35.9,16.8,35.9,16.9,35.9C16.8,36,16.8,36,16.9,35.9C16.8,36,16.9,36,16.9,35.9
		c0,0,0.2,0,0.2,0C17,35.9,17,35.9,16.9,35.9z"/>
	<path class="st2" d="M22.6,48.8C22.5,48.8,22.5,48.8,22.6,48.8c-0.1,0.1-0.1,0.1-0.1,0.1s0.1,0,0.1,0c0,0,0,0,0,0s0,0,0,0s0,0,0,0
		c0,0,0,0,0,0s0,0,0,0C22.6,48.9,22.6,48.9,22.6,48.8z"/>
	<path class="st2" d="M28.5,43.3c0,0-0.1,0-0.1-0.1c0,0,0-0.2,0-0.3c0-0.1,0-0.3-0.1-0.3c0,0-0.1-0.2-0.1-0.2c0-0.1-0.1-0.2-0.1-0.3
		c0-0.1,0-0.2,0-0.3c0-0.2-0.1-0.5-0.1-0.5s-0.1-0.2-0.1-0.3c0,0-0.1-0.2-0.1-0.2s0-0.1,0-0.2c0,0-0.1-0.1-0.1-0.2
		c0-0.1-0.1-0.3-0.1-0.3c0,0,0-0.1-0.1-0.2c0-0.1,0-0.2,0-0.3c-1.3-2.5-3.6-4.4-6.5-5.1c0,0,0,0,0,0c0,0,0.1,0,0.1,0s0.1,0,0.1,0
		c0,0,0.1,0,0.1,0.1s0.1,0,0.1,0.1c0,0,0,0,0.1,0c0,0,0,0,0.1,0c0,0,0,0,0.1,0c0,0,0,0,0.1,0c0,0,0,0,0,0s0,0,0.1,0c0,0,0,0,0.1,0
		c0,0,0,0,0,0s0,0,0,0c0,0,0,0,0,0s0,0,0,0c0,0,0,0,0,0s0,0,0,0c0,0,0,0,0,0s0,0,0,0c0,0,0,0,0,0c0,0,0,0,0,0c0,0,0,0,0,0s0,0,0,0
		c0,0,0,0,0,0c0,0,0,0,0,0c0,0,0,0,0,0c0,0,0.1,0.1,0.1,0.1c0,0,0,0,0.1,0.1c0,0,0,0,0,0s0,0-0.1,0c0,0,0,0-0.1,0c0,0,0,0,0,0
		c0,0,0,0,0,0s0,0,0,0s0,0-0.1,0s0,0-0.1,0s-0.1,0-0.1-0.1s0,0-0.1,0c0,0,0,0,0,0s0,0-0.1,0c0,0,0,0-0.1,0c0,0,0,0,0,0s0,0,0,0
		c0,0,0,0,0,0s0,0,0,0s0,0,0,0c0,0,0,0-0.1,0c0,0-0.1,0-0.1,0s0,0,0,0s0,0,0,0s0,0-0.1,0c0,0,0,0-0.1,0c0,0,0,0,0,0s0,0,0,0
		c0,0,0,0-0.1,0c0,0,0,0,0,0s0,0,0,0s0,0-0.1,0c0,0-0.1,0-0.1-0.1s0,0,0,0s0,0,0,0c0,0,0,0-0.1,0c0,0-0.1,0-0.1,0c0,0-0.1,0-0.1,0
		c0,0-0.2-0.1-0.2-0.1c0,0-0.1,0-0.1,0s-0.1,0-0.1,0c0,0-0.1,0-0.2,0c-0.1,0-0.2,0-0.2,0c0,0,0.1,0,0.2,0c0.1,0,0,0,0,0
		s-0.1,0-0.1,0c0,0,0,0,0,0c0,0,0,0-0.1,0c0,0,0,0,0,0s0,0-0.1,0c0,0-0.1,0,0,0c0,0,0.1,0,0.1,0s0,0,0,0s0,0,0,0c0,0-0.1,0-0.1,0
		c0,0,0,0,0.1,0c0,0,0,0,0.1,0c0,0,0.1,0,0.1,0c0,0,0,0,0.1,0c0,0,0.1,0,0.1,0s0,0,0.1,0c0,0,0.1,0,0.1,0s0,0,0.1,0c0,0,0.1,0,0.1,0
		s0,0,0.1,0c0,0,0,0,0.1,0c0,0,0,0,0,0c0,0,0,0,0,0s0.1,0,0.1,0s0.1,0,0.1,0c0,0,0,0,0.1,0c0,0,0,0,0.1,0c0,0,0,0,0,0s0,0,0.1,0
		c0,0,0,0,0,0c0,0,0,0,0,0.1s0,0,0,0c0,0,0,0,0,0c0,0,0,0-0.1,0c0,0-0.1,0-0.1,0c0,0,0,0-0.1,0c0,0,0,0,0,0s0,0,0,0c0,0,0,0,0.1,0
		c0,0,0,0,0,0c0,0,0,0,0.1,0c0,0,0,0,0.1,0c0,0,0,0,0,0c0,0,0,0,0,0c0,0,0,0,0,0c0,0,0,0,0,0c0,0-0.1,0-0.1-0.1s0,0-0.1,0
		c0,0,0,0-0.1,0c0,0,0,0,0,0s0.1,0,0.1,0c0,0,0.1,0,0.1,0c0,0,0,0,0,0s0,0,0,0s-0.1,0-0.1,0s-0.1,0-0.1,0s0,0-0.1,0c0,0,0,0-0.1,0
		c0,0-0.1,0-0.1,0s-0.1,0-0.1,0c0,0-0.1,0-0.1,0s0,0-0.1,0c0,0,0,0-0.1,0c0,0,0,0-0.1,0c0,0-0.1,0-0.1,0c0,0,0,0,0,0s0,0,0.1,0
		c0,0,0,0,0.1,0c0,0,0.1,0,0.1,0c0,0,0,0,0,0c0,0,0,0,0,0c0,0,0,0,0-0.1s0,0,0,0c0,0-0.1,0-0.1,0s0,0-0.1,0c0,0,0,0,0,0c0,0,0,0,0,0
		c0,0,0,0-0.1,0c0,0,0,0,0,0c0,0,0,0,0,0s0,0,0,0s0,0,0,0s0,0,0,0s0,0,0,0c0,0,0,0,0,0c0,0,0,0,0,0s0,0-0.1,0c0,0,0,0-0.1,0
		c0,0-0.1,0-0.1,0s0,0,0.1,0c0,0,0,0,0,0c0,0,0,0,0,0c0,0,0,0,0,0s0,0,0,0s0,0,0,0s0,0,0,0s0,0,0,0s0,0,0,0c0,0-0.1,0-0.1,0
		c0,0,0,0,0,0c0,0,0,0,0,0c0,0,0,0,0,0c0,0,0,0,0,0l0.1,0c0,0,0,0,0,0s0,0,0,0c0,0,0,0-0.1,0c0,0,0,0-0.1,0c0,0,0,0,0,0c0,0,0,0,0,0
		s0,0,0,0s0,0,0.1,0c0,0,0,0,0,0s0,0-0.1,0c0,0-0.1,0-0.1,0c0,0,0,0,0,0c0,0,0,0.1,0,0.1c0,0,0,0,0,0c0,0,0,0,0,0l0,0c0,0,0,0,0,0
		s0,0-0.1,0c0,0-0.1,0-0.1,0c0,0,0,0-0.1,0c0,0,0,0,0-0.1c0,0,0,0,0,0s-0.1,0-0.1,0c0,0,0,0-0.1,0c0,0-0.1,0,0,0c0,0,0,0,0,0
		c0,0,0,0.1,0.1,0.1c0,0,0,0,0,0c0,0,0,0,0,0c0,0,0,0,0,0s0,0,0,0c0,0,0,0,0,0s0,0-0.1,0c0,0,0,0,0,0c0,0,0,0,0,0s0,0,0,0
		c0,0,0,0,0,0s0,0,0,0c0,0,0,0,0,0c0,0,0,0,0,0c0,0,0,0.1,0,0.1s0,0,0,0c0,0-0.1,0,0,0c0,0,0,0,0,0c0,0,0,0,0,0c0,0,0,0,0,0s0,0,0,0
		s-0.1,0-0.1,0s0,0,0,0s0,0,0,0c0,0,0,0,0,0s0,0-0.1,0c0,0,0,0-0.1,0c0,0-0.1,0-0.2,0s-0.1,0-0.1,0c0,0,0,0-0.1,0c0,0-0.1,0-0.1,0
		c0,0-0.1,0-0.1,0s0,0-0.1,0c0,0-0.1,0-0.1,0s-0.1,0,0,0c0,0,0,0,0,0c0,0-0.1,0,0,0c0,0,0,0,0,0c0,0,0,0,0,0s0.1,0,0.1,0
		c0,0,0,0,0,0S17.1,35,17,35c0,0-0.1,0-0.1,0c0,0,0,0,0,0s0,0,0,0c0,0-0.1,0-0.1,0c0,0,0,0,0,0c0,0-0.1,0-0.1,0s0,0,0,0c0,0,0,0,0,0
		c0,0-0.1,0-0.1,0c0,0-0.1,0-0.1,0c0,0,0,0-0.1,0c0,0-0.1,0-0.1,0s0,0-0.1,0c0,0-0.1,0-0.1,0c0,0,0,0,0,0c0,0-0.1,0,0,0
		c0,0,0.1,0,0,0c0,0-0.1,0-0.1,0c0,0-0.1,0-0.1,0s-0.1-0.1-0.1-0.1c-4,1.2-7,5-7,9.5c0,5.5,4.4,9.9,9.9,9.9s9.9-4.4,9.9-9.9
		C28.6,43.9,28.5,43.6,28.5,43.3z M27.3,39.8C27.3,39.8,27.3,39.8,27.3,39.8C27.3,39.9,27.3,39.8,27.3,39.8z M27.3,39.8
		C27.3,39.9,27.3,39.9,27.3,39.8C27.3,39.9,27.2,39.8,27.3,39.8C27.2,39.8,27.3,39.8,27.3,39.8z M26.1,38.5
		C26.1,38.5,26.1,38.5,26.1,38.5C26.1,38.5,26,38.5,26.1,38.5C26,38.5,26,38.5,26.1,38.5z M25.9,38.4C25.9,38.4,25.9,38.4,25.9,38.4
		C25.8,38.4,25.8,38.3,25.9,38.4z M24.2,43.7C24.2,43.6,24.2,43.7,24.2,43.7C24.2,43.7,24.2,43.7,24.2,43.7z M24.1,43.8
		C24.2,43.8,24.1,43.8,24.1,43.8c0,0.1-0.1,0.1-0.1,0.1s0,0,0,0L24.1,43.8C24.1,43.8,24.1,43.8,24.1,43.8
		C24.1,43.8,24.1,43.8,24.1,43.8z M24,43.3C24,43.3,24.1,43.3,24,43.3C24,43.4,24,43.3,24,43.3z M24.1,43.2
		C24,43.2,24,43.2,24.1,43.2C24.1,43.1,24.1,43.2,24.1,43.2z M24,43C24.1,43.1,24,43.1,24,43C24,43,24,43,24,43z M24,43.5
		C24,43.5,24,43.5,24,43.5C24,43.5,24,43.5,24,43.5z M23.9,42.9C24,42.9,24,42.9,23.9,42.9C24,43,23.9,42.9,23.9,42.9
		C23.9,42.9,23.9,42.8,23.9,42.9z M23.8,42.7C23.8,42.7,23.9,42.7,23.8,42.7C23.9,42.8,23.8,42.8,23.8,42.7z M23.1,37.3
		C23.1,37.3,23.1,37.3,23.1,37.3C23.1,37.2,23.1,37.3,23.1,37.3c0.1,0.1,0.1,0.1,0.1,0.1s0,0,0.1,0.1s0,0-0.1,0s0,0,0,0s0,0,0,0
		C23.1,37.4,23.1,37.4,23.1,37.3c0,0.1,0,0.1,0,0.1c0,0,0,0,0,0c0,0,0,0,0,0s0,0,0,0c0,0,0,0,0,0s0,0-0.1,0s-0.1,0-0.1,0
		s-0.1,0-0.2,0s0,0,0-0.1s0,0,0,0c0,0,0,0,0,0c0,0,0,0,0,0c0,0,0-0.1,0-0.1l0-0.1c0,0,0,0,0-0.1s0,0,0,0s0,0,0,0c0,0,0,0.1,0,0.2
		s0,0,0,0c0,0,0,0,0,0s0,0,0,0c0,0,0,0,0.1,0c0,0,0,0,0,0c0,0,0,0,0.1,0c0,0,0,0,0,0.1S23,37.3,23.1,37.3
		C23.1,37.2,23.1,37.2,23.1,37.3z M23.2,42.4c0,0-0.1,0-0.1,0s-0.1,0-0.1,0s0,0,0,0c0,0,0,0,0,0S23.2,42.4,23.2,42.4
		C23.2,42.4,23.2,42.4,23.2,42.4z M21.3,42.2c0,0-0.2,0-0.2,0c0,0,0,0,0,0c0,0,0,0,0-0.1c0,0,0,0-0.1,0c0,0-0.1,0-0.1,0s0,0-0.1-0.1
		c0,0,0,0,0,0c0,0-0.1,0-0.1,0s-0.1,0-0.2-0.1c0,0-0.1,0-0.1,0c0,0-0.1,0-0.1,0c0,0,0,0,0,0c0,0,0,0,0,0c0,0,0,0-0.1,0
		c0,0-0.1,0-0.1,0c0,0,0,0-0.1,0.1c0,0-0.1,0-0.1,0s0,0,0,0c0,0,0,0,0,0s0,0,0,0c0,0,0,0,0,0c0,0,0,0,0-0.1s0.1,0,0.2,0
		c0.1,0,0.2,0,0.2,0s0.1,0,0.2,0c0.1,0,0.2,0.1,0.2,0.1c0,0,0.2,0,0.2,0c0,0,0,0,0.1,0.1c0,0,0,0,0,0.1c0,0,0,0,0.1,0
		c0,0,0.1,0,0.2,0s0.1,0,0.1,0.1c0,0,0.1,0,0.1,0s0,0,0.1,0c0,0,0,0,0,0c0,0,0,0-0.1,0c0,0,0,0-0.1,0C21.4,42.2,21.4,42.2,21.3,42.2
		C21.4,42.1,21.3,42.1,21.3,42.2z M21.3,42.6c0,0-0.1,0-0.1,0s-0.1,0-0.1,0c0,0,0,0-0.1,0c0,0,0,0,0,0s0,0,0.1,0c0,0,0.1,0,0.1,0
		C21.2,42.5,21.3,42.5,21.3,42.6C21.4,42.6,21.3,42.6,21.3,42.6z M20.1,41.9C20.1,41.9,20.1,41.8,20.1,41.9
		C20.2,41.8,20.2,41.9,20.1,41.9z M20.8,40.9C20.9,40.9,20.9,40.9,20.8,40.9C20.8,41,20.8,40.9,20.8,40.9
		C20.8,40.9,20.8,40.9,20.8,40.9z M21,41.3c0,0,0,0.1,0,0.1S21,41.4,21,41.3C21,41.4,21,41.3,21,41.3C20.9,41.3,20.9,41.3,21,41.3
		c-0.1-0.1-0.1-0.1,0-0.1C20.9,41.2,21,41.3,21,41.3z M21.1,40.9C21.1,41,21.1,41,21.1,40.9C21,41.1,21,41,21.1,40.9
		C21,40.9,21,40.9,21.1,40.9C21,40.9,21.1,40.9,21.1,40.9z M21.6,41.6C21.7,41.6,21.7,41.6,21.6,41.6C21.6,41.6,21.6,41.6,21.6,41.6
		z M21.7,42.4c0,0,0,0,0.1,0s0.1,0,0.2,0s0,0,0-0.1s0,0,0,0c0,0,0,0-0.1-0.1s0,0,0,0c0,0,0.1,0,0.1,0c0,0,0.1,0,0.1,0
		c0,0,0.1,0,0.1,0s0.1,0,0.1,0c0,0,0,0,0.1,0c0,0,0.1,0,0.1,0c0,0,0.1,0,0.1,0c0,0,0,0,0,0.1c0,0,0,0,0,0.1s0,0,0,0c0,0-0.1,0-0.1,0
		c0,0-0.1,0-0.1,0s-0.1,0-0.1,0c0,0,0,0,0,0c0,0,0,0.1,0,0.1c0,0,0,0,0,0s0,0-0.1,0c0,0-0.1,0-0.1,0s-0.1,0-0.1,0c0,0-0.1,0-0.1,0
		c0,0,0,0,0,0C21.7,42.5,21.6,42.4,21.7,42.4z M21.8,41.9C21.8,41.9,21.8,41.9,21.8,41.9C21.8,41.9,21.8,41.9,21.8,41.9
		C21.9,41.9,21.8,41.9,21.8,41.9z M22,41.7C22.1,41.8,22.1,41.8,22,41.7C22,41.8,22,41.7,22,41.7z M22.6,35.2
		C22.6,35.2,22.6,35.2,22.6,35.2C22.7,35.2,22.7,35.2,22.6,35.2c0.1,0,0.1,0,0.2,0c0,0,0.1,0,0.1,0.1s0.1,0,0.1,0c0,0,0,0,0,0.1
		s0,0,0,0c0,0,0,0-0.1,0s-0.1,0-0.1,0s0,0-0.1,0s0,0,0,0C22.7,35.3,22.7,35.3,22.6,35.2C22.7,35.3,22.7,35.3,22.6,35.2
		C22.6,35.3,22.6,35.3,22.6,35.2C22.5,35.2,22.6,35.2,22.6,35.2z M20.9,35.7C21,35.7,20.9,35.7,20.9,35.7
		C20.9,35.7,20.9,35.7,20.9,35.7z M20.8,35.8C20.8,35.8,20.8,35.9,20.8,35.8C20.7,35.8,20.8,35.8,20.8,35.8z M19.9,35.5
		C19.9,35.6,19.9,35.6,19.9,35.5C19.8,35.5,19.9,35.5,19.9,35.5z M19.8,35.5C19.9,35.6,19.8,35.6,19.8,35.5
		C19.8,35.6,19.8,35.5,19.8,35.5z M19.8,36.7C19.8,36.8,19.8,36.8,19.8,36.7c0,0-0.1,0-0.1,0s0,0,0,0S19.8,36.7,19.8,36.7z
		 M19.7,35.7C19.7,35.7,19.8,35.7,19.7,35.7C19.7,35.8,19.7,35.8,19.7,35.7C19.6,35.7,19.6,35.7,19.7,35.7z M19.1,35.3
		C19.1,35.3,19.1,35.3,19.1,35.3c0.1,0,0.1,0,0.1,0c0,0,0.1,0,0.1,0c0,0,0,0,0,0.1s0,0,0.1,0c0,0,0.1,0,0.1,0s0,0-0.1,0
		c0,0,0,0-0.1,0c0,0,0,0-0.1,0c0,0,0,0,0,0s0,0,0,0c0,0,0,0-0.1,0c0,0,0,0,0,0s0,0,0,0c0,0,0,0,0,0s0,0,0,0
		C19.1,35.5,19.1,35.4,19.1,35.3C19.1,35.4,19.1,35.4,19.1,35.3z M19.4,35.6C19.4,35.6,19.4,35.6,19.4,35.6c-0.1,0.1-0.1,0.1-0.2,0
		s0,0,0,0s0,0,0,0C19.3,35.6,19.4,35.6,19.4,35.6z M14,35.9C13.9,36,13.9,36,14,35.9C13.9,36,13.8,36,13.7,36c0,0,0,0,0,0
		C13.8,35.9,13.8,36,14,35.9C13.9,35.9,14,35.9,14,35.9z M18.5,46.3C18.5,46.3,18.5,46.2,18.5,46.3C18.5,46.2,18.5,46.3,18.5,46.3z
		 M18.5,46.3C18.5,46.3,18.5,46.3,18.5,46.3c0.1-0.1,0-0.1,0-0.1c0,0,0,0,0-0.1c0,0,0,0,0,0C18.6,46.2,18.6,46.2,18.5,46.3
		C18.6,46.4,18.6,46.4,18.5,46.3z M18.7,46.2C18.6,46.2,18.6,46.2,18.7,46.2C18.7,46.2,18.7,46.2,18.7,46.2z M18.7,46.3
		C18.7,46.3,18.7,46.3,18.7,46.3C18.7,46.2,18.8,46.2,18.7,46.3C18.8,46.3,18.8,46.3,18.7,46.3z M20.4,44.7
		C20.4,44.7,20.4,44.7,20.4,44.7C20.4,44.7,20.4,44.6,20.4,44.7C20.5,44.6,20.4,44.7,20.4,44.7z M22.2,53.2c0,0-0.1,0-0.1,0s0,0,0,0
		s-0.1,0-0.1,0c0,0,0.1,0,0.1,0C22.1,53.2,22.1,53.2,22.2,53.2C22.2,53.2,22.2,53.1,22.2,53.2C22.3,53.1,22.2,53.2,22.2,53.2z
		 M22.3,52.5C22.2,52.5,22.2,52.5,22.3,52.5C22.3,52.4,22.3,52.4,22.3,52.5C22.3,52.5,22.3,52.5,22.3,52.5z M27.5,46.5
		c0,0.1,0,0.2,0,0.3c0,0.1-0.1,0.3-0.2,0.4c0,0.1-0.1,0.1-0.1,0.2S27,47.6,27,47.7c0,0-0.1,0.1-0.1,0.1s-0.1,0.3-0.1,0.3
		c0,0.1-0.1,0.2-0.1,0.3c0,0,0,0.1-0.1,0.2c0,0.1-0.1,0.2-0.1,0.3s-0.1,0.2-0.1,0.2c0,0-0.1,0.1-0.1,0.2s0,0-0.1,0.1
		c0,0,0,0-0.1,0.1s-0.1,0.1-0.2,0.1c0,0-0.1,0-0.1,0c0,0-0.1,0.1-0.1,0.1c0,0,0,0,0,0s0,0-0.1,0c0,0-0.1,0.1-0.2,0.2
		c-0.1,0.1-0.1,0.2-0.2,0.3s-0.1,0.2-0.2,0.3s-0.1,0.2-0.2,0.2c-0.1,0.1-0.2,0.2-0.2,0.2s-0.1,0.1-0.2,0.2c-0.1,0.1-0.2,0.2-0.3,0.2
		c-0.1,0-0.2,0-0.2,0s-0.1,0-0.1,0c0,0,0,0-0.1,0s0,0,0,0c0,0,0,0,0,0c0,0,0,0,0,0s-0.1,0.1-0.2,0.2s-0.4,0.1-0.5,0.2
		s-0.1,0.2-0.3,0.2s-0.2,0-0.3,0c0,0,0,0.1-0.1,0.1c0,0,0,0,0,0c0,0,0,0-0.1,0c0,0,0,0,0,0s0,0-0.1,0c0,0,0,0-0.1,0s0,0.1-0.1,0.1
		s0,0-0.1,0c0,0-0.2,0.1-0.2,0.1s0,0,0,0c0,0,0.1,0,0.1,0s0,0,0,0s-0.1,0-0.1,0.1c-0.1,0-0.1,0-0.2,0.1s-0.1,0.1-0.2,0.1
		c0,0,0,0.1,0,0.1s0,0-0.1,0c0,0,0,0,0,0s-0.1,0-0.1,0s0,0-0.1,0c0,0,0,0,0,0s0,0,0,0s0,0,0,0c0,0,0,0,0,0c0,0,0,0,0,0
		c0,0,0,0,0.1,0s0,0,0,0s0,0,0.1,0c0,0,0.1,0,0.1,0s0,0,0,0s0,0-0.1,0c0,0,0,0-0.1,0c0,0-0.1,0-0.3,0c-0.1,0-0.2,0-0.2,0
		c0,0,0,0-0.1,0c0,0,0,0,0-0.1s0,0,0,0s0,0,0,0c0,0,0,0,0,0c0,0,0,0,0-0.1c0,0,0.1-0.1,0.1-0.1s0.1,0,0.1,0c0,0,0,0,0,0c0,0,0,0,0,0
		s0,0-0.1,0c0,0,0,0,0,0c0,0,0.1,0,0.1-0.1s0-0.1,0-0.1s0,0,0,0s0,0,0,0s0,0,0,0s0,0,0,0.1s0,0,0,0s0,0,0,0s0.1-0.1,0.1-0.2
		s0-0.1,0-0.1s0,0,0,0c0,0,0,0,0,0l0,0c0,0,0,0,0,0c0,0,0,0,0,0c0,0,0,0-0.1,0c0,0,0,0,0,0c0,0,0,0,0-0.1s0,0,0.1-0.1c0,0,0,0,0,0
		s0-0.1,0.1-0.1c0,0,0.1,0,0.1-0.1c0,0,0-0.1,0-0.1s0,0,0-0.1c0,0,0,0,0,0c0,0,0,0,0,0c0,0,0,0,0-0.1c0,0,0-0.1,0.1-0.1
		c0,0,0,0,0.1-0.1c0,0,0-0.1,0.1-0.1c0,0,0,0,0,0c0,0,0,0,0,0c0,0,0,0,0-0.1c0,0,0-0.2,0-0.2c0,0,0-0.1,0.1-0.1c0,0,0-0.1,0-0.1
		s0-0.1,0.1-0.1c0,0,0-0.1,0.1-0.2c0,0,0.1-0.1,0.1-0.2c0,0,0-0.2,0-0.2s0-0.1,0-0.1c0,0,0,0,0-0.1c0,0,0-0.2,0-0.2s0-0.1,0-0.2
		c0,0,0-0.1,0-0.2c0-0.1,0-0.1,0-0.2s0,0-0.1-0.1s0,0-0.1-0.1c0,0,0,0-0.1,0c0,0-0.1-0.1-0.1-0.1c0,0-0.1,0-0.2,0
		c0,0-0.1-0.1-0.2-0.1c0,0,0,0-0.1-0.1c0,0-0.1-0.1-0.1-0.1c0,0,0,0,0,0c0,0,0,0,0,0c0,0,0,0,0,0c0,0,0-0.1-0.1-0.1c0,0,0-0.1,0-0.1
		c0,0,0-0.1-0.1-0.1c0,0,0-0.1-0.1-0.1c0,0,0-0.1,0-0.1c0,0,0-0.1,0-0.1c0,0,0-0.1,0-0.1c0,0,0,0,0-0.1s0,0-0.1-0.1c0,0,0-0.1,0-0.1
		c0,0,0,0,0-0.1s0,0-0.1,0c0,0-0.1,0-0.1-0.1c0,0,0-0.1,0-0.1c0,0,0,0,0-0.1s0,0,0,0c0,0,0-0.1,0-0.1c0,0,0-0.1,0.1-0.1
		c0,0,0.1-0.1,0.1-0.1s0-0.1,0-0.1c0,0,0,0,0,0c0,0,0,0,0,0c0,0,0,0-0.1,0c0,0,0,0,0-0.1s0,0,0-0.1s0,0,0-0.1s0,0,0-0.1s0,0,0-0.1
		s0-0.1,0-0.1c0,0,0,0,0-0.1s0.2-0.1,0.2-0.1c0,0,0,0,0-0.1c0,0,0,0,0-0.1c0,0,0-0.1,0-0.1c0,0,0,0,0.1-0.1c0,0,0.1-0.1,0.1-0.2
		c0,0,0,0,0-0.1s0,0,0-0.1c0,0,0,0,0-0.1c0,0,0-0.1,0-0.1s0,0,0-0.1c0,0,0,0,0-0.1c0,0,0,0,0-0.1s0,0,0-0.1c0,0,0,0,0-0.1
		s0,0-0.1-0.1c0,0,0-0.1-0.1-0.2c0,0,0,0-0.1,0c0,0,0,0-0.1,0s-0.1,0.1-0.1,0.1s0,0,0,0c0,0,0,0-0.1,0c0,0,0,0,0,0c0,0,0,0,0,0.1
		s-0.1,0.1-0.1,0.1c0,0,0,0-0.1,0c0,0,0,0-0.1,0c0,0,0,0,0,0c0,0,0,0-0.1,0c0,0,0,0-0.1,0c0,0,0,0-0.1,0c0,0,0-0.1,0-0.1
		c0,0,0,0,0,0c0,0,0,0-0.1,0c0,0,0,0,0-0.1s0,0,0-0.1s-0.1,0-0.1-0.1s0,0,0-0.1s0,0,0,0.1s0,0-0.1,0c0,0,0,0-0.1,0c0,0,0-0.1,0-0.1
		c0,0,0,0,0-0.1s0,0,0,0c0,0,0,0-0.1,0c0,0-0.1-0.1-0.1-0.1c0,0,0,0-0.1-0.1c-0.1,0,0-0.1-0.1-0.1c0,0-0.1,0-0.1,0s-0.1,0-0.1,0
		c0,0-0.1,0-0.1,0c0,0,0,0-0.1,0c0,0-0.1,0-0.2,0s-0.2-0.1-0.3-0.2s-0.2-0.2-0.4-0.3s-0.2,0-0.3,0.1c-0.1,0-0.2,0-0.2,0
		c0,0,0,0-0.1,0c-0.1,0-0.1-0.1-0.2-0.1c0,0-0.1,0-0.2,0c0,0-0.1,0-0.1,0c-0.1,0-0.2-0.1-0.2-0.2c0,0-0.1,0-0.1,0
		c-0.1,0-0.1,0-0.1-0.1c0,0-0.1-0.1-0.1-0.1s-0.1,0-0.1-0.1c0,0,0,0,0-0.1c0,0,0,0,0-0.1s0,0,0,0c0,0,0,0,0,0c0,0,0,0,0,0
		c0,0,0,0,0,0c0,0,0-0.1,0-0.1c0,0,0-0.1,0-0.1s0,0,0-0.1s0,0-0.1-0.1c0,0,0-0.1,0-0.1c0,0,0,0-0.1-0.1c0,0-0.1,0-0.1-0.1
		c0,0,0-0.1-0.1-0.1c0,0-0.1,0-0.1-0.1s0,0,0-0.1s0,0,0-0.1c0,0,0,0,0,0c0,0,0,0,0-0.1s0,0,0,0c0,0,0-0.1,0-0.1s-0.1,0-0.1,0
		c0,0,0-0.1-0.1-0.1c0,0,0,0,0-0.1s0,0,0,0c0,0,0,0,0-0.1s0,0,0-0.1c0,0,0,0,0-0.1s0,0,0-0.1s0,0,0,0c0,0,0,0-0.1,0c0,0,0,0,0,0
		c0,0,0,0,0,0c0,0,0,0,0,0.1s0,0.1,0,0.2c0,0,0,0,0,0.1s0.1,0.1,0.1,0.1c0,0,0,0.1,0,0.1c0,0,0,0.1,0,0.1c0,0,0,0.1,0,0.1
		c0,0,0,0.1,0.1,0.1c0,0,0,0.1,0,0.1c0,0,0,0.1,0,0.1c0,0,0,0,0,0.1c0,0,0,0.1,0,0.2c0,0,0,0,0,0c0,0,0,0,0.1,0c0,0,0,0,0,0.1
		c0,0-0.1,0.1-0.1,0c0,0,0,0,0-0.1c0,0,0-0.1-0.1-0.1c0,0,0,0-0.1-0.1c0,0-0.1-0.1-0.1-0.1c0,0,0-0.1,0-0.1c0,0,0-0.1,0-0.1
		c0,0,0,0,0,0c0,0,0,0,0-0.1s0,0,0,0c0,0,0,0-0.1,0c0,0,0-0.1-0.1-0.1c0,0,0,0,0-0.1s0,0,0.1,0c0,0,0,0,0.1,0c0,0,0-0.1,0-0.1
		c0,0,0,0,0-0.1c0,0,0,0,0-0.1s0,0,0,0c0,0,0-0.1,0-0.2s0-0.2,0-0.2c0,0,0-0.2,0-0.2s0,0,0-0.1c0,0,0,0,0-0.1c0,0,0,0-0.1,0
		c0,0,0,0,0,0c0,0,0,0-0.1,0c0,0,0,0-0.1,0c0,0,0,0,0-0.1s0,0,0,0c0,0,0-0.1,0-0.1s0-0.1,0-0.1c0,0,0,0,0,0c0,0,0-0.1,0-0.1
		s0-0.1,0-0.1c0,0,0,0,0-0.1s0-0.1,0-0.1s0-0.1,0-0.1c0,0,0-0.1,0-0.1c0,0,0.1-0.1,0.1-0.2s0-0.1,0-0.2c0,0,0.1-0.1,0.1-0.2
		c0,0,0-0.1,0.1-0.2c0-0.1,0.1-0.1,0.1-0.2s0-0.2,0-0.2s0,0,0.1,0c0,0,0,0,0.1,0c0,0,0.1,0,0.1-0.1s0-0.1,0-0.1c0,0,0-0.1-0.1-0.1
		c0,0,0,0,0,0s0,0,0,0.1s0,0,0,0.1s0,0.1-0.1,0c0,0-0.1,0-0.1-0.1s-0.1-0.1-0.1-0.2s0-0.1,0-0.1c0,0,0,0,0.1,0c0,0,0,0,0,0
		c0,0,0,0,0-0.1c0,0,0,0,0-0.1c0,0,0-0.1,0-0.2c0,0,0,0,0-0.1s0,0,0-0.1s0-0.1,0-0.2s0,0,0-0.1s0,0,0,0s0,0,0,0c0,0,0,0,0,0
		c0,0,0,0,0-0.1c0,0,0-0.1,0-0.1s0,0,0-0.1s-0.1,0-0.1-0.1s0,0-0.1,0c0,0,0,0,0,0c0,0,0,0,0,0c0,0,0,0,0,0c0,0,0,0-0.1,0.1
		c0,0,0,0-0.1,0s-0.1,0-0.2,0c0,0,0,0,0,0c0,0,0.1,0,0.2-0.1s0.1,0,0.1,0c0,0,0,0,0,0s0,0-0.1,0c0,0-0.1,0-0.2,0.1c0,0-0.1,0-0.1,0
		c0,0,0,0-0.1,0c0,0-0.1,0-0.2,0.1c-0.1,0-0.1,0-0.2,0c-0.1,0-0.1,0-0.2,0.1c-0.1,0-0.1,0.1-0.2,0.1c-0.1,0-0.1,0.1-0.2,0.1
		c0,0,0,0,0.1-0.1s0.1-0.1,0.3-0.2c0.2-0.1,0.2-0.1,0.3-0.2c0.1,0,0,0,0-0.1s0,0,0,0c0,0,0,0,0,0c0,0,0,0,0.1,0c0,0,0.2-0.1,0.3-0.2
		c0.1-0.1,0.2-0.1,0.3-0.1s0,0,0,0c0,0,0,0,0.1-0.1c0,0,0-0.1,0-0.1s0.2-0.1,0.2,0c0,0,0,0,0,0.1s0,0,0,0c0,0,0.1,0,0.1-0.1
		s0,0,0.1-0.1c0,0,0.2,0,0.2,0c0,0,0.1,0,0.1,0c0.1,0,0.2,0,0.2,0s0,0,0.1,0c0,0,0,0,0.1,0c0,0,0.1,0,0.1,0c0,0,0,0,0.1,0.1
		c0,0,0.1,0,0.1,0c0.1,0,0.2,0,0.3,0c0,0,0.1,0,0.1,0s0,0,0,0c0,0,0.1,0,0.1,0c0,0,0,0,0,0c0,0,0,0,0,0s0.1,0,0.1,0c0,0,0.1,0,0.1,0
		s0.1,0,0.1,0s0,0,0,0c0,0,0,0,0,0s0.1,0,0.2,0c0.1,0,0.1,0,0.1,0c0,0,0,0,0,0l0,0c0,0,0,0,0.1,0c0,0,0,0,0.1,0c0,0,0,0,0.1,0
		s0.2,0,0.2,0c0,0,0,0,0.1,0c0,0,0.1,0,0.1,0s0,0,0,0s0,0,0,0s0,0,0.1,0c0,0,0,0,0.1,0c0,0,0.1,0,0.1,0c0,0,0,0,0.1,0c0,0,0,0,0,0.1
		c0,0,0,0,0,0c0,0,0,0,0.1,0c0,0,0,0,0,0c0,0,0,0,0.1,0c0,0,0,0,0,0.1s0,0,0,0c0,0,0,0,0,0c0,0,0,0,0,0c0,0,0,0,0,0.1s-0.1,0-0.1,0
		s0,0-0.1,0c0,0,0,0,0,0c0,0,0,0,0,0c0,0-0.1,0-0.1,0c0,0-0.2,0.1-0.2,0.2c0,0,0,0.1,0,0.1s0,0.1,0,0.1c0,0,0.1,0,0.1,0
		s0.1,0.1,0.1,0.2c0,0,0,0,0.1,0c0,0,0.1,0,0.2,0c0.1,0,0.4,0.2,0.5,0.2s0.2,0,0.2,0s0,0,0,0.1s0,0,0,0.1s0,0.1,0,0.1s0,0,0,0
		c0,0,0,0,0.1,0.1c0,0,0.1,0,0.1,0c0,0,0.1,0.1,0.1,0.1c0,0,0,0,0,0c0,0,0,0,0,0s0,0,0,0s0,0,0,0c0,0,0,0,0-0.1c0,0,0-0.1,0-0.1
		c0,0,0-0.1-0.1-0.1c0,0,0,0,0-0.1s0,0,0,0s0,0,0.1,0c0,0,0.1-0.1,0.1-0.2s0-0.1-0.1-0.1c0,0-0.1-0.1-0.2-0.1c0,0,0-0.1,0-0.1
		c0,0,0-0.1,0-0.1c0,0,0,0,0,0s0,0,0-0.1c0,0,0,0,0,0c0,0,0,0,0.1,0c0,0,0,0,0.1,0c0,0,0.1,0,0.1,0c0,0,0.1,0,0.1,0
		c0.1,0,0.1,0,0.1,0c0,0,0,0,0.1,0c0,0,0.1,0,0.1,0s0.1,0.1,0.1,0.2c0.1,0,0.2,0.1,0.2,0.1c0,0,0,0,0-0.1s0,0,0-0.1s0,0,0,0
		c0,0,0.1,0,0.1,0.1s0.1,0,0.2,0.1s0.2,0.1,0.2,0.1c0,0,0.1,0,0.1,0c0,0,0.1,0.1,0.1,0.1c0,0,0.1,0,0.1,0.1c0,0,0,0,0.1,0s0,0,0.1,0
		c0,0,0,0,0,0c0,0,0,0,0.1,0c0,0,0,0,0.1,0c0,0,0.1,0,0.1,0c0,0,0.1,0.1,0.1,0.1s0,0.1,0,0.1c0,0,0,0-0.1,0s-0.1,0-0.1,0
		s0,0.1-0.1,0.1c0,0-0.1,0-0.2,0c-0.1,0-0.4,0-0.4,0s-0.1,0.1-0.1,0.1c0,0,0,0-0.1,0c0,0-0.1,0.1-0.1,0.2c0,0-0.1,0.1-0.1,0.1
		c0,0,0,0,0,0s0,0,0.1-0.1c0-0.1,0.1-0.1,0.2-0.2c0.1,0,0.2,0,0.2,0s0,0.1,0,0.1c0,0-0.1,0-0.1,0c0,0,0,0,0,0s0,0,0,0c0,0,0,0,0,0
		c0,0,0,0,0,0.1s0,0,0,0c0,0,0,0,0,0c0,0,0.1,0,0.1,0.1c0,0,0,0,0.1,0s0.1,0,0.1,0s0,0,0.1,0c0,0,0,0,0.1,0c0,0,0,0,0,0c0,0,0,0,0,0
		c0,0,0,0,0-0.1c0,0,0,0,0.1,0.1c0,0,0,0,0,0s0,0,0,0c0,0-0.1,0-0.1,0s0,0,0,0.1s-0.1,0-0.1,0c0,0-0.1,0-0.1,0s0,0,0,0
		c0,0,0,0.1-0.1,0.1s0,0,0,0c0,0,0,0,0,0s0,0,0-0.1s0-0.1,0.1-0.1s0,0,0,0c0,0,0,0-0.1,0S22,38,22,38s0,0,0,0.1s-0.1,0-0.1,0
		s0,0-0.1,0c0,0-0.1,0-0.1,0c0,0-0.1,0.1-0.1,0.1s0,0.1,0,0.2c0,0,0,0,0.1,0c0,0,0,0,0,0s0,0-0.1,0c0,0,0,0-0.1,0c0,0,0,0-0.1,0
		c0,0-0.1,0-0.2,0s0,0,0,0c0,0,0.1,0,0.1,0c0,0,0,0,0,0s-0.1,0-0.2,0c0,0,0,0,0,0c0,0,0,0.1,0,0.1c0,0,0,0,0,0.1c0,0,0,0,0,0
		c0,0,0,0,0,0c0,0,0,0,0,0c0,0,0,0,0,0.1c0,0,0,0.1,0,0.2c0,0,0,0,0,0.1s0-0.1,0-0.1c0,0,0,0,0-0.1c0,0,0,0,0-0.1c0,0,0,0,0,0
		s0,0.1,0,0.1s0,0.1,0,0.1s0,0,0,0.1c0,0,0,0.1,0,0.1c0,0,0,0,0,0c0,0,0,0,0.1,0c0,0,0,0-0.1,0.1c0,0,0,0,0,0.1s-0.1,0-0.1,0
		c0,0-0.1,0-0.1,0.1s0,0,0,0c0,0-0.1,0.1-0.1,0.1c0,0,0,0,0,0.1s-0.1,0.1-0.1,0.1c0,0-0.1,0.1-0.1,0.2s0,0.1,0,0.2s0,0.2,0,0.2
		c0,0,0.1,0.1,0.1,0.2s0,0.1,0,0.1c0,0,0,0,0,0.1s0,0.1,0.1,0.2c0,0.1,0,0.1,0,0.1s0,0.1,0,0.1c0,0,0,0-0.1,0c0,0,0,0-0.1-0.1
		c0,0-0.1,0-0.1-0.1s0,0,0-0.1s0,0-0.1-0.1c0,0,0,0,0-0.1s0,0,0,0c0,0,0-0.1,0-0.2s0-0.1,0-0.1c0,0,0,0-0.1,0c0,0-0.1-0.1-0.1-0.1
		c0,0,0,0-0.1,0c0,0-0.1,0-0.1,0.1s0,0,0,0c0,0,0,0,0,0c0,0-0.1,0-0.1,0s-0.1,0-0.1,0c0,0,0,0,0,0c0,0-0.1,0-0.1,0s-0.1,0-0.1,0
		c0,0-0.1,0-0.1,0c0,0,0,0,0,0c0,0,0,0,0,0c0,0,0,0,0.1,0.1c0,0,0,0,0,0c0,0,0,0,0,0c0,0,0,0-0.1,0c0,0,0,0-0.1,0c0,0-0.1,0-0.1,0
		c0,0,0,0-0.1,0c0,0,0,0-0.1,0c0,0,0,0-0.1,0c0,0-0.1,0-0.1,0c0,0-0.1,0-0.2,0s-0.1,0-0.1,0.1s-0.1,0.1-0.1,0.1c0,0-0.1,0-0.1,0.1
		s0,0,0,0.1c0,0,0,0,0,0.1c0,0,0,0.2,0,0.2c0,0,0,0.1,0,0.2c0,0,0,0.2-0.1,0.2c0,0.1,0,0.3,0,0.3s0,0.1,0,0.1c0,0,0,0,0,0.1
		s0.1,0.2,0.1,0.2c0,0,0,0,0,0.1c0,0,0,0.1,0.1,0.2c0,0,0.1,0,0.1,0c0.1,0,0.1,0.1,0.1,0.1c0,0,0,0,0.1,0c0,0,0.1,0,0.1,0s0,0,0.1,0
		c0,0,0.1,0,0.1,0c0,0,0,0,0.1,0c0,0,0,0,0-0.1c0,0,0,0,0.1,0c0,0,0-0.1,0-0.1c0,0,0,0,0-0.1s0-0.1,0-0.2c0,0,0,0,0,0
		c0,0,0.1,0,0.2,0s0.1,0,0.1,0c0,0,0,0,0.1,0c0,0,0.1,0,0.1,0s0,0,0.1,0c0,0,0,0.1,0,0.1c0,0-0.1,0.1-0.1,0.1c0,0,0,0,0,0.1
		c0,0.1,0,0.1,0,0.2s0,0.1,0,0.2c0,0,0,0.1-0.1,0.2c0,0,0,0,0,0.1c0,0-0.1,0.1-0.1,0.2s0,0,0,0c0,0,0,0,0,0s0,0,0.1,0c0,0,0,0,0,0
		s0.1,0,0.1,0c0,0,0.1,0,0.1,0c0,0,0,0,0.1,0c0,0,0,0,0.1,0c0,0,0.1,0,0.1,0c0,0,0,0,0.1,0c0,0,0.1,0,0.1,0.1s0,0.1,0,0.1
		s0,0.1,0,0.1c0,0,0,0,0,0.1s0,0.1,0,0.1c0,0,0,0.1,0,0.1s0,0,0,0.1c0,0,0,0.1,0,0.1c0,0,0,0,0,0.1s0,0,0,0.1c0,0,0.1,0.1,0.1,0.2
		c0,0,0.1,0,0.1,0s0,0,0,0c0,0,0,0,0,0c0,0,0,0,0,0s0,0,0,0s0,0,0,0c0,0,0.1,0,0.1,0s0,0,0.1,0c0,0,0,0,0.1,0c0,0,0,0,0.1,0
		c0,0,0,0,0.1,0c0,0,0.1,0,0.1,0c0.1,0,0.1,0.1,0.1,0.1c0,0,0,0,0.1,0.1c0,0,0,0,0,0c0,0,0,0,0,0c0,0,0,0,0.1-0.1c0,0,0,0,0.1,0
		c0,0,0-0.1,0-0.2c0,0,0-0.1,0.1-0.1c0,0,0.1,0,0.1,0c0,0,0,0,0.1,0c0,0,0,0,0.1,0s0,0,0.1,0c0,0,0.1-0.1,0.1-0.1c0,0,0-0.1,0.1-0.1
		c0,0,0.1,0,0.1,0.1c0,0.1,0,0-0.1,0c0,0,0,0,0,0c0,0,0,0,0,0c0,0,0.1,0,0.1,0s0,0,0,0c0,0,0,0,0,0c0,0,0.1,0,0.1,0c0,0,0,0,0-0.1
		s0,0,0,0s0,0,0.1,0.1s0.1,0,0.1,0s0.1,0,0.1,0.1c0,0,0,0.1,0,0.1s0.1,0,0.1,0c0,0,0.1,0,0.2-0.1c0,0,0,0,0.1,0s0,0,0,0
		c0,0,0,0,0.1,0s0.1,0,0.1,0c0,0,0.1,0,0.1-0.1s0.1,0,0.1,0c0,0,0.1,0,0.1,0c0,0-0.1,0-0.1,0s0,0,0,0c0,0,0,0,0.1,0s0,0,0,0
		c0,0,0,0,0,0s0.1,0,0.1,0c0,0,0,0.1,0,0.2c0,0,0,0,0,0c0,0,0,0,0.1,0c0,0,0.1,0,0.1,0.1s0,0.1,0,0.1c0,0,0,0,0.1,0
		c0,0,0.1,0.1,0.1,0.1s0,0,0.1,0c0.1,0,0.1,0,0.1,0s0.1,0,0.1,0c0.1,0,0.1,0,0.2,0c0,0,0.1,0,0.1,0.1c0,0,0.1,0.1,0.1,0.1
		c0,0,0,0,0,0s0,0,0,0s0,0.1,0,0.2c0,0,0,0.2,0.1,0.2s0,0.1,0.1,0.1s0,0.1,0,0.1c0,0,0,0,0,0c0,0,0,0.1,0.1,0.1c0,0,0,0,0.1,0
		s0,0,0.1,0c0,0,0,0,0.1,0s0.1,0,0.1,0c0,0,0,0,0.1,0c0,0,0,0,0,0c0,0,0,0.1,0,0.2s0,0,0.1,0c0,0,0,0,0.1,0c0,0,0,0,0.1,0
		c0,0,0,0,0,0s0.1,0,0.1,0c0,0,0.1,0,0.1,0.1S27.4,46.6,27.5,46.5C27.4,46.6,27.5,46.6,27.5,46.5c0.1,0.1,0.1,0.1,0.1,0.1
		C27.5,46.3,27.5,46.4,27.5,46.5z M20.9,44.5C21,44.4,21,44.5,20.9,44.5C20.9,44.5,20.9,44.5,20.9,44.5z M14.6,36.5
		C14.6,36.5,14.6,36.5,14.6,36.5c-0.1,0.1-0.2,0.2-0.2,0.2s0,0,0-0.1c0,0,0-0.2,0.1-0.2S14.6,36.5,14.6,36.5z M14.6,36.3
		C14.6,36.3,14.6,36.3,14.6,36.3c0.1-0.1,0.1-0.1,0.1-0.1c0,0,0,0,0,0s0,0,0,0C14.7,36.3,14.7,36.3,14.6,36.3
		C14.7,36.4,14.7,36.4,14.6,36.3C14.6,36.4,14.6,36.4,14.6,36.3z M19.9,36.3C19.9,36.3,19.9,36.2,19.9,36.3c0.1-0.1,0.1,0,0.1,0
		c0,0,0,0,0,0S19.9,36.3,19.9,36.3C19.9,36.3,19.9,36.3,19.9,36.3z M20,36.8C20.1,36.8,20,36.8,20,36.8C20,36.8,20,36.8,20,36.8z
		 M22,37.4C22,37.4,22.1,37.4,22,37.4c0.1,0.1,0.2,0.1,0.2,0.1s0,0,0,0s0,0,0,0s0,0,0,0c0,0,0,0-0.1,0S22.1,37.5,22,37.4
		C22,37.5,22,37.4,22,37.4z M21.9,37.1C21.9,37.1,21.9,37.1,21.9,37.1c-0.1-0.1-0.1-0.1-0.1-0.1S21.9,37.1,21.9,37.1
		c0.1,0,0.2,0,0.2,0c0,0,0,0,0,0S22,37.2,21.9,37.1z M27.7,41.9C27.7,42,27.7,41.9,27.7,41.9C27.6,41.9,27.6,41.9,27.7,41.9
		C27.7,41.9,27.7,41.9,27.7,41.9z M27.8,42.2C27.8,42.2,27.8,42.2,27.8,42.2C27.8,42.3,27.8,42.3,27.8,42.2z M27.8,41.9
		C27.8,41.9,27.8,42,27.8,41.9C27.8,42,27.8,42,27.8,41.9C27.8,41.9,27.8,41.9,27.8,41.9z M27.8,42.2C27.8,42.2,27.8,42.2,27.8,42.2
		c0-0.1,0-0.1,0-0.1C27.9,42.2,27.9,42.2,27.8,42.2C27.9,42.2,27.9,42.2,27.8,42.2z"/>
	<path class="st2" d="M17.9,35.6C17.9,35.6,17.8,35.5,17.9,35.6C17.8,35.5,17.8,35.6,17.9,35.6C17.8,35.6,17.9,35.6,17.9,35.6z"/>
	<path class="st2" d="M18.3,37.6C18.3,37.6,18.3,37.6,18.3,37.6C18.3,37.6,18.3,37.6,18.3,37.6z"/>
	<path class="st2" d="M17.5,36.1C17.5,36.1,17.5,36,17.5,36.1C17.5,36,17.4,36.1,17.5,36.1z"/>
	<path class="st2" d="M17.5,36.2C17.5,36.2,17.5,36.2,17.5,36.2c0.1-0.1,0.1-0.1,0.1-0.1S17.6,36.1,17.5,36.2
		C17.5,36.2,17.5,36.2,17.5,36.2C17.5,36.2,17.5,36.2,17.5,36.2z"/>
	<path class="st2" d="M17,35.6c0,0,0,0-0.1,0c0,0-0.1,0-0.1,0c0,0,0,0-0.1,0c0,0-0.1,0,0,0c0,0,0,0.1,0,0.1c0,0-0.1,0-0.1,0
		c0,0,0,0-0.1,0c0,0,0,0,0,0s0.1,0,0.2,0c0,0,0.1,0,0.1,0s0.1,0,0.1,0C16.9,35.7,17,35.6,17,35.6C17.1,35.6,17.2,35.6,17,35.6
		C17.1,35.6,17,35.6,17,35.6z"/>
</g>
<g>
	<path class="st1" d="M64.3,116.5c-0.1,0-0.2-0.1-0.3-0.1C64.1,116.5,64.2,116.5,64.3,116.5z"/>
	<path class="st1" d="M64.8,116.6c-0.1,0-0.2,0-0.3-0.1C64.6,116.6,64.7,116.6,64.8,116.6z"/>
	<path class="st1" d="M63.5,116.3c0.1,0,0.2,0.1,0.3,0.1C63.7,116.4,63.6,116.4,63.5,116.3C63.5,116.3,63.5,116.3,63.5,116.3z"/>
	<path class="st1" d="M65.9,116.7c0.2,0,0.3,0,0.4,0c0.2,0,0.3,0,0.5,0c-0.2,0-0.3,0-0.5,0C66.2,116.8,66,116.8,65.9,116.7z"/>
	<path class="st1" d="M65.3,116.7c-0.2,0-0.3,0-0.4-0.1C65,116.6,65.2,116.7,65.3,116.7z"/>
	<path class="st1" d="M67.8,116.6c-0.2,0-0.3,0.1-0.4,0.1C67.5,116.7,67.7,116.6,67.8,116.6z"/>
	<path class="st1" d="M68.3,116.6c-0.1,0-0.3,0.1-0.4,0.1C68,116.6,68.2,116.6,68.3,116.6z"/>
	<path class="st1" d="M65.8,116.7c-0.1,0-0.2,0-0.3,0C65.5,116.7,65.7,116.7,65.8,116.7z"/>
	<path class="st1" d="M68.5,116.5L68.5,116.5c-0.1,0-0.1,0-0.2,0C68.4,116.5,68.5,116.5,68.5,116.5z"/>
	<path class="st1" d="M67.3,116.7c-0.2,0-0.3,0-0.4,0C67,116.7,67.2,116.7,67.3,116.7z"/>
	<path class="st1" d="M57.3,103c0-0.1,0-0.1,0.1-0.1C57.4,102.9,57.3,103,57.3,103z"/>
	<path class="st1" d="M57.5,102.6C57.5,102.6,57.5,102.6,57.5,102.6L57.5,102.6L57.5,102.6z"/>
	<path class="st1" d="M56.9,104.3L56.9,104.3C56.9,104.3,56.9,104.3,56.9,104.3C56.9,104.3,56.9,104.3,56.9,104.3z"/>
	<path class="st1" d="M57.1,103.4c0-0.1,0-0.1,0-0.1C57.2,103.4,57.2,103.4,57.1,103.4z"/>
	<path class="st1" d="M57,103.9c0-0.1,0-0.1,0-0.2C57,103.8,57,103.9,57,103.9z"/>
	<path class="st1" d="M64.9,97.2c0.2,0,0.3-0.1,0.4-0.1C65.2,97.1,65,97.1,64.9,97.2z"/>
	<path class="st1" d="M57.8,102.1L57.8,102.1c0-0.1,0.1-0.1,0.1-0.2C57.9,101.9,57.8,102,57.8,102.1z"/>
	<path class="st1" d="M64.4,97.3c0.1,0,0.2-0.1,0.4-0.1C64.7,97.2,64.5,97.2,64.4,97.3z"/>
	<path class="st1" d="M63.9,97.4c0.1,0,0.3-0.1,0.4-0.1C64.2,97.3,64.1,97.3,63.9,97.4z"/>
	<path class="st1" d="M63,97.6c0.1-0.1,0.2-0.1,0.4-0.1C63.3,97.6,63.1,97.6,63,97.6z"/>
	<path class="st1" d="M65.9,97.1c0.2,0,0.3,0,0.4,0C66.2,97.1,66,97.1,65.9,97.1z"/>
	<path class="st1" d="M63.5,97.5c0.1,0,0.2-0.1,0.3-0.1C63.7,97.4,63.6,97.5,63.5,97.5z"/>
	<path class="st1" d="M68.9,97.4c0.1,0,0.2,0.1,0.3,0.1C69,97.4,68.9,97.4,68.9,97.4z"/>
	<path class="st1" d="M68.4,97.3c0.1,0,0.2,0.1,0.2,0.1C68.6,97.3,68.5,97.3,68.4,97.3z"/>
	<path class="st1" d="M69.7,97.6c-0.1-0.1-0.3-0.1-0.4-0.1C69.4,97.6,69.6,97.6,69.7,97.6L69.7,97.6z"/>
	<path class="st1" d="M66.4,97.1c0.2,0,0.3,0,0.5,0C66.7,97.1,66.5,97.1,66.4,97.1z"/>
	<path class="st1" d="M67,97.1c0.1,0,0.2,0,0.3,0C67.2,97.1,67.1,97.1,67,97.1z"/>
	<path class="st1" d="M67.5,97.1c0.1,0,0.2,0,0.3,0C67.7,97.1,67.6,97.1,67.5,97.1z"/>
	<path class="st1" d="M68,97.2c0.1,0,0.2,0,0.2,0.1C68.1,97.2,68,97.2,68,97.2z"/>
	<path class="st1" d="M65.4,97.1c0.1,0,0.3,0,0.4,0C65.6,97.1,65.5,97.1,65.4,97.1z"/>
	<path class="st1" d="M58.8,100.6c0.1-0.1,0.1-0.1,0.2-0.2C58.9,100.4,58.9,100.5,58.8,100.6z"/>
	<path class="st1" d="M58.5,100.9c0.1-0.1,0.1-0.2,0.2-0.2C58.6,100.8,58.6,100.9,58.5,100.9z"/>
	<path class="st1" d="M59.1,100.2c0.1-0.1,0.2-0.2,0.2-0.2C59.3,100.1,59.2,100.2,59.1,100.2z"/>
	<path class="st1" d="M59.5,99.9c0.1-0.1,0.2-0.1,0.2-0.2C59.6,99.8,59.5,99.8,59.5,99.9z"/>
	<path class="st1" d="M62.6,97.8c0.1-0.1,0.2-0.1,0.3-0.1C62.8,97.7,62.7,97.8,62.6,97.8z"/>
	<path class="st1" d="M58,101.7c0-0.1,0.1-0.2,0.2-0.2C58.1,101.6,58,101.6,58,101.7z"/>
	<path class="st1" d="M58.2,101.3c0-0.1,0.1-0.2,0.2-0.2C58.4,101.2,58.3,101.2,58.2,101.3z"/>
	<path class="st1" d="M59.8,99.6c0.1-0.1,0.2-0.2,0.3-0.2C60,99.4,59.9,99.5,59.8,99.6z"/>
	<path class="st1" d="M61.3,98.5c0.1-0.1,0.2-0.1,0.4-0.2C61.5,98.3,61.4,98.4,61.3,98.5z"/>
	<path class="st1" d="M61.7,98.2c0.1-0.1,0.2-0.1,0.3-0.1C61.9,98.1,61.8,98.2,61.7,98.2z"/>
	<path class="st1" d="M60.9,98.7c0.1-0.1,0.2-0.1,0.2-0.2C61.1,98.6,61,98.6,60.9,98.7z"/>
	<path class="st1" d="M60.5,99c0.1-0.1,0.2-0.2,0.3-0.2C60.7,98.8,60.6,98.9,60.5,99z"/>
	<path class="st1" d="M60.2,99.3c0.1-0.1,0.2-0.1,0.2-0.2C60.3,99.1,60.2,99.2,60.2,99.3z"/>
	<path class="st1" d="M62.1,98c0.1-0.1,0.2-0.1,0.4-0.2C62.4,97.9,62.2,98,62.1,98z"/>
	<path class="st1" d="M63.8,97.4C63.9,97.4,63.9,97.4,63.8,97.4C63.9,97.4,63.9,97.4,63.8,97.4z"/>
	<path class="st1" d="M64.4,97.3C64.4,97.3,64.4,97.3,64.4,97.3C64.4,97.3,64.4,97.3,64.4,97.3z"/>
	<path class="st1" d="M62,98.1C62,98.1,62.1,98.1,62,98.1C62.1,98.1,62.1,98.1,62,98.1z"/>
	<path class="st1" d="M60.8,98.8C60.8,98.8,60.9,98.7,60.8,98.8C60.9,98.7,60.8,98.8,60.8,98.8z"/>
	<path class="st1" d="M58.1,101.5c0-0.1,0-0.1,0.1-0.1C58.2,101.4,58.2,101.4,58.1,101.5z"/>
	<path class="st1" d="M57.9,101.9c0-0.1,0-0.1,0.1-0.2C58,101.8,57.9,101.8,57.9,101.9z"/>
	<path class="st1" d="M57.4,102.9c0-0.1,0.1-0.2,0.2-0.3C57.5,102.7,57.4,102.8,57.4,102.9z"/>
	<path class="st1" d="M63.4,97.5C63.4,97.5,63.5,97.5,63.4,97.5C63.5,97.5,63.4,97.5,63.4,97.5z"/>
	<path class="st1" d="M62.5,97.8C62.5,97.8,62.6,97.8,62.5,97.8C62.6,97.8,62.5,97.8,62.5,97.8z"/>
	<path class="st1" d="M61.2,98.6C61.2,98.5,61.3,98.5,61.2,98.6C61.2,98.5,61.2,98.5,61.2,98.6z"/>
	<path class="st1" d="M64.8,97.2c0.1,0,0.1,0,0.1,0C64.9,97.2,64.8,97.2,64.8,97.2z"/>
	<path class="st1" d="M57.2,103.3c0-0.1,0.1-0.2,0.1-0.3C57.3,103.1,57.2,103.2,57.2,103.3z"/>
	<path class="st1" d="M60.4,99.1C60.4,99.1,60.5,99,60.4,99.1C60.5,99,60.4,99.1,60.4,99.1z"/>
	<path class="st1" d="M62.9,97.7C62.9,97.7,63,97.7,62.9,97.7C63,97.7,62.9,97.7,62.9,97.7z"/>
	<path class="st1" d="M65.3,97.1L65.3,97.1C65.4,97.1,65.4,97.1,65.3,97.1z"/>
	<path class="st1" d="M59.3,100c0,0,0.1-0.1,0.1-0.1C59.4,99.9,59.4,100,59.3,100z"/>
	<path class="st1" d="M67.3,97.1c0.1,0,0.1,0,0.2,0C67.4,97.1,67.4,97.1,67.3,97.1z"/>
	<path class="st1" d="M59.7,99.7C59.7,99.7,59.7,99.6,59.7,99.7C59.7,99.6,59.7,99.7,59.7,99.7z"/>
	<path class="st1" d="M58.4,101.1c0-0.1,0.1-0.1,0.1-0.1C58.5,101,58.5,101.1,58.4,101.1z"/>
	<path class="st1" d="M65.8,97.1c0.1,0,0.1,0,0.1,0C65.9,97.1,65.8,97.1,65.8,97.1z"/>
	<path class="st1" d="M61.6,98.3C61.7,98.2,61.7,98.2,61.6,98.3C61.7,98.2,61.7,98.2,61.6,98.3z"/>
	<path class="st1" d="M60,99.3c0,0,0.1-0.1,0.1-0.1C60.1,99.3,60.1,99.3,60,99.3z"/>
	<path class="st1" d="M66.8,97.1c0.1,0,0.1,0,0.2,0C66.9,97.1,66.9,97.1,66.8,97.1z"/>
	<path class="st1" d="M69.1,97.5c0.1,0,0.1,0,0.2,0.1C69.2,97.5,69.2,97.5,69.1,97.5z"/>
	<path class="st1" d="M58.7,100.7c0-0.1,0.1-0.1,0.1-0.1C58.8,100.6,58.7,100.7,58.7,100.7z"/>
	<path class="st1" d="M68.7,97.3c0.1,0,0.1,0,0.2,0.1C68.8,97.4,68.7,97.4,68.7,97.3z"/>
	<path class="st1" d="M59,100.4c0,0,0.1-0.1,0.1-0.1C59.1,100.3,59,100.3,59,100.4z"/>
	<path class="st1" d="M68.2,97.2c0.1,0,0.1,0,0.2,0.1C68.3,97.3,68.3,97.3,68.2,97.2z"/>
	<path class="st1" d="M67.8,97.2c0.1,0,0.1,0,0.2,0C67.9,97.2,67.8,97.2,67.8,97.2z"/>
	<path class="st1" d="M57,103.8c0-0.1,0.1-0.2,0.1-0.3C57.1,103.6,57.1,103.7,57,103.8z"/>
	<path class="st1" d="M64.9,116.6c-0.1,0-0.1,0-0.1,0C64.8,116.6,64.8,116.6,64.9,116.6z"/>
	<path class="st1" d="M76.2,106.9c0-4.2-2.7-7.9-6.5-9.2c0,0.1,0.1,0,0.1,0.1c0,0,0.1,0.1,0.1,0.1c0,0,0.1,0,0.1,0.1
		c0,0-0.2,0-0.2,0c-0.1,0,0,0,0,0.1c0,0.1-0.1,0-0.1,0c-0.1,0-0.1,0-0.2,0s-0.1,0-0.1,0c-0.1,0-0.1,0-0.1,0c0,0,0,0,0,0.1
		c0,0.1,0,0.1,0.1,0.1c0,0,0.1,0,0.1,0.1c0.1,0,0.1,0.1,0.1,0.1c0,0,0,0,0,0.1c0,0,0,0.1,0.1,0.1c0,0-0.1,0-0.1,0c0,0,0,0,0,0.1
		c0,0,0,0.1,0,0.1s0,0.1,0,0.1c0,0.1,0,0.1-0.1,0.1s-0.1,0-0.1-0.1c0-0.1-0.1-0.1-0.2-0.2S69,98.2,69,98.1c0-0.1,0.1-0.1,0.1-0.1
		c0,0,0-0.1,0-0.1c0-0.1,0.1-0.1,0.1-0.1c0,0,0,0,0,0c0,0-0.1-0.1-0.1-0.1c0,0-0.1,0-0.1,0c0,0,0,0-0.1,0.1c0,0-0.1,0-0.1-0.1
		c0,0-0.1,0-0.2,0c-0.1,0-0.1,0.1-0.1,0.1s0,0-0.1,0.1c0,0-0.1,0-0.2,0c-0.1,0,0,0-0.1,0c0,0-0.1,0-0.2,0c-0.1,0-0.1,0-0.2,0
		c-0.1,0-0.3,0-0.4,0s-0.2,0.1-0.3,0.1c-0.1,0.1-0.2,0.1-0.3,0.2c-0.1,0,0,0,0,0.1c0,0,0.1,0,0.1,0s0,0,0.1,0.1c0,0.1,0,0,0.1,0
		c0,0,0,0,0,0.1s0,0,0.1,0c0,0,0.1-0.1,0.1-0.1c0.1,0,0.1,0,0.2,0.1c0.1,0,0.1,0,0.2,0s0-0.1,0.1-0.1c0,0,0,0,0.1,0.1
		c0,0,0.1,0.1,0.1,0.1s0,0.1,0.1,0.1c0.1,0,0.1,0.1,0.1,0.2s-0.1,0-0.1,0c-0.1,0,0,0.1,0,0.1c0,0,0,0.1,0.1,0.1s0.1,0.1,0.2,0.1
		c0.1,0.1-0.1,0-0.1,0C68,99,68,99,68,99.1S68,99,68,99c0,0,0-0.1,0-0.1c0-0.1,0,0,0-0.1c0,0,0-0.1,0-0.1c0,0,0-0.1,0-0.1
		c0,0,0-0.1-0.1-0.1c0-0.1,0-0.1-0.1-0.1c-0.1,0-0.1-0.1-0.1,0c0,0,0,0.1,0,0.1s0,0.1,0.1,0.1s0,0.1-0.1,0.1c0,0-0.1,0.1-0.1,0.1
		c0,0.1-0.1,0.1-0.1,0.2c-0.1,0.1-0.1,0.1-0.2,0.2c-0.1,0.1-0.1,0.1-0.2,0.1c-0.1,0-0.2,0-0.2,0c-0.1,0-0.1,0-0.1,0
		c0,0-0.1,0.1-0.2,0.1c-0.1,0-0.1,0.1-0.1,0.1c0,0.1-0.1,0.1-0.1,0.1c-0.1,0-0.1,0.1-0.2,0.1c-0.1,0-0.1,0.1-0.1,0.1
		c0,0,0.1,0,0.1,0.1c0,0.1,0.1,0.1,0.2,0.1c0.1,0.1,0,0.1,0,0.2s0,0.1,0,0.1c0,0.1-0.1,0.1-0.1,0.1c-0.1,0-0.1,0-0.1,0s-0.1,0-0.1,0
		c-0.1,0-0.1,0.1-0.2,0.1s-0.1-0.1-0.1-0.1c0,0,0.1-0.1,0.1-0.1c0-0.1-0.1-0.1-0.1-0.1c0,0,0,0,0.1-0.1c0.1,0,0-0.1,0-0.1
		c0,0-0.1,0-0.1,0s-0.1,0-0.1-0.1c0,0,0-0.1,0-0.1s0.1-0.1,0-0.1c0,0-0.1,0-0.2,0c-0.1,0-0.2,0.1-0.3,0.1c-0.1,0.1-0.1,0.1-0.1,0.1
		s0,0,0-0.1c0,0,0,0,0,0c0,0,0,0,0-0.1c0,0,0.1-0.1,0.1-0.1c0,0,0-0.1-0.1-0.1c-0.1,0-0.1,0-0.1,0c0,0-0.1,0.1-0.2,0.1
		s-0.1,0.1-0.2,0.1c0,0.1-0.1,0.1-0.2,0c-0.1,0-0.1,0-0.1,0.1s0.2,0.1,0.2,0.1c0.1,0,0,0,0,0.1c0,0,0,0.1,0.1,0.1
		c0.1,0,0.1,0,0.1-0.1c0,0,0.1,0,0.1-0.1c0,0,0.1,0,0.1,0c0,0,0.1,0,0.1,0c0.1,0,0.1,0,0.1,0.1c0,0-0.1,0.1-0.1,0.1
		s-0.1,0.1-0.2,0.1c-0.1,0.1-0.2,0.2-0.2,0.2c0,0,0,0,0.1,0.1c0.1,0,0.1,0,0.1,0.1c0.1,0.1,0.1,0.2,0.1,0.2c0,0.1,0,0.1,0.1,0.1
		c0,0,0.1,0.1,0.1,0.1c0,0.1,0,0.1,0,0.1c0,0-0.1,0.1-0.1,0.1c-0.1,0-0.1,0.1-0.1,0.1c0,0.1,0.1,0,0.1,0c0.1,0,0.1,0,0.1,0.1
		c0,0,0,0.1,0,0.1c0,0.1,0,0-0.1,0c0,0,0,0.1,0,0.1s-0.1,0-0.1,0.1c-0.1,0-0.1,0.1-0.1,0.1s-0.1,0.1-0.1,0.1c-0.1,0-0.1,0.1-0.1,0.2
		s-0.1,0.1-0.1,0.1c-0.1,0-0.1,0.1-0.2,0.2c-0.1,0.1-0.2,0.1-0.3,0.2c-0.1,0.1-0.2,0.1-0.2,0.1s-0.1,0-0.1,0.1c0,0.1-0.1,0-0.1,0
		c-0.1,0-0.1,0.1-0.1,0.1c0,0-0.1,0-0.2,0s-0.1,0-0.1,0.1c0,0-0.1,0-0.2,0s-0.1,0.1-0.1,0.1c0,0,0,0,0,0.1c0,0,0,0.1,0,0.1
		c0,0-0.1,0-0.1,0c0,0,0,0-0.1-0.1c0,0,0-0.1,0-0.1c0,0,0-0.1,0.1-0.1c0,0,0,0-0.1,0s-0.1,0-0.1,0c0,0,0-0.1-0.1-0.1s-0.1,0-0.1,0
		s-0.1,0.1-0.1,0.1c0,0-0.1,0-0.1,0.1c0,0.1-0.1,0.1-0.1,0.1c0,0-0.1,0.1-0.1,0.2c0,0.1,0,0.1,0,0.1c0,0,0,0.1,0.1,0.1
		c0.1,0,0,0,0,0.1c0,0,0.1,0.1,0.1,0.2c0,0,0.1,0,0.1,0.1c0.1,0,0.1,0.1,0.1,0.1c0,0.1,0.1,0.1,0.1,0.3c0,0.1,0,0.3,0,0.3
		c0,0.1,0,0.1-0.1,0.2c-0.1,0.1-0.1,0.1-0.2,0.1c-0.1,0.1-0.1,0-0.2,0.1c0,0,0,0.1-0.1,0.1c-0.1,0.1-0.1,0.1-0.2,0.1s-0.1,0-0.1,0.1
		c0,0.1-0.1,0.1-0.1,0.1c0,0,0-0.1,0-0.2s0-0.1,0-0.1s-0.1-0.1-0.1-0.1c0,0-0.1,0-0.1,0c0,0,0,0,0-0.1c0,0,0,0,0-0.1
		c0,0,0,0-0.1,0.1c-0.1,0,0-0.1,0-0.2c0-0.1-0.1-0.1-0.1-0.1c0,0,0-0.1-0.1-0.1c0,0-0.1,0-0.1,0s0,0,0,0c0,0,0-0.1,0-0.1
		c0,0,0-0.1,0-0.1s-0.1,0-0.1,0.1c0,0,0,0.1,0,0.2c0,0.1-0.1,0.1-0.1,0.2c0,0.1,0,0.1,0,0.1s0,0.2,0,0.2s0,0,0.1,0c0,0,0,0,0,0.1
		c0,0,0,0.1,0,0.1s0,0.2,0,0.2c0,0.1,0.1,0.1,0.1,0.1s0,0,0.1,0.1c0,0,0,0.1,0,0.1c0,0,0,0,0.1,0.1c0,0.1,0.1,0.1,0.1,0.1
		c0.1,0,0.1,0.2,0,0.2c0,0.1,0,0.2,0,0.2s0,0.1,0.1,0.1c0.1,0.1,0.1,0.1,0.1,0.2c0,0,0,0.1-0.1,0.1s-0.1,0-0.1,0c0,0,0-0.1-0.1-0.1
		c0,0-0.1-0.1-0.2-0.1c-0.1,0-0.1-0.1-0.1-0.1c0,0,0-0.1,0-0.1c0,0,0-0.1,0-0.1c0,0,0-0.1,0-0.1s0-0.1,0-0.1s0-0.1,0-0.2
		s-0.1-0.2-0.1-0.2c0-0.1,0-0.1-0.1-0.1c0,0,0-0.1,0-0.1s0,0,0,0c0,0,0,0,0-0.1c0,0,0-0.1,0-0.1c0-0.1,0-0.1,0-0.2
		c0-0.1,0-0.1,0-0.2c0-0.1,0-0.1,0-0.1s0-0.1,0-0.1c0-0.1,0-0.1,0-0.2s0-0.1,0-0.1s0-0.2,0-0.3c0-0.1,0-0.1,0-0.2c0,0,0,0-0.1,0
		c-0.1,0.1-0.1,0.1-0.2,0.1c0,0-0.1,0-0.2,0c0,0,0-0.2,0.1-0.2c0-0.1,0-0.2,0-0.2c0-0.1,0,0-0.1,0c0,0,0,0,0-0.1s0-0.1,0-0.1
		c0,0,0-0.1,0-0.1s0,0-0.1-0.1c0-0.1,0-0.2,0-0.3s0-0.1,0-0.1s0,0-0.1,0c0,0,0,0,0,0.1c0,0.1-0.1,0.1-0.2,0.1c0,0-0.1,0-0.1,0
		c0,0,0,0,0-0.1c0,0,0,0,0,0.1c0,0-0.1,0-0.1,0.1c0,0.1,0,0.1,0,0.1c0,0.1,0,0.1-0.1,0.1c0,0.1-0.1,0.1-0.2,0.1c0,0-0.1,0.1-0.2,0.2
		c-0.1,0.1-0.1,0.1-0.2,0.2c-0.1,0.1,0,0.1-0.1,0.1c0,0.1-0.1,0-0.1,0.1c0,0,0,0.1-0.1,0.1c0,0,0,0-0.1,0.1c0,0.1-0.1,0.2-0.1,0.3
		c0,0.1-0.1,0.2-0.1,0.3s0,0.1,0,0.2s0,0.1,0,0.2c0,0,0,0,0,0.1c0,0.1-0.1,0.1-0.1,0.1c0,0.1,0,0.1,0,0.2c0,0.1,0,0-0.1,0
		c0,0,0-0.2,0-0.3c0-0.1,0-0.2,0-0.3c0-0.1,0-0.2,0-0.3c0-0.1,0-0.2,0-0.4c0-0.1,0-0.2,0-0.3s0-0.2,0-0.3c0-0.1,0.1-0.2,0.1-0.3
		s0-0.2,0-0.2c0-0.1,0-0.1,0,0c0,0,0,0.1,0,0.1c0,0-0.1,0.1-0.1,0.1c0,0,0,0,0,0c0,0,0-0.1,0-0.2s0-0.1,0.1-0.1s0-0.1,0.1-0.1
		c0,0,0,0,0,0c0,0,0,0,0-0.1s0-0.1,0-0.1s0-0.1,0-0.2s0,0-0.1,0.1c0,0.1-0.1,0-0.2,0c0,0,0,0,0-0.1c0,0,0-0.1,0-0.2c0,0,0-0.1,0-0.2
		c-0.1,0.2-0.2,0.3-0.2,0.4c0,0.1,0.1,0.1,0.1,0.2c0,0.1,0,0.1,0,0.2s-0.1,0.3-0.2,0.4s-0.1,0.2-0.1,0.2c0,0.1,0,0.1-0.1,0.1
		c0,0.1,0,0.1,0,0.1c0,0.1-0.1,0.4-0.2,0.5c0,0.1-0.2,0.1-0.2,0.1c-0.2,0.8-0.3,1.7-0.3,2.6c0,4.4,3,8.2,7,9.4c0,0,0,0,0-0.1
		c0-0.1-0.1-0.1-0.1-0.1s0-0.1,0.1,0c0.1,0,0.1,0,0.1,0.1c0,0,0.1,0,0.1,0s0.1,0,0.2,0.1c0.1,0,0.2,0,0.2,0c0.1,0,0-0.1,0-0.1
		c0,0,0.1,0,0.1,0c0.1,0,0.1,0,0.2,0s0,0,0.1,0c0.1,0,0.1,0,0.2,0c0.1,0,0.1,0,0.1,0c0.1,0,0.1,0.1,0.1,0.1s0.1,0,0.2,0
		c0.1,0,0.1,0,0.1,0c0.1,0,0.1,0,0.2,0s0.1,0.1,0.2,0.1s0.1,0,0.2,0c0.1,0,0.2,0,0.3,0s0,0,0-0.1c0,0,0,0,0.1,0c0.1,0,0,0,0.1,0.1
		c0,0,0.1,0,0.1,0c0,0,0,0,0.1,0c0.1,0,0.1,0,0.2,0c0.1,0,0.1,0,0.2,0s0,0,0-0.1c0,0,0,0,0.1,0c0,0,0.2,0,0.2,0s0.1,0,0.1-0.1
		c0,0,0,0,0.1,0.1c0.1,0,0.2,0,0.3,0c0.2,0,0.2,0,0.3,0s0.1,0,0.1,0c0.1,0,0,0,0,0.1c0,0,0.1,0,0.2,0c0.1,0,0.3,0,0.4,0s0.1,0,0.1,0
		c0.1,0,0.1,0,0.2,0c0,0,0,0,0,0C72.9,115.5,76.2,111.6,76.2,106.9z M75.1,109.3C75.2,109.4,75.1,109.4,75.1,109.3
		C75.1,109.3,75.1,109.3,75.1,109.3z M74.2,109.8c0,0,0.1-0.1,0.1-0.1s0,0.1,0,0.1C74.3,109.9,74.2,109.9,74.2,109.8
		C74.2,109.9,74.1,109.9,74.2,109.8z M74,110.1c0.1-0.1,0.1,0,0.1,0s0,0.1-0.1,0.1C74,110.2,74,110.2,74,110.1
		C73.9,110.1,74,110.1,74,110.1z M67.3,98.1C67.3,98.1,67.2,98.1,67.3,98.1C67.2,98.1,67.2,98.1,67.3,98.1
		C67.3,98.1,67.3,98.1,67.3,98.1z M58.4,105.7c0,0,0-0.1-0.1-0.2c0-0.1,0-0.2,0-0.3c0-0.1,0-0.1,0-0.2c0,0,0-0.1,0-0.1
		s0,0.1,0.1,0.1s0.1,0.2,0.1,0.3C58.6,105.6,58.4,105.6,58.4,105.7z M59.9,104.7C59.9,104.8,59.9,104.7,59.9,104.7
		C59.9,104.6,59.9,104.7,59.9,104.7z M60,104.6C60,104.6,59.9,104.6,60,104.6c0-0.1,0-0.2,0-0.2s0-0.1,0-0.1c0,0,0-0.1,0,0
		c0,0,0,0.1,0,0.1c0,0.1,0,0.1,0,0.1C60,104.4,60,104.5,60,104.6z M60,105.4C60,105.3,60,105.3,60,105.4
		C60.1,105.5,60,105.4,60,105.4z M72.8,108.8C72.8,108.8,72.8,108.8,72.8,108.8C72.8,108.8,72.7,108.8,72.8,108.8z M72.6,110.6
		C72.7,110.6,72.7,110.7,72.6,110.6C72.6,110.7,72.6,110.6,72.6,110.6z M72.3,110.6c0,0,0.1,0.1,0.1,0.2c0,0,0.2,0.1,0.2,0.2
		s-0.1,0-0.1,0c-0.1,0-0.1-0.1-0.1-0.1S72.2,110.6,72.3,110.6C72.2,110.6,72.2,110.5,72.3,110.6z M72.2,108.8
		C72.2,108.8,72.1,108.8,72.2,108.8C72.1,108.7,72.2,108.8,72.2,108.8C72.3,108.8,72.2,108.8,72.2,108.8z M72.1,108.4
		C72.1,108.4,72.1,108.4,72.1,108.4c0.1,0.1,0.1,0.2,0.1,0.2c0,0.1-0.1-0.1-0.1-0.1C72.1,108.5,72.1,108.4,72.1,108.4
		C72.1,108.3,72.1,108.3,72.1,108.4z M72,108.4C72,108.4,72,108.4,72,108.4C72,108.5,71.9,108.5,72,108.4z M71.8,98.8
		C71.8,98.8,71.8,98.8,71.8,98.8C71.7,98.8,71.7,98.8,71.8,98.8z M71.7,108.2C71.8,108.2,71.8,108.2,71.7,108.2
		c0.1,0.1,0.1,0.1,0.1,0.2s-0.1,0-0.1-0.1C71.8,108.3,71.7,108.2,71.7,108.2C71.7,108.2,71.7,108.2,71.7,108.2z M71.8,108.5
		C71.8,108.5,71.7,108.5,71.8,108.5C71.8,108.4,71.9,108.5,71.8,108.5z M71.7,98.8C71.7,98.8,71.7,98.8,71.7,98.8
		C71.7,98.8,71.6,98.8,71.7,98.8z M71.6,108.4C71.6,108.4,71.6,108.3,71.6,108.4c-0.1-0.1-0.1-0.1-0.1-0.1c0,0,0-0.1,0,0
		c0,0,0,0,0.1,0S71.6,108.3,71.6,108.4C71.6,108.4,71.6,108.4,71.6,108.4C71.7,108.4,71.6,108.4,71.6,108.4z M71.5,98.8
		C71.6,98.8,71.5,98.8,71.5,98.8C71.4,98.8,71.4,98.8,71.5,98.8z M71.4,108C71.5,108,71.5,108.1,71.4,108c0.1,0.1,0.1,0.1,0.2,0.1
		s0,0,0,0.1c0,0-0.1,0-0.1,0C71.5,108.1,71.4,108.1,71.4,108C71.4,108,71.4,108,71.4,108z M71.4,108.2
		C71.4,108.2,71.5,108.2,71.4,108.2C71.4,108.3,71.4,108.2,71.4,108.2z M71.3,98.8C71.3,98.8,71.3,98.8,71.3,98.8
		C71.2,98.8,71.2,98.7,71.3,98.8z M71.1,107.7c0,0,0.1,0.1,0.1,0.1c0.1,0.1,0.1,0.1,0.1,0.1c0.1,0.1,0.1,0.1,0,0.1
		c0,0-0.1,0-0.1-0.1s-0.1-0.1-0.1-0.1C71.1,107.8,71,107.8,71.1,107.7C71.1,107.7,71.1,107.7,71.1,107.7z M71,98.7
		C71.1,98.7,71.1,98.7,71,98.7C70.9,98.7,71,98.7,71,98.7z M71,108.9C71,108.9,71,108.9,71,108.9C71,109,70.9,108.9,71,108.9z
		 M70.8,98.6C70.9,98.6,70.9,98.6,70.8,98.6C70.8,98.7,70.8,98.6,70.8,98.6z M70.7,98.6C70.7,98.6,70.7,98.6,70.7,98.6
		C70.6,98.6,70.6,98.5,70.7,98.6z M70.3,107.2C70.3,107.1,70.4,107.2,70.3,107.2c0.1,0.1,0.2,0.1,0.2,0.1c0.1,0,0.2,0.1,0.3,0.2
		c0.1,0.1,0.1,0.2,0,0.2c0,0,0-0.1,0-0.1c0,0-0.1-0.1-0.1-0.1c-0.1-0.1-0.1-0.1-0.2-0.2C70.4,107.3,70.4,107.3,70.3,107.2
		C70.3,107.2,70.3,107.2,70.3,107.2z M70.2,107C70.3,107,70.3,107.1,70.2,107C70.2,107.1,70.2,107,70.2,107z M69.9,107.8
		C69.9,107.8,69.9,107.9,69.9,107.8C69.9,107.8,69.9,107.8,69.9,107.8z M69.7,107.1C69.8,107.1,69.8,107.1,69.7,107.1
		C69.8,107.1,69.8,107.1,69.7,107.1C69.6,107.1,69.7,107.1,69.7,107.1z M69.8,107.8C69.7,107.8,69.7,107.8,69.8,107.8
		C69.8,107.7,69.8,107.8,69.8,107.8z M69.4,98.6C69.4,98.6,69.4,98.6,69.4,98.6C69.4,98.7,69.3,98.6,69.4,98.6z M69.2,104.1
		C69.3,104.1,69.3,104.1,69.2,104.1C69.2,104.2,69.2,104.1,69.2,104.1z M69.3,107.5c0.1,0,0.1,0.1,0.2,0.1c0.1,0.1,0.1,0.1,0.1,0.2
		c0,0,0,0,0,0.1c0.1,0,0.1,0,0.1,0c0.1,0,0.1,0.1,0.1,0.1c0.1,0,0.1,0.1,0.1,0.1c0,0.1-0.1,0.1-0.1,0.1s0,0.1,0,0.1s0.1,0.1,0.1,0.1
		c0.1,0,0.1,0.1,0.1,0.1c0,0.1,0,0.1,0.1,0.1c0.1,0,0.1,0,0.1,0.1s0.1,0.1,0.1,0.1c0,0,0,0,0,0.1c0,0.1,0.1,0.1,0.1,0.1
		c0,0.1,0,0.1-0.1,0c-0.1-0.1-0.1,0-0.2-0.1c-0.1,0-0.2,0-0.2,0c-0.1,0-0.1-0.1-0.1-0.1c0-0.1-0.1-0.1-0.1-0.1c0,0-0.1-0.1-0.1-0.1
		c0-0.1-0.1-0.1-0.1-0.1s-0.1,0-0.2-0.1c-0.1,0-0.2,0-0.2,0c0,0.1-0.1,0.1-0.1,0.2c0,0.1-0.1,0.1-0.2,0.1c-0.1,0-0.2,0-0.3,0
		c-0.1,0-0.1-0.1-0.2-0.2c-0.1-0.1-0.1-0.1-0.2-0.1c-0.1,0-0.1,0-0.2,0.1c0,0-0.2,0-0.2,0c-0.1,0,0-0.1,0.1-0.1
		c0-0.1,0.1-0.1,0.2-0.1c0.1,0,0-0.1-0.1-0.2s-0.1-0.2-0.2-0.2c-0.1-0.1-0.2-0.1-0.2-0.1c-0.1,0-0.1-0.1-0.2-0.1s-0.1,0-0.2-0.1
		c-0.1-0.1-0.1-0.1-0.2-0.1c-0.1-0.1-0.1,0-0.1,0c0,0,0,0.1-0.1,0.1c-0.1,0-0.1-0.1-0.1-0.1c0-0.1,0-0.1-0.1-0.1
		c-0.1,0-0.1-0.1-0.1-0.1c0,0,0.1,0,0.1,0c0,0,0,0,0.1-0.1c0.1-0.1,0.1,0,0.1,0s0.1,0,0.1-0.1c0,0-0.1,0-0.1,0s-0.2,0-0.2,0
		c-0.1,0-0.1-0.1-0.1-0.1c0,0-0.1,0-0.1,0s-0.1,0-0.1-0.1c0,0,0-0.1,0.1-0.1c0,0,0.1,0,0.1,0c0,0,0,0,0.1,0c0.1,0,0.1-0.1,0.2-0.1
		c0.1,0,0.1,0,0.2,0.1c0,0,0.1,0,0.2,0c0.1,0,0,0.2,0,0.2c0,0.1,0,0.1,0.1,0.1c0.1,0,0,0.1,0.1,0.1c0,0,0,0.1,0,0.1s0.1,0,0.2-0.1
		s0.1-0.1,0.1-0.2c0,0,0.1,0,0.1-0.1c0.1,0,0.1-0.1,0.1-0.1c0,0,0.1,0,0.1,0c0.1,0,0.1,0.1,0.2,0.1s0.2,0.1,0.3,0.1
		c0.1,0,0.3,0.1,0.4,0.1c0.1,0,0.1,0,0.2,0.1C69.2,107.5,69.2,107.5,69.3,107.5z M70.3,108.5C70.3,108.5,70.3,108.6,70.3,108.5
		C70.2,108.6,70.2,108.5,70.3,108.5z M68.3,109.9C68.3,109.9,68.2,109.9,68.3,109.9C68.2,109.9,68.2,109.9,68.3,109.9
		C68.3,109.9,68.3,109.9,68.3,109.9z M67.4,108C67.4,108.1,67.4,108.1,67.4,108c-0.1,0-0.1,0-0.1,0c-0.1,0,0-0.1,0-0.1
		c0-0.1,0-0.1,0-0.1c0,0,0-0.1,0-0.1c0.1-0.1,0.1,0,0.1,0.1s0,0.1,0,0.1C67.4,107.9,67.4,108,67.4,108z M67.1,107.8
		C67.1,107.9,67.1,107.9,67.1,107.8C67,107.9,66.9,107.8,67.1,107.8C67,107.8,67.1,107.8,67.1,107.8z M66.3,107.3
		C66.2,107.3,66.2,107.3,66.3,107.3c-0.1,0.1-0.2,0-0.2,0c0,0,0,0,0.1-0.1C66.2,107.2,66.3,107.2,66.3,107.3
		c0.2-0.1,0.2-0.1,0.2-0.1c0.1,0,0.1,0.1,0.1,0.1s0,0.1-0.1,0c-0.1,0-0.1-0.1-0.1-0.1C66.4,107.4,66.3,107.3,66.3,107.3z
		 M66.4,108.3C66.4,108.3,66.4,108.3,66.4,108.3C66.4,108.2,66.5,108.2,66.4,108.3z M66,106.9C66.1,106.9,66.1,107,66,106.9
		C66.1,107.1,66,107,66,106.9C66,107,66,106.9,66,106.9z M65.9,106.8C65.9,106.7,65.9,106.8,65.9,106.8c0.1,0,0.1,0.1,0.1,0.1
		C66.1,106.9,66,106.9,65.9,106.8C65.9,106.8,65.9,106.8,65.9,106.8z M66.3,101.5C66.3,101.4,66.3,101.4,66.3,101.5
		C66.4,101.4,66.3,101.5,66.3,101.5C66.3,101.5,66.3,101.5,66.3,101.5z M66.5,107C66.5,107,66.6,107.1,66.5,107
		C66.5,107.1,66.5,107.1,66.5,107C66.4,107.1,66.5,107,66.5,107z M66.5,101.1C66.5,101.1,66.5,101.1,66.5,101.1
		C66.5,101.2,66.5,101.1,66.5,101.1z M66.6,106.7c0,0,0.1,0,0.1,0s0.1,0,0,0.1C66.7,106.8,66.6,106.8,66.6,106.7
		C66.5,106.8,66.5,106.7,66.6,106.7z M66.5,108.9C66.6,108.9,66.6,108.9,66.5,108.9c0.1,0,0.1,0,0.2,0s0.1,0,0.1,0.1
		c0,0.1-0.1,0.1-0.1,0.1s-0.1,0-0.2,0C66.5,109,66.5,109,66.5,108.9z M66.7,108.3C66.7,108.3,66.7,108.2,66.7,108.3
		c-0.1-0.1,0-0.1,0-0.1c0-0.1,0.1-0.1,0.1-0.1c0,0,0,0.1,0,0.1C66.8,108.2,66.8,108.3,66.7,108.3z M66.9,100.6
		C66.9,100.6,66.9,100.6,66.9,100.6c0.1-0.1,0.1-0.1,0.1-0.1s0,0,0.1,0c0,0,0,0,0.1-0.1c0.1,0,0.1,0,0.1,0c0,0,0,0.1,0,0.1
		c0,0,0,0-0.1,0.1c0,0,0,0-0.1,0c0,0,0,0-0.1,0S67,100.6,66.9,100.6C66.9,100.6,66.9,100.7,66.9,100.6
		C66.9,100.7,66.8,100.7,66.9,100.6C66.8,100.7,66.8,100.6,66.9,100.6z M67.7,106.9C67.6,106.9,67.6,106.9,67.7,106.9
		C67.5,106.8,67.6,106.8,67.7,106.9C67.7,106.9,67.7,106.9,67.7,106.9z M67.8,107.1C67.8,107.1,67.8,107.1,67.8,107.1
		c-0.1,0-0.2,0-0.2,0c0,0,0,0,0.1,0S67.8,107,67.8,107.1z M69,99.1C69,99,69,99.1,69,99.1C68.9,99.1,69,99.1,69,99.1z M68.8,99.1
		c0,0,0.1,0,0.1,0C68.9,99.1,68.8,99.1,68.8,99.1C68.8,99.1,68.8,99.2,68.8,99.1C68.7,99.2,68.7,99.2,68.8,99.1z M68.6,99.2
		C68.6,99.2,68.6,99.2,68.6,99.2C68.7,99.2,68.6,99.2,68.6,99.2C68.6,99.2,68.5,99.3,68.6,99.2C68.5,99.2,68.5,99.2,68.6,99.2z
		 M67.9,99.4C67.9,99.4,67.9,99.3,67.9,99.4C67.9,99.3,67.9,99.3,67.9,99.4C67.9,99.4,67.9,99.3,67.9,99.4c0.1,0,0.1-0.1,0.1-0.1
		c0,0,0,0,0-0.1c0-0.1,0-0.1,0-0.1c-0.1-0.1,0.1,0,0.1,0c0.1,0,0.1,0.1,0.1,0.1c0.1,0,0.1,0,0.1,0c0,0,0.1,0,0.1,0
		c0,0,0.1,0,0.1-0.1c0,0,0,0,0,0.1c0,0,0,0.1,0.1,0.1c0,0,0,0,0,0s-0.1,0-0.1,0c-0.1,0-0.1,0-0.1,0c-0.1,0-0.1,0.1-0.1,0.1
		c0,0,0,0-0.1,0c-0.1,0-0.1,0-0.2-0.1C68,99.4,68,99.4,67.9,99.4C67.9,99.5,67.9,99.4,67.9,99.4C67.9,99.4,67.9,99.4,67.9,99.4
		C67.8,99.5,67.8,99.5,67.9,99.4c0,0.1,0.1,0.1,0.1,0.1c0,0,0,0-0.1,0s0,0-0.1,0s0,0,0-0.1C67.8,99.5,67.8,99.5,67.9,99.4
		C67.8,99.4,67.8,99.4,67.9,99.4z M67.6,100C67.7,100,67.7,100,67.6,100C67.7,100.1,67.6,100,67.6,100z M66.4,100.6
		C66.4,100.6,66.4,100.6,66.4,100.6c0.2-0.1,0.2-0.1,0.2-0.1c0,0,0.1,0,0.1-0.1c0.1,0,0.1-0.1,0.2-0.1c0.1,0,0.1,0,0.2,0
		s0.2,0,0.2,0c0.1,0,0.1,0,0.1,0s0,0,0-0.1c0-0.1,0,0,0.1-0.1c0,0,0-0.1,0-0.1c0,0,0-0.1,0-0.1c0,0,0,0,0,0.1c0,0,0,0,0,0
		s0.1,0,0.1,0c0.1,0,0.1,0,0.1-0.1c0-0.1,0.1-0.1,0.1-0.1c0,0,0.1-0.1,0.1-0.1c0,0,0-0.1,0-0.1c0-0.1,0-0.1,0-0.1
		c0,0,0.1-0.1,0.1-0.1c0,0,0,0,0.1,0s0.1,0,0.1,0.1c0,0,0,0.1,0,0.1c0,0,0,0,0.1,0.1c0,0.1,0,0.1,0,0.1c0,0.1-0.1,0.1-0.1,0.1
		c0,0,0,0,0,0.1c0,0.1,0,0.1,0,0.2c0,0,0,0.1,0.1,0.1c0,0,0,0,0,0.1c0,0,0,0.1,0,0.1s0,0-0.1,0c0,0-0.1,0-0.1,0c0,0,0,0-0.1,0.1
		c0,0,0,0-0.1,0c0,0,0,0-0.1,0c0,0-0.1,0-0.1,0c0,0-0.1,0-0.1,0s-0.1,0-0.1,0c0,0,0,0.1,0,0.1c0,0,0,0,0.1,0.1c0.1,0-0.1,0-0.1,0.1
		c0,0-0.1,0.1-0.1,0.1c0,0-0.1,0-0.1-0.1c0,0,0,0,0,0c0,0,0-0.1,0-0.1c0,0,0,0-0.1,0s-0.1,0-0.1,0c0,0-0.1,0-0.1,0c0,0,0,0-0.1,0
		c0,0-0.1,0-0.1,0.1c0,0-0.1,0-0.1,0s0,0-0.1,0c0,0,0,0-0.1,0s-0.1,0-0.1,0s-0.1,0-0.1,0c0,0,0,0,0,0.1c0,0,0.1,0,0.1,0c0,0,0,0,0,0
		c0,0,0,0,0.1,0.1c0,0.1-0.1,0.1-0.1,0.1c0,0,0,0.1,0,0.1c0,0,0,0.1-0.1,0.1s0,0-0.1,0s-0.1,0-0.1,0c0,0,0,0,0-0.1c0,0,0-0.1,0-0.1
		c0-0.1,0,0,0,0s0,0,0-0.1S66.3,100.8,66.4,100.6C66.4,100.7,66.4,100.7,66.4,100.6z M66.3,100.5C66.4,100.4,66.4,100.5,66.3,100.5
		C66.3,100.6,66.3,100.5,66.3,100.5z M66.3,100.8C66.4,100.7,66.3,100.8,66.3,100.8C66.2,100.8,66.2,100.8,66.3,100.8z M66.1,106.2
		C66.2,106.1,66.2,106.2,66.1,106.2C66.1,106.3,66.1,106.2,66.1,106.2z M66,101.8C66.1,101.7,66.1,101.7,66,101.8
		C66.1,101.8,66.1,101.8,66,101.8C66,101.8,66,101.8,66,101.8z M66.1,106.3C66.1,106.3,66.1,106.3,66.1,106.3c0,0.1,0,0.1,0,0.2
		c0,0,0,0.1,0,0.1s0.1-0.1,0.1-0.1c0-0.1,0.1,0,0.1,0c0,0.1-0.1,0.1-0.1,0.1c-0.1,0,0.1,0.1,0.1,0.1s-0.1,0-0.1,0c0,0,0,0,0,0.1
		s0,0.1,0.1,0.1c0,0,0,0-0.1,0c0,0-0.1-0.1-0.1-0.1c0,0,0-0.1,0-0.2C65.9,106.4,66,106.4,66.1,106.3C66,106.3,66.1,106.3,66.1,106.3
		z M65.9,100.6C65.9,100.6,66,100.6,65.9,100.6C66,100.7,65.9,100.7,65.9,100.6C65.8,100.6,65.9,100.6,65.9,100.6z M65.9,107.4
		C66,107.4,65.9,107.4,65.9,107.4c-0.1,0.1-0.2,0-0.2,0c0,0,0-0.1,0.1-0.1C65.9,107.3,65.9,107.3,65.9,107.4z M64.4,108.6
		c0.1,0,0.1,0.1,0.2,0.1s0.1,0,0.1,0.1s-0.1,0-0.2,0c0,0-0.1-0.1-0.2-0.1C64.3,108.6,64.4,108.6,64.4,108.6z M64.2,108.4
		c-0.1,0-0.1,0-0.2,0c0,0-0.1,0-0.1,0c0,0,0-0.1,0.1-0.1C64,108.4,64.1,108.4,64.2,108.4C64.1,108.4,64.2,108.4,64.2,108.4
		C64.2,108.4,64.2,108.4,64.2,108.4c0.1-0.1,0.1-0.1,0.1,0C64.4,108.4,64.3,108.4,64.2,108.4z M64.6,108.4
		C64.6,108.4,64.5,108.4,64.6,108.4C64.5,108.4,64.5,108.4,64.6,108.4c0-0.1,0-0.1,0.1-0.1c0.1,0,0.1,0,0.2,0s0.1,0,0.2,0
		c0,0,0.1,0,0.1,0c0,0,0.1-0.1,0.1-0.1c0.1,0,0.1,0,0.1,0c0.1,0,0.1,0,0.1,0c0.1,0,0.1,0,0.1,0s0.1,0.1,0,0.1c-0.1,0-0.1,0-0.1,0
		c-0.1,0-0.1,0-0.1,0s-0.1,0-0.1,0c-0.1,0-0.1,0-0.2,0c-0.1,0-0.1,0-0.2,0C64.7,108.4,64.6,108.4,64.6,108.4z M65.1,107
		C65,107,65,106.9,65.1,107C65.1,106.9,65.1,106.9,65.1,107c0.1-0.1,0.1-0.1,0.1,0S65.1,107,65.1,107C65.1,107,65.1,107,65.1,107z
		 M65.1,107.5C65.1,107.6,65,107.5,65.1,107.5C65.1,107.4,65.1,107.5,65.1,107.5z M65.7,107.1C65.7,107.1,65.7,107.1,65.7,107.1
		c-0.1,0-0.1,0-0.2,0c-0.1,0-0.1,0-0.2,0s0-0.1,0-0.1C65.5,107,65.6,107.1,65.7,107.1z M65.6,106C65.6,105.9,65.6,106,65.6,106
		C65.6,106.1,65.5,106,65.6,106z M65.2,108.6C65.2,108.6,65.2,108.6,65.2,108.6c0.1-0.1,0.1-0.1,0.2-0.1c0.1,0,0.1-0.1,0.1-0.1
		c0,0,0.1-0.1,0.2-0.1s0.1,0,0.2,0c0.1,0,0.1,0,0.1,0c0,0,0,0-0.1,0.1c-0.1,0-0.2,0.1-0.2,0.1c-0.1,0-0.1,0.1-0.2,0.1
		S65.4,108.7,65.2,108.6C65.3,108.7,65.2,108.7,65.2,108.6C65.1,108.7,65.2,108.6,65.2,108.6z M65.7,108.2c0.1,0,0.2-0.1,0.2,0
		S65.8,108.2,65.7,108.2C65.7,108.3,65.7,108.2,65.7,108.2z M65.8,105.8C65.8,105.8,65.9,105.8,65.8,105.8
		C65.8,105.9,65.8,105.9,65.8,105.8z M65.7,104.8c0,0,0.1,0.1,0.1,0.1c0,0.1,0,0.1,0,0.1c0,0,0.1,0.2,0.1,0.2c0,0.1,0,0.1-0.1,0.1
		c0,0,0,0.1,0,0.1c0,0,0-0.1,0-0.1c0-0.1,0-0.1-0.1-0.1s-0.1,0-0.1,0c0,0,0,0.1,0,0.1c0,0,0,0,0.1,0.1s0,0.1-0.1,0.1
		c0,0,0-0.1-0.1-0.1c0,0,0,0-0.1,0c0,0-0.1,0-0.1,0c0,0-0.1,0-0.1-0.1c0,0,0-0.2,0-0.2c0,0,0,0,0-0.1c0-0.1-0.1-0.1-0.1-0.1
		s0,0-0.1,0.1c0,0,0,0-0.1,0c0,0,0,0-0.1,0.1c0,0,0-0.1,0-0.1s0,0,0,0c0,0.1,0,0.1-0.1,0.1s0,0.1-0.1,0.1s0-0.1,0-0.1
		c0,0,0-0.1,0-0.1s0.1-0.1,0.1-0.1s0.1,0,0.1-0.1c0-0.1,0,0,0.1-0.1c0,0,0.1,0,0.1,0.1c0,0,0,0,0.1,0s0,0,0-0.1c0,0,0,0,0.1,0
		c0,0,0,0,0.1-0.1c0,0,0,0,0.1,0s0.1,0,0.1,0c0.1,0,0-0.1,0-0.1C65.6,104.8,65.6,104.8,65.7,104.8C65.6,104.8,65.6,104.8,65.7,104.8
		z M64.9,105.4C64.9,105.4,64.9,105.4,64.9,105.4C64.9,105.3,65,105.4,64.9,105.4z M65.1,104.4C65.1,104.5,65.1,104.5,65.1,104.4
		c-0.1,0.1-0.1,0.1-0.1,0.1c0,0,0,0-0.1,0c0,0-0.1,0-0.1,0c0,0,0,0,0-0.1c0,0,0-0.1,0-0.1c0,0,0-0.1,0.1,0
		C65,104.4,65.1,104.4,65.1,104.4z M65,104.2C65.1,104.2,65.1,104.2,65,104.2C65,104.3,65,104.2,65,104.2z M65.4,104.8
		c0,0.1-0.1,0.1-0.1,0.1C65.2,104.8,65.3,104.8,65.4,104.8C65.3,104.7,65.4,104.7,65.4,104.8z M65.4,104C65.4,104,65.4,104,65.4,104
		C65.4,104.1,65.3,104,65.4,104z M65.3,104.6C65.3,104.7,65.3,104.7,65.3,104.6c-0.1,0.1-0.1,0.1-0.1,0.2c0,0.1,0-0.1,0-0.1
		S65.2,104.7,65.3,104.6c-0.1-0.1-0.1-0.1-0.1-0.1s0.1,0,0.1,0S65.3,104.6,65.3,104.6z M65.2,104.3
		C65.2,104.3,65.2,104.3,65.2,104.3C65.1,104.4,65.2,104.3,65.2,104.3C65.2,104.2,65.2,104.3,65.2,104.3
		C65.3,104.3,65.3,104.4,65.2,104.3C65.3,104.4,65.3,104.3,65.2,104.3z M65.2,104.6C65.2,104.6,65.2,104.6,65.2,104.6
		c0,0.1,0,0.1-0.1,0.2c0,0,0,0.1,0,0.1s0,0,0,0.1c0,0.1-0.1,0-0.1,0c0,0,0,0-0.1,0s-0.1,0-0.1-0.1c0-0.1,0.1-0.1,0.1-0.1
		c0,0,0,0,0-0.1c0,0,0-0.1,0-0.1C65.1,104.6,65.1,104.6,65.2,104.6z M64.9,104.1C64.9,104.1,64.9,104.1,64.9,104.1
		C64.9,104.1,65,104.1,64.9,104.1z M65.6,104.3c0,0.1,0,0.1,0,0.2s-0.1,0-0.1,0c0,0,0,0,0,0.1c0,0.1,0,0.1,0,0.1c0,0,0,0.1,0,0.1
		c0,0,0,0.1-0.1,0c0,0,0-0.1,0-0.1c0,0,0,0-0.1-0.1c0,0,0-0.1,0-0.1c0,0,0,0,0,0c0,0,0,0.1,0,0.1c0,0.1,0.1,0,0.1,0
		C65.5,104.4,65.5,104.4,65.6,104.3c0,0.1-0.1,0.1-0.1,0c0,0-0.1-0.1-0.1-0.1c0,0,0-0.1,0-0.1c0,0,0.1,0,0.1,0
		C65.5,104.2,65.6,104.3,65.6,104.3z M65.4,102.1C65.4,102.1,65.4,102.1,65.4,102.1C65.3,102.1,65.3,102.1,65.4,102.1z M64.7,102.2
		c0-0.1,0.1-0.2,0.2-0.2c0,0,0.1-0.1,0.1-0.1c0,0,0.1,0.1,0.1,0.1s0,0.1-0.1,0.1s0,0.1-0.1,0.1c0,0,0,0.1,0,0.1s-0.1,0.1-0.1,0.1
		c0,0,0,0.1,0,0.1c0,0-0.1,0-0.1,0c0,0,0-0.1-0.1-0.1C64.7,102.3,64.7,102.3,64.7,102.2z M64.6,103.6
		C64.6,103.6,64.6,103.6,64.6,103.6C64.7,103.6,64.7,103.5,64.6,103.6c0.1-0.1,0.1-0.3,0.1-0.3s0-0.1,0.1-0.1c0.1,0,0.1,0,0.2,0
		c0.1,0.1,0.1,0.1,0.1,0.1c0,0.1,0,0.1,0,0.1c0,0,0,0,0,0.1c0,0.1-0.1,0.1-0.2,0.2c0,0-0.1,0.1-0.1,0.1c0,0,0,0.1,0,0.1
		s0,0.1,0.1,0.1c0,0.1,0.1,0,0.1,0c0,0,0.1,0,0.1,0c0.1,0,0.1,0.1,0.1,0.1c0,0,0,0,0,0c0,0,0.1,0,0.1,0c0,0,0,0.1,0,0.1
		c0,0,0,0.1,0,0.1s0,0,0.1,0.1c0,0,0,0,0,0.1c0,0-0.1,0-0.1-0.1c0,0,0-0.1-0.1-0.1c0,0-0.1,0-0.1-0.1c0,0-0.1-0.1-0.1-0.1
		c0,0,0,0.1,0.1,0.1c0,0.1,0,0.1,0,0c0,0-0.1-0.1-0.1-0.1c-0.1,0-0.1,0-0.1,0s-0.1,0-0.1,0c0,0-0.1,0-0.1,0c0,0-0.1-0.1-0.1-0.1
		s0-0.1,0.1-0.1c0.1,0,0,0,0-0.1c0,0,0,0-0.1-0.1c0,0,0,0,0,0.1c0,0,0,0-0.1-0.1S64.5,103.6,64.6,103.6
		C64.5,103.6,64.6,103.6,64.6,103.6z M64.8,104.3C64.8,104.3,64.7,104.3,64.8,104.3c-0.1-0.1-0.1-0.1-0.1-0.2s-0.1-0.1-0.1-0.1
		s0.1,0,0.1,0c0.1,0,0.1,0.1,0.1,0.1C64.8,104.2,64.8,104.3,64.8,104.3z M64.7,105.6C64.6,105.5,64.7,105.5,64.7,105.6
		C64.8,105.6,64.7,105.6,64.7,105.6z M64.5,104.3C64.5,104.3,64.6,104.3,64.5,104.3C64.6,104.4,64.6,104.4,64.5,104.3
		C64.5,104.4,64.5,104.3,64.5,104.3z M64.5,105.6C64.6,105.6,64.6,105.7,64.5,105.6C64.5,105.7,64.5,105.6,64.5,105.6z M64.5,106.6
		c0-0.1,0.1-0.1,0.2-0.1c0.1-0.1,0.1-0.1,0.2,0c0.1,0,0.3,0.1,0.4,0.1c0.1,0,0.2-0.1,0.2-0.1c0.1-0.1,0.1-0.1,0.1,0
		c0,0.1-0.1,0.2-0.1,0.2c-0.1,0.1-0.2,0.1-0.2,0.1s-0.3,0-0.3,0C64.8,106.6,64.7,106.6,64.5,106.6C64.6,106.6,64.5,106.6,64.5,106.6
		c0,0.1,0,0.1,0,0.2s0,0.1,0.1,0.1c0,0,0,0,0.1,0.1c0,0,0.1,0,0.1,0c0.1,0,0.1-0.1,0.1-0.1c0,0,0.1,0,0.1,0c0,0,0.1,0,0.1,0
		c0,0,0,0,0.1,0c0.1,0,0.1,0,0.1,0c0.1,0,0.1,0,0.1,0.1s-0.1,0-0.1,0c0,0-0.1,0.1-0.1,0.1c-0.1,0.1-0.2,0.1-0.2,0.1c0,0,0,0,0,0.1
		c0,0,0.1,0.1,0.1,0.1c0.1,0.1,0,0.1,0,0.1c0,0.1,0,0,0.1,0.1c0.1,0,0,0.1,0.1,0.1c0,0,0.1,0,0.1,0.1c0,0,0,0.1,0,0.1s0,0.1,0,0.1
		c0,0,0,0.1,0,0.1s0,0-0.1,0c0,0,0,0-0.1,0s0-0.1,0-0.1c0,0,0-0.1,0-0.1c0,0,0,0,0,0c0,0,0,0-0.1,0s-0.1,0-0.1,0c0,0,0-0.1,0-0.1
		s-0.1-0.1-0.1-0.1c0,0,0,0,0-0.1s0-0.1-0.1-0.1c-0.1,0-0.1,0-0.1,0.1c0,0,0,0,0,0.1s0,0.2,0,0.3c0,0,0,0.1,0,0.1c0,0.1,0,0-0.1,0
		s-0.1,0-0.1,0c-0.1,0,0-0.1,0-0.1s0.1-0.1,0-0.2c0-0.1-0.1-0.1-0.1-0.1c0,0-0.1,0-0.1-0.1c0,0,0-0.1,0.1-0.1s0.1-0.1,0.1-0.2
		s0.1-0.1,0.1-0.1c0,0,0-0.1,0-0.1C64.4,106.7,64.5,106.7,64.5,106.6z M64,105.1C64,105.1,64,105.1,64,105.1C64,105,64,105,64,105
		c0-0.1,0.1-0.1,0.2-0.2c0.1-0.1,0.1-0.1,0.2-0.2s0.1-0.1,0.1-0.1c0,0,0.1,0,0.1,0c0,0,0,0.1,0,0.1c0,0,0,0.1-0.1,0.1
		c-0.1,0,0,0-0.1,0s0,0.1-0.1,0.1c0,0-0.1,0.1-0.1,0.1c-0.1,0-0.1,0.1-0.1,0.1C64.1,105,64,105.1,64,105.1
		C64,105.1,64,105.1,64,105.1z M62.7,103.1c0,0,0.1-0.1,0.2-0.1c0,0,0.1,0,0.1,0s0.1,0,0.1,0c0,0,0,0.1-0.1,0.1c0,0,0,0.1-0.1,0.1
		c-0.1,0.1-0.1,0.1-0.2,0.1c0,0-0.1,0-0.1,0c0,0-0.1,0-0.1-0.1C62.6,103.1,62.7,103.1,62.7,103.1z M62.4,106.5
		c0-0.1,0.1-0.1,0.1-0.1c0,0,0.1,0,0.1,0c0,0,0.1,0.1,0.1,0c0,0,0,0,0.1,0c0,0,0,0,0.1,0s0.1-0.1,0.1-0.1s0-0.1,0.1-0.1
		c0.1,0,0.1-0.1,0.2-0.1s0.1,0,0.1-0.1c0,0,0-0.1,0.1-0.1s0.1-0.1,0.1-0.1c0,0,0-0.1,0-0.1c0,0,0.1,0,0.1,0c0.1,0,0.1-0.1,0.1-0.1
		s0,0,0-0.1c0,0,0.1,0,0.1-0.1c0.1,0,0-0.1,0.1-0.1c0-0.1,0,0,0.1-0.1c0-0.1,0.1-0.1,0.1-0.1s0,0,0.1-0.1c0,0,0,0,0,0.1
		c0,0.1,0-0.1,0.1-0.1c0,0,0,0,0.1,0.1c0.1,0.1,0,0.1,0.1,0.1c0,0.1,0,0,0.1,0.1c0,0,0,0,0.1,0c0,0,0.1,0.1,0.1,0.1
		c0.1,0,0.1,0,0.1,0.1c0,0.1-0.2,0.1-0.2,0.1s0,0,0,0.1c0,0,0.1,0,0.1,0c0.1,0,0,0.1-0.1,0.1s-0.1,0-0.1,0.1c0,0,0,0.1,0,0.1
		c0,0,0,0.1-0.1,0.1c0,0,0,0,0,0.1c0,0,0,0.1,0,0.1c0,0,0,0.1,0,0.1s0.1,0.1,0.1,0.1c0.1,0,0.1,0.1,0.1,0.1c0,0.1,0,0.1-0.1,0.1
		s-0.1,0-0.1,0c0,0-0.1,0-0.1,0.1s0,0.1,0,0.2c0,0.1,0,0.1-0.1,0.1s0,0-0.1,0.1c0,0-0.1,0.1-0.1,0.1c0,0.1,0,0.1,0,0.1s0,0.1,0,0.2
		c0,0.1,0,0.1,0,0.1s0,0.1-0.1,0.1s0,0,0-0.1c0,0-0.1,0-0.1,0c0,0-0.1,0-0.1,0.1c0,0-0.1,0.1-0.1,0c0,0,0-0.1,0-0.1
		c0,0-0.1-0.1-0.1-0.1c0,0-0.1,0-0.1,0c-0.1,0,0-0.1-0.1-0.1s0,0-0.1,0s-0.1,0-0.1,0.1c-0.1,0-0.1,0-0.1,0c0,0,0,0-0.1,0
		c0,0,0-0.1,0-0.1c0,0-0.1,0-0.1,0s-0.1,0-0.1,0c0,0,0,0,0-0.1c0-0.1,0-0.1,0-0.1c0-0.1,0-0.1,0-0.1c0-0.1,0,0-0.1-0.1
		c-0.1,0,0,0-0.1-0.1c0,0,0,0-0.1-0.1c0,0,0-0.1,0-0.1s0-0.1-0.1-0.1C62.4,106.6,62.4,106.5,62.4,106.5z M63.9,108.4
		C63.9,108.4,63.9,108.5,63.9,108.4c-0.1,0.1-0.1,0-0.1,0C63.8,108.4,63.8,108.3,63.9,108.4C63.8,108.3,63.9,108.3,63.9,108.4
		C63.9,108.4,63.9,108.4,63.9,108.4z M62.3,105.9C62.3,105.9,62.4,105.9,62.3,105.9C62.3,106,62.3,105.9,62.3,105.9z M62.2,107.2
		C62.3,107.2,62.3,107.2,62.2,107.2C62.3,107.3,62.3,107.3,62.2,107.2C62.2,107.3,62.2,107.3,62.2,107.2z M61.8,107.1
		C61.8,107.1,61.8,107,61.8,107.1C61.8,107,61.8,107,61.8,107.1c0.1-0.1,0.2-0.1,0.2-0.1c0,0,0,0.1,0.1,0.1c0,0,0.1,0,0.1,0.1
		c0,0,0,0.1,0,0.1s-0.1,0-0.1-0.1c0,0,0-0.1-0.1-0.1C61.9,107.1,61.9,107.1,61.8,107.1C61.8,107.1,61.7,107.1,61.8,107.1z
		 M61.6,106.5C61.6,106.5,61.6,106.5,61.6,106.5c0.1,0,0.1,0,0.1,0.1C61.7,106.6,61.7,106.6,61.6,106.5c0,0,0,0.1,0,0.1
		C61.6,106.6,61.6,106.6,61.6,106.5C61.5,106.6,61.5,106.6,61.6,106.5C61.5,106.6,61.5,106.5,61.6,106.5z M61.6,106.8
		C61.6,106.9,61.6,106.8,61.6,106.8C61.7,106.8,61.7,106.8,61.6,106.8z M60.3,106.2C60.3,106.2,60.3,106.2,60.3,106.2
		C60.4,106.2,60.4,106.2,60.3,106.2C60.4,106.3,60.3,106.2,60.3,106.2z M60.6,106.6c0,0,0-0.1-0.1-0.1s0-0.1,0-0.1c0,0,0,0.1,0,0.1
		C60.6,106.6,60.6,106.6,60.6,106.6z M60.7,106.8C60.7,106.9,60.6,106.8,60.7,106.8C60.6,106.7,60.6,106.7,60.7,106.8
		C60.7,106.8,60.7,106.8,60.7,106.8z M60.7,107C60.7,107,60.7,107,60.7,107C60.7,106.9,60.7,106.9,60.7,107
		C60.8,106.9,60.8,107,60.7,107C60.8,107.1,60.8,107.1,60.7,107z M60.8,107.1C60.8,107.1,60.9,107.1,60.8,107.1
		C60.9,107.2,60.9,107.2,60.8,107.1z M60.9,107.3C60.9,107.2,60.9,107.2,60.9,107.3C61,107.2,61,107.3,60.9,107.3
		C61,107.4,60.9,107.3,60.9,107.3z M61.3,107.8C61.3,107.8,61.2,107.8,61.3,107.8C61.3,107.7,61.3,107.8,61.3,107.8z M61.8,107.8
		C61.8,107.9,61.8,107.9,61.8,107.8c-0.1-0.1-0.1-0.1-0.1-0.1S61.7,107.8,61.8,107.8c-0.1,0.1-0.1,0-0.2,0c0,0-0.1-0.1-0.1-0.1
		c0-0.1-0.2-0.2-0.2-0.2c0,0,0-0.1,0-0.1c0,0,0,0,0-0.1c0,0-0.1-0.1-0.1-0.1c0,0,0-0.1-0.1-0.1c0,0,0-0.1,0-0.1c0-0.1,0-0.1,0-0.2
		c0,0,0-0.1-0.1-0.1s-0.1-0.1-0.1-0.1c0,0,0,0,0-0.1c0,0,0-0.1,0-0.2c0-0.1,0-0.1,0-0.1c0,0-0.1-0.1-0.1-0.1c0,0,0-0.1,0-0.1
		c0-0.1,0-0.1-0.1-0.2s-0.1-0.1-0.1-0.1c0,0-0.2-0.2-0.2-0.2c0-0.1,0-0.1,0-0.1c0,0,0,0,0,0.1c0,0,0,0,0.1,0c0,0,0.1,0,0.2,0
		c0,0.1,0,0.1,0.1,0.1c0,0,0,0,0,0.1c0,0,0,0,0.1,0.1c0,0,0.1,0.1,0.1,0.1c0,0.1,0,0.1,0.1,0.2c0,0,0,0,0,0s0,0,0.1,0.1c0,0,0,0,0,0
		c0,0,0,0.1,0,0.1s0,0,0.1,0c0,0,0,0,0,0.1c0,0.1,0,0,0.1,0c0,0,0,0.1,0,0.1c0,0,0,0,0.1,0.1c0.1,0,0,0.1,0,0.1c0,0,0,0,0,0.1
		c0,0,0,0.1,0,0.1c0.1,0,0.1,0,0.2,0.1c0.1,0,0,0.1,0,0.1c0,0,0,0,0,0c0,0,0,0,0.1,0.1c0,0,0.1,0,0.1,0.1c0.1,0,0.1,0,0.1,0.1
		c0,0,0,0.1,0.1,0.1c0,0,0,0.1,0,0.1c0,0.1,0,0.1,0,0.1c0,0.1,0,0.1,0,0.2s0,0.1,0,0.2s0,0-0.1,0C61.8,107.8,61.8,107.8,61.8,107.8z
		 M63.4,108.3C63.5,108.4,63.4,108.4,63.4,108.3c-0.1,0.1-0.2,0-0.2,0s-0.1,0-0.1,0c0,0-0.1,0-0.1,0c-0.1,0-0.2,0-0.2,0
		c-0.1,0-0.2-0.1-0.2-0.1c-0.1,0-0.2,0-0.2,0s-0.1,0-0.1,0c0,0-0.1,0-0.1,0c0,0-0.1,0-0.1,0c0,0,0-0.1-0.1-0.1s-0.1,0-0.1,0
		c0,0-0.1,0-0.1,0s0.1-0.1,0.1-0.1c0,0,0-0.1,0-0.1s0.1,0,0.2,0s0.1,0,0.1,0c0.1,0,0.1,0,0.1,0c0,0,0.1,0.1,0.1,0.1s0,0,0.1,0.1
		c0.1,0,0.1,0,0.2,0c0.1,0,0.1-0.1,0.1-0.1c0,0,0.1,0,0.1,0c0,0,0,0,0.1,0s0.1,0.1,0.1,0.1c0.1,0,0.1,0,0.1,0c0.1,0,0.1,0,0.1,0
		c0.1,0,0.1,0,0.1,0c0,0-0.2,0.1-0.2,0.1c-0.1,0,0,0.1,0,0.1c0,0,0.1,0.1,0.1,0.1C63.3,108.3,63.3,108.3,63.4,108.3
		C63.5,108.2,63.4,108.3,63.4,108.3z M63.5,108.3C63.5,108.3,63.5,108.3,63.5,108.3c0.1-0.1,0.2-0.1,0.2,0c0,0-0.1,0.1-0.1,0.1
		C63.6,108.4,63.5,108.4,63.5,108.3z M68.5,113.8C68.5,113.8,68.5,113.8,68.5,113.8C68.5,113.7,68.6,113.8,68.5,113.8z M68.7,116.3
		C68.7,116.4,68.6,116.4,68.7,116.3C68.7,116.3,68.7,116.3,68.7,116.3z M69,114C69,114.1,69,114.1,69,114c-0.1,0.1-0.1,0.2-0.2,0.2
		c-0.1,0-0.1,0.1-0.1,0.1c-0.1,0-0.1,0-0.2-0.1c0-0.1,0-0.1,0-0.1c0-0.1,0-0.1,0-0.1c0,0,0-0.1,0-0.1c0,0,0.1-0.1,0.1,0
		c0,0,0.1,0,0.1,0.1c0.1,0,0.1,0,0.2,0S69,113.9,69,114C69.1,113.9,69.1,113.9,69,114z M69,113.8C69,113.7,69.1,113.8,69,113.8
		C69.1,113.9,69,113.8,69,113.8z M70.4,111.9c0,0,0,0.1,0,0.2s-0.1,0.1-0.1,0.2s-0.1,0.1-0.1,0.2c0,0.1-0.1,0.1-0.1,0.2
		c0,0,0,0.1-0.1,0.1c-0.1,0-0.1,0.1-0.2,0.1c0,0-0.1,0.1-0.1,0.1c0,0-0.1,0-0.1,0.1s-0.1,0.1-0.1,0.1c0,0-0.1,0.1-0.1,0.1
		c0,0,0,0.1-0.1,0.1s-0.2,0.1-0.2,0.1c-0.1,0-0.1,0-0.2,0.1c-0.1,0-0.2,0.1-0.2,0.1c0,0-0.1,0-0.1,0c0,0-0.1,0-0.2-0.1
		c-0.1,0-0.1,0-0.1,0.1c-0.1,0-0.1,0-0.1,0c0,0-0.1,0-0.1,0s-0.1,0-0.1,0c0,0-0.1,0-0.1,0s0,0-0.1-0.1c0,0-0.1,0-0.1-0.1
		c0,0,0-0.1,0-0.1s0,0,0-0.1s-0.1-0.1-0.1-0.1s-0.1,0-0.1,0.1c0,0-0.1,0-0.2,0s-0.1,0-0.1,0c0,0,0.1,0,0.1,0s0.1,0,0.1,0
		c0.1,0,0.1,0,0.1-0.1c0,0,0-0.1,0-0.1c0-0.1,0,0-0.1,0c0,0,0,0.1-0.1,0.1c0,0-0.1,0-0.1,0c-0.1,0-0.1,0-0.1,0c0,0,0.1,0,0.1-0.1
		c0,0,0-0.1,0-0.1c0-0.1,0,0,0.1-0.1s0-0.1,0-0.1s0,0,0.1-0.1c0,0,0,0,0,0c0,0,0,0-0.1,0c0,0,0,0.1-0.1,0.1s-0.1,0.1-0.1,0.1
		c-0.1,0-0.1,0-0.1,0.1c-0.1,0-0.1,0.1-0.1,0.1c0,0-0.1,0-0.1-0.1c0-0.1,0-0.1,0-0.1c0,0,0,0,0-0.1c0,0,0,0-0.1-0.1
		c-0.1,0,0-0.1,0-0.1c0,0,0,0-0.1-0.1c0,0-0.1,0-0.1,0c-0.1,0-0.1,0-0.1,0c0,0-0.1,0-0.1,0c0,0-0.1,0-0.1-0.1c0,0,0,0-0.1,0
		c0,0-0.1,0-0.1,0c-0.1,0-0.1,0-0.2,0c-0.1,0-0.2,0-0.3,0.1s-0.2,0-0.2,0s-0.1,0-0.2,0.1c-0.1,0.1-0.2,0.1-0.2,0.1c-0.1,0,0,0-0.1,0
		c0,0,0,0.1,0,0.1c0,0.1-0.1,0.1-0.2,0c-0.1,0-0.3,0-0.3,0c0,0-0.1,0-0.1,0c0,0-0.1,0.1-0.1,0.1c0,0-0.1,0-0.1,0.1
		c-0.1,0.1-0.2,0-0.2,0c-0.1,0-0.1,0-0.2-0.1c0,0-0.1-0.1-0.2-0.1s-0.1-0.1-0.1-0.1c0-0.1,0,0,0.1,0s0,0,0.1-0.1c0,0,0-0.1,0-0.1
		c0,0,0-0.1,0-0.1c0-0.1,0-0.1-0.1-0.1c-0.1-0.1-0.1-0.2-0.1-0.2s0-0.1-0.1-0.1c0,0-0.1-0.1-0.1-0.1c0,0-0.1-0.1-0.1-0.1
		c0,0,0-0.1,0-0.1c0,0-0.1-0.1-0.1-0.1c0,0,0-0.1,0-0.1s0,0,0.1,0c0,0,0,0,0-0.1c0,0-0.1-0.1-0.1-0.1c-0.1-0.1-0.1-0.1-0.1-0.2
		c0-0.1,0-0.1,0.1-0.1c0-0.1,0-0.1,0-0.1c0,0,0-0.1,0-0.1c0,0,0,0,0.1,0.1c0,0,0.1,0,0.1-0.1c0,0,0.1-0.1,0.1-0.1c0,0,0.1,0,0.1-0.1
		c0.1-0.1,0.1-0.1,0.2-0.1c0,0,0.1,0,0.1,0c0,0,0.1,0,0.1,0c0.1,0,0.1,0,0.1-0.1c0,0,0.1,0,0.1,0c0,0,0.1,0,0.1-0.1c0,0,0.1,0,0.1,0
		c0.1,0,0.1,0,0.2-0.1c0.1,0,0.1-0.1,0.2-0.2s0.1-0.1,0.1-0.1c0.1,0,0-0.1,0-0.1s0-0.1,0-0.1s0.1-0.1,0.1-0.1c0,0,0,0,0.1,0
		c0,0,0,0.1,0.1,0.1c0,0,0.1,0,0.1-0.1c0,0,0,0,0-0.1c0,0,0,0,0-0.1c0,0,0-0.1,0-0.1s0.1,0,0.1,0c0.1,0,0.1,0,0.1,0c0,0,0-0.1,0-0.1
		c0,0,0-0.1,0-0.1c0,0,0.1-0.1,0.1-0.1c0,0,0.1,0,0.1-0.1c0,0,0-0.1,0.1-0.1s0.1,0,0.1,0c0,0,0,0,0.1-0.1c0,0,0,0,0.1,0
		c0,0,0,0,0.1,0c0.1,0,0,0,0-0.1c0,0,0,0,0.1,0c0,0,0,0,0.1,0c0,0,0.1,0.1,0.1,0.1c0,0.1,0.1,0.1,0.2,0.1c0.1,0,0.2,0,0.2-0.1
		c0,0,0-0.1-0.1-0.1c0,0,0.1-0.1,0.1-0.1c0-0.1,0,0,0.1-0.1c0.1,0,0-0.1,0-0.1s0.1-0.1,0.2-0.1c0.1,0,0.1,0,0.1,0c0.1,0,0.1,0,0.2,0
		c0.1,0,0-0.1,0-0.1c0,0-0.1,0-0.1,0c-0.1,0,0,0,0-0.1c0,0,0.1,0,0.1,0c0,0,0.1,0,0.1,0.1c0,0,0.1,0,0.1,0s0.1,0,0.1,0.1
		c0.1,0,0.1,0,0.1,0.1s0,0,0.1,0c0,0,0,0,0.1,0c0.1,0,0.1,0.1,0.1,0.1c0,0,0,0,0-0.1c0,0,0,0,0.1,0c0.1,0,0,0,0,0.1
		c0,0-0.1,0.1-0.1,0.1c0,0.1-0.1,0-0.1,0.1c0,0,0,0.1,0,0.1c0,0,0,0.1-0.1,0.1c-0.1,0.1-0.1,0.1,0,0.1c0,0.1,0.1,0.1,0.2,0.1
		c0.1,0.1,0.1,0.1,0.2,0.1c0.1,0,0.1,0.1,0.1,0.1c0,0,0.1,0,0.2,0.1c0.1,0.1,0.1,0.1,0.2,0.1c0.1,0.1,0.1,0,0.1,0.1
		c0.1,0,0.1-0.1,0.1-0.2s0.1-0.1,0.1-0.2c0-0.1,0-0.2,0-0.3c0-0.1,0-0.1,0-0.2c0,0,0-0.1,0-0.1c0,0,0-0.1,0-0.1c0,0,0-0.1,0.1-0.1
		c0-0.1,0-0.1,0.1-0.2c0-0.1,0.1-0.1,0.1,0c0,0,0.1,0.2,0.1,0.2c0,0.1,0,0.1,0.1,0.1c0.1,0.1,0.1,0.2,0.1,0.2c0,0.1,0,0.2,0,0.2
		c0,0,0,0,0.1,0s0-0.1,0.1-0.1s0,0,0.1,0.1c0,0,0.1,0,0.1,0.1c0,0,0,0.1,0,0.2s0,0.1,0,0.1c0,0,0,0.1,0.1,0.1c0,0.1,0,0.1,0,0.2
		c0,0,0,0,0,0.1c0,0,0,0.1,0,0.1c0,0,0,0,0,0c0,0,0.1,0.1,0.1,0.1c0.1,0,0.1,0,0.1,0.1c0.1,0.1,0.1,0.1,0.1,0.1c0,0,0.1,0,0.1,0
		c0,0,0,0,0,0.1c0,0,0,0.1,0.1,0.1c0.1,0.1,0,0.1,0,0.1c0,0,0,0.1,0,0.1c0,0.1,0.1,0,0.1-0.1c0,0,0,0,0,0c0,0,0,0,0.1,0.1
		c0.1,0,0,0.1,0,0.1c0,0,0,0.1,0.1,0.1c0,0,0,0.1,0.1,0.1s0,0,0.1,0.1c0.1,0.1,0.1,0.1,0.1,0.1c0,0,0.1,0.1,0.1,0.1c0,0,0,0.2,0,0.2
		C70.4,111.8,70.4,111.9,70.4,111.9z M67.7,109.5C67.7,109.5,67.7,109.4,67.7,109.5C67.7,109.4,67.7,109.4,67.7,109.5
		C67.8,109.4,67.8,109.5,67.7,109.5z M70.4,115C70.4,115,70.4,115,70.4,115C70.4,114.9,70.5,115,70.4,115z M70.4,108.7
		C70.4,108.7,70.4,108.7,70.4,108.7c-0.1-0.1-0.1-0.1-0.1-0.1s0,0,0.1,0C70.4,108.6,70.4,108.6,70.4,108.7
		C70.4,108.7,70.5,108.7,70.4,108.7z M70.4,108.4C70.4,108.4,70.4,108.4,70.4,108.4C70.5,108.4,70.5,108.4,70.4,108.4z M70.6,107.8
		C70.5,107.8,70.5,107.9,70.6,107.8c-0.1,0.1-0.2,0.1-0.2,0.1s-0.2,0-0.2,0c0,0-0.1,0-0.1,0c0,0-0.1,0-0.1-0.1c0,0,0-0.1,0-0.1
		s0.2,0,0.2,0c0.1,0,0.1-0.1,0.1-0.1c0,0,0,0.1,0,0.1c0,0.1,0.1,0,0.1,0c0,0,0.1,0,0.1-0.1c0,0,0.1-0.1,0.1-0.1c0.1,0,0-0.1,0-0.1
		c0,0,0,0,0.1,0s0.1,0,0.1,0.1C70.7,107.7,70.6,107.7,70.6,107.8C70.6,107.7,70.6,107.7,70.6,107.8
		C70.7,107.8,70.6,107.8,70.6,107.8z M70.7,108.5C70.6,108.4,70.7,108.5,70.7,108.5C70.8,108.5,70.7,108.5,70.7,108.5z M70.9,109
		C70.8,109,70.8,109,70.9,109C70.8,108.9,70.8,108.9,70.9,109C70.9,109,70.9,109,70.9,109z M70.9,114.6
		C70.9,114.6,70.9,114.6,70.9,114.6C71,114.6,71,114.6,70.9,114.6z M72,113.8C72,113.8,72,113.9,72,113.8c-0.1,0.1-0.2,0.2-0.3,0.2
		c0,0,0,0.1-0.1,0.1c-0.1,0.1-0.1,0-0.1,0.1c-0.1,0-0.1,0.1-0.2,0.1c-0.1,0.1-0.2,0.2-0.3,0.2c-0.1,0-0.1,0-0.1,0s-0.1,0-0.1,0
		c0,0,0,0,0,0c0,0,0.1-0.1,0.1-0.1c0.1,0,0.2-0.1,0.2-0.1c0.1,0,0.3-0.2,0.3-0.2c0.1,0,0.2-0.2,0.2-0.2c0,0,0.1-0.1,0.1-0.1
		c0,0,0.1-0.1,0.1-0.1c0.1,0,0,0.1,0,0.1S72,113.8,72,113.8C72,113.8,72,113.8,72,113.8z M72,108.6C72,108.6,71.9,108.6,72,108.6
		c-0.2-0.1-0.1-0.1-0.1-0.1C71.9,108.5,71.9,108.6,72,108.6C72,108.6,72,108.6,72,108.6C72.1,108.6,72,108.7,72,108.6z M72.5,114.1
		C72.5,114.1,72.4,114.1,72.5,114.1C72.5,114.1,72.5,114.1,72.5,114.1z M72.7,113.3c0,0.1-0.1,0.1-0.1,0.2c0,0-0.1,0-0.1,0
		s-0.1,0.1-0.1,0.1c0,0-0.1,0.1-0.2,0.1c-0.1,0-0.1,0.1-0.1,0.1c0,0-0.1,0-0.1,0c0,0,0,0,0.1-0.1c0.1,0,0.1-0.1,0.1-0.1s0,0-0.1-0.1
		c0,0,0-0.1,0.1-0.1c0.1,0,0.1-0.1,0.2-0.2c0.1-0.1,0.1-0.2,0.1-0.2c0-0.1,0-0.1,0-0.1s0-0.1,0,0c0,0.1,0,0,0.1,0.1c0,0,0,0.1,0,0.1
		c0,0.1,0,0.1,0,0.1c0,0.1,0,0.1,0.1-0.1c0.1-0.1,0,0.1,0,0c0-0.1,0,0.1-0.1,0.1c0,0,0,0,0,0.1C72.5,113.4,72.5,113.4,72.7,113.3
		C72.7,113.2,72.7,113.3,72.7,113.3z M72.7,110.8C72.7,110.8,72.7,110.8,72.7,110.8C72.8,110.8,72.8,110.8,72.7,110.8z M72.8,109.6
		C72.8,109.6,72.8,109.6,72.8,109.6C72.8,109.6,72.8,109.6,72.8,109.6C72.9,109.7,72.9,109.7,72.8,109.6
		C72.8,109.7,72.8,109.7,72.8,109.6z M72.8,109.8C72.8,109.8,72.9,109.8,72.8,109.8C72.9,109.9,72.8,109.8,72.8,109.8z M72.9,110.1
		C72.9,110.1,72.9,110.1,72.9,110.1C72.9,110,73,110.1,72.9,110.1z M72.9,109.9C73,109.8,73,109.9,72.9,109.9
		C72.9,109.9,72.9,109.9,72.9,109.9z M73,110.3C73,110.3,72.9,110.2,73,110.3C73.1,110.2,73,110.3,73,110.3z"/>
	<path class="st1" d="M56.9,104.2c0-0.1,0-0.2,0.1-0.3C56.9,104,56.9,104.1,56.9,104.2z"/>
	<path class="st1" d="M67.9,116.6C67.9,116.6,67.8,116.6,67.9,116.6C67.8,116.6,67.9,116.6,67.9,116.6z"/>
	<path class="st1" d="M68.4,116.5C68.4,116.5,68.3,116.5,68.4,116.5C68.3,116.6,68.4,116.6,68.4,116.5z"/>
	<path class="st1" d="M66.9,116.7C66.8,116.7,66.8,116.7,66.9,116.7C66.8,116.7,66.9,116.7,66.9,116.7z"/>
	<path class="st1" d="M65.4,116.7C65.4,116.7,65.3,116.7,65.4,116.7C65.3,116.7,65.4,116.7,65.4,116.7z"/>
	<path class="st1" d="M67.4,116.7C67.4,116.7,67.3,116.7,67.4,116.7C67.3,116.7,67.4,116.7,67.4,116.7z"/>
	<path class="st1" d="M64.5,116.6c-0.1,0-0.1,0-0.2,0C64.3,116.6,64.4,116.6,64.5,116.6z"/>
	<path class="st1" d="M65.9,116.7c-0.1,0-0.1,0-0.1,0C65.8,116.7,65.9,116.7,65.9,116.7z"/>
	<path class="st1" d="M64,116.4c-0.1,0-0.1,0-0.2-0.1C63.9,116.4,63.9,116.4,64,116.4z"/>
</g>
</svg>
