<svg xmlns="http://www.w3.org/2000/svg" xmlns:xlink="http://www.w3.org/1999/xlink" viewBox="0 0 45.59 45.41"><defs><style>.cls-1{isolation:isolate;}.cls-2{fill:url(#linear-gradient);}.cls-3{fill:url(#linear-gradient-2);}.cls-4{opacity:0.25;fill:url(#linear-gradient-3);}.cls-5{mix-blend-mode:multiply;}.cls-6{fill:#fff;}.cls-7{fill:#f4f2f0;}.cls-8{fill:#ece8e6;}.cls-9{fill:#e5e0dd;}.cls-10{fill:#ded8d5;}.cls-11{fill:#d8d1cd;}.cls-12{fill:#d2cac5;}.cls-13{fill:#ccc3bd;}.cls-14{fill:#c6bcb6;}.cls-15{fill:#c1b6af;}.cls-16{fill:#bbafa8;}.cls-17{fill:#b6a9a2;}.cls-18{fill:#b1a39b;}.cls-19{fill:#ac9d95;}.cls-20{fill:#a6978e;}.cls-21{fill:#a19288;}.cls-22{fill:#9d8c83;}.cls-23{fill:#98877d;}.cls-24{fill:#938278;}.cls-25{fill:#8f7d73;}.cls-26{fill:#8a786e;}.cls-27{fill:#867369;}.cls-28{fill:url(#linear-gradient-4);}.cls-29{fill:url(#linear-gradient-5);}.cls-30{fill:url(#linear-gradient-6);}.cls-31{fill:#97795b;}.cls-32{fill:#9b7d61;}.cls-33{fill:#9f8266;}.cls-34{fill:#a3876c;}.cls-35{fill:#a78c71;}.cls-36{fill:#ab9177;}.cls-37{fill:#af967e;}.cls-38{fill:#b49c84;}.cls-39{fill:#b8a18b;}.cls-40{fill:#bca792;}.cls-41{fill:#c1ad99;}.cls-42{fill:#c5b3a1;}.cls-43{fill:#cab9a8;}.cls-44{fill:#cfbfb0;}.cls-45{fill:#d4c6b8;}.cls-46{fill:#d9ccc0;}.cls-47{fill:#ded3c9;}.cls-48{fill:#e3dad1;}.cls-49{fill:#e8e2db;}.cls-50{fill:#eeeae5;}.cls-51{fill:#f5f2ef;}</style><linearGradient id="linear-gradient" x1="23.95" y1="49.79" x2="23.95" y2="-23.26" gradientUnits="userSpaceOnUse"><stop offset="0.05" stop-color="#79797a"/><stop offset="0.56" stop-color="#404040"/><stop offset="1" stop-color="#393a3a"/></linearGradient><linearGradient id="linear-gradient-2" x1="23.96" y1="1.72" x2="23.96" y2="45.87" gradientUnits="userSpaceOnUse"><stop offset="0.05" stop-color="#575758"/><stop offset="0.25" stop-color="#525252"/><stop offset="0.56" stop-color="#404040"/><stop offset="1" stop-color="#393a3a"/></linearGradient><linearGradient id="linear-gradient-3" x1="23.96" y1="1.25" x2="23.96" y2="44.87" gradientUnits="userSpaceOnUse"><stop offset="0" stop-color="#fbf177"/><stop offset="0.88" stop-color="#fcbe70"/><stop offset="1" stop-color="#fcb76f"/></linearGradient><linearGradient id="linear-gradient-4" x1="23.96" y1="-14.62" x2="23.96" y2="92.73" gradientUnits="userSpaceOnUse"><stop offset="0.05" stop-color="#616262"/><stop offset="0.35" stop-color="#555a5a"/><stop offset="0.39" stop-color="#515656"/><stop offset="0.43" stop-color="#474a49"/><stop offset="0.46" stop-color="#3a3b3a"/></linearGradient><linearGradient id="linear-gradient-5" x1="23.96" y1="-6.11" x2="23.96" y2="95.94" gradientUnits="userSpaceOnUse"><stop offset="0.05" stop-color="#5c5d5d"/><stop offset="0.25" stop-color="#555757"/><stop offset="0.35" stop-color="#505353"/><stop offset="0.4" stop-color="#4d4f4f"/><stop offset="0.45" stop-color="#434342"/><stop offset="0.46" stop-color="#40403f"/><stop offset="0.56" stop-color="#3d3d3d"/><stop offset="1" stop-color="#393a3a"/></linearGradient><linearGradient id="linear-gradient-6" x1="23.96" y1="2.19" x2="23.96" y2="99.05" xlink:href="#linear-gradient-2"/></defs><title>red_on</title><g class="cls-1"><g id="Layer_1" data-name="Layer 1"><path class="cls-2" d="M24,46.07A22.71,22.71,0,1,1,46.74,23.36,22.75,22.75,0,0,1,24,46.07Z" transform="translate(-1.15 -0.66)"/><path class="cls-3" d="M46,23.41a22,22,0,1,1-22-22A22,22,0,0,1,46,23.41Z" transform="translate(-1.15 -0.66)"/><path class="cls-4" d="M46,23.41a22,22,0,1,1-22-22A22,22,0,0,1,46,23.41Z" transform="translate(-1.15 -0.66)"/><g class="cls-5"><path class="cls-6" d="M23.88,43.62A19.34,19.34,0,1,1,43.22,24.28,19.34,19.34,0,0,1,23.88,43.62Z" transform="translate(-1.15 -0.66)"/><path class="cls-7" d="M23.89,43.54a19.3,19.3,0,1,1,19.3-19.3A19.3,19.3,0,0,1,23.89,43.54Z" transform="translate(-1.15 -0.66)"/><path class="cls-8" d="M23.89,43.45A19.26,19.26,0,1,1,43.15,24.19,19.26,19.26,0,0,1,23.89,43.45Z" transform="translate(-1.15 -0.66)"/><path class="cls-9" d="M23.89,43.37A19.23,19.23,0,1,1,43.12,24.15,19.22,19.22,0,0,1,23.89,43.37Z" transform="translate(-1.15 -0.66)"/><path class="cls-10" d="M23.9,43.29A19.19,19.19,0,1,1,43.09,24.1,19.19,19.19,0,0,1,23.9,43.29Z" transform="translate(-1.15 -0.66)"/><path class="cls-11" d="M23.9,43.21A19.15,19.15,0,1,1,43.05,24.06,19.16,19.16,0,0,1,23.9,43.21Z" transform="translate(-1.15 -0.66)"/><path class="cls-12" d="M23.91,43.13A19.12,19.12,0,1,1,43,24,19.11,19.11,0,0,1,23.91,43.13Z" transform="translate(-1.15 -0.66)"/><path class="cls-13" d="M23.91,43A19.07,19.07,0,1,1,43,24,19.07,19.07,0,0,1,23.91,43Z" transform="translate(-1.15 -0.66)"/><path class="cls-14" d="M23.92,43a19,19,0,1,1,19-19A19,19,0,0,1,23.92,43Z" transform="translate(-1.15 -0.66)"/><path class="cls-15" d="M23.92,42.88a19,19,0,1,1,19-19A19,19,0,0,1,23.92,42.88Z" transform="translate(-1.15 -0.66)"/><path class="cls-16" d="M23.93,42.8a19,19,0,1,1,19-19A19,19,0,0,1,23.93,42.8Z" transform="translate(-1.15 -0.66)"/><path class="cls-17" d="M23.93,42.71A18.92,18.92,0,1,1,42.86,23.79,18.92,18.92,0,0,1,23.93,42.71Z" transform="translate(-1.15 -0.66)"/><path class="cls-18" d="M23.93,42.63A18.89,18.89,0,1,1,42.82,23.75,18.88,18.88,0,0,1,23.93,42.63Z" transform="translate(-1.15 -0.66)"/><path class="cls-19" d="M23.94,42.55A18.85,18.85,0,1,1,42.79,23.7,18.85,18.85,0,0,1,23.94,42.55Z" transform="translate(-1.15 -0.66)"/><path class="cls-20" d="M23.94,42.47A18.82,18.82,0,1,1,42.76,23.66,18.81,18.81,0,0,1,23.94,42.47Z" transform="translate(-1.15 -0.66)"/><path class="cls-21" d="M24,42.38A18.77,18.77,0,1,1,42.72,23.61,18.77,18.77,0,0,1,24,42.38Z" transform="translate(-1.15 -0.66)"/><path class="cls-22" d="M24,42.3A18.74,18.74,0,1,1,42.69,23.57,18.74,18.74,0,0,1,24,42.3Z" transform="translate(-1.15 -0.66)"/><path class="cls-23" d="M24,42.22a18.7,18.7,0,1,1,18.7-18.7A18.7,18.7,0,0,1,24,42.22Z" transform="translate(-1.15 -0.66)"/><path class="cls-24" d="M24,42.14A18.66,18.66,0,1,1,42.62,23.48,18.67,18.67,0,0,1,24,42.14Z" transform="translate(-1.15 -0.66)"/><path class="cls-25" d="M24,42.06A18.63,18.63,0,1,1,42.59,23.43,18.63,18.63,0,0,1,24,42.06Z" transform="translate(-1.15 -0.66)"/><path class="cls-26" d="M24,42A18.59,18.59,0,1,1,42.56,23.39,18.59,18.59,0,0,1,24,42Z" transform="translate(-1.15 -0.66)"/><path class="cls-27" d="M24,41.89A18.55,18.55,0,1,1,42.52,23.34,18.54,18.54,0,0,1,24,41.89Z" transform="translate(-1.15 -0.66)"/></g><path class="cls-28" d="M42.45,23.41A18.49,18.49,0,1,1,24,4.92,18.48,18.48,0,0,1,42.45,23.41Z" transform="translate(-1.15 -0.66)"/><path class="cls-29" d="M42.21,23.41A18.25,18.25,0,1,1,24,5.16,18.25,18.25,0,0,1,42.21,23.41Z" transform="translate(-1.15 -0.66)"/><path class="cls-30" d="M42,23.41a18,18,0,1,1-18-18A18,18,0,0,1,42,23.41Z" transform="translate(-1.15 -0.66)"/><g class="cls-5"><path class="cls-31" d="M24,45.36A22,22,0,1,1,46,23.36,22,22,0,0,1,24,45.36Z" transform="translate(-1.15 -0.66)"/><path class="cls-32" d="M24,45.33A21.94,21.94,0,1,1,46,23.39,22,22,0,0,1,24,45.33Z" transform="translate(-1.15 -0.66)"/><path class="cls-33" d="M24,45.29a21.87,21.87,0,1,1,22-21.87A21.92,21.92,0,0,1,24,45.29Z" transform="translate(-1.15 -0.66)"/><path class="cls-34" d="M24,45.26A21.81,21.81,0,1,1,45.9,23.45,21.87,21.87,0,0,1,24,45.26Z" transform="translate(-1.15 -0.66)"/><path class="cls-35" d="M24,45.22A21.75,21.75,0,1,1,45.86,23.48,21.8,21.8,0,0,1,24,45.22Z" transform="translate(-1.15 -0.66)"/><path class="cls-36" d="M24,45.19A21.69,21.69,0,1,1,45.81,23.5,21.76,21.76,0,0,1,24,45.19Z" transform="translate(-1.15 -0.66)"/><path class="cls-37" d="M24,45.15A21.62,21.62,0,1,1,45.77,23.53,21.69,21.69,0,0,1,24,45.15Z" transform="translate(-1.15 -0.66)"/><path class="cls-38" d="M24,45.12A21.56,21.56,0,1,1,45.73,23.56,21.64,21.64,0,0,1,24,45.12Z" transform="translate(-1.15 -0.66)"/><path class="cls-39" d="M24,45.09a21.5,21.5,0,1,1,21.67-21.5A21.6,21.6,0,0,1,24,45.09Z" transform="translate(-1.15 -0.66)"/><path class="cls-40" d="M24,45.05A21.44,21.44,0,1,1,45.64,23.62,21.53,21.53,0,0,1,24,45.05Z" transform="translate(-1.15 -0.66)"/><path class="cls-41" d="M24,45A21.38,21.38,0,1,1,45.6,23.64,21.48,21.48,0,0,1,24,45Z" transform="translate(-1.15 -0.66)"/><path class="cls-42" d="M24,45A21.31,21.31,0,1,1,45.55,23.67,21.42,21.42,0,0,1,24,45Z" transform="translate(-1.15 -0.66)"/><path class="cls-43" d="M24,45A21.25,21.25,0,1,1,45.51,23.7,21.36,21.36,0,0,1,24,45Z" transform="translate(-1.15 -0.66)"/><path class="cls-44" d="M24.05,44.91A21.19,21.19,0,1,1,45.47,23.73,21.3,21.3,0,0,1,24.05,44.91Z" transform="translate(-1.15 -0.66)"/><path class="cls-45" d="M24.06,44.88A21.25,21.25,0,0,1,2.69,23.75a21.37,21.37,0,0,1,42.73,0A21.24,21.24,0,0,1,24.06,44.88Z" transform="translate(-1.15 -0.66)"/><path class="cls-46" d="M24.06,44.85A21.19,21.19,0,0,1,2.75,23.78,21.19,21.19,0,0,1,24.06,2.72,21.19,21.19,0,0,1,45.38,23.78,21.19,21.19,0,0,1,24.06,44.85Z" transform="translate(-1.15 -0.66)"/><path class="cls-47" d="M24.07,44.81a21.13,21.13,0,0,1-21.26-21,21.13,21.13,0,0,1,21.26-21,21.13,21.13,0,0,1,21.27,21A21.13,21.13,0,0,1,24.07,44.81Z" transform="translate(-1.15 -0.66)"/><path class="cls-48" d="M24.08,44.78A21.08,21.08,0,0,1,2.87,23.84,21.07,21.07,0,0,1,24.08,2.9,21.08,21.08,0,0,1,45.29,23.84,21.08,21.08,0,0,1,24.08,44.78Z" transform="translate(-1.15 -0.66)"/><path class="cls-49" d="M24.09,44.74A21,21,0,0,1,2.93,23.87,21,21,0,0,1,24.09,3,21,21,0,0,1,45.25,23.87,21,21,0,0,1,24.09,44.74Z" transform="translate(-1.15 -0.66)"/><path class="cls-50" d="M24.1,44.71A21,21,0,0,1,3,23.89,21,21,0,0,1,24.1,3.08,21,21,0,0,1,45.21,23.89,21,21,0,0,1,24.1,44.71Z" transform="translate(-1.15 -0.66)"/><path class="cls-51" d="M24.1,44.67a20.9,20.9,0,0,1-21-20.75A20.9,20.9,0,0,1,24.1,3.17,20.91,20.91,0,0,1,45.16,23.92,20.91,20.91,0,0,1,24.1,44.67Z" transform="translate(-1.15 -0.66)"/><path class="cls-6" d="M24.11,44.64A20.84,20.84,0,0,1,3.11,24a20.84,20.84,0,0,1,21-20.69A20.85,20.85,0,0,1,45.12,24,20.85,20.85,0,0,1,24.11,44.64Z" transform="translate(-1.15 -0.66)"/></g></g></g></svg>