<?xml version="1.0" encoding="utf-8"?>
<!-- Generator: Adobe Illustrator 16.0.3, SVG Export Plug-In . SVG Version: 6.00 Build 0)  -->
<!DOCTYPE svg PUBLIC "-//W3C//DTD SVG 1.1//EN" "http://www.w3.org/Graphics/SVG/1.1/DTD/svg11.dtd">
<svg version="1.1" id="Layer_1" xmlns="http://www.w3.org/2000/svg" xmlns:xlink="http://www.w3.org/1999/xlink" x="0px" y="0px"
	 width="1000px" height="1000px" viewBox="0 0 1000 1000" enable-background="new 0 0 1000 1000" xml:space="preserve">
<path fill="none" d="M100,383.334c0,26.666,21.666,50,50,50h50h33.334H300c36.666,0,66.666,30,66.666,66.666
	s-30,66.666-66.666,66.666h-50h-33.334H200c-26.666,0-50,21.666-50,50s23.334,50,50,50h50h133.334h433.334
	c91.666,0,166.666-75,166.666-166.666s-75-166.666-166.666-166.666H383.334h-150H150C121.666,333.334,100,356.666,100,383.334"/>
<path fill="none" d="M816.666,400c55,0,100,45,100,100s-45,100-100,100s-100-45-100-100S761.666,400,816.666,400"/>
<path fill="#FEE8A3" d="M816.666,616.666C751.666,616.666,700,565,700,500s51.666-116.666,116.666-116.666S933.334,435,933.334,500
	S881.666,616.666,816.666,616.666z M816.666,416.666c-46.666,0-83.334,36.666-83.334,83.334s36.666,83.334,83.334,83.334
	C863.332,583.334,900,546.668,900,500S863.334,416.666,816.666,416.666z"/>
<path fill="#FEE8A3" d="M833.334,483.334c10,0,16.666,6.666,16.666,16.666s-6.666,16.666-16.666,16.666S816.668,510,816.668,500
	S823.334,483.334,833.334,483.334"/>
<path fill="#FEE8A3" d="M883.334,450c10,0,16.666,6.666,16.666,16.666s-6.666,16.666-16.666,16.666s-16.666-6.666-16.666-16.666
	C866.666,456.666,873.334,450,883.334,450"/>
<path fill="#FEE8A3" d="M883.334,516.666c10,0,16.666,6.666,16.666,16.666s-6.666,16.666-16.666,16.666s-16.666-6.666-16.666-16.666
	S873.334,516.666,883.334,516.666"/>
<path fill="#FEE8A3" d="M833.334,416.666c10,0,16.666,6.666,16.666,16.666s-6.666,16.666-16.666,16.666s-16.666-6.666-16.666-16.666
	C816.666,423.334,823.334,416.666,833.334,416.666"/>
<path fill="#FEE8A3" d="M833.334,550c10,0,16.666,6.666,16.666,16.666s-6.666,16.666-16.666,16.666s-16.666-6.666-16.666-16.666
	C816.666,556.666,823.334,550,833.334,550"/>
<path fill="#FEE8A3" d="M816.666,683.334H200c-36.666,0-66.666-30-66.666-66.666s30-66.666,66.666-66.666h100
	c28.334,0,50-21.666,50-50s-21.666-50-50-50H150c-36.666,0-66.666-30-66.666-66.666s30-66.666,66.666-66.666h666.666
	C918.334,316.666,1000,398.334,1000,500S918.334,683.334,816.666,683.334z M200,583.334c-18.334,0-33.334,15-33.334,33.334
	s15,33.334,33.334,33.334h616.666c83.334,0,150-66.666,150-150s-66.666-150-150-150H150c-18.334,0-33.334,15-33.334,33.334
	s15,33.334,33.334,33.334h150c46.666,0,83.334,36.666,83.334,83.334S346.668,583.338,300,583.338H200V583.334z"/>
<path fill="#FEE8A3" d="M533.334,483.334c10,0,16.666,6.666,16.666,16.666s-6.666,16.666-16.666,16.666S516.668,510,516.668,500
	S523.334,483.334,533.334,483.334"/>
<path fill="#FEE8A3" d="M466.666,516.666h-33.334c-10,0-16.666-6.666-16.666-16.666s6.666-16.666,16.666-16.666h33.334
	c10,0,16.666,6.666,16.666,16.666S476.666,516.666,466.666,516.666z"/>
<path fill="#FEE8A3" d="M650,516.666h-50c-10,0-16.666-6.666-16.666-16.666S590,483.334,600,483.334h50
	c10,0,16.666,6.666,16.666,16.666S660,516.666,650,516.666z"/>
<path fill="#FEE8A3" d="M533.334,433.334H400c-10,0-16.666-6.666-16.666-16.666S390,400.002,400,400.002h133.334
	c10,0,16.666,6.666,16.666,16.666C550,426.666,543.334,433.334,533.334,433.334z"/>
<path fill="#FEE8A3" d="M633.334,433.334H600c-10,0-16.666-6.666-16.666-16.666S590,400.002,600,400.002h33.334
	c10,0,16.666,6.666,16.666,16.666C650,426.666,643.334,433.334,633.334,433.334z"/>
<path fill="#FEE8A3" d="M633.334,600H500c-10,0-16.666-6.666-16.666-16.666S490,566.668,500,566.668h133.334
	c10,0,16.666,6.666,16.666,16.666S643.334,600,633.334,600z"/>
<path fill="#FEE8A3" d="M433.334,600H400c-10,0-16.666-6.666-16.666-16.666S390,566.668,400,566.668h33.334
	c10,0,16.666,6.666,16.666,16.666S443.334,600,433.334,600z"/>
<path fill="#FEE8A3" d="M866.666,100c0,10-6.666,16.666-16.666,16.666S833.334,110,833.334,100S840,83.334,850,83.334
	S866.666,90,866.666,100"/>
<path fill="#FEE8A3" d="M566.666,816.666c0,10-6.666,16.666-16.666,16.666s-16.666-6.666-16.666-16.666S540,800,550,800
	S566.666,806.666,566.666,816.666"/>
<path fill="#FEE8A3" d="M350,200c0,10-6.666,16.666-16.666,16.666S316.668,210,316.668,200s6.666-16.666,16.666-16.666
	S350,190,350,200"/>
<path fill="#FEE8A3" d="M36.334,883.334c0,10-6.666,16.666-16.666,16.666S3,893.334,3,883.334s6.666-16.666,16.666-16.666
	S36.334,873.334,36.334,883.334"/>
<path fill="#FEE8A3" d="M186.334,83.334h-26.666l-40.002-40.002V16.666C119.666,6.666,113,0,103,0S86.334,6.666,86.334,16.666
	v26.666L46.332,83.334H19.666C9.666,83.334,3,90,3,100s6.666,16.666,16.666,16.666h26.666l40.002,40.002v26.666
	C86.334,193.334,93,200,103,200s16.666-6.666,16.666-16.666v-26.666l40.002-40.002h26.666c10,0,16.666-6.666,16.666-16.666
	S196.334,83.334,186.334,83.334z M103,126.666L76.334,100L103,73.334L129.666,100L103,126.666z"/>
<path fill="#FEE8A3" d="M916.666,1000c-10,0-16.666-6.666-16.666-16.666c0-28.334-21.666-50-50-50c-10,0-16.666-6.666-16.666-16.666
	S840,900.002,850,900.002c28.334,0,50-21.666,50-50c0-10,6.666-16.666,16.666-16.666s16.666,6.666,16.666,16.666
	c0,28.334,21.666,50,50,50c10,0,16.666,6.666,16.666,16.666s-6.666,16.666-16.666,16.666c-28.334,0-50,21.666-50,50
	C933.334,993.334,926.666,1000,916.666,1000z M900,916.666c6.666,5,11.666,10,16.666,16.666c5-6.666,10-11.666,16.666-16.666
	c-6.666-5-11.666-10-16.666-16.666C911.666,906.666,906.666,911.666,900,916.666z"/>
</svg>
