<?xml version="1.0" encoding="utf-8"?>
<!-- Generator: Adobe Illustrator 16.0.3, SVG Export Plug-In . SVG Version: 6.00 Build 0)  -->
<!DOCTYPE svg PUBLIC "-//W3C//DTD SVG 1.1//EN" "http://www.w3.org/Graphics/SVG/1.1/DTD/svg11.dtd">
<svg version="1.1" id="Layer_1" xmlns="http://www.w3.org/2000/svg" xmlns:xlink="http://www.w3.org/1999/xlink" x="0px" y="0px"
	 width="1000px" height="1000px" viewBox="0 0 1000 1000" enable-background="new 0 0 1000 1000" xml:space="preserve">
<path fill="none" d="M904.928,686.381L904.928,686.381c-10.826-24.523-39.483-35.623-64.006-24.797l-192.523,88.363l-22.631-7.146
	c18.486-0.732,35.481-12.613,41.826-31.16c8.116-23.725-4.206-49.586-27.743-58.229l-163.662-60.104
	c-45.108-16.566-94.886-14.977-138.846,4.436l-99.657,44.002l74.259,168.184l16.812-7.424
	c39.643-17.504,85.016-16.475,123.826,2.807l81.386,40.434c38.81,19.281,84.183,20.309,123.826,2.807l222.334-98.166
	C904.652,739.561,915.755,710.902,904.928,686.381z"/>
<path fill="none" d="M94.406,673.321l-0.778,277.378l200.996-101.538c12.199-5.387,17.722-19.641,12.335-31.838l-78.131-176.958
	c-5.387-12.199-19.642-17.722-31.839-12.335L94.406,673.321z"/>
<circle fill="#D36447" cx="209.27" cy="796.153" r="16.843"/>
<path fill="#D36447" d="M920.334,679.578c-14.562-32.975-53.237-47.961-86.213-33.402c-0.084,0.037-0.169,0.076-0.251,0.113
	l-108.646,50.104c-8.447,3.896-12.137,13.902-8.241,22.348c3.896,8.449,13.898,12.135,22.348,8.244l108.501-50.039
	c15.963-6.979,34.646,0.289,41.689,16.24c3.419,7.746,3.618,16.357,0.561,24.25c-3.057,7.893-9.007,14.125-16.753,17.543
	l-222.334,98.166c-35.173,15.533-75.094,14.631-109.529-2.48l-81.387-40.434c-43.421-21.574-93.767-22.713-138.121-3.131
	l-1.405,0.623l-60.652-137.371l84.248-37.197c40.177-17.744,85.013-19.176,126.237-4.033l163.662,60.102
	c14.823,5.443,22.724,22.029,17.612,36.969c-5.21,15.225-21.85,23.414-37.089,18.262L488.01,681.643
	c-8.812-2.982-18.37,1.746-21.351,10.559s1.747,18.369,10.558,21.352l126.561,42.807c6.652,2.25,13.422,3.318,20.089,3.318
	c26.19,0,50.737-16.488,59.664-42.582c10.989-32.125-5.999-67.785-37.87-79.49L482,577.502
	c-49.464-18.166-103.25-16.447-151.456,4.836l-84.82,37.451c-4.802-7.313-11.704-12.967-20.022-16.188
	c-10.548-4.09-22.053-3.824-32.399,0.746L84.958,652.182c-6.086,2.689-10.021,8.709-10.04,15.361l-0.822,292.959
	c-0.017,5.859,3.013,11.305,7.999,14.381c2.701,1.668,5.77,2.51,8.845,2.51c2.597,0,5.199-0.6,7.594-1.809l211.944-107.068
	c10.127-4.607,17.903-12.844,21.93-23.236c3.333-8.6,3.771-17.836,1.342-26.563l1.812-0.801
	c35.175-15.531,75.095-14.627,109.53,2.482l81.386,40.436c43.424,21.572,93.768,22.709,138.121,3.127l222.334-98.166
	C919.912,751.232,934.896,712.557,920.334,679.578z M300.998,833.109c-0.835,2.156-2.461,3.857-4.576,4.793
	c-0.268,0.117-188.564,95.232-188.564,95.232l0.204-72.41l48.785-23.957c8.35-4.1,11.794-14.193,7.693-22.541
	c-4.1-8.352-14.193-11.795-22.542-7.695l-33.833,16.613l0.406-144.564l98.335-43.418c2.115-0.932,4.468-0.988,6.624-0.154
	c2.157,0.836,3.86,2.463,4.793,4.578l82.521,186.9C301.779,828.6,301.833,830.955,300.998,833.109z"/>
<g>
	<path fill="#D36447" d="M603.425,217.272c0-5.638,0.549-11.149,1.551-16.502h-44.011c-7.558-34.601-38.356-60.509-75.222-60.509
		c-42.53,0-77.012,34.479-77.012,77.011c0,42.531,34.482,77.015,77.012,77.015c36.866,0,67.665-25.913,75.222-60.512h44.032
		C603.974,228.4,603.425,222.884,603.425,217.272 M485.743,267.705c-27.851,0-50.431-22.578-50.431-50.431
		c0-27.854,22.58-50.433,50.431-50.433c27.853,0,50.433,22.579,50.433,50.433C536.176,245.126,513.596,267.705,485.743,267.705"/>
	<path fill="#D36447" d="M900.281,140.261c-36.862,0-67.663,25.909-75.221,60.509h-44.014h-53.968h-68.132
		c-2.429,4.992-3.793,10.588-3.793,16.502s1.364,11.511,3.793,16.503h68.132h53.948h44.033
		c7.558,34.599,38.358,60.511,75.221,60.511c42.533,0,77.015-34.481,77.015-77.014C977.296,174.74,942.814,140.261,900.281,140.261
		 M900.281,267.705c-27.851,0-50.43-22.578-50.43-50.431c0-27.854,22.579-50.433,50.43-50.433c27.855,0,50.434,22.579,50.434,50.433
		C950.715,245.126,928.137,267.705,900.281,267.705"/>
	<path fill="#D36447" d="M709.518,412.79v-34.275v-44.79v-41.231c24.941-5.448,45.363-22.976,54.823-46.146h-30.132
		c-9.134,12.916-24.175,21.355-41.196,21.355c-27.853,0-50.431-22.578-50.431-50.431c0-27.854,22.578-50.432,50.431-50.432
		c17.021,0,32.063,8.441,41.196,21.356h30.123c-11.479-28.114-39.076-47.935-71.317-47.935c-42.532,0-77.012,34.479-77.012,77.011
		c0,36.864,25.908,67.663,60.509,75.223v41.23v44.791v34.274c-34.601,7.558-60.509,38.356-60.509,75.222
		c0,42.534,34.479,77.013,77.012,77.013s77.013-34.479,77.013-77.013C770.026,451.145,744.116,420.346,709.518,412.79
		 M693.013,538.445c-27.853,0-50.431-22.583-50.431-50.434c0-27.853,22.578-50.432,50.431-50.432
		c27.854,0,50.433,22.579,50.433,50.432C743.445,515.862,720.866,538.445,693.013,538.445"/>
	<path fill="#D36447" d="M522.077,192.925l-1.304,0.424l-6.979,0.611l-1.958,3.145l-1.431-0.449l-5.547-5.007l-0.818-2.596
		l-1.07-2.774l-3.483-3.129l-4.121-0.803l-0.094,1.876l4.039,3.931l1.97,2.326l-2.213,1.156l-1.813-0.529l-2.704-1.127l0.095-2.177
		l-3.546-1.454l-1.186,5.123l-3.578,0.805l0.354,2.869l4.667,0.897l0.801-4.571l3.849,0.563l1.779,1.042h2.87l1.973,3.93
		l5.193,5.294l-0.38,2.055l-4.188-0.549l-7.264,3.673l-5.221,6.258l-0.683,2.772h-1.875l-3.483-1.603l-3.4,1.603l0.844,3.577
		l1.483-1.699l2.598-0.084l-0.191,3.223l2.148,0.627l2.15,2.406l3.508-0.977l4.012,0.627l4.653,1.249l2.325,0.27l3.932,4.474
		l7.602,4.479l-4.909,9.382l-5.193,2.418l-1.977,5.36l-7.504,5.021l-0.803,2.896c19.202-4.624,33.485-21.873,33.485-42.487
		C529.489,208.271,526.756,199.88,522.077,192.925"/>
	<path fill="#D36447" d="M490.77,240.136l-3.182-5.902l2.925-6.094l-2.925-0.884l-3.28-3.295l-7.277-1.629l-2.422-5.059v3.004
		h-1.059l-6.268-8.503v-6.988l-4.6-7.467l-7.298,1.306h-4.909l-2.477-1.632l3.154-2.486l-3.141,0.72
		c-3.793,6.473-6.013,13.994-6.013,22.046c0,24.153,19.585,43.752,43.739,43.752c1.865,0,3.687-0.167,5.496-0.382l-0.463-5.305
		c0,0,2.012-7.875,2.012-8.132C492.782,246.935,490.77,240.136,490.77,240.136"/>
	<path fill="#D36447" d="M458.25,187.625l7.779-1.076l3.577-1.973l4.037,1.17l6.435-0.368l2.199-3.467l3.228,0.532l7.804-0.723
		l2.148-2.38l3.047-2.026l4.286,0.64l1.578-0.233c-5.66-2.664-11.958-4.203-18.634-4.203c-13.571,0-25.718,6.192-33.726,15.916
		h0.012L458.25,187.625z M487.587,177.873l4.473-2.46l2.869,1.661l-4.16,3.154l-3.958,0.407l-1.784-1.17L487.587,177.873z
		 M474.353,178.227l1.971,0.829l2.588-0.829l1.398,2.449l-5.958,1.563l-2.868-1.687
		C471.484,180.552,474.285,178.759,474.353,178.227"/>
	<path fill="#D36447" d="M693.013,65.561c66.499,0,125.821,31.302,164.011,79.947c10.337-6.412,22.163-10.648,34.841-12.082
		c-44.17-62.298-116.84-103.039-198.852-103.039c-81.953,0-154.581,40.681-198.759,102.908c12.766,1.279,24.692,5.401,35.137,11.725
		C567.591,96.655,626.737,65.561,693.013,65.561"/>
	<path fill="#D36447" d="M612.61,466.282c-66.977-28.11-116.275-90.227-126.186-164.625c-0.231,0.001-0.454,0.017-0.682,0.017
		c-12.692,0-24.72-2.819-35.522-7.837c7.858,96.964,72.741,178.054,160.985,209.611c-0.928-5.008-1.434-10.16-1.434-15.437
		C609.771,480.495,610.767,473.216,612.61,466.282"/>
	<path fill="#D36447" d="M899.609,301.628c-9.802,73.643-58.196,135.249-124.123,163.766c2,7.2,3.09,14.777,3.09,22.615
		c0,4.962-0.452,9.817-1.274,14.544c86.815-32.117,150.475-112.359,158.455-208.173c-10.488,4.673-22.092,7.293-34.313,7.293
		C900.827,301.674,900.22,301.64,899.609,301.628"/>
	<path fill="#D36447" d="M759.424,435.392c5.098,6.435,9.276,13.598,12.359,21.27c62.586-27.067,108.621-85.365,118.35-155.141
		c-8.297-1.014-16.282-3.258-23.754-6.548C858.694,358.598,816.661,411.78,759.424,435.392"/>
	<path fill="#D36447" d="M554.556,167.749c31.94-41.574,82.14-68.427,138.503-68.427c56.333,0,106.51,26.827,138.456,68.366
		c4.857-6.688,10.656-12.621,17.178-17.629C812.201,104.3,756,74.918,693.056,74.918c-62.964,0-119.181,29.399-155.672,75.186
		C543.905,155.116,549.7,161.055,554.556,167.749"/>
	<path fill="#D36447" d="M519.734,294.935c-7.469,3.301-15.455,5.555-23.748,6.577c9.719,69.748,55.719,128.035,118.269,155.117
		c3.087-7.67,7.268-14.832,12.368-21.264C569.41,411.734,527.401,358.549,519.734,294.935"/>
	<path fill="#D36447" d="M943.028,214.991c-0.07-0.095-0.032-0.206-0.032-0.309c-0.004-0.902-0.038-1.801-0.148-2.699
		c-0.313-2.555-0.854-5.057-1.624-7.512c-1.097-3.511-2.631-6.821-4.578-9.941c-1.734-2.782-3.79-5.314-6.101-7.64
		c-0.732-0.737-1.504-1.446-2.3-2.124c-2.424-2.067-5.035-3.86-7.842-5.356c-2.595-1.384-5.311-2.494-8.141-3.301
		c-0.413-0.118-0.828-0.23-1.241-0.337c-0.052-0.013-0.108-0.027-0.162-0.042c-2.49-0.635-5.011-1.075-7.595-1.178
		c-0.481-0.017-0.97,0.034-1.449-0.06h-3.064c-0.072,0.063-0.161,0.033-0.238,0.035c-0.972,0.01-1.944,0.043-2.912,0.146
		c-0.95,0.097-1.897,0.233-2.834,0.401c-0.021,0.003-0.038,0.006-0.063,0.011c-1.049,0.188-2.091,0.416-3.123,0.682
		c-3.623,0.928-7.058,2.322-10.315,4.157c-0.569,0.322-1.132,0.661-1.684,1.004c-0.028,0.009-0.053,0.028-0.074,0.049
		c-0.052,0.033-0.104,0.063-0.156,0.097c-0.095,0.035-0.171,0.105-0.258,0.162c-0.063,0.038-0.123,0.078-0.186,0.121
		c-0.297,0.194-0.59,0.391-0.884,0.594c-1.828,1.256-3.55,2.646-5.176,4.17c-1.231,1.154-2.38,2.391-3.461,3.689
		c-2.574,3.097-4.691,6.48-6.32,10.167c-1.356,3.067-2.341,6.249-2.931,9.549c-0.32,1.779-0.587,3.56-0.601,5.373
		c0,0.041,0,0.082,0,0.122c0.079-1.524,0.235-3.041,0.476-4.55c0.005-0.035,0.008-0.074,0.018-0.109
		c0.007-0.036,0.022-0.077,0.067-0.067c0.035,0.004,0.078,0.023,0.092,0.049c0.025,0.055,0.058,0.126,0.04,0.175
		c-0.133,0.385-0.04,0.78-0.084,1.169c-0.005,0.048,0.016,0.106-0.005,0.148c-0.155,0.344-0.068,0.702-0.032,1.049
		c0.063,0.534-0.056,1.067,0,1.598c0.02,0.172,0.034,0.346,0.045,0.519c0.007,0.118,0.034,0.233,0.1,0.314
		c0.349,0.426,0.407,0.946,0.513,1.45c0.124,0.585,0.167,1.176,0.167,1.774c0.003,0.383,0.024,0.768,0.133,1.135
		c0.085,0.288-0.062,0.534-0.088,0.802c-0.175,0.17-0.262,0.366-0.181,0.619c0.033,0.103,0.044,0.219-0.091,0.281
		c-0.068,0.032-0.149,0.075-0.071,0.162c0.077,0.083,0.123-0.009,0.179-0.046c0.097-0.061,0.11-0.15,0.114-0.253
		c0.007-0.078-0.028-0.174,0.076-0.224c0.11,0.012,0.104,0.167,0.213,0.183c0.266,0.229,0.185,0.509,0.138,0.795
		c-0.023,0.147-0.102,0.214-0.241,0.223c0.044,0.091,0.093,0.173,0.137,0.257c0.087-0.136,0.196-0.256,0.187-0.446
		c-0.002-0.134,0.091-0.157,0.196-0.067c0.083,0.067,0.118,0.158,0.161,0.247c0.163,0.318,0.305,0.644,0.489,0.956
		c0.125,0.208,0.17,0.46,0.153,0.707c-0.015,0.163,0.036,0.246,0.195,0.223c0.146-0.024,0.206,0.06,0.258,0.161
		c0.175,0.307,0.385,0.563,0.724,0.703c0.128,0.053,0.198,0.189,0.271,0.305c0.2,0.327,0.402,0.657,0.556,1.009
		c0.123,0.284,0.282,0.552,0.436,0.817c0.082,0.141,0.187,0.279,0.344,0.332c0.217,0.078,0.313,0.246,0.362,0.438
		c0.166,0.623,0.347,1.247,0.375,1.893c0.021,0.516-0.113,1.003-0.419,1.434c-0.121,0.169-0.146,0.358-0.156,0.563
		c-0.012,0.236,0.044,0.493-0.209,0.67c-0.086,0.061-0.047,0.21-0.023,0.321c0.059,0.23,0.102,0.462,0.175,0.682
		c0.208,0.577,0.323,1.171,0.454,1.765c0.026,0.109,0.046,0.214,0.034,0.328c-0.018,0.147,0.012,0.294,0.068,0.435
		c0.116,0.291,0.18,0.593,0.182,0.904c0,0.248,0.019,0.497,0.136,0.723c0.086,0.171-0.138,0.3-0.02,0.463
		c-0.166,0.015-0.207-0.144-0.318-0.146c-0.108,0-0.147-0.227-0.249-0.106c-0.103,0.118-0.317,0.166-0.256,0.421
		c0.058,0.232,0.12,0.452,0.232,0.661c0.213,0.396,0.429,0.785,0.633,1.179c0.063,0.116,0.144,0.231,0.123,0.4
		c-0.105-0.047-0.136-0.141-0.185-0.214c-2.535-4.031-4.4-8.348-5.512-12.984c-0.446-1.844-0.756-3.714-0.952-5.606
		c-0.091-0.917-0.155-1.833-0.188-2.749c0,0.014,0,0.03,0,0.045c0.043,0.898,0.056,1.799,0.144,2.7
		c0.203,2.098,0.563,4.166,1.088,6.204c0.928,3.605,2.274,7.046,4.1,10.301c2.057,3.662,4.572,6.956,7.588,9.879
		c1.558,1.509,3.205,2.899,4.964,4.163c2.294,1.647,4.729,3.05,7.303,4.21c2.664,1.198,5.419,2.128,8.272,2.749
		c1.938,0.423,3.886,0.771,5.882,0.848c0.443,0.019,0.896-0.027,1.338,0.062h4.28c0.084-0.066,0.182-0.033,0.275-0.033
		c1.081,0,2.153-0.079,3.227-0.221c3.455-0.462,6.805-1.319,10.045-2.6c2.604-1.028,5.083-2.299,7.44-3.813
		c2.366-1.52,4.56-3.258,6.587-5.203c1.512-1.446,2.9-3.006,4.18-4.663c2.046-2.641,3.763-5.479,5.143-8.522
		c1.203-2.648,2.146-5.385,2.766-8.227c0.4-1.857,0.76-3.722,0.844-5.63c0.026-0.505-0.032-1.016,0.062-1.518L943.028,214.991
		L943.028,214.991z M895.13,176.455c0.066,0.047,0.008,0.19-0.078,0.253c-0.2,0.146-0.414,0.302-0.677,0.251
		c-0.398-0.073-0.803-0.001-1.2-0.072c-0.226-0.041-0.446,0-0.679-0.104c-0.203-0.097-0.456,0.081-0.701,0.067
		c-0.104-0.007-0.206-0.011-0.311-0.021c-0.205-0.014-0.421-0.11-0.633,0.028c-0.113,0.077-0.253,0.045-0.386,0.008
		c0.229-0.067,0.257-0.356,0.488-0.416c0.142-0.015,0.222-0.065,0.129-0.219c0.023-0.016,0.042-0.02,0.067-0.016
		c0.123-0.014,0.134,0.144,0.24,0.154c0.369,0.044,0.736,0.106,1.04-0.21c0.071-0.077,0.235-0.065,0.354-0.096
		c0.104,0.021,0.217,0.016,0.323-0.001c0.429-0.132,0.864-0.168,1.31-0.12c-0.053,0.098-0.136,0.124-0.241,0.131
		c-0.095,0.002-0.2-0.024-0.272,0.068l0.01,0.009c-0.004-0.004-0.01-0.009-0.01-0.009c-0.141-0.029-0.263,0.04-0.391,0.074
		c-0.063,0.017-0.104,0.049-0.118,0.119c-0.017,0.091,0.033,0.138,0.097,0.18c0.073,0.05,0.115,0.042,0.284-0.043
		c-0.052-0.036-0.213-0.023-0.065-0.147c0.064-0.06,0.203-0.024,0.217-0.159c0.234,0.081,0.448,0.002,0.661-0.083
		C894.845,176.087,894.951,176.329,895.13,176.455 M871.194,187.461c-0.09,0.059-0.156,0.153-0.232,0.231
		c-0.211,0.125-0.33,0.325-0.429,0.538c-0.076,0.151-0.172,0.3-0.09,0.517c0.215-0.114,0.367-0.301,0.666-0.39
		c-0.164,0.2-0.344,0.312-0.405,0.505c-0.009,0.03-0.058,0.065-0.085,0.065c-0.229-0.005-0.432,0.17-0.655,0.122
		c-0.223-0.051-0.404-0.003-0.577,0.125c-0.031,0.018-0.073,0.031-0.127-0.031c0.217-0.285,0.412-0.586,0.846-0.579
		c0.169,0.004,0.022-0.193,0.182-0.271c-0.485,0.016-0.914-0.002-1.254,0.332c-0.195,0.19-0.404,0.366-0.555,0.596
		c-0.057,0.081-0.122,0.243-0.219,0.016c-0.035-0.072-0.094-0.009-0.102,0.028c-0.036,0.205-0.275,0.172-0.374,0.318
		c-0.081,0.127-0.199,0.25-0.365,0.306c-0.028-0.106,0.062-0.153,0.109-0.214c1.984-2.352,4.217-4.449,6.639-6.345
		c0.018-0.016,0.043-0.022,0.063-0.034c0.086,0,0.037,0.169,0.161,0.122c0.432-0.242,0.811-0.556,1.203-0.853
		c0.315-0.185,0.631-0.362,0.995-0.472c0.52-0.162,0.972-0.486,1.417-0.806c0.341-0.246,0.689-0.461,1.099-0.607
		c0.47-0.171,0.906-0.444,1.358-0.668c0.106-0.051,0.2-0.146,0.337-0.13c-0.204,0.451-0.557,0.729-0.976,0.936
		c-0.022,0.013-0.05,0.021-0.063,0.037c-0.328,0.493-0.899,0.63-1.353,0.939c-0.223,0.151-0.381,0.358-0.626,0.522
		c0.441,0.15,0.724-0.217,1.102-0.227c-0.279,0.221-0.561,0.437-0.833,0.661c-0.315,0.254-0.649,0.49-0.929,0.779
		c-0.155,0.162-0.364,0.185-0.519,0.331c-0.196,0.185-0.346,0.411-0.556,0.585c-0.133,0.107-0.165,0.339-0.23,0.518
		c-0.03,0.086-0.056,0.18-0.143,0.204c-0.288,0.078-0.384,0.304-0.452,0.557c-0.008,0.022-0.015,0.051-0.032,0.067
		c-0.348,0.309-0.655,0.671-1.11,0.833c-0.046,0.016-0.114,0.038-0.14,0.016c-0.245-0.21-0.465-0.048-0.69,0.038
		c-0.297,0.115-0.326,0.098-0.334-0.237c0-0.026,0.006-0.051,0-0.071c-0.051-0.154,0.047-0.359-0.091-0.458
		c-0.138-0.102-0.25,0.111-0.387,0.126c-0.263,0.028-0.49,0.13-0.729,0.311c0.178-0.008,0.325-0.063,0.473-0.011
		c0.08,0.025,0.125,0.067,0.102,0.162c-0.064,0.244-0.385,0.505-0.648,0.487c-0.092-0.006-0.117,0.058-0.117,0.077
		C871.518,187.284,871.344,187.358,871.194,187.461 M940.297,210.814c-0.136-0.398-0.283-0.792-0.415-1.19
		c-0.077-0.239-0.202-0.446-0.391-0.705c0.097,0.425-0.019,0.772-0.048,1.125c-0.008,0.09-0.011,0.178-0.118,0.205
		c-0.106,0.027-0.218,0.067-0.248-0.103c-0.029-0.16-0.072-0.314-0.093-0.475c-0.048-0.402-0.216-0.762-0.383-1.121
		c-0.021-0.046-0.04-0.104-0.074-0.128c-0.201-0.125-0.287-0.307-0.317-0.537c-0.015-0.092-0.101-0.15-0.256-0.163
		c-0.14-0.01-0.27-0.229-0.393-0.368c-0.133-0.147-0.228-0.325-0.303-0.506c-0.094-0.233-0.208-0.446-0.369-0.642
		c-0.158,0.097-0.195,0.201-0.095,0.378c0.081,0.142,0.034,0.22-0.143,0.367c-0.046,0.036-0.043,0.076-0.06,0.121
		c-0.096,0.211-0.151,0.445-0.465,0.459c-0.117,0.008-0.256,0.482-0.205,0.658c0.039,0.155,0.102,0.304,0.114,0.467
		c0.024,0.293,0.063,0.594-0.275,0.754c-0.047,0.024-0.032,0.052-0.032,0.087c0,0.747-0.147,1.463-0.416,2.157
		c-0.063,0.162-0.124,0.312-0.062,0.5c0.059,0.174,0.008,0.357-0.173,0.444c-0.233,0.113-0.021,0.417-0.177,0.479
		c-0.228,0.094-0.245,0.237-0.247,0.43c0,0.174,0.025,0.344,0.088,0.509c0.125,0.353,0.18,0.724,0.313,1.074
		c0.073,0.201,0.064,0.435,0.021,0.662c-0.057,0.306-0.065,0.613,0.052,0.917c0.049,0.124,0.054,0.266,0.071,0.4
		c0.012,0.109,0.035,0.226-0.103,0.287c-0.049,0.02-0.054,0.08-0.07,0.127c-0.083,0.245,0.017,0.549-0.098,0.741
		c-0.13,0.223-0.218,0.433-0.255,0.68c-0.014,0.083-0.033,0.171-0.073,0.247c-0.103,0.184-0.232,0.202-0.39,0.056
		c-0.219-0.2-0.344-0.455-0.42-0.733c-0.168-0.59-0.392-1.146-0.783-1.627c-0.207-0.252-0.31-0.565-0.413-0.87
		c-0.122-0.365-0.292-0.701-0.514-1.021c-0.23-0.333-0.453-0.68-0.593-1.067c-0.146-0.38-0.315-0.754-0.447-1.137
		c-0.124-0.358-0.26-0.707-0.399-1.056c-0.054-0.129-0.066-0.263-0.079-0.401c-0.021-0.221-0.037-0.446-0.211-0.618
		c-0.025-0.025-0.029-0.07-0.058-0.098c-0.073-0.086,0.108-0.227-0.082-0.312c-0.079-0.035-0.101-0.207-0.165-0.349
		c-0.102,0.156-0.134,0.299-0.042,0.423c0.149,0.198,0.071,0.377-0.025,0.548c-0.065,0.116-0.167,0.216-0.261,0.31
		c-0.131,0.13-0.29,0.157-0.438,0.044c-0.324-0.245-0.641-0.498-0.988-0.85c0.231,0.016,0.327-0.086,0.435-0.183
		c0.11-0.102,0.18-0.226,0.162-0.398c-0.046,0.01-0.085,0.01-0.109,0.031c-0.114,0.085-0.196,0.232-0.381,0.184
		c-0.194-0.047-0.395-0.102-0.503-0.286c-0.083-0.149-0.229-0.227-0.355-0.212c-0.245,0.029-0.334-0.111-0.427-0.276
		c-0.083-0.139-0.139-0.299-0.342-0.301c-0.079,0-0.092-0.067-0.118-0.121c-0.166-0.304-0.168-0.304-0.488-0.146
		c-0.182,0.093-0.397,0.141-0.563,0.279c-0.007,0.006-0.021,0.018-0.027,0.018c-0.557-0.052-0.981,0.311-1.48,0.44
		c-0.142,0.036-0.291,0.085-0.44,0.055c-0.328-0.068-0.648,0.013-0.974,0.035c-0.334,0.026-0.666,0.011-0.999-0.004
		c-0.139-0.006-0.251-0.073-0.3-0.233c-0.044-0.154-0.116-0.303-0.195-0.443c-0.153-0.271-0.369-0.31-0.635-0.117
		c-0.171,0.027-0.258,0.161-0.341,0.297c-0.171,0.175-0.341,0.22-0.615,0.191c-0.429-0.047-0.771-0.21-1.102-0.449
		c-0.148-0.107-0.313-0.148-0.487-0.16c-0.222-0.015-0.363-0.126-0.469-0.315c-0.236-0.421-0.563-0.773-0.885-1.129
		c-0.071-0.084-0.129-0.104-0.213-0.035c-0.17,0.138-0.301,0.003-0.435-0.07c-0.035-0.02,0.053-0.104-0.038-0.099
		c-0.063,0.002-0.075,0.061-0.064,0.11c0.037,0.173-0.056,0.251-0.199,0.3c-0.038,0.016-0.131,0-0.098,0.067
		c0.116,0.241-0.157,0.2-0.224,0.333c0.265,0.168,0.404,0.454,0.564,0.713c0.25,0.411,0.592,0.718,0.998,0.955
		c0.232,0.136,0.318,0.334,0.302,0.589c-0.003,0.084,0.024,0.153,0.07,0.202c0.167,0.177,0.301,0.382,0.464,0.577
		c-0.038-0.238-0.055-0.471,0.02-0.701c0.023-0.078,0.017-0.193,0.132-0.188c0.091,0,0.194,0.07,0.196,0.146
		c0.009,0.281,0.24,0.525,0.132,0.828c-0.053,0.148-0.067,0.3,0.168,0.31c0.063,0.003,0.103,0.061,0.143,0.111
		c0.063,0.08,0.146,0.11,0.227,0.044c0.285-0.236,0.654-0.165,0.973-0.267c0.147-0.044,0.27-0.091,0.299-0.219
		c0.067-0.341,0.292-0.599,0.454-0.883c0.134-0.233,0.224-0.482,0.354-0.729c0.095,0.237,0.108,0.479,0.19,0.704
		c0.194,0.563,0.517,0.967,1.166,0.954c0.326-0.008,0.566,0.11,0.766,0.363c0.096,0.125,0.209,0.243,0.371,0.293
		c0.132,0.039,0.182,0.128,0.157,0.256c-0.037,0.182-0.045,0.382-0.131,0.539c-0.146,0.264-0.276,0.525-0.315,0.826
		c-0.006,0.057-0.061,0.146-0.113,0.116c-0.198-0.11-0.197,0.048-0.212,0.15c-0.029,0.233-0.069,0.47,0.039,0.696
		c0.089,0.189,0.025,0.294-0.171,0.359c-0.249,0.08-0.403,0.248-0.396,0.521c0.005,0.192-0.082,0.3-0.257,0.357
		c-0.059,0.02-0.114,0.042-0.168,0.069c-0.17,0.08-0.271,0.19-0.262,0.401c0.008,0.283-0.06,0.343-0.334,0.384
		c-0.204,0.028-0.373,0.104-0.537,0.229c-0.168,0.125-0.368,0.204-0.546,0.315c-0.211,0.13-0.384,0.289-0.303,0.575
		c0.028,0.112-0.025,0.184-0.113,0.252c-0.172,0.138-0.354,0.272-0.552,0.373c-0.286,0.146-0.571,0.292-0.855,0.443
		c-0.189,0.099-0.37,0.207-0.465,0.413c-0.088,0.196-0.252,0.271-0.444,0.288c-0.145,0.011-0.256,0.061-0.361,0.163
		c-0.252,0.255-0.566,0.397-0.917,0.45c-0.229,0.034-0.422,0.105-0.572,0.302c-0.204,0.268-0.531,0.344-0.835,0.44
		c-0.316,0.101-0.611-0.115-0.651-0.464c-0.063-0.466-0.234-0.894-0.429-1.317c-0.062-0.132-0.07-0.287-0.049-0.429
		c0.083-0.592-0.255-0.999-0.631-1.355c-0.279-0.263-0.499-0.549-0.659-0.885c-0.207-0.437-0.483-0.793-0.963-0.971
		c-0.268-0.098-0.443-0.347-0.538-0.591c-0.09-0.23-0.212-0.475-0.186-0.745c0.021-0.218-0.041-0.409-0.18-0.587
		c-0.097-0.126-0.168-0.274-0.253-0.412c-0.127-0.206-0.298-0.363-0.532-0.443c-0.263-0.085-0.398-0.277-0.435-0.539
		c-0.022-0.145-0.091-0.254-0.173-0.363c-0.384-0.499-0.778-0.991-1.15-1.5c-0.152-0.214-0.303-0.389-0.581-0.364
		c0.012-0.327,0.112-0.611,0.088-0.948c-0.17,0.265-0.159,0.542-0.215,0.799c-0.031,0.145-0.006,0.342-0.146,0.399
		c-0.146,0.055-0.248-0.123-0.359-0.213c-0.355-0.293-0.494-0.731-0.739-1.098c-0.033-0.047-0.029-0.14-0.111-0.112
		c-0.083,0.029-0.088,0.132-0.05,0.184c0.168,0.232,0.174,0.546,0.384,0.752c0.396,0.387,0.575,0.9,0.835,1.373
		c0.339,0.626,0.64,1.291,1.168,1.799c0.042,0.042,0.06,0.069,0.033,0.148c-0.101,0.337,0.029,0.687,0.338,0.846
		c0.205,0.106,0.337,0.292,0.529,0.405c0.062,0.038,0.101,0.106,0.118,0.183c0.006,0.023,0.002,0.052,0.02,0.072
		c0.287,0.436,0.315,0.948,0.347,1.438c0.035,0.58,0.373,0.89,0.815,1.136c0.163,0.091,0.27,0.208,0.351,0.365
		c0.155,0.286,0.286,0.579,0.358,0.897c0.059,0.269,0.165,0.52,0.354,0.727c0.056,0.064,0.087,0.231,0.199,0.047
		c0.009-0.011,0.065-0.003,0.069,0.005c0.093,0.308,0.404,0.295,0.624,0.409c0.201,0.105,0.396,0.197,0.521,0.394
		c0.015,0.019,0.03,0.042,0.049,0.056c0.335,0.214,0.588,0.517,0.886,0.77c0.113,0.094,0.263,0.141,0.348,0.287
		c0.156,0.265,0.148,0.333-0.093,0.527c-0.064,0.051-0.164,0.064-0.187,0.165c0.344,0.05,0.34,0.055,0.626,0.36
		c0.214,0.229,0.427,0.458,0.795,0.363c0.142-0.035,0.257-0.098,0.366-0.177c0.173-0.133,0.36-0.205,0.585-0.186
		c0.221,0.02,0.411-0.052,0.571-0.211c0.128-0.131,0.276-0.198,0.466-0.188c0.082,0.003,0.171-0.027,0.247-0.065
		c0.178-0.094,0.372-0.115,0.56-0.168c0.364-0.101,0.74-0.208,0.995-0.529c0.033-0.037,0.059-0.083,0.099-0.107
		c0.104-0.068,0.224-0.041,0.323,0.003c0.103,0.048,0.07,0.146,0.041,0.229c-0.052,0.162,0.005,0.319,0.011,0.476
		c0.002,0.157,0.166,0.351-0.082,0.471c-0.033,0.017-0.033,0.118-0.031,0.177c0.065,0.539-0.233,0.974-0.429,1.437
		c-0.194,0.466-0.42,0.92-0.575,1.405c-0.046,0.14-0.08,0.288-0.146,0.422c-0.466,1.009-1.1,1.908-1.861,2.716
		c-0.093,0.098-0.201,0.188-0.311,0.264c-0.849,0.583-1.535,1.333-2.172,2.128c-0.216,0.272-0.456,0.526-0.608,0.843
		c-0.061,0.122-0.159,0.221-0.278,0.293c-0.131,0.073-0.253,0.152-0.296,0.309c-0.01,0.025-0.027,0.052-0.043,0.061
		c-0.51,0.209-0.532,0.743-0.755,1.143c-0.093,0.161-0.166,0.333-0.289,0.477c-0.235,0.281-0.283,0.65-0.42,0.98
		c-0.039,0.097,0.012,0.197,0.078,0.274c0.071,0.086,0.141,0.185,0.234,0.237c0.193,0.106,0.196,0.216,0.07,0.377
		c-0.068,0.086-0.119,0.198-0.035,0.31c0.041,0.055,0.051,0.117,0.017,0.175c-0.131,0.241-0.022,0.457,0.067,0.674
		c0.031,0.067,0.058,0.138,0.068,0.207c0.033,0.254,0.1,0.468,0.388,0.554c0.169,0.05,0.268,0.21,0.188,0.388
		c-0.147,0.325-0.038,0.661-0.069,0.989c-0.027,0.24-0.021,0.483-0.027,0.728c-0.004,0.121-0.034,0.262,0.017,0.366
		c0.177,0.377,0,0.671-0.212,0.934c-0.268,0.326-0.528,0.66-0.919,0.855c-0.124,0.061-0.243,0.119-0.369,0.167
		c-0.568,0.216-1.123,0.463-1.52,0.958c-0.11,0.138-0.239,0.245-0.413,0.301c-0.148,0.046-0.251,0.156-0.364,0.256
		c-0.12,0.107-0.237,0.216-0.389,0.287c-0.079,0.036-0.204,0.007-0.213,0.158c-0.008,0.131-0.091,0.261,0.045,0.381
		c0.139,0.125,0.165,0.315,0.177,0.479c0.02,0.252,0.195,0.459,0.173,0.725c-0.017,0.158-0.133,0.292-0.113,0.422
		c0.08,0.537-0.323,0.623-0.67,0.762c-0.299,0.119-0.604,0.219-0.905,0.334c-0.153,0.06-0.285,0.153-0.38,0.289
		c-0.038,0.05-0.07,0.128,0.004,0.155c0.166,0.058,0.101,0.165,0.08,0.269c-0.064,0.308-0.215,0.58-0.352,0.856
		c-0.072,0.143-0.192,0.263-0.345,0.328c-0.259,0.112-0.457,0.297-0.636,0.505c-0.662,0.762-1.496,1.297-2.385,1.749
		c-0.286,0.146-0.6,0.256-0.929,0.23c-0.171-0.012-0.286,0.106-0.443,0.135c-0.447,0.082-0.893-0.002-1.332,0.03
		c-0.296,0.02-0.592-0.01-0.878,0.113c-0.115,0.048-0.271,0.024-0.408,0.027c-0.17,0.003-0.349,0.001-0.505,0.087
		c-0.209,0.117-0.399,0.059-0.595-0.044c-0.168-0.087-0.313-0.223-0.521-0.2c-0.038,0.004-0.084,0.003-0.076-0.045
		c0.06-0.292-0.271-0.323-0.349-0.564c0.021-0.085,0.229-0.034,0.223-0.198c-0.007-0.159-0.061-0.291-0.164-0.403
		c-0.142-0.157-0.283-0.314-0.428-0.467c-0.111-0.12-0.204-0.251-0.27-0.398c-0.156-0.356-0.412-0.61-0.729-0.824
		c-0.563-0.372-0.814-0.945-0.965-1.569c-0.042-0.158-0.07-0.313-0.167-0.451c-0.198-0.286-0.225-0.629-0.214-0.956
		c0.005-0.17-0.033-0.293-0.139-0.397c-0.53-0.531-0.877-1.198-1.312-1.8c-0.106-0.151-0.215-0.296-0.353-0.427
		c-0.244-0.229-0.386-0.509-0.356-0.861c0.016-0.235,0.03-0.472-0.035-0.704c-0.015-0.048-0.029-0.099,0.001-0.141
		c0.274-0.391,0.279-0.863,0.407-1.3c0.079-0.286,0.247-0.509,0.479-0.673c0.399-0.285,0.541-0.9,0.274-1.313
		c-0.182-0.283-0.327-0.581-0.447-0.894c-0.044-0.111-0.075-0.199,0.061-0.278c0.157-0.097,0.157-0.244,0.075-0.392
		c-0.227-0.398-0.325-0.859-0.619-1.226c-0.061-0.078-0.191-0.18-0.077-0.324c0.055-0.067-0.039-0.063-0.067-0.095
		c-0.045-0.059-0.102-0.112-0.107-0.19c-0.018-0.434-0.298-0.72-0.563-1.009c-0.416-0.458-0.855-0.898-1.264-1.363
		c-0.153-0.177-0.368-0.355-0.292-0.65c0.003-0.017-0.014-0.058-0.028-0.061c-0.275-0.061-0.238-0.341-0.391-0.537
		c0.289-0.016,0.394-0.184,0.419-0.426c0.007-0.085-0.028-0.165,0.12-0.217c0.125-0.042-0.205-0.188-0.049-0.26
		c0.145-0.069,0.161-0.12,0.111-0.243c-0.011-0.023-0.019-0.051-0.034-0.064c-0.11-0.098-0.086-0.198-0.007-0.293
		c0.284-0.34,0.182-0.785,0.307-1.169c0.026-0.082-0.055-0.157-0.099-0.233c-0.047-0.084-0.128-0.185-0.108-0.264
		c0.035-0.177-0.014-0.16-0.158-0.15c-0.168,0.009-0.3-0.108-0.344-0.286c-0.023-0.102,0-0.233-0.188-0.201
		c-0.104,0.018-0.074-0.185-0.202-0.174c-0.09,0.006-0.037,0.174-0.164,0.147c-0.026-0.005-0.051,0.006-0.076-0.001
		c-0.371-0.103-0.738,0.033-1.104,0.053c-0.425,0.024-0.691-0.197-0.757-0.623c-0.091-0.536-0.533-0.99-1.08-1.069
		c-0.103-0.014-0.168-0.107-0.27-0.091c-0.405,0.068-0.817-0.028-1.221,0.031c-0.173,0.028-0.352,0.037-0.482,0.171
		c-0.076,0.079-0.18,0.077-0.279,0.067c-0.109-0.01-0.227-0.035-0.33,0.014c-0.422,0.188-0.877,0.255-1.308,0.402
		c-0.114,0.037-0.213,0.063-0.312-0.024c-0.026-0.023-0.064-0.038-0.097-0.059c-0.187-0.113-0.415-0.156-0.576-0.321
		c-0.239,0.111-0.409-0.119-0.633-0.127c-0.557-0.02-1.106-0.043-1.646,0.124c-0.082,0.027-0.168,0.042-0.249,0.078
		c-0.201,0.084-0.37,0.051-0.556-0.07c-0.358-0.235-0.676-0.512-0.923-0.86c-0.399-0.554-0.905-1.009-1.338-1.534
		c-0.105-0.131-0.259-0.222-0.388-0.332c0.108-0.167,0-0.244-0.135-0.306c-0.086-0.122-0.116-0.271-0.177-0.4
		c-0.046-0.104,0.003-0.272-0.018-0.417c-0.058-0.415-0.195-0.794-0.479-1.111c-0.009-0.009-0.026-0.014-0.029-0.025
		c-0.146-0.333-0.354-0.635-0.548-0.942c-0.039-0.062-0.042-0.16,0.032-0.202c0.152-0.084-0.196-0.203,0.022-0.275
		c-0.031-0.006-0.067-0.031-0.088-0.02c-0.143,0.079-0.24-0.008-0.322-0.094c-0.294-0.326-0.328-0.716-0.228-1.118
		c0.021-0.093,0.191-0.122,0.13-0.301c-0.102-0.283-0.065-0.614-0.297-0.862c0.35-0.225,0.588-0.533,0.67-0.963
		c0.049-0.234,0.172-0.438,0.289-0.644c0.263-0.462,0.328-0.957,0.237-1.473c-0.028-0.19,0.031-0.353,0.129-0.505
		c0.121-0.194,0.126-0.386,0.029-0.594c-0.255-0.53-0.173-0.848,0.287-1.241c0.236-0.204,0.365-0.498,0.514-0.765
		c0.132-0.227,0.303-0.381,0.507-0.517c0.205-0.132,0.34-0.298,0.435-0.529c0.089-0.228,0.248-0.428,0.383-0.635
		c0.063-0.096,0.156-0.17,0.266-0.194c0.255-0.054,0.4-0.233,0.523-0.438c0.06-0.096,0.113-0.192,0.187-0.28
		c0.104-0.129,0.229-0.204,0.409-0.213c0.846-0.035,1.44-0.526,1.963-1.133c0.065-0.08,0.096-0.171,0.086-0.274
		c-0.03-0.4,0.122-0.724,0.411-0.99c0.093-0.083,0.167-0.182,0.229-0.292c0.174-0.317,0.447-0.569,0.786-0.629
		c0.75-0.126,1.205-0.583,1.567-1.19c0.103-0.181,0.233-0.315,0.467-0.286c0.048,0.099,0.021,0.218,0.076,0.32
		c0.082,0.138,0.182,0.255,0.348,0.244c0.225-0.018,0.436,0.094,0.656,0.051c0.07-0.012,0.097,0.009,0.146,0.057
		c0.206,0.191,0.456,0.234,0.711,0.108c0.299-0.147,0.567-0.368,0.932-0.314c0.028,0.005,0.067-0.027,0.097-0.047
		c0.314-0.261,0.693-0.327,1.084-0.305c0.398,0.019,0.784-0.094,1.177-0.079c0.257,0.01,0.527-0.04,0.734,0.181
		c0.061,0.066,0.136,0.057,0.207,0.035c0.142-0.041,0.295-0.063,0.425-0.131c0.115-0.061,0.203-0.048,0.31,0.002
		c0.085,0.044,0.179,0.082,0.282,0.009c0.05-0.037,0.121-0.024,0.17,0.013c0.297,0.217,0.587,0.115,0.881-0.002
		c0.094-0.037,0.184-0.082,0.281-0.091c0.233-0.028,0.361,0.081,0.471,0.382c0.141,0.006,0.231-0.136,0.372-0.12
		c0.012,0.002,0.021,0.016,0.048,0.038c-0.051,0.135-0.152,0.233-0.261,0.33c-0.209,0.186-0.216,0.263-0.065,0.468
		c0.218,0.299,0.218,0.368,0.004,0.644c-0.111,0.139-0.242,0.249-0.392,0.339c-0.104,0.067-0.21,0.141-0.169,0.296
		c0.032,0.154,0.134,0.229,0.29,0.233c0.06,0.153,0.06,0.153,0.165,0.085c0.176,0.263,0.454,0.382,0.717,0.528
		c0.12,0.066,0.25,0.13,0.39,0.095c0.342-0.091,0.627,0.073,0.913,0.205c0.013,0.003,0.023,0.016,0.031,0.021
		c0.315,0.188,0.488,0.371,0.654,0.715c0.102,0.2,0.28,0.271,0.481,0.311c0.303,0.06,0.601,0.136,0.89,0.262
		c0.207,0.092,0.375,0.23,0.558,0.363c0.26,0.19,0.416,0.192,0.645,0.034c0.287-0.2,0.366-0.397,0.284-0.69
		c-0.099-0.351-0.047-0.529,0.253-0.734c0.434-0.294,0.9-0.456,1.43-0.239c0.142,0.061,0.283,0.085,0.302,0.274
		c0.007,0.082,0.079,0.126,0.16,0.135c0.233,0.024,0.44,0.16,0.685,0.147c0.184-0.01,0.34,0.036,0.423,0.231
		c0.042,0.098,0.131,0.136,0.245,0.108c0.393-0.093,0.771-0.003,1.124,0.137c0.373,0.149,0.772,0.156,1.138,0.304
		c0.086,0.032,0.17-0.005,0.25-0.052c0.168-0.103,0.347-0.187,0.506-0.301c0.306-0.217,0.652-0.155,0.991-0.167
		c0.016-0.001,0.045,0.024,0.045,0.038c-0.007,0.248,0.101,0.269,0.282,0.141c0.185,0.167,0.402,0.052,0.602,0.052
		c0.479,0,0.711-0.177,0.824-0.643c0.129-0.531,0.245-1.066,0.432-1.575c0.138-0.384,0.086-0.718-0.011-1.097
		c-0.048-0.205-0.146-0.502,0.074-0.72c0.039-0.039,0.028-0.097-0.005-0.135c-0.052-0.064-0.114-0.039-0.159,0.01
		c-0.156,0.171-0.326,0.198-0.534,0.089c-0.145-0.078-0.266-0.004-0.356,0.11c-0.171,0.233-0.404,0.337-0.688,0.396
		c-0.223,0.045-0.374,0.013-0.534-0.139c-0.222-0.212-0.495-0.315-0.802-0.336c-0.116-0.009-0.214,0.023-0.208,0.147
		c0.01,0.234-0.139,0.274-0.315,0.309c-0.193,0.039-0.39,0.051-0.512-0.117c-0.17-0.232-0.362-0.265-0.629-0.194
		c-0.167,0.045-0.058-0.111-0.058-0.196h-0.431c-0.039-0.088,0.164-0.158,0-0.238c-0.069-0.035-0.138-0.105-0.123-0.174
		c0.084-0.333-0.172-0.343-0.373-0.412c-0.032-0.009-0.082-0.017-0.101-0.04c-0.04-0.055-0.02-0.121,0.007-0.174
		c0.057-0.108,0.078-0.012,0.12,0.014c0.142,0.076,0.098,0.052,0.144-0.09c0.082-0.235-0.151-0.429-0.043-0.647
		c-0.127-0.055-0.24,0.064-0.383,0.017c-0.022-0.252,0.011-0.492,0.187-0.707c-0.044-0.101-0.166-0.038-0.249-0.103
		c-0.388-0.313-0.803-0.157-1.215-0.041c-0.084,0.024-0.095,0.1-0.046,0.139c0.109,0.096-0.102,0.185,0.007,0.278
		c0.032,0.025,0.012,0.063-0.042,0.035c-0.196-0.1-0.457-0.078-0.571-0.328c-0.158,0.167-0.106,0.301-0.033,0.461
		c0.086,0.174,0.281,0.285,0.289,0.502c-0.065-0.031-0.123-0.174-0.2-0.062c-0.047,0.073-0.032,0.184-0.095,0.276
		c-0.039,0.061,0.122,0.082,0.189,0.128c0.061,0.042,0.12,0.083,0.182,0.125c0.064,0.067,0.146,0.106,0.233,0.129
		c0.046,0.028,0.095,0.054,0.136,0.08c0.004,0.107,0.043,0.216-0.026,0.325c-0.084-0.052-0.16-0.115-0.251-0.146
		c-0.072-0.024-0.176-0.064-0.227,0.043c-0.043,0.081,0.015,0.139,0.073,0.188c0.047,0.04,0.099,0.076,0.033,0.141
		c-0.039,0.041-0.084,0.038-0.136,0.018c-0.062-0.027-0.1-0.107-0.209-0.08c0.022,0.226,0.223,0.42,0.147,0.662
		c-0.214-0.131-0.214-0.131-0.347,0.013c-0.085-0.05-0.071-0.155-0.136-0.219c-0.042-0.041-0.065-0.08-0.148-0.055
		c-0.178,0.052-0.243,0.003-0.213-0.194c0.021-0.149-0.031-0.229-0.115-0.323c-0.173-0.188-0.16-0.245,0.073-0.37
		c0.021-0.013,0.049-0.003,0.073-0.017c0.018-0.008,0.025-0.03,0.042-0.052c-0.139-0.099-0.373-0.042-0.433-0.277
		c-0.021-0.074-0.186-0.137,0.021-0.191c0.04-0.012,0.033-0.048-0.02-0.048c-0.171,0-0.235-0.162-0.36-0.238
		c-0.039-0.165-0.138-0.303-0.23-0.44c-0.407-0.242-0.248-0.618-0.18-0.937c0.045-0.223,0.005-0.332-0.147-0.492
		c-0.207-0.218-0.443-0.378-0.699-0.525c-0.064-0.07-0.148-0.115-0.208-0.2c-0.114-0.162-0.271-0.278-0.479-0.302
		c-0.113-0.038-0.235-0.027-0.317-0.154c-0.06-0.095-0.183-0.149-0.278-0.223c0.079-0.317-0.128-0.568-0.237-0.829
		c-0.071-0.172-0.219-0.08-0.272,0.083c-0.077,0.093-0.146,0.202-0.225,0.001c-0.063-0.153-0.074-0.3,0.062-0.428
		c-0.279-0.126-0.474,0.098-0.706,0.099c-0.05,0.002-0.115,0.097-0.082,0.144c0.106,0.161,0.012,0.255-0.057,0.387
		c-0.068,0.133-0.005,0.298,0.109,0.407c0.091,0.084,0.184,0.166,0.29,0.235c0.133,0.086,0.216,0.197,0.244,0.355
		c0.102,0.656,0.489,0.978,1.131,0.952c0.098,0.146-0.114,0.173-0.069,0.272c0.048,0.107,0.168,0.143,0.27,0.188
		c0.309,0.131,0.581,0.328,0.847,0.53c0.104,0.08,0.225,0.171,0.21,0.333c-0.004,0.051-0.02,0.099-0.069,0.125
		c-0.045,0.025-0.115,0.001-0.127-0.036c-0.074-0.208-0.296-0.204-0.432-0.315c-0.16-0.131-0.246-0.045-0.332,0.07
		c-0.045,0.061-0.077,0.13-0.114,0.194c-0.063,0.115-0.056,0.215,0.074,0.277c0.127,0.061,0.182,0.158,0.174,0.297
		c-0.003,0.077,0.008,0.15-0.097,0.169c-0.151,0.028-0.223,0.122-0.272,0.266c-0.048,0.158-0.211,0.237-0.306,0.363
		c-0.031,0.038-0.089,0.029-0.14,0.038c-0.096,0.021-0.091-0.263-0.229-0.07c-0.109,0.16-0.279,0.294-0.203,0.528
		c0.01,0.022,0.022,0.044,0.028,0.067c0.029,0.131-0.058,0.217-0.139,0.282c-0.087,0.066-0.209,0.032-0.278-0.03
		c-0.303-0.278-0.672-0.446-1.032-0.622c-0.08-0.038-0.113-0.09-0.108-0.171c0.004-0.094,0.083-0.219,0.129-0.195
		c0.155,0.079,0.3-0.098,0.425,0c0.219,0.164,0.454,0.068,0.684,0.063c0.111-0.001,0.225-0.058,0.326-0.045
		c0.331,0.045,0.45-0.211,0.621-0.4c0.046-0.051,0.037-0.104,0.015-0.169c-0.051-0.166-0.089-0.334-0.135-0.503
		c-0.004-0.023-0.019-0.046-0.023-0.07c-0.04-0.205-0.285-0.124-0.375-0.265c-0.072-0.117,0-0.359-0.266-0.317
		c-0.248-0.297-0.583-0.467-0.938-0.626c-0.092-0.042-0.149-0.158-0.226-0.238c-0.163-0.166-0.317-0.337-0.486-0.499
		c-0.23-0.22-0.307-0.541-0.355-0.862c-0.054-0.396-0.633-0.625-0.941-0.386c-0.142,0.109-0.276,0.199-0.462,0.218
		c-0.188,0.022-0.343,0.138-0.493,0.249c-0.235,0.17-0.478,0.175-0.683-0.009c-0.197-0.172-0.459-0.142-0.681-0.267
		c-0.169-0.1-0.626,0.296-0.606,0.519c0.027,0.4-0.157,0.616-0.518,0.733c-0.211,0.069-0.407,0.168-0.637,0.189
		c-0.161,0.015-0.293,0.083-0.425,0.237c-0.182,0.209-0.443,0.355-0.634,0.563c-0.301,0.323-0.267,0.456-0.087,0.716
		c-0.019,0.111-0.123,0.111-0.194,0.146c-0.11,0.058-0.231,0.104-0.297,0.215c-0.147,0.243-0.293,0.47-0.636,0.437
		c-0.052-0.005-0.139,0.067-0.174,0.125c-0.194,0.328-0.498,0.281-0.799,0.244c-0.1-0.011-0.199-0.015-0.296-0.034
		c-0.394-0.089-0.751-0.017-1.069,0.23c-0.136,0.105-0.265,0.067-0.319-0.099c-0.044-0.134-0.066-0.282-0.075-0.434
		c-0.008-0.223-0.154-0.378-0.343-0.337c-0.307,0.063-0.573-0.05-0.861-0.115c0.081-0.165,0.191-0.312,0.243-0.497
		c0.057-0.201,0.127-0.37-0.015-0.583c-0.144-0.216,0.047-0.392,0.193-0.536c0.183-0.186,0.335-0.391,0.472-0.617
		c0.152-0.246,0.28-0.491,0.323-0.78c0.013-0.122,0.053-0.25,0.121-0.348c0.092-0.141,0.119-0.272,0.097-0.443
		c-0.034-0.273,0.019-0.314,0.292-0.348c0.023-0.003,0.058,0.01,0.071,0c0.27-0.198,0.516-0.163,0.821-0.024
		c0.245,0.111,0.563,0.064,0.818,0.203c0.134,0.071,0.275,0.133,0.426,0.125c0.296-0.019,0.552,0.101,0.819,0.18
		c0.302,0.093,0.46,0.052,0.625-0.219c0.271-0.437,0.475-0.908,0.646-1.389c0.043-0.12,0.034-0.21-0.081-0.285
		c-0.147-0.087-0.168-0.227-0.149-0.387c0.026-0.222-0.041-0.405-0.264-0.506c-0.115-0.049-0.217-0.115-0.333-0.164
		c-0.185-0.08-0.271-0.279-0.19-0.467c0.012-0.029,0.045-0.062,0.076-0.069c0.213-0.077,0.438-0.043,0.66-0.052
		c0.175,0.269,0.478,0.106,0.696,0.22c0.08-0.182,0.113-0.348,0.103-0.522c-0.003-0.06,0.002-0.13,0.088-0.134
		c0.059-0.002,0.138-0.021,0.158,0.058c0.056,0.221,0.26,0.197,0.414,0.253c0.07,0.025,0.173,0.009,0.2-0.065
		c0.07-0.215,0.263-0.21,0.421-0.228c0.216-0.026,0.347-0.13,0.42-0.317c0.08-0.209,0.214-0.307,0.443-0.32
		c0.207-0.013,0.398-0.141,0.614-0.138c0.269,0.079,0.305,0.052,0.302-0.224c0.156-0.204,0.343-0.387,0.519-0.56
		c0.214-0.208,0.52-0.36,0.862-0.323c0.116,0.011,0.223,0.073,0.318-0.067c0.05-0.069,0.216-0.096,0.277-0.031
		c0.211,0.223,0.326-0.062,0.493-0.068c0.065-0.001,0.055-0.069,0.06-0.114c0.025-0.23-0.008-0.467,0.07-0.689
		c0.019-0.053,0.002-0.104-0.035-0.137c-0.076-0.075-0.094-0.143-0.061-0.259c0.096-0.346,0.091-0.36,0.375-0.492
		c-0.062,0.009-0.13,0.021-0.201-0.068c0.3-0.225,0.72-0.14,0.981-0.438c0.021,0.146-0.003,0.241-0.062,0.34
		c-0.123,0.219-0.116,0.222,0.089,0.433c-0.212,0.13-0.458,0.225-0.553,0.479c0-0.001,0.001-0.001,0.003-0.003
		c-0.219,0.257-0.17,0.563,0.111,0.692c0.043,0.021,0.114,0.015,0.136,0.047c0.055,0.089,0.014,0.277,0.215,0.212
		c0.129-0.04,0.256-0.084,0.374-0.142c0.093-0.042,0.17-0.098,0.278-0.07c0.057,0.074,0.104,0.153,0.214,0.155
		c0.449,0.31,0.871,0.074,1.282-0.086c0.21-0.081,0.411-0.176,0.633-0.205c0.145-0.018,0.272-0.032,0.368,0.155
		c0.096,0.189,0.404,0.17,0.525-0.035c0.109-0.182,0.229-0.242,0.417-0.175c0.136,0.045,0.187-0.031,0.193-0.141
		c0.008-0.097,0.004-0.2-0.02-0.295c-0.088-0.336,0.002-0.635,0.177-0.918c0.171-0.281,0.396-0.309,0.626-0.072
		c0.033,0.035,0.065,0.074,0.096,0.114c0.075,0.111,0.176,0.128,0.293,0.084c0.112-0.041,0.192-0.112,0.172-0.248
		c-0.018-0.151,0.004-0.293,0.032-0.473c-0.176,0.019-0.323-0.01-0.367-0.209c-0.042-0.209-0.021-0.273,0.188-0.362
		c0.312-0.127,0.633-0.206,0.972-0.134c0.211,0.046,0.214,0.044,0.766-0.162c0.155-0.059,0.298-0.151,0.479-0.062
		c-0.012-0.151-0.094-0.132-0.164-0.14c-0.063-0.007-0.143,0.006-0.179-0.026c-0.38-0.35-0.778-0.095-1.168-0.04
		c-0.255,0.033-0.494,0.154-0.754,0.187c-0.23,0.029-0.435,0.019-0.587-0.185c-0.034-0.043-0.104-0.062-0.159-0.085
		c-0.13-0.061-0.208-0.167-0.152-0.295c0.108-0.248,0.033-0.494-0.017-0.724c-0.045-0.201,0.032-0.352,0.152-0.419
		c0.438-0.235,0.735-0.637,1.143-0.906c0.119-0.079,0.094-0.285-0.032-0.373c-0.354-0.25-0.938-0.094-1.122,0.297
		c-0.018,0.034-0.059,0.065-0.055,0.094c0.066,0.375-0.202,0.509-0.472,0.625c-0.317,0.138-0.617,0.312-0.826,0.587
		c-0.182,0.245-0.314,0.533-0.278,0.865c0.014,0.083,0.06,0.145,0.133,0.16c0.105,0.021,0.177,0.085,0.248,0.154
		c0.201,0.194,0.152,0.208,0.011,0.436c-0.16,0.254-0.383,0.347-0.629,0.434c-0.147,0.053-0.156,0.174-0.189,0.29
		c-0.092,0.305-0.131,0.625-0.3,0.907c-0.102,0.177-0.216,0.278-0.439,0.258c-0.226-0.024-0.445,0.006-0.483,0.316
		c-0.02,0.142-0.15,0.082-0.242,0.087c-0.293,0.019-0.292,0.019-0.32-0.256c-0.003-0.034-0.022-0.065-0.038-0.117
		c-0.148,0.224-0.286,0.434-0.425,0.642c-0.072-0.024-0.044-0.136-0.131-0.152c-0.109-0.069-0.206-0.171-0.153-0.298
		c0.04-0.104,0.136-0.15,0.285-0.144c0.138,0.004,0.292-0.115,0.414-0.208c0.097-0.073,0.126-0.168,0.06-0.319
		c-0.168-0.38-0.35-0.771-0.26-1.208c0.035-0.175-0.155-0.212-0.148-0.386c-0.11,0.142-0.168,0.273-0.34,0.268
		c-0.135-0.005-0.211,0.115-0.315,0.175c-0.144,0.079-0.275,0.179-0.421,0.235c-0.325,0.129-0.687,0.009-0.883-0.271
		c-0.065-0.099-0.07-0.219,0.06-0.232c0.123-0.015,0.167-0.104,0.153-0.159c-0.049-0.145-0.164,0.059-0.257-0.038
		c0.152-0.441,0.316-0.892,0.453-1.349c0.04-0.137,0.167-0.252,0.317-0.276c0.15-0.024,0.269-0.13,0.414-0.138
		c0.159-0.009,0.164-0.254,0.359-0.209c0.191,0.04,0.331-0.041,0.414-0.223c0.021-0.04,0.072-0.076,0.12-0.035
		c0.154,0.118,0.219,0.007,0.329-0.088c0.253-0.208,0.529-0.396,0.813-0.561c0.111-0.066,0.166-0.156,0.243-0.244
		c0.296-0.337,0.582-0.686,0.979-0.911c0.116-0.068,0.027-0.23,0.196-0.27c0.106-0.026,0.263-0.003,0.343-0.124
		c0.1,0.004,0.284,0.104,0.163-0.142l0.132-0.082c0.151-0.058,0.254-0.179,0.395-0.254c0.137-0.073,0.219-0.154,0.378-0.029
		c0.099,0.075,0.164-0.024,0.145-0.144c0.303-0.235,0.726-0.241,1.019-0.507c0.03-0.029,0.124-0.005,0.174,0.02
		c0.142,0.068-0.073,0.164,0.002,0.246c0.096-0.004,0.125-0.082,0.162-0.136c0.113-0.18,0.164-0.009,0.246,0.045
		c0.034-0.067,0.063-0.136,0.097-0.2c0.048-0.091,0.176-0.064,0.176-0.029c0.009,0.299,0.183,0.071,0.272,0.092
		c0.158,0.039,0.318,0.063,0.438,0.192c-0.06,0.144-0.217,0.082-0.313,0.147c0.152,0.125,0.337,0.175,0.581,0.095
		c0.129-0.044,0.209-0.05,0.281,0.066c0.08,0.131,0.21,0.142,0.342,0.138c0.418-0.015,0.813,0.095,1.185,0.272
		c0.181,0.082,0.365,0.143,0.56,0.188c0.207,0.046,0.379,0.142,0.523,0.316c0.137,0.166,0.116,0.292,0,0.424
		c-0.184,0.217-0.429,0.296-0.701,0.25c-0.566-0.093-1.146-0.122-1.689-0.349c0.169,0.159,0.343,0.302,0.563,0.386
		c0.147,0.06,0.211,0.145,0.244,0.323c0.044,0.261,0.114,0.561,0.479,0.602c0.08,0.012,0.158,0.07,0.232,0.115
		c0.101,0.059,0.207,0.082,0.323,0.068c0.08-0.012,0.201,0.008,0.207-0.104c0.005-0.103-0.096-0.135-0.187-0.141
		c-0.092-0.005-0.168-0.043-0.233-0.096c-0.075-0.054-0.187-0.101-0.121-0.233c0.066-0.12,0.164-0.103,0.256-0.049
		c0.152,0.091,0.326,0.111,0.496,0.148c0.048,0.013,0.096,0.023,0.145,0.032c0.089,0.016,0.144-0.036,0.182-0.101
		c0.045-0.071-0.021-0.109-0.067-0.145c-0.256-0.194-0.148-0.264,0.027-0.434c0.033-0.031,0.079-0.058,0.116-0.089
		c0.315-0.275,0.389-0.285,0.777-0.1c0.014-0.215,0.033-0.42-0.223-0.517c-0.08-0.031-0.096-0.105-0.106-0.183
		c-0.031-0.186-0.1-0.352-0.344-0.444c0.393-0.066,0.703-0.082,0.948,0.21c-0.099,0.098-0.287,0.07-0.302,0.279
		c0.146,0.067,0.293,0.162,0.454,0.205c0.231,0.063,0.336-0.037,0.318-0.267c-0.006-0.082,0.018-0.124,0.07-0.188
		c0.105-0.139,0.251-0.234,0.376-0.346c0.173-0.153,0.438-0.188,0.519-0.43c0.088,0.013,0.097,0.064,0.124,0.104
		c0.164,0.26,0.185,0.264,0.395,0.037c0.06-0.059,0.121-0.083,0.194-0.1c0.071-0.016,0.181-0.008,0.208-0.054
		c0.177-0.268,0.347-0.272,0.542-0.025c0.021,0.025,0.125,0.011,0.104-0.027c-0.054-0.103,0.124-0.218-0.027-0.301
		c-0.087-0.045-0.179-0.087-0.256-0.149c-0.082-0.07-0.091-0.155,0.039-0.179c0.259-0.045,0.515-0.084,0.773-0.036
		c0.428,0.08,0.858,0.121,1.307,0.258c-0.007-0.162-0.033-0.268-0.192-0.279c-0.104-0.005-0.206-0.031-0.275-0.093
		c-0.167-0.144-0.434,0.004-0.567-0.225c-0.11-0.187-0.283-0.307-0.494-0.368c-0.039-0.012-0.097-0.075-0.095-0.11
		c0.043-0.349-0.265-0.508-0.42-0.75c0.433-0.214,0.598-0.201,0.896,0.114c0.165,0.175,0.349,0.29,0.563,0.4
		c0.303,0.159,0.566,0.4,0.845,0.603c0.108,0.081,0.207,0.184,0.346,0.211c0.386,0.074,0.568,0.352,0.699,0.686
		c0.035,0.093,0.081,0.182,0.115,0.272c0.026,0.069,0.001,0.118-0.074,0.137c-0.047-0.04-0.099-0.081-0.161-0.067
		c-0.073,0.014-0.204-0.058-0.206,0.064c-0.004,0.142,0.115,0.053,0.187,0.053c0.037,0,0.073,0.013,0.109,0.021
		c0.162,0.063,0.311-0.026,0.483-0.035c-0.006-0.246-0.012-0.463-0.156-0.683c-0.12-0.181-0.278-0.267-0.448-0.363
		c-0.086-0.049-0.199-0.087-0.147-0.217c0.051-0.126,0.162-0.146,0.277-0.099c0.151,0.056,0.302,0.108,0.432,0.208
		c0.092,0.127,0.233,0.178,0.371,0.222c0.089,0.025,0.155-0.016,0.189-0.148c-0.209,0.051-0.354-0.038-0.492-0.142
		c-0.196-0.175-0.434-0.231-0.687-0.241c-0.063,0-0.148-0.016-0.179,0.017c-0.265,0.264-0.471,0.051-0.64-0.101
		c-0.279-0.25-0.563-0.479-0.933-0.579c-0.19-0.049-0.172-0.218-0.179-0.367c0.032-0.003,0.063-0.011,0.098-0.017
		c0.068,0.043,0.114,0.129,0.214,0.091c0.025-0.062,0.031-0.134,0.127-0.134c0.028,0,0.079-0.036,0.076-0.043
		c-0.015-0.062-0.076-0.038-0.117-0.057c-0.002-0.043-0.006-0.09-0.008-0.133l-0.004-0.004c0.344-0.031,0.688,0.094,1.033,0.004
		c0.002,0.002,0.002,0.005,0.006,0.005c0.006,0,0.008,0.001,0.011,0.004c0.139,0.365,0.555,0.275,0.783,0.486
		c-0.113-0.205-0.425-0.392-0.77-0.481c-0.011-0.008-0.024-0.017-0.035-0.029c-0.006,0-0.01,0-0.015-0.003
		c-0.144-0.123-0.328-0.093-0.494-0.123c-0.301,0.014-0.547-0.15-0.808-0.25c-0.154-0.059-0.157-0.133-0.034-0.241
		c0.106-0.098,0.253-0.158,0.283-0.346c-0.117-0.102-0.298-0.057-0.434-0.141c-0.186-0.117-0.316-0.245-0.339-0.478
		c-0.007-0.091,0.046-0.182-0.038-0.276c-0.09-0.107-0.12-0.228,0.109-0.205c0.082,0.009,0.051-0.07,0.022-0.1
		c-0.095-0.107-0.142-0.252-0.316-0.295c-0.196-0.047-0.386-0.135-0.522-0.286c0.034-0.091,0.103-0.095,0.13-0.079
		c0.189,0.11,0.399-0.032,0.585,0.059c0.053,0.026,0.093,0.011,0.085-0.063c-0.022-0.162,0.075-0.17,0.202-0.163
		c0.5,0.019,0.976,0.112,1.379,0.438c0.032,0.064,0.086,0.099,0.16,0.099c0.07,0.029,0.126,0.101,0.212,0.094l0,0
		c0.146,0.188,0.317,0.334,0.563,0.433c-0.051-0.314-0.288-0.396-0.488-0.515c0.151-0.027,0.288-0.05,0.204-0.268
		c-0.021-0.06,0.016-0.151,0.132-0.114c0.058,0.02,0.119,0.029,0.181,0.004c0.095-0.036,0.111-0.139,0.035-0.206
		c-0.097-0.088-0.23-0.09-0.345-0.129c-0.088-0.029-0.215-0.016-0.187-0.17c0.028-0.172,0.152-0.125,0.256-0.104
		c0.337,0.065,0.673,0.138,1.011,0.206c0.071,0.014,0.146,0.016,0.226,0.024c-0.008-0.032-0.014-0.064-0.027-0.069
		c-0.378-0.094-0.659-0.35-0.959-0.574c-0.113-0.086-0.235-0.132-0.367-0.157c-0.396-0.06-0.772-0.16-1.069-0.458
		c-0.037-0.043-0.1-0.065-0.154-0.101c0.016-0.082,0.154,0,0.16-0.107c0.031-0.082,0.111-0.077,0.177-0.102
		c1.325,0.33,2.615,0.763,3.897,1.239c6.729,2.504,12.425,6.507,17.174,11.877c0.135,0.151,0.211,0.333,0.339,0.487
		c0.121,0.148-0.166,0.049-0.083,0.162c0.065,0.088,0.128,0.179,0.193,0.269c0.065,0.092,0.128,0.184,0.191,0.273
		c0.065,0.091,0.129,0.182,0.2,0.269c0.15,0.181,0.161,0.44,0.348,0.604c0.111,0.096,0.194,0.223,0.369,0.175
		c0.043-0.089-0.093-0.14-0.049-0.24c0.101-0.001,0.136,0.085,0.176,0.146c0.155,0.224,0.317,0.446,0.444,0.683
		c0.41,0.76,1.021,1.367,1.529,2.05c0.243,0.327,0.467,0.668,0.681,1.017c0.912,1.502,1.765,3.039,2.439,4.667
		c0.275,0.67,0.593,1.333,0.614,2.083c0.279,0.553,0.175,1.192,0.389,1.759c-0.034-0.008-0.075-0.006-0.1-0.024
		c-0.04-0.027,0.016-0.144-0.092-0.107c-0.068,0.02-0.125,0.051-0.112,0.158c0.041,0.279,0.044,0.563,0.093,0.841
		c0.057,0.328,0.141,0.651,0.211,0.98c0.115,0.555,0.383,1.042,0.708,1.501c0.298,0.417,0.523,0.867,0.684,1.354
		c0.343,1.08,0.578,2.17,0.507,3.32c-0.031,0.515,0.03,1.035-0.046,1.559c-0.035-0.218-0.076-0.432-0.1-0.65
		c-0.013-0.119-0.04-0.227-0.148-0.283c-0.186-0.095-0.259-0.258-0.311-0.437c-0.048-0.167-0.109-0.328-0.25-0.445
		c-0.03-0.022-0.059-0.084-0.069-0.082c-0.372,0.168-0.206-0.188-0.293-0.297c-0.014-0.021-0.03-0.039-0.06-0.076
		c-0.118,0.084-0.099,0.214-0.077,0.319c0.185,0.789,0.235,1.596,0.289,2.399c0.03,0.35,0.299,0.584,0.356,0.912
		c0.029,0.167,0.1,0.333,0.119,0.504c0.019,0.192,0.045,0.325,0.272,0.444c0.224,0.12,0.315,0.452,0.399,0.727
		c0.074,0.255,0.078,0.517,0.1,0.773c0.041,0.444,0.087,0.888,0.167,1.328c0.027,0.151,0.045,0.313-0.028,0.507
		c-0.201-0.148-0.343-0.321-0.38-0.515c-0.071-0.364-0.19-0.715-0.244-1.085c-0.086-0.643-0.125-1.318-0.503-1.866
		c-0.278-0.4-0.278-0.824-0.335-1.263c-0.099-0.78-0.214-1.562-0.422-2.328C940.553,211.319,940.389,211.083,940.297,210.814"/>
	<path fill="#D36447" d="M910.841,181.082c0.16,0.287,0.371,0.149,0.509,0.101c0.021-0.001,0.043-0.005,0.067-0.008
		c-0.021,0.001-0.038,0.005-0.059,0.006c0.023-0.008,0.047-0.012,0.065-0.011c-0.125,0.009-0.349-0.091-0.583-0.098
		c-0.004-0.002-0.009-0.003-0.01-0.009l0,0c-0.005,0.001-0.006,0.001-0.008,0.001c-0.002,0.004-0.002,0.005-0.002,0.007
		C910.826,181.076,910.834,181.079,910.841,181.082"/>
	<path fill="#D36447" d="M909.589,198.813c-0.5-0.194-0.945-0.481-1.378-0.788c-0.061-0.039-0.136-0.065-0.202-0.089
		c-0.329-0.105-0.63-0.266-0.934-0.426c-0.049-0.025-0.094-0.056-0.088-0.105c0.011-0.067,0.058-0.111,0.136-0.095
		c0.216,0.043,0.283-0.071,0.292-0.262c0.003-0.154,0.146-0.226,0.241-0.298c-0.074-0.161-0.288-0.125-0.301-0.297
		c0.267-0.087,0.33-0.133,0.596-0.408c-0.033-0.043-0.076-0.03-0.126-0.024c-0.435,0.053-0.807,0.28-1.213,0.413
		c-0.229,0.075-0.392,0.246-0.61,0.326c-0.072,0.025-0.102,0.104-0.082,0.19c0.051,0.248,0.321,0.425,0.567,0.369
		c0.074-0.014,0.149-0.042,0.219-0.042c0.102,0,0.119,0.067,0.101,0.154c-0.026,0.106-0.109,0.15-0.196,0.123
		c-0.183-0.051-0.292,0.036-0.435,0.125c-0.174,0.108-0.365,0.189-0.527,0.324c-0.137,0.115-0.299,0.024-0.287-0.154
		c0.019-0.188-0.045-0.272-0.219-0.325c-0.108-0.032-0.22-0.067-0.34-0.092c0.091-0.183,0.232-0.25,0.383-0.315
		c0.043-0.019,0.069-0.068,0.049-0.125c-0.015-0.046-0.049-0.046-0.085-0.055c-0.086-0.021-0.169-0.015-0.259-0.004
		c-0.185,0.025-0.367,0.004-0.567-0.084c0.03-0.065,0.038-0.115,0.065-0.125c0.1-0.04,0.094-0.101,0.014-0.128
		c-0.229-0.069-0.543,0.072-0.667,0.287c-0.069,0.121-0.146,0.255-0.271,0.299c-0.199,0.067-0.203,0.182-0.172,0.356
		c0.034,0.151-0.006,0.378-0.172,0.333c-0.276-0.073-0.215,0.105-0.265,0.231c-0.064,0.152-0.071,0.312-0.076,0.473
		c-0.006,0.072,0.021,0.186-0.043,0.207c-0.241,0.078-0.233,0.303-0.34,0.465c-0.134,0.202-0.094,0.296,0.04,0.432
		c0.024,0.026,0.046,0.061,0.054,0.096c0.121,0.394,0.431,0.489,0.799,0.534c0.28,0.036,0.565-0.028,0.844,0.046
		c0.147,0.038,0.251-0.056,0.36-0.144c0.425-0.339,0.875-0.611,1.455-0.532c0.109,0.015,0.227,0.015,0.329-0.037
		c0.07-0.037,0.139-0.043,0.192,0.033c0.188,0.26,0.593,0.095,0.771,0.382c0.009,0.01,0.072-0.007,0.104-0.021
		c0.079-0.036,0.139,0.003,0.212,0.027c0.376,0.111,0.755,0.25,1.149,0.05c0.104-0.051,0.218-0.022,0.327-0.001
		c0.306,0.053,0.8-0.201,0.941-0.47c0.045-0.08,0.076-0.171,0.037-0.252C909.912,199.172,909.855,198.917,909.589,198.813"/>
	<path fill="#D36447" d="M916.513,200.348c-0.098-0.001-0.098-0.068-0.047-0.155c0.098-0.161,0.033-0.303-0.122-0.262
		c-0.217,0.062-0.262-0.071-0.305-0.205c-0.039-0.122-0.045-0.258-0.068-0.401c0.32-0.005,0.662,0.186,0.873-0.207
		c-0.19-0.2-0.492-0.288-0.625-0.561c-0.069-0.142-0.188-0.118-0.318-0.069c-0.153,0.059-0.176,0.164-0.14,0.295
		c0.021,0.065,0.072,0.124,0.018,0.205c-0.195-0.176-0.316-0.379-0.324-0.646c-0.004-0.156-0.072-0.232-0.252-0.25
		c-0.267-0.03-0.501-0.146-0.671-0.383c-0.12-0.167-0.271-0.325-0.452-0.434c-0.079-0.046-0.244-0.022-0.221-0.146
		c0.035-0.164,0.193-0.104,0.313-0.085c0.033,0.005,0.072,0.005,0.144,0.013c-0.304-0.372-0.238-0.562,0.179-0.633
		c0.125-0.02,0.255-0.03,0.399-0.044c-0.125-0.095-0.142-0.212-0.13-0.339c0.023-0.184-0.066-0.337-0.131-0.498
		c-0.058-0.146-0.218-0.233-0.329-0.16c-0.17,0.114-0.328,0.074-0.494,0.045c-0.136-0.027-0.234,0.021-0.337,0.104
		c-0.28,0.233-0.583,0.44-0.737,0.792c-0.368,0.168-0.5,0.498-0.568,0.865c-0.001,0.012-0.007,0.023-0.015,0.034
		c-0.069,0.102-0.052,0.187,0.067,0.235c0.304,0.12,0.459,0.36,0.527,0.663c0.032,0.129,0.1,0.221,0.187,0.313
		c0.396,0.428,0.9,0.736,1.283,1.182c0.077,0.093,0.189,0.159,0.321,0.166c0.093,0.004,0.167,0.033,0.24,0.111
		c-0.168,0.09-0.391,0.124-0.347,0.402c0.035,0.217,0.152,0.454-0.074,0.65c-0.021,0.017,0.011,0.094,0.017,0.142
		c0.033,0.186,0.095,0.361,0.174,0.528c0.049,0.104,0.109,0.233,0.219,0.235c0.403,0.009,0.706,0.245,1.035,0.421
		c0.092,0.049,0.219,0.043,0.326,0.05c0.295,0.015,0.565-0.07,0.821-0.201c0.151-0.077,0.298-0.167,0.506-0.15
		c-0.185-0.366-0.346-0.728-0.438-1.113C916.948,200.586,916.844,200.366,916.513,200.348"/>
	<path fill="#D36447" d="M906.563,232.057c0.268,0.085,0.272,0.072,0.374,0.267c-0.02-0.137,0.003-0.269,0.18-0.231
		c0.204,0.045,0.321-0.046,0.438-0.188c-0.074-0.087-0.19-0.005-0.286-0.087c0.038-0.052,0.056-0.12,0.114-0.173
		c0.199-0.179,0.409-0.424,0.421-0.648c0.01-0.275,0.187-0.313,0.316-0.436c0.047-0.046,0.157-0.019,0.164-0.138
		c-0.116-0.06-0.163,0.016-0.22,0.05c-0.096,0.057-0.194,0.042-0.224-0.044c-0.08-0.244-0.281-0.247-0.477-0.316
		c-0.104-0.035-0.137-0.078-0.219,0.016c-0.095,0.109-0.197,0.16-0.377,0.16c-0.407-0.003-0.696,0.411-0.615,0.834
		c0.028,0.159-0.022,0.292-0.065,0.431c-0.082,0.268-0.054,0.515,0.088,0.741C906.362,232.273,906.322,231.98,906.563,232.057"/>
	<path fill="#D36447" d="M905.109,235.265c-0.031-0.113-0.091-0.209-0.195-0.256c-0.101-0.046-0.233-0.033-0.299-0.138
		c-0.087-0.138,0.058-0.226,0.084-0.339c0.004-0.024,0.007-0.052,0-0.074c-0.172-0.524-0.217-1.091-0.501-1.603
		c-0.059,0.065-0.06,0.139-0.051,0.209c0.074,0.427-0.125,0.877,0.118,1.29c0.018,0.029,0.013,0.08-0.002,0.109
		c-0.184,0.362,0.082,0.608,0.272,0.807c0.192,0.195,0.384,0.365,0.493,0.624c0.051,0.119,0.189,0.198,0.097,0.36
		c-0.031,0.055,0.037,0.075,0.086,0.093c0.07,0.027,0.138,0.049,0.203,0.08c0.063,0.029,0.119,0.05,0.166-0.011
		c0.033-0.043,0.004-0.094-0.021-0.134C905.344,235.967,905.205,235.627,905.109,235.265"/>
	<path fill="#D36447" d="M908.259,238.145c-0.173-0.207-0.188-0.448-0.208-0.7c-0.002-0.098-0.034-0.195-0.065-0.289
		c-0.063-0.174-0.245-0.312-0.321-0.244c-0.132,0.114-0.052,0.244,0.007,0.368c0.18,0.395,0.227,0.795,0.018,1.193
		c-0.063,0.121-0.093,0.222,0,0.337c0.121,0.147,0.093,0.331,0.106,0.501c0.015,0.163,0.248,0.254,0.146,0.464
		c-0.024,0.055,0.069,0.15,0.094,0.122c0.155-0.174,0.253,0.046,0.372,0.056c0.055-0.131-0.019-0.214-0.074-0.289
		c-0.282-0.384-0.243-0.795-0.094-1.208C908.279,238.348,908.334,238.239,908.259,238.145"/>
	<path fill="#D36447" d="M918.451,196.075c-0.252-0.067-0.14-0.504-0.491-0.447c-0.041,0.007,0.022-0.046,0.029-0.074
		c0.024-0.073-0.04-0.108-0.059-0.164c-0.035-0.11-0.123-0.063-0.187-0.058c-0.109,0.009-0.031,0.085-0.027,0.132
		c0.005,0.063,0.007,0.149-0.082,0.106c-0.083-0.044-0.148-0.09-0.228-0.018c-0.075,0.069-0.043,0.158-0.038,0.245
		c0.009,0.074,0.012,0.147,0.02,0.221c0.019,0.174,0.084,0.332,0.171,0.485c0.091,0.146,0.229,0.034,0.335,0.065
		c0.034,0.01,0.061,0.038,0.095,0.054c0.128,0.064,0.425,0.021,0.493-0.067C918.545,196.465,918.539,196.1,918.451,196.075"/>
	<path fill="#D36447" d="M924.436,192.772c-0.093-0.036-0.118,0.042-0.152,0.112c-0.012,0.032-0.031,0.087-0.051,0.087
		c-0.225,0.007-0.399,0.197-0.636,0.156c-0.226-0.037-0.449,0.085-0.536,0.228c-0.215,0.355-0.005,0.784,0.409,0.966
		c0.045-0.074-0.027-0.115-0.053-0.158c-0.121-0.2-0.095-0.418-0.085-0.631c0.003-0.115,0.047-0.213,0.19-0.229
		c0.254-0.031,0.474-0.221,0.749-0.171c0.063,0.011,0.118-0.023,0.168-0.059c0.065-0.049,0.106-0.108,0.08-0.189
		C924.505,192.844,924.476,192.787,924.436,192.772"/>
	<path fill="#D36447" d="M926.556,186.306c-0.36-0.397-0.521-0.928-0.958-1.286c-0.289-0.24-0.572-0.473-0.882-0.699
		c-0.035,0.101,0.022,0.118,0.052,0.143c0.495,0.417,0.908,0.906,1.311,1.407c0.161,0.2,0.344,0.391,0.385,0.664
		c0.012,0.082-0.021,0.24,0.139,0.186c0.13-0.04,0.061-0.165,0.033-0.254C926.624,186.41,926.594,186.351,926.556,186.306"/>
	<path fill="#D36447" d="M901.918,200.869c0.312,0.079,0.633-0.02,0.949,0.015c0.071,0.006,0.208-0.01,0.208-0.02
		c0.009-0.222,0.23-0.142,0.34-0.249C902.834,200.31,902.479,200.375,901.918,200.869"/>
	<path fill="#D36447" d="M899.12,202.328c0.313,0.255,0.455,0.286,0.64,0.136C899.398,202.3,899.398,202.3,899.12,202.328"/>
	<path fill="#D36447" d="M917.76,195.106c0.124,0.06,0.268-0.011,0.391,0.075c0.025,0.02,0.085-0.029,0.104-0.079
		c0.033-0.084-0.021-0.105-0.086-0.121c-0.081-0.016-0.161-0.039-0.233-0.058c-0.053,0.011-0.101,0.031-0.146,0.028
		c-0.047-0.002-0.101-0.014-0.109,0.047C917.671,195.058,917.711,195.084,917.76,195.106"/>
	<path fill="#D36447" d="M894.329,190.065c0.006-0.017-0.015-0.049-0.032-0.052c-0.087-0.017-0.111,0.062-0.155,0.111
		c-0.006,0.007-0.005,0.018-0.006,0.029C894.224,190.176,894.3,190.171,894.329,190.065"/>
	<path fill="#D36447" d="M894.137,190.153c-0.001,0-0.003-0.002-0.005-0.002c-0.01,0.005-0.015,0.008-0.024,0.012
		c0.011-0.003,0.022-0.004,0.029-0.004C894.137,190.158,894.137,190.156,894.137,190.153"/>
	<polyline fill="#D36447" points="934.074,191.277 934.074,191.271 934.068,191.272 934.067,191.277 934.074,191.277 	"/>
	<path fill="#D36447" d="M934.209,191.449c-0.016-0.035-0.03-0.068-0.046-0.096c-0.02-0.035-0.033-0.083-0.089-0.078
		C934.054,191.379,934.11,191.425,934.209,191.449"/>
	<path fill="#D36447" d="M924.489,184.176c-0.021,0.06,0.026,0.078,0.064,0.104c0.017-0.011,0.033-0.019,0.05-0.028
		c-0.022-0.026-0.043-0.049-0.064-0.075C924.52,184.151,924.5,184.149,924.489,184.176"/>
	<path fill="#D36447" d="M687.88,467.191c-0.208,0.994-0.543,1.86-1.089,2.511c-0.406-0.236-0.779-0.501-0.669-1.254
		C686.846,468.167,686.635,466.956,687.88,467.191"/>
	<path fill="#D36447" d="M689.052,477.234c-0.402,0.168,0.304,0.26,0.082,0.753c-0.403,0.072-0.265-0.403-0.753-0.247
		c0.087-0.585,0.18-0.631,0-1.173c-0.319,0.098-0.881,0.307-1.253,0.086c-0.104-0.272,0.269-0.065,0.165-0.337
		c-0.192,0.087-0.391,0.169-0.419,0.419c-0.071,0.268,0.218,0.173,0.254,0.334c0.029,0.365-0.155,0.518-0.335,0.671
		c-0.431-0.187-0.561-0.671-0.671-1.173c0.052-0.143,0.4,0.006,0.418-0.167c0.087-0.281-0.26-0.13-0.418-0.167
		c-0.063-0.259,0.231-0.161,0.168-0.419c0.015-0.183-0.296-0.039-0.418-0.086c-0.038-0.546-0.403-0.767-0.252-1.504
		c0.207,0.01,0.403,0.011,0.502-0.084v-1.423c0.306-0.059,0.377-0.348,0.586-0.501c0.525-0.051,0.525,0.422,1.172,0.252v1.757
		c-0.249,0.111-0.427,0.299-0.752,0.334v0.501c0.028,0.22,0.425,0.075,0.5,0.254c0.046,0.321-0.484,0.068-0.5,0.333
		c-0.059,0.525,0.759,0.356,0.834,0.081c0.223,0.197,0.575,0.263,0.92,0.334c-0.109,0.614,0.281,0.729,0.336,1.172h0.922
		c-0.016,0.185,0.069,0.268,0.251,0.254v1.002h-0.417c-0.063,0.341,0.268,0.288,0.166,0.668c-0.1,0.098-0.296,0.098-0.502,0.085
		c0.037-0.513-0.545-0.909-0.083-1.34C689.521,477.546,689.106,477.57,689.052,477.234"/>
	<path fill="#D36447" d="M688.882,479.412c0.265,0.041,0.19-0.259,0.502-0.168c0.049,0.206,0.325,0.18,0.251,0.501
		c-0.906-0.211-1.021,0.371-1.59,0.501c-0.209-0.125-0.457-0.21-0.417-0.584c0.024-0.311,0.44-0.229,0.417-0.587
		c-0.144-0.192-0.639-0.03-0.923-0.085c0.04-0.377,0.399-0.438,0.253-1.003c1.016-0.263,0.871,0.633,1.34,0.922
		c0.264,0.041,0.063-0.384,0.25-0.42C689.388,478.61,689.125,479.253,688.882,479.412"/>
	<path fill="#D36447" d="M690.137,479.494c0.263-0.008,0.241,0.265,0.588,0.168c-0.078,0.439,0.254,0.469,0.418,0.666
		c0.015,0.49-0.102,1.111,0.254,1.256c-0.278,0.279-0.202,0.911-0.753,0.922c-0.048-0.122,0.096-0.433-0.085-0.421
		c-0.365,0.083-0.073,0.82-0.165,1.174c-0.755-0.03-1.103-0.462-1.508-0.838c-0.065-0.291,0.095-0.353,0.166-0.5
		c-0.035-0.243-0.175-0.381-0.419-0.42c-0.239,0.143-0.573,0.43-0.836,0.083c-0.262-0.039-0.063,0.385-0.249,0.419
		c-0.68-0.698,0.658-1.347,1.338-1.508v0.42c0.313-0.021,0.469-0.2,0.753-0.25v-0.419c0.206,0.009,0.404,0.013,0.501-0.084
		C690.137,479.942,690.137,479.719,690.137,479.494"/>
	<path fill="#D36447" d="M658.083,480.497c0.641,0.325,1.401,3.311-0.333,3.016C657.608,482.256,657.996,481.528,658.083,480.497"/>
	<path fill="#D36447" d="M683.359,481.754c-0.128,0.661,0.285,0.776,0.334,1.256c0.713-0.125,0.856,0.317,1.172,0.586
		c-0.049,0.428-0.644,0.306-0.502,0.925h-0.67c-0.158,0.203-0.003,0.719-0.251,0.835c0.177,0.382,0.585,0.531,0.417,1.256
		c0.281,0.278,0.907,0.207,0.754,0.92c-0.344,0.071-1.026-0.193-1.005,0.25c0.185,0.403,0.929,0.243,0.755,1.003
		c-0.478,0.033-0.375-0.516-0.838-0.5c-0.274,0.029-0.132,0.482-0.166,0.753c-0.487-0.125-0.46,0.268-0.756,0.334
		c0.165,1.055-0.419,1.365-0.249,2.429c-0.531-0.43-0.866-0.096-1.504,0c-0.086-1.18-1.588-0.91-2.263-0.503
		c0.013-0.208,0.013-0.403-0.083-0.501h-1.17c0.021-0.55-0.422-0.642-0.254-1.341c-0.008-0.212-0.277-0.165-0.501-0.167
		c-0.093-0.826-0.626-1.216-0.501-2.259c0.304-0.055,0.378-0.347,0.585-0.501c0.526-0.108,0.422,0.414,1.002,0.253
		c0.334-0.56,1.112-0.675,1.426-1.259c1.118-0.265,1.036-1.717,2.428-1.756c0.097-0.099,0.094-0.297,0.084-0.501h0.416
		c-0.02-0.634,0.656-0.574,0.587-1.256C683.095,482.159,682.955,481.686,683.359,481.754"/>
	<path fill="#D36447" d="M666.286,483.512h0.335c0.208,0.265,0.655,0.292,1.172,0.253c0.524,0.477,0.55,1.455,1.506,1.506
		c0.137,1.007,1.119,1.166,1.923,1.507c0.183,0.628,0.904,0.71,1.089,1.337c0.115,0.451-0.319,0.353-0.254,0.753
		c0.852,0.1,0.646,1.252,1.424,1.423c0.089-0.314-0.204-0.238-0.167-0.501c0.238-0.097,0.32-0.351,0.753-0.248
		c-0.269,0.917,0.781,0.838,0.504,1.504c-0.261,0.061-0.163-0.231-0.42-0.167c-0.706,0.763,0.162,1.625-0.335,2.427
		c-0.361-0.139-0.647-0.357-1.255-0.25c-0.237-0.826-1.464-0.656-1.506-1.672c-0.101-0.098-0.297-0.097-0.502-0.084
		c-0.026-0.503-0.263-0.798-0.501-1.089c0.037-0.624-0.25-0.923-0.504-1.253c-0.041-1.8-1.681-2.004-2.01-3.517
		C666.896,485.021,666.323,484.537,666.286,483.512"/>
	<path fill="#D36447" d="M694.155,488.787h0.253c-0.19,0.773,0.423,0.747,0.5,1.255h-0.753
		C694.232,489.523,693.957,489.176,694.155,488.787"/>
	<path fill="#D36447" d="M696.917,490.124c-0.18-0.006-0.674,0.303-1.252,0.167c-0.119-0.371,0.283-0.219,0.25-0.501
		c-0.204-0.519-1.45,0-1.257-0.921c0.685,0.009,1.827-0.138,3.016-0.085c0.321,0.18,0.101,0.903,0.5,1.006
		c0.062,0.256-0.229,0.161-0.165,0.417c-0.017,0.183,0.297,0.039,0.417,0.084v0.586c0.013,0.238,0.348,0.153,0.587,0.166
		c0.548-0.707,1.436-1.07,2.008-1.758c0.709,0.462,1.237,1.105,2.509,1.004c0.691,0.369,1.339,0.784,2.43,0.751
		c0.398,0.604,1.142,0.868,1.758,1.257v0.67c0.654,0.213,1.523,0.204,1.508,1.087c-0.224,0.004-0.492-0.045-0.502,0.168
		c-0.072,0.405,0.403,0.267,0.25,0.753c0.098,0.098,0.297,0.095,0.5,0.082c-0.146,0.538,0.385,0.397,0.253,0.922
		c0.734,0.299,1.344,0.721,1.507,1.591c-0.533,0.085-0.659-0.233-0.838-0.503h-1.423c-0.308-0.585-0.853-0.934-1.004-1.675
		c-0.664-0.22-1.357-0.706-2.009-0.25c0.133,0.521-0.398,0.384-0.251,0.919c-0.572,0.181-1.164,0.342-2.009,0.254
		c-0.517-1.058-1.441-1.002-2.764-0.754c-0.127-0.744,0.217-1.012,0.758-1.089c-0.195-1.648-1.436-2.249-3.101-2.427
		c-0.558-0.472-1.153-0.578-1.926-0.254c0.088-0.668-0.165-1.002-0.752-1.002C696.045,490.366,696.852,490.616,696.917,490.124"/>
	<path fill="#D36447" d="M693.401,489.79c0,0.338-0.461,0.65-0.752,0.417C692.821,489.99,693.086,489.865,693.401,489.79"/>
	<path fill="#D36447" d="M694.908,491.548c-0.545-0.447-1.053-0.221-1.59-0.417c-0.416,0.031-0.313,0.581-0.922,0.417
		c-0.01-0.306,0.352-0.4,0-0.588C692.859,490.086,695.234,490.599,694.908,491.548"/>
	<path fill="#D36447" d="M691.896,491.13c-0.059,0.414-0.489,0.456-1.004,0.417C690.706,490.76,691.686,490.581,691.896,491.13"/>
	<path fill="#D36447" d="M677.5,494.226c0.183,0.014,0.038-0.296,0.085-0.419c0.773-0.021,1.226,0.282,1.756,0.501
		c0.254-0.246,0.705-0.299,1.257-0.249c0.047,0.548-0.589,0.417-0.922,0.587c0.083,0.364,0.82,0.072,1.175,0.166
		c0.118,0.384,0.44,0.564,1.003,0.502c0.01,0.207,0.013,0.404-0.085,0.501c-0.519,0.047-0.703-0.511-1.003,0
		c-0.405-0.432-1.484-0.189-2.261-0.25c-0.511-0.241-0.982-0.524-1.758-0.501c-0.268,0.072-0.114-0.274-0.337-0.252
		c-0.919,0.515-2.125-0.365-2.845-0.836c0.388-0.914,0.772-0.39,1.842-0.42C675.837,494.049,676.81,493.996,677.5,494.226"/>
	<path fill="#D36447" d="M691.393,494.896c0.065,0.293-0.688,0.193-0.751,0.082C690.575,494.687,691.331,494.786,691.393,494.896"/>
	<path fill="#D36447" d="M684.865,495.814c-0.984,0.319-1.886,0.126-2.762,0.253c-0.015-0.459,0.136-0.756,0.585-0.754
		C683.149,496.039,684.646,494.602,684.865,495.814"/>
	<path fill="#D36447" d="M687.124,495.564v0.503c-0.852,0.184-0.996-0.34-1.757-0.25
		C685.546,494.846,686.428,495.63,687.124,495.564"/>
	<path fill="#D36447" d="M689.889,495.396c0.065,0.294-0.691,0.197-0.755,0.086C689.068,495.187,689.827,495.286,689.889,495.396"/>
	<path fill="#D36447" d="M691.73,495.648c-0.687,0.489-1.737,0.61-2.096,1.425c-0.563-0.146-0.625,0.211-1.003,0.25
		c-0.244-1.362,1.277-0.954,1.591-1.759C690.968,495.871,691.597,494.924,691.73,495.648"/>
	<path fill="#D36447" d="M710.979,496.067c0.479,0.082,0.65,0.466,0.837,0.836c-0.093,0.02-0.057,0.167-0.168,0.167
		c-0.295-0.175-0.345-0.6-0.751-0.669C710.885,496.251,710.998,496.226,710.979,496.067"/>
	<path fill="#D36447" d="M684.865,496.317h1.004c0.015,0.403,0.557,0.278,0.502,0.753c-0.754,0.165-0.773-0.397-1.509-0.25
		C684.865,496.655,684.865,496.485,684.865,496.317"/>
	<path fill="#D36447" d="M699.179,515.4c0.276-0.03,0.364-0.249,0.501-0.419c-0.681,0.052-1.085,1.087-2.009,1.172
		c0.182-1.047-0.806-0.924-0.837-1.76c-0.823,0.044-1.351-0.209-1.841-0.5c-0.406-0.1-0.227,0.387-0.669,0.252
		c-0.444-0.513-1.334-0.014-1.757,0.252c-1.614-0.138-2.583,0.369-3.18,1.256H688.3c-0.731-0.646-1.731,0.156-2.261,0.5
		c-1.078,0.073-1.988-0.019-2.428-0.584c0.422-0.77,0.228-1.87-0.502-2.179c-0.087-1.501-1.163-2.019-1.506-3.262h0.419
		c-0.109-0.729-0.638-1.038-0.922-1.591c0.536-0.332-0.007-1.588,0.333-1.926c0.354-0.131,0.014,0.432,0.252,0.42
		c0.512-0.549,1.123-0.998,1.758-1.424c0.29-0.066,0.354,0.092,0.502,0.168c0.416-0.283,1.09-0.307,1.422-0.67
		c1.12,0.521,1.667-0.796,2.261-1.34v-0.922c0.403-0.014,0.279-0.556,0.753-0.5c-0.05,0.411,0.107,0.615,0.419,0.669
		c0.19-0.144,0.031-0.64,0.085-0.92h0.667c0.092-0.314-0.207-0.239-0.168-0.505c0.71-0.574,1.317-1.252,2.347-1.505
		c0.426,0.214,0.618,0.663,1.004,0.919c0.441-0.373,0.432,0.227,1.086,0.086c-0.336-0.545,0.048-0.68,0.085-1.256
		c0.206,0.01,0.402,0.01,0.5-0.087v-0.668c0.522-0.314,1.622-0.054,1.928-0.587c0.035-0.4-0.515-0.212-0.418-0.668
		c1.3,0.363,2.581,1.183,3.765,0.754c0.028,0.25,0.344,0.215,0.25,0.585c-0.57,0.405-0.707,1.245-1.17,1.759
		c0.502,0.809,1.731,0.891,2.26,1.671h0.669c-0.142,0.646,0.53,0.475,0.754,0.757c0.306,0,0.222-0.395,0.669-0.252
		c0.364-0.779,0.756-1.533,0.586-2.846c0.237-0.512,0.523-0.984,0.501-1.76c0.172-0.217,0.334-0.442,0.25-0.919h0.503
		c0.141,0.889,0.572,1.488,0.504,2.595c0.153,0.484,0.93,0.35,1.252,0.67c-0.275,1.558,0.741,1.826,0.502,3.349
		c0.498,0.478,1.127,0.825,1.758,1.17c-0.172,0.702,0.378,0.682,0.252,1.339c0.186,0.205,0.541,0.234,0.752,0.419
		c0.049,1.04,0.765,1.412,1.257,2.009c-0.107,0.897-0.38,1.632-0.252,2.763c-0.579,0.341-0.801,1.037-1.004,1.756
		c-0.286,0.131-0.559,0.278-0.502,0.753c-0.612,0.061-0.947,0.395-1.003,1.004c-0.402,0.353-0.964,0.543-1.003,1.256
		c-0.304-0.023-0.23,0.331-0.503,0.334v0.669c-0.559,0.364-1.841,0.003-2.006,0.756h-1.256v-0.418
		c-0.386-0.051-0.392,0.278-0.585,0.418c-1.081,0.188-1.457-0.329-2.431-0.253c0.015-0.182-0.065-0.266-0.25-0.25
		c0-0.278,0-0.559,0-0.84c-0.209-0.179-0.274-0.506-0.752-0.416c-0.107-0.416,0.201-0.412,0.168-0.755
		c-0.535-0.063-0.447,0.499-0.923,0.501C698.943,516.005,699.314,515.956,699.179,515.4"/>
	<path fill="#D36447" d="M719.768,515.15h0.252c0.058,0.401,0.182,0.841-0.166,1.087c0.08,0.225,0.184,0.428,0.25,0.672
		c0.394,0.084,0.278-0.338,0.671-0.253c-0.256,0.472-0.516,0.938-1.175,1.003c-0.17,0.865-0.973,1.096-1.589,1.508
		c-0.054-0.445,0.384-0.396,0.503-0.669c0.106-0.331-0.244-0.203-0.254-0.419C718.975,517.319,719.895,516.497,719.768,515.15"/>
	<path fill="#D36447" d="M690.809,446.268c13.799-0.656,24.272,4.872,31.305,11.468c7.064,6.624,12.939,16.251,13.557,29.207
		c0.338,7.125-1.074,13.14-3.185,18.246c-2.096,5.089-4.862,9.439-8.282,13.059c-6.89,7.287-16.111,12.847-29.296,13.474
		c-13.735,0.656-24.179-4.842-31.218-11.382c-7.409-6.886-12.863-16.1-13.559-29.211c-0.743-13.974,4.796-24.164,11.299-31.302
		c4.897-5.376,11.705-9.813,20.004-12.135C684.27,446.896,687.733,446.414,690.809,446.268 M703.114,449.865
		c-1.26-0.022-2.153-0.413-3.6-0.249c-0.677-0.791-1.463,0.239-1.929,0.501c-0.387,0.224-1.017,0.146-0.919,0.587
		c0.221,0.266,0.363-0.247,0.754-0.084c0.04,0.265-0.258,0.189-0.165,0.503c0.647-0.422,1.277-0.148,1.839,0.167
		c0.275-0.029,0.171-0.445,0.505-0.417c0.746,0.394,0.608,1.675,1.59,1.841v0.334c-0.038,0.189-0.446,0.004-0.503,0.167v0.585
		c0.318,0.128,0.78,0.113,0.754,0.584c-0.301,0.006-0.683-0.065-0.754,0.169c0.063,0.494,0.774,0.342,0.837,0.837
		c0.633-0.019,1.271-0.044,1.506,0.334c-0.181-0.016-0.037,0.297-0.082,0.418c-0.746-0.184-0.761,0.356-1.174,0.503
		c-0.133-0.288-0.561-0.278-1.003-0.25c0.056,0.725,0.631,0.931,0.92,1.421c-0.332,0.697-0.649,1.416-0.501,2.595
		c-0.269-0.073-0.115,0.277-0.331,0.251c-0.163-0.036-0.154-0.238-0.422-0.167c-0.253,0.558-1.06,0.403-1.756,0.25
		c0.011,0.541-0.354,0.708-0.672,0.92c-0.351-0.206-0.458-0.654-0.75-0.92c-0.246,0.121,0.075,0.803-0.169,0.92
		c-0.69-0.159-0.818,0.244-1.339,0.25c-0.17-0.135,0.002-0.616-0.168-0.75h-0.584c-0.063,0.476,0.476,0.356,0.417,0.836
		c-0.384,0.23-0.091,1.135-0.67,1.17c-0.107-0.197-0.377-0.235-0.585-0.334c-0.025-0.619-0.575-0.713-0.502-1.423
		c0.803-0.315,1.524-0.709,2.092-1.258c1.015,0.225,1.514-0.447,2.176-0.083c0.045-0.122-0.098-0.433,0.082-0.42
		c0.669-0.028,0.78-0.616,1.593-0.502c0.129-0.275-0.396-0.315-0.084-0.501c0.256-0.063,0.1,0.288,0.418,0.167
		c0.42-0.786,0.286-2.064-0.25-2.593c0.196-0.417,0.929-0.295,1.002-0.836c-0.305-0.376-0.352-0.716-0.251-1.34
		c-0.629-0.486-0.363-1.869-1.257-2.092v1.671c-0.405,0.207-0.702,0.524-0.837,1.004c-1.072,0.436-1.898,2.167-3.515,1.257
		c-0.416,0.391-1.184,0.431-1.172,1.256c-0.349,0.345-1.106,0.286-1.257,0.834c0.849,0.381,1.407,1.05,1.257,2.43
		c-0.789,0.131-1.36,0.479-2.26,0.501c0.099-0.985-0.006-1.297,0.169-2.009c-0.55,0.019-1.12,0.058-1.172-0.418
		c0.186-0.148,0.327-0.343,0.253-0.753c-1.103-0.452-1.851,0.6-2.513,0.584c0.17-0.442,0.528-0.7,0.668-1.168
		c-1.319-0.038-1.434,1.131-2.844,1.003c-0.059,0.475,0.396,0.437,0.669,0.585c-0.018,0.238-0.011,0.455,0.252,0.417
		c0.318-0.159,0.604-0.343,0.92-0.5c0.085,0.391,0.807,0.137,1.089,0.334v0.418c-1.072,0.044-1.602,0.628-2.177,1.172
		c0.174,0.272,0.457,0.435,0.67,0.669c-0.128,1.078,1.065,0.831,0.753,2.092c-0.08,0.223-0.724-0.113-0.669,0.248
		c0.116,0.247,0.805-0.075,0.918,0.169c-0.389,0.529-0.414,1.428-1.252,1.506c-0.013,0.966-1.196,0.758-1.006,1.925
		c-1.099,0.045-0.908,1.379-2.176,1.259c-0.156,0.231-0.354,0.423-0.418,0.75c-1.296,0.155-2.02-0.04-2.762,0.753
		c-0.894,0.166-1.796,0.328-2.175,1.006c0.013,0.375,0.515,0.264,0.501,0.667c-0.498,0.427-0.667,1.173-1.424,1.341
		c-0.193-0.28-0.586-0.363-0.586-0.835c0.135-0.62,0.925-0.586,1.425-0.838c-0.578-0.038-0.348-0.88-0.755-1.089
		c-1.35,0.076-1.738,1.108-2.675,1.588c-0.212,0.958,0.219,1.123,0.501,1.508c0.052,0.075-0.047,0.256,0,0.334
		c0.157,0.272,0.843,0.598,1.003,0.922c0.19,0.382,0.152,0.567,0.501,0.754v2.594c-0.462,0.792-1.189,1.318-2.176,1.589
		c-0.204,0.827-1.047,1.018-1.588,1.508v-1.422c-0.14-0.142-0.492-0.068-0.755-0.087c0.162-0.523-0.267-0.458-0.501-0.584v-0.838
		c-0.478-0.05-0.596-0.464-1.256-0.333c-0.039-0.298,0.136-0.808-0.252-0.755c-0.376,0.266-0.561,0.725-0.501,1.423
		c-0.319,0.518-0.729,0.946-0.753,1.758c0.057,0.166,0.465-0.021,0.503,0.166c-0.156,0.854,0.42,0.975,0.25,1.843
		c1.088,0.056,1.338,0.95,2.009,1.425v2.008c0.298,0.399,0.6,0.796,0.501,1.588c0.14,0.113,0.533-0.03,0.502,0.253
		c-0.088,0.19-0.528,0.033-0.752,0.083c-0.376-1.105-2.017-0.939-2.01-2.427c-0.197-0.137-0.456-0.216-0.5-0.501
		c0.277-0.27-0.169-1.061,0-1.757c-0.432-0.24-0.658-0.685-0.756-1.256c-0.057-0.166-0.465,0.02-0.501-0.167
		c-0.181-1.233,0.746-2.345,0.251-3.098c0.712-1.114-0.319-2.476,0-4.016c-0.759,0.134-1.063,1.168-2.007,0.836
		c0.078-0.751,0.584-1.964,0-2.593c-0.084-0.335,0.248-0.253,0.166-0.586c-0.734-0.047-0.672-0.891-0.669-1.675
		c-0.697,0.336-1.276,0.787-2.428,0.671c-0.049,0.173-0.161,0.285-0.334,0.333v0.671c-0.425,0.05-0.332,0.618-0.923,0.501
		c-0.574,0.958-1.743,1.32-2.093,2.511c-0.308,0-0.223,0.391-0.669,0.25c0.006,0.565-0.575,0.539-0.837,0.835
		c0.288,1.822-0.713,2.356-0.753,3.851c-0.726,0.473-0.619,1.777-1.504,2.091c-0.531-1.953-0.125-4.84-0.255-7.196
		c0.037-0.163,0.327-0.067,0.255-0.334c-0.111-1.001,0.357-1.425,0.499-2.177c-0.343-0.033-0.335,0.276-0.754,0.169
		c-0.142-0.761,0.17-1.061,0.421-1.423c-0.304-0.256-0.115-1-0.166-1.508c-0.341,0.024-0.46,0.267-0.922,0.17
		c-2.756,5.18-4.432,10.671-4.771,17.992c-0.369,7.967,1.704,14.617,4.437,20.088c4.069,8.141,10.604,14.636,18.665,18.665
		c4.127,2.062,9.267,3.919,14.48,4.269c9.113,0.61,16.551-1.036,23.017-4.269c8.215-4.104,14.595-10.521,18.664-18.665
		c2.099-4.192,3.917-9.229,4.269-14.479c0.547-8.104-0.723-14.869-3.18-20.674c-3.748-8.852-9.819-15.556-18.078-20.085
		c-1.442-0.792-4.101-2.463-5.775-2.428c-0.146-0.075-0.108-0.341-0.418-0.253c-0.567,0.243-0.48,0.169-1.088,0
		c0.091,0.745,1.116,0.557,1.422,1.087c0.21,0.933-0.724,0.727-0.501,1.675c-0.341,0.078-0.345,0.491-0.753,0.505
		c0.354-1.33-1.884-1.375-1.758-3.014c0.6,0.125,0.534-0.413,0.669-0.755c-0.442-0.134-0.262,0.352-0.669,0.251
		c-0.047-0.23-0.289-0.268-0.334-0.502h-0.836C703.078,449.22,703.327,449.773,703.114,449.865"/>
	<path fill="#D36447" d="M689.635,487.029v0.751c-0.7-0.142-0.49,0.626-1.173,0.503c-0.071,0.372-0.065,0.825-0.5,0.834
		c-0.131,0.356,0.432,0.013,0.418,0.253c-0.031,0.391-0.576,0.082-0.583-0.083c-0.196,0.278-0.319,0.632-0.588,0.836
		c0.344,0.714,0.498,1.622,1.171,2.006c-0.122,0.27-0.359,0.424-0.253,0.922h-0.499v-0.419c-0.314-0.088-0.237,0.21-0.504,0.169
		c-0.071-0.291-0.369-0.355-0.501-0.586c-0.044-0.188,0.161-0.123,0.168-0.253c-0.473-0.226-0.251-1.143-0.669-1.421
		c-0.551,0.369-0.113,1.73-0.25,2.507h-1.007c0.039-0.601,0.406-0.876,0.253-1.672c-0.139-0.14-0.492-0.066-0.755-0.083
		c0.181-1.137,0.532-1.796,0.252-2.76c0.3,0.047,0.253-0.247,0.25-0.503h0.42C685.619,486.115,688.24,487.957,689.635,487.029
		 M687.629,488.787c0.414-0.146,0.55-0.564,0.669-1.003h-1.841C686.858,488.099,687.412,488.278,687.629,488.787 M685.619,488.366
		v0.334c0.33,0.106,1.303,0.211,1.505-0.083C687.124,488.071,685.979,488.281,685.619,488.366"/>
	<path fill="#D36447" d="M692.147,486.274h0.252c0.134,0.273-0.02,0.319,0,0.67c0.335,0.083,0.253-0.25,0.585-0.167
		c0.03,0.109,0.147,0.129,0.166,0.25c0.114,0.366-0.324,0.178-0.251,0.503c0.025,0.397,0.58,0.26,0.502,0.755
		c-0.836-0.196-0.705,0.576-1.255,0.668c0.011,0.379,0.365,0.411,0.503,0.669c-0.077,0.314-0.313,0.469-0.757,0.417
		C691.694,488.578,691.752,487.627,692.147,486.274"/>
</g>
</svg>
