<?xml version="1.0" encoding="utf-8"?>
<!-- Generator: Adobe Illustrator 16.0.3, SVG Export Plug-In . SVG Version: 6.00 Build 0)  -->
<!DOCTYPE svg PUBLIC "-//W3C//DTD SVG 1.1//EN" "http://www.w3.org/Graphics/SVG/1.1/DTD/svg11.dtd">
<svg version="1.1" id="Layer_1" xmlns="http://www.w3.org/2000/svg" xmlns:xlink="http://www.w3.org/1999/xlink" x="0px" y="0px"
	 width="1000px" height="1000px" viewBox="0 0 1000 1000" enable-background="new 0 0 1000 1000" xml:space="preserve">
<path fill="none" d="M940.108,366.283H787.132c-10.774,0-19.392-6.659-19.392-14.984V99.896h174.521
	c8.618,0,17.238,6.659,17.238,14.984v234.755C959.5,359.624,950.883,366.283,940.108,366.283"/>
<path fill="none" d="M766.076,332.986H483.04V66.597h268.054c8.325,0,14.984,6.659,14.984,14.984v251.405H766.076z"/>
<path fill="none" d="M121.75,832.464c11.653,28.305,38.294,46.617,69.927,46.617c41.623,0,74.922-33.299,74.922-74.921
	c0-28.305-14.984-51.612-38.294-64.933C188.348,765.866,151.718,797.501,121.75,832.464"/>
<path fill="#FEE8A3" d="M33.51,998.956c-1.664,0-3.331,0-4.995-1.664c-8.325-3.33-13.32-13.32-9.99-21.644
	C90.117,777.521,273.259,649.321,483.04,649.321c209.781,0,392.924,128.2,464.515,327.991c3.331,8.325-1.664,18.315-9.989,21.644
	c-8.325,3.331-18.315-1.664-21.644-9.989C849.325,802.495,677.837,682.621,483.04,682.621
	c-194.796,0-366.283,119.874-434.546,304.682C46.828,993.962,40.169,998.956,33.51,998.956z"/>
<path fill="#FEE8A3" d="M483.04,765.866c-9.989,0-16.648-6.659-16.648-16.649V16.648C466.392,6.659,473.051,0,483.04,0
	s16.648,6.659,16.648,16.648v732.568C499.688,759.207,493.029,765.866,483.04,765.866z"/>
<path fill="#FEE8A3" d="M782.727,349.635H466.39V49.948h284.702c16.648,0,31.633,14.984,31.633,31.633v268.054H782.727z
	 M499.688,316.335h249.739V81.581l-249.739,1.664V316.335z"/>
<path fill="#FEE8A3" d="M950.884,382.934H781.061c-18.314,0-31.633-14.984-31.633-31.633V83.247h201.455
	c16.649,0,31.634,14.984,31.634,31.633v234.755C982.519,367.95,967.534,382.934,950.884,382.934z M782.727,116.544v234.754
	l166.492-1.664V114.88L782.727,116.544z M950.884,349.635L950.884,349.635L950.884,349.635z"/>
<path fill="#FEE8A3" d="M483.04,832.464c-46.617,0-83.247-36.628-83.247-83.247c0-9.989,6.659-16.648,16.648-16.648
	c9.99,0,16.649,6.659,16.649,16.648c0,28.305,21.644,49.948,49.947,49.948c28.305,0,49.948-21.644,49.948-49.948
	c0-9.989,6.659-16.648,16.648-16.648s16.648,6.659,16.648,16.648C566.285,795.835,529.657,832.464,483.04,832.464z"/>
<path fill="#FEE8A3" d="M749.428,899.061c-36.628,0-66.597-29.969-66.597-66.597c0-9.989,6.659-16.648,16.649-16.648
	c9.989,0,16.648,6.659,16.648,16.648c0,18.315,14.984,33.3,33.299,33.3c9.989,0,16.648,6.659,16.648,16.648
	S759.418,899.061,749.428,899.061z"/>
<path fill="#FEE8A3" d="M190.012,897.396c-38.294,0-71.591-23.31-84.911-58.273l-3.331-9.989l6.659-8.325
	c31.633-36.628,68.263-69.927,109.885-94.901l8.325-4.994l8.325,4.994c28.305,16.649,46.617,46.617,46.617,79.917
	C281.583,855.771,241.625,897.396,190.012,897.396z M141.729,835.793c9.989,16.648,28.304,28.304,49.948,28.304
	c31.633,0,58.273-26.638,58.273-58.272c0-16.648-8.325-33.3-21.644-44.953C195.007,782.517,166.703,807.49,141.729,835.793z"/>
<path fill="#FEE8A3" d="M582.936,915.709c0,9.99-6.659,16.648-16.648,16.648s-16.648-6.658-16.648-16.648
	c0-9.989,6.659-16.648,16.648-16.648C576.274,899.061,582.936,905.72,582.936,915.709"/>
<path fill="#FEE8A3" d="M366.494,849.113c0,9.989-6.659,16.648-16.648,16.648c-9.99,0-16.648-6.659-16.648-16.648
	c0-9.99,6.658-16.649,16.648-16.649C359.835,832.464,366.494,839.123,366.494,849.113"/>
</svg>
