<?xml version="1.0" encoding="utf-8"?>
<!-- Generator: Adobe Illustrator 16.0.3, SVG Export Plug-In . SVG Version: 6.00 Build 0)  -->
<!DOCTYPE svg PUBLIC "-//W3C//DTD SVG 1.1//EN" "http://www.w3.org/Graphics/SVG/1.1/DTD/svg11.dtd">
<svg version="1.1" id="Layer_1" xmlns:fi="http://pattern.flaticon.com/"
	 xmlns="http://www.w3.org/2000/svg" xmlns:xlink="http://www.w3.org/1999/xlink" x="0px" y="0px" width="3000px" height="1500px"
	 viewBox="0 0 3000 1500" enable-background="new 0 0 3000 1500" xml:space="preserve">
<rect fill="#D36447" width="3000" height="1500"/>
<g>
	<path d="M63.65,56.624c0,0.477-0.318,0.794-0.794,0.794c-0.477,0-0.795-0.318-0.795-0.794c0-0.477,0.318-0.795,0.795-0.795
		C63.332,55.829,63.65,56.147,63.65,56.624"/>
	<path d="M81.928,89.207c0,0.477-0.318,0.794-0.794,0.794c-0.477,0-0.795-0.317-0.795-0.794s0.318-0.794,0.795-0.794
		C81.61,88.413,81.928,88.73,81.928,89.207"/>
	<path d="M97.823,82.849c0,0.477-0.318,0.795-0.795,0.795c-0.477,0-0.794-0.318-0.794-0.795c0-0.477,0.318-0.794,0.794-0.794
		C97.505,82.054,97.823,82.373,97.823,82.849"/>
	<path d="M92.26,60.597c0,0.477-0.318,0.795-0.795,0.795c-0.477,0-0.794-0.318-0.794-0.795c0-0.477,0.318-0.794,0.794-0.794
		C91.942,59.803,92.26,60.121,92.26,60.597"/>
	<path d="M96.233,45.498c0,0.477-0.318,0.794-0.795,0.794c-0.477,0-0.794-0.318-0.794-0.794c0-0.477,0.318-0.795,0.794-0.795
		C95.916,44.703,96.233,45.021,96.233,45.498"/>
	<path d="M66.034,90.796c-8.345,0-15.1-6.755-15.1-15.1c0-8.344,6.755-15.1,15.1-15.1c8.344,0,15.1,6.755,15.1,15.1
		C81.134,84.042,74.378,90.796,66.034,90.796z M66.034,62.187c-7.47,0-13.51,6.04-13.51,13.51c0,7.471,6.04,13.51,13.51,13.51
		s13.51-6.04,13.51-13.51C79.544,68.227,73.504,62.187,66.034,62.187z"/>
	<path d="M74.458,78.955c-1.748,0-3.417-1.351-4.212-2.543c-0.318-0.397-0.397-0.875-0.397-1.271v-0.08
		c-0.079,0-0.238,0.08-0.397,0.159l-0.238,0.159c-1.748,0.795-2.225,0.954-3.497-0.08c-0.477-0.397-0.636-0.874-0.795-1.271
		c0-0.079-0.079-0.238-0.159-0.318c0,0-0.159,0-0.477,0.08c-1.271,0.318-2.146,0.477-2.543-0.159
		c-0.397-0.557-0.08-1.113,0.238-1.589c0.397-0.636,0.715-1.272,0.477-1.908c-0.08-0.238-0.477-1.033,0.079-1.589
		c0.636-0.636,1.51-0.159,2.623,0.318c0.397,0.159,1.113,0.477,1.351,0.556c0.08-0.079,0.239-0.238,0.239-0.397
		c0.079-0.238,0-0.556-0.159-0.715c-0.636-0.715-0.477-1.907,0.159-2.464c0.556-0.477,1.43-0.715,2.463,0.238
		c0.238,0,0.715-0.556,0.954-1.351c0.08-0.159,0.159-0.795-0.08-1.113c-0.238,0.08-0.715,0.318-1.112,0.397
		c-0.795,0.318-1.51,0.636-2.146,0.636l0,0c-0.874,0-1.669,0.556-2.463,1.113c-0.477,0.397-1.033,0.715-1.589,1.033
		c-0.954,0.477-1.987,0.238-2.702-0.557s-0.795-1.907-0.238-2.702c0.238-0.397,0.556-0.874,0.636-1.351l0.079-0.477l0.397-0.159
		c1.669-0.557,3.338-0.875,5.007-0.875c8.027,0,14.623,6.12,15.02,13.987l0.159,1.033h-2.702l-0.238-0.238
		c-0.239-0.318-0.477-0.397-0.557-0.477c-0.159,0.317-0.238,0.953-0.238,1.271c-0.079,0.556-0.159,0.953-0.318,1.191
		C76.286,78.717,75.253,78.955,74.458,78.955L74.458,78.955z M70.008,73.472c0.238,0,0.397,0.08,0.636,0.159
		c0.556,0.318,0.636,0.875,0.715,1.352c0.079,0.238,0.079,0.477,0.159,0.636c0.636,0.953,1.828,1.907,2.861,1.907l0,0
		c0.477,0,0.874-0.238,1.192-0.715c0-0.08,0.08-0.397,0.08-0.636c0.159-1.033,0.318-2.225,1.351-2.623
		c0.794-0.238,1.51,0.318,1.986,0.715h0.318c-0.556-4.768-3.576-8.662-7.708-10.49c0.08,0.318,0.08,0.715,0,1.033
		c-0.159,1.192-0.874,2.543-1.987,2.861c-0.636,0.238-1.192,0.079-1.669-0.397c-0.159-0.159-0.238-0.159-0.318-0.238
		c0,0-0.08,0.238,0,0.317c0.477,0.477,0.715,1.352,0.477,2.066c-0.159,0.715-0.636,1.351-1.271,1.51
		c-0.636,0.239-1.51-0.159-2.543-0.636c-0.159-0.079-0.318-0.159-0.477-0.238c0.159,0.874-0.08,1.59-0.397,2.066
		c0.08,0,0.159-0.079,0.318-0.079c1.828-0.477,2.305,0.715,2.464,1.271c0.079,0.238,0.159,0.397,0.317,0.556
		c0.636,0.477,0.636,0.477,1.908-0.079l0.159-0.08C69.133,73.63,69.61,73.472,70.008,73.472z M75.65,76.73L75.65,76.73L75.65,76.73z
		 M77.478,74.982L77.478,74.982L77.478,74.982z M61.902,63.14c-0.159,0.557-0.477,1.033-0.715,1.431
		c-0.239,0.318-0.08,0.636,0.08,0.874c0.079,0.08,0.397,0.397,0.794,0.159c0.477-0.238,0.874-0.556,1.351-0.874
		c0.954-0.636,2.066-1.431,3.417-1.431l0,0c0.239,0,1.033-0.318,1.51-0.556c0,0,0.079,0,0.079-0.08
		C66.352,62.346,64.047,62.504,61.902,63.14z"/>
	<path d="M66.034,90.796c-5.483,0-10.57-3.02-13.272-7.868c-0.159-0.318-0.079-0.715,0.159-0.954l0.636-0.556l1.51-1.51
		c0.08-0.079,0.159-0.079,0.239-0.159l1.589-0.795c0.08,0,0.08-0.08,0.159-0.08l3.179-0.794c0.238-0.08,0.397,0,0.636,0.08
		l1.192,0.715l1.749,0.716h2.225c0.08,0,0.159,0,0.238,0.079l2.384,0.795c0.318,0.079,0.556,0.397,0.556,0.715v1.59h3.179
		c0.238,0,0.477,0.159,0.636,0.317c0.159,0.239,0.159,0.477,0.079,0.715l-0.794,2.384c0,0.079-0.08,0.238-0.159,0.318l-1.351,1.43
		v1.51c0,0.318-0.238,0.636-0.556,0.794C68.816,90.558,67.465,90.796,66.034,90.796z M54.511,82.77
		c2.464,3.974,6.834,6.437,11.523,6.437c1.033,0,2.146-0.159,3.179-0.397v-1.192c0-0.238,0.08-0.397,0.238-0.557l1.431-1.431
		l0.397-1.191h-2.861c-0.477,0-0.795-0.318-0.795-0.795v-1.828l-1.749-0.556H63.65c-0.08,0-0.238,0-0.318-0.08l-1.907-0.794
		c-0.08,0-0.08,0-0.08-0.08l-0.954-0.636l-2.781,0.715l-1.431,0.715L54.511,82.77z"/>
	<path d="M78.75,60.597c-4.848,0-8.742-3.894-8.742-8.742s3.894-8.742,8.742-8.742s8.742,3.894,8.742,8.742
		S83.597,60.597,78.75,60.597z M78.75,44.703c-3.974,0-7.152,3.179-7.152,7.152s3.179,7.152,7.152,7.152s7.152-3.179,7.152-7.152
		S82.723,44.703,78.75,44.703z"/>
	<path d="M93.054,77.287c-3.099,0-5.563-2.464-5.563-5.563c0-3.099,2.464-5.563,5.563-5.563c3.1,0,5.563,2.464,5.563,5.563
		C98.617,74.823,96.154,77.287,93.054,77.287z M93.054,67.75c-2.225,0-3.974,1.749-3.974,3.974c0,2.226,1.749,3.974,3.974,3.974
		s3.974-1.748,3.974-3.974C97.028,69.498,95.279,67.75,93.054,67.75z"/>
	<path d="M80.339,48.677h-7.947c-0.477,0-0.795-0.318-0.795-0.795c0-0.477,0.318-0.794,0.795-0.794h7.947
		c0.477,0,0.795,0.318,0.795,0.794C81.134,48.359,80.816,48.677,80.339,48.677z"/>
	<path d="M78.75,57.418h-6.357c-0.477,0-0.795-0.318-0.795-0.794c0-0.477,0.318-0.795,0.795-0.795h6.357
		c0.477,0,0.795,0.318,0.795,0.795C79.544,57.101,79.227,57.418,78.75,57.418z"/>
	<path d="M85.902,55.034h-4.768c-0.477,0-0.795-0.318-0.795-0.794c0-0.477,0.318-0.795,0.795-0.795h4.768
		c0.477,0,0.795,0.318,0.795,0.795C86.697,54.716,86.379,55.034,85.902,55.034z"/>
	<path d="M85.902,51.061h-2.384c-0.477,0-0.795-0.318-0.795-0.795c0-0.477,0.318-0.795,0.795-0.795h2.384
		c0.477,0,0.795,0.318,0.795,0.795C86.697,50.743,86.379,51.061,85.902,51.061z"/>
	<path d="M75.571,52.65h-4.769c-0.477,0-0.794-0.318-0.794-0.795c0-0.477,0.318-0.794,0.794-0.794h4.769
		c0.477,0,0.794,0.318,0.794,0.794C76.365,52.333,76.047,52.65,75.571,52.65z"/>
	<path d="M91.465,70.929h-2.384c-0.477,0-0.794-0.318-0.794-0.795c0-0.477,0.318-0.794,0.794-0.794h2.384
		c0.477,0,0.795,0.318,0.795,0.794C92.26,70.611,91.942,70.929,91.465,70.929z"/>
	<path d="M97.028,74.107h-2.384c-0.477,0-0.794-0.318-0.794-0.794c0-0.477,0.318-0.795,0.794-0.795h2.384
		c0.477,0,0.795,0.318,0.795,0.795C97.823,73.79,97.505,74.107,97.028,74.107z"/>
	<path d="M55.703,51.379l-3.497-3.497l3.497-3.497l3.497,3.497L55.703,51.379z M54.431,47.882l1.271,1.271l1.272-1.271l-1.272-1.271
		L54.431,47.882z"/>
	<path d="M55.703,46.292c-0.477,0-0.794-0.318-0.794-0.794v-1.59c0-0.477,0.318-0.794,0.794-0.794c0.477,0,0.795,0.318,0.795,0.794
		v1.59C56.498,45.975,56.18,46.292,55.703,46.292z"/>
	<path d="M59.676,48.677h-1.589c-0.477,0-0.794-0.318-0.794-0.795c0-0.477,0.318-0.794,0.794-0.794h1.589
		c0.477,0,0.795,0.318,0.795,0.794C60.471,48.359,60.153,48.677,59.676,48.677z"/>
	<path d="M55.703,52.65c-0.477,0-0.794-0.318-0.794-0.795v-1.589c0-0.477,0.318-0.795,0.794-0.795c0.477,0,0.795,0.318,0.795,0.795
		v1.589C56.498,52.333,56.18,52.65,55.703,52.65z"/>
	<path d="M53.319,48.677h-1.589c-0.477,0-0.795-0.318-0.795-0.795c0-0.477,0.318-0.794,0.795-0.794h1.589
		c0.477,0,0.794,0.318,0.794,0.794C54.113,48.359,53.795,48.677,53.319,48.677z"/>
</g>
<g>
	<path d="M174.355,190.252c-4.202,0-7.563-3.362-7.563-7.563c0-4.203,3.361-7.564,7.563-7.564s7.564,3.362,7.564,7.564
		C181.919,186.891,178.558,190.252,174.355,190.252z M174.355,176.806c-3.278,0-5.883,2.605-5.883,5.883
		c0,3.277,2.605,5.883,5.883,5.883s5.883-2.605,5.883-5.883C180.238,179.411,177.633,176.806,174.355,176.806z"/>
	<path d="M153.345,190.252c-2.773,0-5.042-2.269-5.042-5.042s2.269-5.042,5.042-5.042c2.774,0,5.042,2.269,5.042,5.042
		S156.119,190.252,153.345,190.252z M153.345,181.848c-1.849,0-3.361,1.513-3.361,3.362s1.512,3.362,3.361,3.362
		s3.362-1.513,3.362-3.362S155.194,181.848,153.345,181.848z"/>
	<path d="M163.178,169.494c0.336,0.337,0.336,0.841,0,1.177c-0.336,0.336-0.841,0.336-1.177,0c-0.336-0.336-0.336-0.84,0-1.177
		C162.337,169.158,162.842,169.158,163.178,169.494"/>
	<path d="M160.069,168.402c-0.253,0-0.421-0.084-0.588-0.252l-2.521-2.521c-0.336-0.336-0.336-0.84,0-1.177
		c0.336-0.335,0.84-0.335,1.177,0l2.521,2.522c0.336,0.336,0.336,0.84,0,1.176C160.489,168.317,160.32,168.402,160.069,168.402z"/>
	<path d="M167.632,175.965c-0.252,0-0.42-0.084-0.588-0.252l-2.521-2.521c-0.336-0.336-0.336-0.84,0-1.177
		c0.335-0.336,0.84-0.336,1.177,0l2.521,2.521c0.336,0.336,0.336,0.841,0,1.176C168.052,175.881,167.884,175.965,167.632,175.965z"
		/>
	<path d="M157.295,170.334c0.336,0.336,0.336,0.84,0,1.176c-0.336,0.336-0.84,0.336-1.176,0c-0.336-0.335-0.336-0.84,0-1.176
		C156.455,169.998,156.959,169.998,157.295,170.334"/>
	<path d="M154.186,169.242c-0.252,0-0.42-0.084-0.588-0.252l-2.521-2.521c-0.336-0.336-0.336-0.841,0-1.177
		c0.336-0.336,0.84-0.336,1.176,0l2.521,2.521c0.336,0.336,0.336,0.84,0,1.177C154.605,169.158,154.438,169.242,154.186,169.242z"/>
	<path d="M161.75,176.806c-0.253,0-0.42-0.083-0.588-0.252l-2.521-2.521c-0.336-0.336-0.336-0.84,0-1.176
		c0.336-0.336,0.841-0.336,1.177,0l2.521,2.521c0.336,0.335,0.336,0.84,0,1.176C162.169,176.722,162.001,176.806,161.75,176.806z"/>
	<path d="M164.858,164.452c0.336,0.336,0.336,0.84,0,1.176c-0.335,0.336-0.84,0.336-1.176,0c-0.336-0.336-0.336-0.839,0-1.176
		C164.018,164.116,164.523,164.116,164.858,164.452"/>
	<path d="M161.75,163.359c-0.253,0-0.42-0.084-0.588-0.253l-2.521-2.521c-0.336-0.336-0.336-0.84,0-1.177
		c0.336-0.336,0.841-0.336,1.177,0l2.521,2.521c0.336,0.337,0.336,0.84,0,1.176C162.169,163.275,162.001,163.359,161.75,163.359z"/>
	<path d="M169.313,170.923c-0.252,0-0.42-0.084-0.588-0.252l-2.521-2.521c-0.336-0.336-0.336-0.84,0-1.176
		c0.335-0.336,0.84-0.336,1.176,0l2.521,2.521c0.336,0.337,0.336,0.841,0,1.177C169.733,170.839,169.565,170.923,169.313,170.923z"
		/>
	<path d="M149.731,156.048c0.336,0.335,0.336,0.84,0,1.176c-0.336,0.336-0.841,0.336-1.177,0c-0.336-0.336-0.335-0.84,0-1.176
		C148.891,155.711,149.396,155.711,149.731,156.048"/>
	<path d="M146.622,154.955c-0.252,0-0.42-0.083-0.588-0.251l-2.521-2.521c-0.336-0.337-0.336-0.84,0-1.176
		c0.336-0.337,0.841-0.337,1.177,0l2.521,2.521c0.336,0.336,0.336,0.84,0,1.177C147.042,154.871,146.875,154.955,146.622,154.955z"
		/>
	<path d="M154.186,162.518c-0.252,0-0.42-0.083-0.588-0.251l-2.521-2.522c-0.336-0.336-0.336-0.84,0-1.176
		c0.336-0.336,0.84-0.336,1.176,0l2.521,2.521c0.336,0.335,0.336,0.84,0,1.177C154.605,162.435,154.438,162.518,154.186,162.518z"/>
	<path d="M143.849,156.888c0.336,0.336,0.336,0.841,0,1.177c-0.336,0.336-0.841,0.336-1.177,0c-0.336-0.336-0.336-0.84,0-1.177
		C143.008,156.551,143.512,156.551,143.849,156.888"/>
	<path d="M140.739,155.795c-0.252,0-0.42-0.083-0.588-0.252l-2.521-2.521c-0.336-0.336-0.336-0.84,0-1.177
		c0.336-0.335,0.84-0.335,1.177,0l2.521,2.521c0.336,0.336,0.336,0.841,0,1.177C141.159,155.711,140.991,155.795,140.739,155.795z"
		/>
	<path d="M148.302,163.359c-0.252,0-0.42-0.084-0.588-0.253l-2.521-2.521c-0.336-0.336-0.336-0.84,0-1.177
		c0.336-0.336,0.84-0.336,1.177,0l2.521,2.521c0.336,0.337,0.336,0.84,0,1.176C148.723,163.275,148.555,163.359,148.302,163.359z"/>
	<path d="M151.412,151.005c0.336,0.336,0.336,0.839,0,1.176c-0.336,0.335-0.841,0.335-1.177,0c-0.336-0.337-0.335-0.84,0-1.176
		C150.571,150.668,151.076,150.668,151.412,151.005"/>
	<path d="M148.302,149.912c-0.252,0-0.42-0.083-0.588-0.252l-2.521-2.521c-0.336-0.336-0.336-0.84,0-1.176
		c0.336-0.336,0.84-0.336,1.177,0l2.521,2.521c0.336,0.336,0.336,0.84,0,1.176C148.723,149.829,148.555,149.912,148.302,149.912z"/>
	<path d="M155.866,157.476c-0.252,0-0.42-0.084-0.588-0.252l-2.521-2.521c-0.336-0.337-0.336-0.841,0-1.177
		c0.336-0.336,0.841-0.336,1.177,0l2.521,2.521c0.336,0.335,0.336,0.84,0,1.176C156.287,157.392,156.119,157.476,155.866,157.476z"
		/>
	<path d="M143.008,173.696c0.336,0.336,0.336,0.84,0,1.177c-0.336,0.336-0.84,0.336-1.176,0c-0.337-0.336-0.337-0.841,0-1.177
		C142.167,173.36,142.671,173.36,143.008,173.696"/>
	<path d="M139.898,172.604c-0.251,0-0.42-0.084-0.587-0.251l-2.522-2.521c-0.336-0.337-0.336-0.84,0-1.177s0.84-0.336,1.177,0
		l2.521,2.521c0.335,0.336,0.335,0.84,0,1.177C140.319,172.52,140.15,172.604,139.898,172.604z"/>
	<path d="M147.462,180.167c-0.252,0-0.421-0.084-0.588-0.252l-2.521-2.521c-0.336-0.336-0.336-0.84,0-1.177
		c0.336-0.336,0.84-0.336,1.176,0l2.521,2.521c0.336,0.336,0.336,0.84,0,1.177C147.882,180.083,147.714,180.167,147.462,180.167z"/>
	<path d="M137.125,174.537c0.336,0.336,0.336,0.841,0,1.176c-0.336,0.336-0.84,0.336-1.177,0c-0.335-0.335-0.335-0.84,0-1.176
		C136.285,174.201,136.789,174.201,137.125,174.537"/>
	<path d="M141.579,181.008c-0.252,0-0.42-0.084-0.588-0.252l-2.521-2.521c-0.336-0.336-0.336-0.84,0-1.177
		c0.336-0.335,0.841-0.335,1.177,0l2.521,2.521c0.336,0.336,0.336,0.84,0,1.176C142,180.924,141.832,181.008,141.579,181.008z"/>
	<path d="M144.689,168.654c0.336,0.336,0.336,0.84,0,1.177c-0.336,0.336-0.84,0.336-1.177,0c-0.336-0.337-0.336-0.84,0-1.177
		C143.849,168.317,144.353,168.317,144.689,168.654"/>
	<path d="M141.579,167.561c-0.252,0-0.42-0.084-0.588-0.252l-2.521-2.521c-0.336-0.336-0.336-0.84,0-1.176
		c0.336-0.336,0.841-0.336,1.177,0l2.521,2.521c0.336,0.336,0.336,0.841,0,1.177C142,167.477,141.832,167.561,141.579,167.561z"/>
	<path d="M149.143,175.125c-0.252,0-0.42-0.084-0.588-0.251l-2.521-2.521c-0.335-0.337-0.335-0.841,0-1.177
		c0.336-0.336,0.841-0.336,1.177,0l2.521,2.521c0.336,0.336,0.336,0.84,0,1.177C149.563,175.041,149.396,175.125,149.143,175.125z"
		/>
	<path d="M177.717,166.721c-2.773,0-5.042-2.27-5.042-5.042c0-2.773,2.269-5.042,5.042-5.042s5.042,2.269,5.042,5.042
		C182.76,164.452,180.491,166.721,177.717,166.721z M177.717,158.316c-1.849,0-3.362,1.513-3.362,3.362
		c0,1.848,1.513,3.361,3.362,3.361c1.849,0,3.362-1.512,3.362-3.361S179.566,158.316,177.717,158.316z"/>
	<path d="M167.38,150.165c0.336,0.335,0.336,0.84,0,1.176c-0.336,0.336-0.841,0.336-1.177,0c-0.336-0.336-0.336-0.84,0-1.176
		C166.539,149.829,167.044,149.829,167.38,150.165"/>
	<path d="M164.271,149.072c-0.252,0-0.42-0.084-0.588-0.252l-2.521-2.521c-0.336-0.336-0.336-0.84,0-1.177
		c0.335-0.336,0.84-0.336,1.176,0l2.521,2.521c0.336,0.336,0.336,0.84,0,1.176C164.69,148.988,164.523,149.072,164.271,149.072z"/>
	<path d="M171.834,156.636c-0.252,0-0.42-0.084-0.588-0.252l-2.521-2.521c-0.336-0.335-0.336-0.84,0-1.177
		c0.336-0.336,0.84-0.336,1.177,0l2.521,2.521c0.336,0.336,0.336,0.841,0,1.177C172.254,156.551,172.086,156.636,171.834,156.636z"
		/>
	<path d="M161.497,151.005c0.336,0.336,0.336,0.839,0,1.176c-0.335,0.335-0.839,0.335-1.176,0c-0.336-0.337-0.336-0.84,0-1.176
		C160.657,150.668,161.161,150.668,161.497,151.005"/>
	<path d="M165.951,157.476c-0.251,0-0.42-0.084-0.588-0.252l-2.521-2.521c-0.337-0.337-0.337-0.841,0-1.177
		c0.336-0.336,0.84-0.336,1.176,0l2.521,2.521c0.336,0.335,0.336,0.84,0,1.176C166.372,157.392,166.204,157.476,165.951,157.476z"/>
	<path d="M169.061,145.122c0.336,0.336,0.336,0.84,0,1.177c-0.336,0.336-0.84,0.336-1.176,0c-0.335-0.336-0.335-0.84,0-1.177
		C168.221,144.786,168.725,144.786,169.061,145.122"/>
	<path d="M165.951,144.029c-0.251,0-0.42-0.084-0.588-0.252l-2.521-2.521c-0.337-0.336-0.337-0.84,0-1.176
		c0.336-0.336,0.84-0.336,1.176,0l2.521,2.521c0.336,0.336,0.336,0.841,0,1.176C166.372,143.945,166.204,144.029,165.951,144.029z"
		/>
	<path d="M173.516,151.593c-0.252,0-0.421-0.084-0.589-0.252l-2.521-2.521c-0.336-0.336-0.336-0.84,0-1.176
		c0.336-0.336,0.84-0.336,1.176,0l2.521,2.521c0.337,0.335,0.337,0.84,0,1.176C173.936,151.509,173.767,151.593,173.516,151.593z"/>
	<path d="M176.037,183.529c0,0.504-0.336,0.84-0.84,0.84c-0.505,0-0.841-0.336-0.841-0.84c0-0.504,0.336-0.84,0.841-0.84
		C175.701,182.689,176.037,183.025,176.037,183.529"/>
	<path d="M178.558,186.051c0,0.504-0.335,0.84-0.84,0.84c-0.504,0-0.84-0.336-0.84-0.84c0-0.504,0.336-0.841,0.84-0.841
		S178.558,185.546,178.558,186.051"/>
	<path d="M174.355,186.051c0,0.504-0.336,0.84-0.84,0.84c-0.505,0-0.841-0.336-0.841-0.84c0-0.504,0.336-0.841,0.841-0.841
		C174.019,185.21,174.355,185.546,174.355,186.051"/>
	<path d="M178.558,181.848c0,0.505-0.335,0.841-0.84,0.841c-0.504,0-0.84-0.336-0.84-0.841c0-0.504,0.336-0.84,0.84-0.84
		S178.558,181.344,178.558,181.848"/>
	<path d="M181.079,183.529c0,0.504-0.336,0.84-0.841,0.84c-0.504,0-0.84-0.336-0.84-0.84c0-0.504,0.336-0.84,0.84-0.84
		C180.743,182.689,181.079,183.025,181.079,183.529"/>
	<path d="M176.037,188.572c0,0.504-0.336,0.84-0.84,0.84c-0.505,0-0.841-0.335-0.841-0.84s0.336-0.841,0.841-0.841
		C175.701,187.731,176.037,188.067,176.037,188.572"/>
	<path d="M157.547,186.051c0,0.504-0.336,0.84-0.841,0.84c-0.504,0-0.84-0.336-0.84-0.84c0-0.504,0.336-0.841,0.84-0.841
		C157.211,185.21,157.547,185.546,157.547,186.051"/>
	<path d="M155.026,186.051c0,0.504-0.336,0.84-0.841,0.84s-0.841-0.336-0.841-0.84c0-0.504,0.336-0.841,0.841-0.841
		S155.026,185.546,155.026,186.051"/>
	<path d="M155.026,188.572c0,0.504-0.336,0.84-0.841,0.84s-0.841-0.335-0.841-0.84s0.336-0.841,0.841-0.841
		S155.026,188.067,155.026,188.572"/>
	<path d="M181.919,162.518c0,0.505-0.336,0.841-0.84,0.841c-0.504,0-0.841-0.336-0.841-0.841c0-0.503,0.336-0.839,0.841-0.839
		C181.583,161.679,181.919,162.015,181.919,162.518"/>
	<path d="M179.398,162.518c0,0.505-0.336,0.841-0.84,0.841s-0.84-0.336-0.84-0.841c0-0.503,0.336-0.839,0.84-0.839
		S179.398,162.015,179.398,162.518"/>
	<path d="M179.398,165.04c0,0.504-0.336,0.841-0.84,0.841s-0.84-0.336-0.84-0.841c0-0.504,0.336-0.84,0.84-0.84
		S179.398,164.536,179.398,165.04"/>
</g>
<g>
	<path d="M208.322,75.088c-0.421,0.423-0.985,0.423-1.407,0c-0.422-0.421-0.422-0.985,0-1.407c0.422-0.423,0.986-0.423,1.407-0.001
		C208.745,74.104,208.744,74.667,208.322,75.088"/>
	<path d="M228.734,61.715c-0.421,0.422-0.984,0.422-1.407,0c-0.423-0.423-0.423-0.985,0-1.407c0.422-0.422,0.985-0.422,1.407,0
		C229.158,60.729,229.158,61.293,228.734,61.715"/>
	<path d="M163.272,51.156c-0.421,0.423-0.984,0.422-1.407,0c-0.422-0.422-0.422-0.985,0-1.406c0.423-0.423,0.986-0.423,1.407,0
		C163.695,50.171,163.695,50.734,163.272,51.156"/>
	<path d="M185.094,37.783c-0.423,0.423-0.985,0.423-1.408,0c-0.422-0.423-0.422-0.986,0-1.409c0.423-0.421,0.985-0.422,1.408,0
		C185.517,36.797,185.517,37.36,185.094,37.783"/>
	<path d="M191.429,24.409c-0.422-0.422-0.422-0.986,0-1.407c1.197-1.197,1.196-3.027,0-4.224c-0.422-0.421-0.422-0.986,0-1.409
		c0.422-0.421,0.984-0.421,1.408,0c1.197,1.198,3.027,1.198,4.224,0c0.421-0.422,0.986-0.421,1.408,0
		c0.421,0.423,0.421,0.986,0,1.408c-1.198,1.197-1.197,3.027,0,4.224c0.422,0.422,0.421,0.986,0,1.408
		c-0.422,0.421-0.987,0.422-1.408,0c-1.197-1.197-3.027-1.197-4.224,0C192.413,24.83,191.851,24.83,191.429,24.409z M194.244,20.185
		c0.07,0.493,0.07,0.916,0,1.409c0.493-0.071,0.915-0.07,1.408-0.001c-0.07-0.492-0.07-0.915,0-1.407
		C195.159,20.256,194.737,20.256,194.244,20.185z"/>
	<path d="M191.851,92.967l0-6.193h6.195v6.195L191.851,92.967z M193.821,88.744l0.001,2.252l2.252,0.001l0-2.253H193.821z"/>
	<path d="M196.356,88.463c-0.422-0.422-0.422-0.985,0-1.408l1.408-1.408c0.421-0.422,0.985-0.422,1.407,0
		c0.423,0.423,0.423,0.986,0,1.407l-1.407,1.408C197.342,88.886,196.779,88.886,196.356,88.463z"/>
	<path d="M197.764,94.094l-1.408-1.408c-0.422-0.421-0.422-0.985,0-1.407c0.423-0.423,0.986-0.423,1.408-0.001l1.407,1.408
		c0.423,0.422,0.423,0.985,0,1.408C198.75,94.517,198.187,94.517,197.764,94.094z"/>
	<path d="M190.726,94.094c-0.423-0.423-0.423-0.986,0-1.409l1.407-1.407c0.423-0.422,0.985-0.422,1.408,0
		c0.423,0.423,0.423,0.986,0,1.408l-1.407,1.408C191.71,94.517,191.147,94.517,190.726,94.094z"/>
	<path d="M192.132,88.462l-1.407-1.408c-0.423-0.422-0.423-0.984,0-1.407c0.422-0.422,0.985-0.423,1.407,0l1.407,1.408
		c0.423,0.423,0.423,0.986,0,1.408C193.118,88.886,192.555,88.886,192.132,88.462z"/>
	<path d="M180.166,70.865c-1.9-1.9,0.845-6.475,4.224-9.854c3.379-3.379,7.954-6.124,9.854-4.224
		c1.901,1.902-0.844,6.477-4.223,9.855S182.067,72.766,180.166,70.865z M192.837,58.195c-0.352-0.351-3.379,0.564-7.04,4.224
		c-3.66,3.66-4.575,6.687-4.223,7.038c0.352,0.353,3.379-0.562,7.039-4.222C192.273,61.574,193.188,58.547,192.837,58.195z"/>
	<path d="M184.882,69.669c-0.211-0.211-0.281-0.423-0.282-0.704c0-0.282,0.211-0.634,0.423-0.845
		c1.196-0.774,2.394-1.831,3.52-2.957c3.66-3.661,4.576-6.687,4.224-7.039c-0.353-0.352-3.379,0.564-7.039,4.223
		c-1.127,1.125-2.112,2.394-2.957,3.52c-0.141,0.283-0.493,0.492-0.844,0.422c-0.282,0-0.634-0.211-0.844-0.422
		c-2.253-3.237-2.112-5.913-2.042-6.405c0.211-4.575,8.024-12.388,8.869-13.233c1.689-1.689,3.449-3.308,5.208-4.787
		c3.239-2.674,6.688-4.716,10.207-5.983c8.094-2.886,12.319-0.774,12.529-0.704c0.141,0.14,0.283,0.282,0.423,0.423
		c0.069,0.21,2.182,4.435-0.704,12.387c-1.268,3.521-3.308,6.968-5.983,10.208c-1.479,1.76-3.097,3.519-4.787,5.208
		c-0.916,0.916-8.658,8.658-13.304,8.799c-0.493,0.071-3.167,0.211-6.405-2.042C184.954,69.74,184.954,69.74,184.882,69.669z
		 M214.586,36.445c-1.055-0.352-4.575-1.197-10.557,0.986c-3.31,1.197-6.618,3.096-9.644,5.559c-1.69,1.408-3.45,3.028-5.068,4.647
		c-2.253,2.252-8.165,8.728-8.166,11.965v0.142c-0.069,0.07-0.211,1.619,0.986,3.801c0.633-0.775,1.408-1.69,2.252-2.535
		c3.379-3.379,7.954-6.124,9.854-4.224c1.901,1.902-0.844,6.477-4.223,9.855c-0.845,0.845-1.761,1.619-2.605,2.323
		c2.182,1.196,3.801,0.985,3.801,0.985h0.141c3.309-0.07,9.785-5.983,12.037-8.235l0,0c1.689-1.689,3.237-3.379,4.645-5.068
		c2.535-3.097,4.435-6.265,5.561-9.643C215.784,41.021,214.939,37.501,214.586,36.445z"/>
	<path d="M192.062,80.086c-0.281-0.281-0.492-0.633-0.563-1.126l-1.408-7.884c0-0.28,0-0.563,0.212-0.773
		c0.211-0.211,0.493-0.353,0.774-0.353h0.14h0.141c1.831,0,4.998-1.9,8.94-5.279c0.07-0.07,0.211-0.21,0.352-0.211l0.351-0.07
		c0.281-0.141,0.563,0,0.775,0.07c0.281,0.141,0.422,0.422,0.492,0.634c0.07,0.21,1.337,6.264-4.504,12.106l-2.816,2.815
		c-0.563,0.563-1.267,0.704-2.041,0.493C192.555,80.439,192.273,80.298,192.062,80.086z M192.274,71.852l1.195,6.827l2.816-2.815
		c3.378-3.379,4.083-6.757,4.083-8.727C197.06,69.88,194.386,71.428,192.274,71.852z"/>
	<path d="M170.946,58.971c-0.211-0.212-0.353-0.494-0.492-0.776c-0.212-0.774-0.071-1.477,0.492-2.04l2.815-2.816
		c5.842-5.843,11.895-4.575,12.177-4.435c0.352-0.07,0.563,0.141,0.775,0.353c0.142,0.281,0.14,0.563,0.07,0.774l-0.07,0.352
		c0,0.141-0.071,0.212-0.211,0.352c-3.309,3.872-5.279,7.109-5.279,8.94l-0.001,0.14l0,0l0.001,0.141
		c0,0.281-0.141,0.563-0.353,0.774c-0.211,0.212-0.564,0.281-0.775,0.212l-7.883-1.408C171.65,59.392,171.227,59.252,170.946,58.971
		z M183.966,50.593c-1.97,0-5.349,0.705-8.727,4.083l-2.816,2.816l6.828,1.196C179.532,56.718,181.152,53.972,183.966,50.593z"/>
	<path d="M173.83,77.2L173.83,77.2c-0.21-0.211-0.28-0.563-0.28-0.844l1.408-7.322c0.563-2.813,3.027-4.855,5.912-4.927
		c0.422,0,0.915,0.071,1.479,0.212c0.352,0.07,0.563,0.281,0.704,0.563c0.14,0.28,0.07,0.632-0.071,0.915
		c-1.619,2.463-1.479,3.59-1.408,3.659c0.07,0.072,1.197,0.212,3.589-1.336c0.283-0.142,0.633-0.211,0.916-0.071
		c0.281,0.142,0.492,0.353,0.634,0.634c0.212,0.773,0.211,1.337,0.211,1.478c0,2.816-2.042,5.28-4.928,5.913l-7.25,1.479
		C174.395,77.481,174.042,77.412,173.83,77.2z M180.448,66.221c-1.689,0.14-3.168,1.477-3.449,3.307l-1.126,5.772l5.772-1.126
		c1.759-0.353,3.097-1.829,3.308-3.447c-2.253,0.984-3.872,1.055-4.788,0.139C179.251,69.95,179.322,68.332,180.448,66.221z"/>
	<path d="M195.652,55.38c-3.097-3.098-3.097-8.165,0-11.263c3.098-3.097,8.165-3.096,11.261,0c3.098,3.098,3.098,8.165,0.001,11.263
		C203.818,58.477,198.75,58.477,195.652,55.38z M205.506,45.525c-2.323-2.323-6.124-2.323-8.446,0c-2.323,2.323-2.323,6.125,0,8.446
		c2.322,2.323,6.124,2.324,8.447,0C207.829,51.65,207.829,47.849,205.506,45.525z"/>
	<path d="M198.466,52.564c-1.547-1.548-1.547-4.083,0.002-5.63c1.548-1.549,4.082-1.548,5.63,0s1.549,4.083,0,5.63
		C202.55,54.113,200.016,54.113,198.466,52.564z M202.69,48.342c-0.774-0.774-2.04-0.776-2.814,0
		c-0.774,0.774-0.774,2.041-0.001,2.814c0.776,0.775,2.042,0.774,2.816,0C203.466,50.382,203.466,49.116,202.69,48.342z"/>
	<path d="M208.322,42.709c-1.899-1.899-3.167-4.292-3.519-6.757c-0.071-0.493,0.282-0.984,0.704-1.125
		c6.617-1.831,10.136-0.142,10.346-0.071c0.141,0.14,0.283,0.282,0.423,0.423c0.069,0.21,1.83,3.659-0.071,10.347
		c-0.141,0.422-0.633,0.774-1.125,0.704C212.616,45.877,210.223,44.61,208.322,42.709z M206.914,36.516
		c0.494,1.76,1.408,3.379,2.816,4.787c1.408,1.406,3.027,2.322,4.787,2.814c0.986-4.223,0.353-6.827,0.07-7.672
		C213.742,36.163,211.138,35.53,206.914,36.516z"/>
</g>
<g>
	<path d="M58.519,205.625c0,0.5-0.333,0.833-0.833,0.833s-0.833-0.333-0.833-0.833s0.333-0.833,0.833-0.833
		S58.519,205.125,58.519,205.625"/>
	<path d="M29.356,186.461c0,0.5-0.333,0.833-0.833,0.833s-0.833-0.333-0.833-0.833s0.333-0.833,0.833-0.833
		S29.356,185.961,29.356,186.461"/>
	<path d="M53.519,164.798c0,0.5-0.333,0.833-0.833,0.833c-0.5,0-0.833-0.333-0.833-0.833s0.333-0.833,0.833-0.833
		C53.186,163.964,53.519,164.298,53.519,164.798"/>
	<path d="M71.85,182.295c0,0.5-0.333,0.833-0.833,0.833s-0.833-0.333-0.833-0.833s0.333-0.833,0.833-0.833
		S71.85,181.795,71.85,182.295"/>
	<path d="M31.022,207.625l-3.667-3.666l3.667-3.666l3.666,3.666L31.022,207.625z M29.689,203.959l1.333,1.333l1.333-1.333
		l-1.333-1.333L29.689,203.959z"/>
	<path d="M31.022,202.292c-0.5,0-0.833-0.333-0.833-0.833v-1.667c0-0.5,0.333-0.833,0.833-0.833s0.833,0.333,0.833,0.833v1.667
		C31.855,201.959,31.522,202.292,31.022,202.292z"/>
	<path d="M35.188,204.792h-1.667c-0.5,0-0.833-0.333-0.833-0.833s0.333-0.833,0.833-0.833h1.667c0.5,0,0.833,0.333,0.833,0.833
		S35.688,204.792,35.188,204.792z"/>
	<path d="M31.022,208.958c-0.5,0-0.833-0.333-0.833-0.833v-1.667c0-0.5,0.333-0.833,0.833-0.833s0.833,0.333,0.833,0.833v1.667
		C31.855,208.625,31.522,208.958,31.022,208.958z"/>
	<path d="M28.522,204.792h-1.666c-0.5,0-0.833-0.333-0.833-0.833s0.333-0.833,0.833-0.833h1.666c0.5,0,0.833,0.333,0.833,0.833
		S29.022,204.792,28.522,204.792z"/>
	<path d="M35.688,173.713c-0.083,0-0.25,0-0.333-0.083l-6.499-2.917c-0.25-0.083-0.417-0.333-0.5-0.583s0-0.583,0.25-0.75
		l7.666-7.666c0.25-0.25,0.583-0.333,0.917-0.167l6.499,2.916c0.25,0.083,0.417,0.333,0.5,0.583c0.083,0.25,0,0.583-0.25,0.75
		l-7.666,7.666C36.105,173.63,35.855,173.713,35.688,173.713z M30.605,169.714l4.833,2.25l6.416-6.416l-4.833-2.25L30.605,169.714z"
		/>
	<path d="M45.104,183.128c-0.083,0-0.25,0-0.333-0.083l-6.499-2.917c-0.25-0.083-0.417-0.333-0.5-0.583
		c-0.083-0.25,0-0.583,0.25-0.75l7.666-7.665c0.25-0.25,0.583-0.333,0.917-0.167l6.499,2.916c0.25,0.083,0.417,0.333,0.5,0.583
		s0,0.583-0.25,0.75l-7.666,7.666C45.52,183.045,45.354,183.128,45.104,183.128z M40.021,179.129l4.833,2.25l6.416-6.416
		l-4.833-2.25L40.021,179.129z"/>
	<path d="M38.604,180.212c-0.083,0-0.083,0-0.167,0c-0.25-0.083-0.5-0.25-0.583-0.5l-2.916-6.499
		c-0.167-0.333-0.083-0.667,0.167-0.917l7.666-7.665c0.167-0.167,0.5-0.25,0.75-0.25s0.5,0.25,0.583,0.5l2.916,6.499
		c0.167,0.333,0.083,0.667-0.167,0.916l-7.666,7.666C39.021,180.129,38.854,180.212,38.604,180.212z M36.688,173.046l2.25,4.833
		l6.416-6.416l-2.25-4.833L36.688,173.046z"/>
	<path d="M50.436,193.21c-0.917,0-1.833-0.333-2.583-1.083l0,0l-4.333-4.333c-1.417-1.416-1.417-3.666,0-5.083l8.999-8.999
		c0.667-0.667,1.583-1.083,2.583-1.083c1,0,1.833,0.417,2.583,1.083l4.333,4.333c0.667,0.667,1.083,1.583,1.083,2.583
		s-0.417,1.833-1.083,2.583l-9.082,8.916C52.27,192.877,51.353,193.21,50.436,193.21z M49.02,190.961c0.75,0.75,2,0.75,2.749,0
		l8.999-8.999c0.333-0.333,0.583-0.833,0.583-1.333s-0.167-1-0.583-1.333l-4.333-4.333c-0.75-0.75-2-0.75-2.75,0l-8.999,8.915
		c-0.75,0.75-0.75,2,0,2.75L49.02,190.961z"/>
	<path d="M65.684,207.292c-0.083,0-0.083,0-0.167,0c-0.25-0.083-0.5-0.25-0.583-0.5l-2.916-6.499
		c-0.167-0.333-0.083-0.667,0.167-0.917l7.666-7.666c0.167-0.167,0.5-0.25,0.75-0.25c0.25,0.083,0.5,0.25,0.583,0.5l2.917,6.499
		c0.167,0.333,0.083,0.667-0.167,0.917l-7.666,7.666C66.184,207.208,65.934,207.292,65.684,207.292z M63.768,200.209l2.25,4.833
		l6.416-6.416l-2.25-4.833L63.768,200.209z"/>
	<path d="M56.269,197.876c-0.083,0-0.083,0-0.167,0c-0.25-0.083-0.5-0.25-0.583-0.5l-2.917-6.499
		c-0.167-0.333-0.083-0.667,0.167-0.917l7.666-7.666c0.167-0.167,0.5-0.25,0.75-0.25c0.25,0.083,0.5,0.25,0.583,0.5l2.916,6.499
		c0.167,0.333,0.083,0.667-0.167,0.917l-7.666,7.666C56.769,197.793,56.519,197.876,56.269,197.876z M54.353,190.794l2.25,4.833
		l6.416-6.416l-2.25-4.833L54.353,190.794z"/>
	<path d="M62.768,200.876c-0.083,0-0.25,0-0.333-0.083l-6.499-2.917c-0.25-0.083-0.417-0.333-0.5-0.583s0-0.583,0.25-0.75
		l7.666-7.666c0.25-0.25,0.583-0.333,0.917-0.167l6.499,2.917c0.25,0.083,0.417,0.333,0.5,0.583s0,0.583-0.25,0.75l-7.666,7.666
		C63.185,200.793,63.018,200.876,62.768,200.876z M57.769,196.793l4.833,2.25l6.416-6.416l-4.833-2.25L57.769,196.793z"/>
	<path d="M64.518,179.462c-2.25,0-4.333-0.833-5.916-2.417c-3.25-3.25-3.25-8.499,0-11.748c0.333-0.333,0.833-0.333,1.167,0
		l10.582,10.582c0.333,0.333,0.333,0.833,0,1.167C68.851,178.629,66.767,179.462,64.518,179.462z M59.269,167.047
		c-2,2.583-1.833,6.416,0.583,8.832c1.25,1.25,2.917,1.917,4.75,1.917c1.5,0,2.916-0.5,4.083-1.417L59.269,167.047z"/>
	<path d="M64.518,171.963c-0.25,0-0.417-0.083-0.583-0.25c-0.333-0.333-0.333-0.833,0-1.167l2.916-2.917
		c0.333-0.333,0.833-0.333,1.167,0c0.333,0.333,0.333,0.833,0,1.167l-2.916,2.916C64.934,171.88,64.768,171.963,64.518,171.963z"/>
	<path d="M69.267,169.797c-0.917,0-1.75-0.333-2.333-1c-1.333-1.333-1.333-3.416,0-4.75c1.333-1.333,3.416-1.333,4.749,0
		c0.667,0.667,1,1.5,1,2.333c0,0.917-0.333,1.75-1,2.333C71.017,169.38,70.184,169.797,69.267,169.797z M69.267,164.798
		c-0.417,0-0.833,0.167-1.167,0.5c-0.667,0.667-0.667,1.667,0,2.333c0.667,0.667,1.75,0.667,2.333,0l0,0
		c0.333-0.333,0.5-0.75,0.5-1.166c0-0.417-0.167-0.833-0.5-1.167C70.1,164.881,69.684,164.798,69.267,164.798z"/>
	<path d="M48.02,199.043c-0.25,0-0.417-0.083-0.583-0.25l-10.582-10.582c-0.25-0.25-0.333-0.5-0.167-0.833
		c0.083-0.333,0.333-0.5,0.667-0.583l5.916-1.166c0.25-0.083,0.583,0,0.75,0.25l5.916,5.916c0.167,0.167,0.25,0.5,0.25,0.75
		l-1.166,5.916c-0.083,0.333-0.25,0.583-0.583,0.667C48.187,199.043,48.104,199.043,48.02,199.043z M39.104,188.128l8.416,8.416
		l0.75-3.916l-5.25-5.25L39.104,188.128z"/>
	<path d="M40.354,191.377c-0.25,0-0.417-0.083-0.583-0.25c-0.333-0.333-0.333-0.833,0-1.167l1.167-1.167
		c0.333-0.333,0.833-0.333,1.167,0c0.333,0.333,0.333,0.833,0,1.167l-1.167,1.167C40.854,191.294,40.604,191.377,40.354,191.377z"/>
	<path d="M45.104,196.126c-0.25,0-0.417-0.083-0.583-0.25c-0.333-0.333-0.333-0.833,0-1.167l1.167-1.167
		c0.333-0.333,0.833-0.333,1.167,0c0.333,0.333,0.333,0.833,0,1.167l-1.167,1.167C45.52,196.043,45.354,196.126,45.104,196.126z"/>
	<path d="M42.771,193.793c-0.25,0-0.417-0.083-0.583-0.25c-0.333-0.333-0.333-0.833,0-1.166l1.167-1.167
		c0.333-0.333,0.833-0.333,1.167,0c0.333,0.333,0.333,0.833,0,1.167l-1.167,1.166C43.188,193.71,42.938,193.793,42.771,193.793z"/>
	<path d="M50.436,189.627c-0.25,0-0.417-0.083-0.583-0.25l-3.5-3.5c-0.167-0.167-0.25-0.333-0.25-0.583s0.083-0.417,0.25-0.583
		l8.249-8.249c0.333-0.333,0.833-0.333,1.166,0l3.5,3.5c0.333,0.333,0.333,0.833,0,1.167l-8.249,8.249
		C50.853,189.544,50.603,189.627,50.436,189.627z M48.02,185.295l2.333,2.333l7.082-7.083l-2.333-2.333L48.02,185.295z"/>
	<path d="M54.519,185.545c-0.25,0-0.417-0.083-0.583-0.25l-3.5-3.5c-0.333-0.333-0.333-0.833,0-1.167
		c0.333-0.333,0.833-0.333,1.167,0l3.5,3.5c0.333,0.333,0.333,0.833,0,1.167C54.936,185.461,54.769,185.545,54.519,185.545z"/>
</g>
</svg>
