<svg xmlns="http://www.w3.org/2000/svg" xmlns:xlink="http://www.w3.org/1999/xlink" xmlns:fi="http://pattern.flaticon.com/" x="0" y="0" width="1400" height="700" viewBox="0 0 2450 1225"><rect x="0px" y="0px" width="100%" height="100%" opacity="1" fill="#57ab7c"/><defs><g transform="matrix(0.10610390087276615 0.10610390087276615 -0.10610390087276615 0.10610390087276615 140.94140625 171.7223129040165)" id="L1_2"><path d="M442.733,297.667c5.12,0,8.533-3.413,8.533-8.533s-3.413-8.533-8.533-8.533s-8.533,3.413-8.533,8.533     S437.613,297.667,442.733,297.667z" fill="#ffffff"/><path d="M485.4,92.867c5.12,0,8.533-3.413,8.533-8.533c0-5.12-3.413-8.533-8.533-8.533s-8.533,3.413-8.533,8.533     C476.867,89.453,480.28,92.867,485.4,92.867z" fill="#ffffff"/><path d="M24.6,408.6c-5.12,0-8.533,3.413-8.533,8.533s3.413,8.533,8.533,8.533s8.533-3.413,8.533-8.533S29.72,408.6,24.6,408.6z" fill="#ffffff"/><path d="M75.8,195.267c-5.12,0-8.533,3.413-8.533,8.533c0,5.12,3.413,8.533,8.533,8.533s8.533-3.413,8.533-8.533     C84.333,198.68,80.92,195.267,75.8,195.267z" fill="#ffffff"/><path d="M75.8,33.133c-14.507,0-25.6-11.093-25.6-25.6C50.2,2.413,46.787-1,41.667-1s-8.533,3.413-8.533,8.533     c0,14.507-11.093,25.6-25.6,25.6C2.413,33.133-1,36.547-1,41.667S2.413,50.2,7.533,50.2c14.507,0,25.6,11.093,25.6,25.6     c0,5.12,3.413,8.533,8.533,8.533S50.2,80.92,50.2,75.8c0-14.507,11.093-25.6,25.6-25.6c5.12,0,8.533-3.413,8.533-8.533     S80.92,33.133,75.8,33.133z M41.667,50.2c-2.56-3.413-5.12-5.973-8.533-8.533c3.413-2.56,5.973-5.12,8.533-8.533     c2.56,3.413,5.12,5.973,8.533,8.533C46.787,44.227,44.227,46.787,41.667,50.2z" fill="#ffffff"/><path d="M502.467,451.267h-13.653l-20.48-20.48v-13.653c0-5.12-3.413-8.533-8.533-8.533c-5.12,0-8.533,3.413-8.533,8.533v13.653     l-20.48,20.48h-13.653c-5.12,0-8.533,3.413-8.533,8.533c0,5.12,3.413,8.533,8.533,8.533h13.653l20.48,20.48v13.653     c0,5.12,3.413,8.533,8.533,8.533c5.12,0,8.533-3.413,8.533-8.533v-13.653l20.48-20.48h13.653c5.12,0,8.533-3.413,8.533-8.533     C511,454.68,507.587,451.267,502.467,451.267z M459.8,473.453L446.147,459.8l13.653-13.653l13.653,13.653L459.8,473.453z" fill="#ffffff"/><path d="M355.757,266.402c0.788-14.72,0.79-25.919,0.79-29.322c0-20.48-0.853-40.96-2.56-60.587     c-3.413-35.84-11.947-69.12-25.6-98.133c-13.21-28.255-27.838-46.72-40.36-58.665c-0.165-0.158-0.329-0.314-0.493-0.47     c-0.083-0.078-0.166-0.157-0.248-0.235C272.403,4.901,260.685,0.278,258.049-0.792c-0.242-0.099-0.407-0.167-0.489-0.208     c-1.707,0-3.413,0-5.12,0c-1.707,0.853-40.107,13.653-71.68,80.213c-13.653,29.013-22.187,62.293-25.6,98.133     c-1.707,19.627-2.56,40.107-2.56,60.587c0,3.238,0.001,14.926,0.837,30.307c-10.947,7.889-43.504,37.875-43.504,98.546v34.133     c0,6.827,3.413,11.947,9.387,15.36c2.56,0.853,5.12,1.707,7.68,1.707c3.413,0,6.827-1.707,11.093-4.267l48.853-34.049     c5.71,4.624,14.54,10.268,26.998,14.506c-13.038,17.712-14.001,41.918-1.611,60.503l35.84,52.907     C249.88,509.293,252.44,511,255,511s5.12-1.707,7.68-3.413l34.987-52.907c12.626-19.728,11.376-44.557-2.377-61.679     c12.001-4.212,20.545-9.709,26.109-14.224l51.361,35.797c3.413,2.56,6.827,3.413,10.24,3.413c2.56,0,5.12-0.853,7.68-2.56     c5.973-3.413,9.387-8.533,9.387-15.36v-34.133C400.067,302.337,364.297,272.459,355.757,266.402z M255.729,17.293     c0.197,0.103,0.403,0.212,0.616,0.326c0.035,0.019,0.07,0.038,0.106,0.057c3.655,1.976,9.581,5.702,16.722,12.091     c8.151,7.343,17.866,18.256,27.636,34.233C287.223,71.585,271.955,75.8,255,75.8c-16.955,0-32.223-4.215-45.809-11.8     c9.77-15.976,19.485-26.89,27.636-34.233c7.141-6.389,13.067-10.116,16.722-12.091c0.036-0.019,0.071-0.038,0.106-0.057     c0.213-0.115,0.419-0.224,0.616-0.326c0.253-0.132,0.501-0.259,0.729-0.373C255.228,17.034,255.476,17.161,255.729,17.293z      M172.227,179.053c3.413-33.28,11.947-64.853,24.747-92.16c1.321-2.838,2.655-5.554,3.994-8.177     c15.684,9.25,34.547,14.151,54.032,14.151c19.486,0,38.348-4.901,54.032-14.151c1.34,2.623,2.673,5.339,3.994,8.177     c13.653,27.307,21.333,58.027,24.747,92.16c1.707,18.773,2.56,38.4,2.56,58.88c0,27.307-3.413,102.4-23.04,122.88l-0.853,0.853     l-0.853,0.853c-0.302,0.302-0.568,0.639-0.816,0.989c-3.371,3.407-12.007,10.751-27.344,15.224     c0.324-3.565,0.648-7.255,0.925-11.02c0.521-6.248,0.782-12.587,0.782-18.847c0-40.96-11.093-85.333-34.133-85.333     c-23.04,0-34.133,44.373-34.133,85.333c0,7.025,0.327,14.151,0.984,21.136c0.228,2.739,0.474,5.387,0.723,7.877     c-12.907-3.764-21.065-9.222-25.336-12.958c-0.426-1.236-1.079-2.364-1.97-3.255l-0.853-0.853l-0.853-0.853     c-11.093-11.093-18.773-42.667-22.187-86.187c0-1.489-0.001-2.329-0.568-3.086c-0.858-13.216-1.139-24.942-1.139-32.754     C169.667,218.307,170.52,197.827,172.227,179.053z M255,417.133c-0.606,0-4.656-3.022-8.787-13.635     c-4.276-11.408-8.28-29.813-8.28-54.632c0-42.98,12.009-66.745,16.64-68.196c4.631,1.45,16.64,25.216,16.64,68.196     c0,13.653-0.853,27.307-3.413,39.253c0,0.447,0.036,0.925,0.088,1.411c-1.786,7.835-3.933,14.048-6.016,18.584     C258.476,414.981,255.512,417.133,255,417.133z M127,400.067v-34.133c0-40.699,16.005-65.385,27.929-77.417     c2.614,27.816,8.167,60.033,19.952,77.95L127,400.067z M284.013,445.293l-28.16,41.813l-28.16-41.813     c-9.361-12.765-8.536-29.771,0.778-40.866c0.862,2.683,1.798,5.242,2.808,7.652c5.451,13.39,12.878,20.855,21.445,21.97     c0.056,0.007,0.111,0.018,0.167,0.025c0.266,0.032,0.534,0.054,0.802,0.073c0.084,0.006,0.166,0.017,0.25,0.022     c0.35,0.021,0.702,0.032,1.056,0.032s0.706-0.011,1.056-0.032c0.083-0.005,0.165-0.016,0.248-0.022     c0.269-0.02,0.539-0.041,0.806-0.074c0.051-0.006,0.1-0.016,0.151-0.022c10.113-1.306,18.747-11.439,25.899-29.717     C291.693,415.427,292.547,432.493,284.013,445.293z M383,400.92l-48.64-34.133c10.24-15.36,17.067-40.96,20.48-77.653     C366.787,301.08,383,325.827,383,366.787V400.92z" fill="#ffffff"/><path d="M255,246.467c37.547,0,68.267-30.72,68.267-68.267s-30.72-68.267-68.267-68.267c-37.547,0-68.267,30.72-68.267,68.267     S217.453,246.467,255,246.467z M255,127c28.16,0,51.2,23.04,51.2,51.2s-23.04,51.2-51.2,51.2c-28.16,0-51.2-23.04-51.2-51.2     S226.84,127,255,127z" fill="#ffffff"/><path d="M255,212.333c18.773,0,34.133-15.36,34.133-34.133s-15.36-34.133-34.133-34.133c-18.773,0-34.133,15.36-34.133,34.133     S236.227,212.333,255,212.333z M255,161.133c9.387,0,17.067,7.68,17.067,17.067s-7.68,17.067-17.067,17.067     s-17.067-7.68-17.067-17.067S245.613,161.133,255,161.133z" fill="#ffffff"/></g><g transform="matrix(0.0953113711450937 0.015049163986408277 -0.015049163986408277 0.0953113711450937 290.43601719442046 207.74318328956315)" id="L1_7"><path d="M409.6,357.4c-42.667,0-76.8,34.133-76.8,76.8s34.133,76.8,76.8,76.8c42.667,0,76.8-34.133,76.8-76.8     S452.267,357.4,409.6,357.4z M466.975,450.992c-5.636,19.64-20.943,34.947-40.583,40.583c-0.895-3.78-3.975-6.175-8.259-6.175     c-5.12,0-8.533,3.413-8.533,8.533c-33.28,0-59.733-26.453-59.733-59.733s26.453-59.733,59.733-59.733     c33.28,0,59.733,26.453,59.733,59.733c-5.12,0-8.533,3.413-8.533,8.533C460.8,447.017,463.195,450.098,466.975,450.992z" fill="#ffffff"/><path d="M196.267,408.6c-28.16,0-51.2,23.04-51.2,51.2c0,28.16,23.04,51.2,51.2,51.2s51.2-23.04,51.2-51.2     C247.467,431.64,224.427,408.6,196.267,408.6z M212.448,489.826c-1.328-2.754-4.068-4.426-7.648-4.426     c-5.12,0-8.533,3.413-8.533,8.533c-18.773,0-34.133-15.36-34.133-34.133c0-18.773,15.36-34.133,34.133-34.133     S230.4,441.027,230.4,459.8c-5.12,0-8.533,3.413-8.533,8.533c0,3.58,1.672,6.32,4.426,7.648     C223.121,481.826,218.292,486.654,212.448,489.826z" fill="#ffffff"/><path d="M284.16,300.227c-3.413,3.413-3.413,8.533,0,11.947c3.413,3.413,8.533,3.413,11.947,0c3.413-3.413,3.413-8.533,0-11.947     C292.693,296.813,287.573,296.813,284.16,300.227z" fill="#ffffff"/><path d="M232.96,260.973l25.6,25.6c1.707,1.707,3.413,2.56,5.973,2.56s4.267-0.853,5.973-2.56c3.413-3.413,3.413-8.533,0-11.947     l-25.6-25.6c-3.413-3.413-8.533-3.413-11.947,0S229.547,257.56,232.96,260.973z" fill="#ffffff"/><path d="M341.333,365.933c2.56,0,4.267-0.853,5.973-2.56c3.413-3.413,3.413-8.533,0-11.947l-25.6-25.6     c-3.413-3.413-8.533-3.413-11.947,0c-3.413,3.413-3.413,8.533,0,11.947l25.6,25.6     C337.067,365.08,338.773,365.933,341.333,365.933z" fill="#ffffff"/><path d="M224.427,308.76c-3.413,3.413-3.413,8.533,0,11.947c3.413,3.413,8.533,3.413,11.947,0c3.413-3.413,3.413-8.533,0-11.947     C232.96,305.347,227.84,305.347,224.427,308.76z" fill="#ffffff"/><path d="M185.173,257.56c-3.413-3.413-8.533-3.413-11.947,0s-3.413,8.533,0,11.947l25.6,25.6c1.707,1.707,3.413,2.56,5.973,2.56     s4.267-0.853,5.973-2.56c3.413-3.413,3.413-8.533,0-11.947L185.173,257.56z" fill="#ffffff"/><path d="M261.973,334.36c-3.413-3.413-8.533-3.413-11.947,0c-3.413,3.413-3.413,8.533,0,11.947l25.6,25.6     c1.707,1.707,3.413,2.56,5.973,2.56s4.267-0.853,5.973-2.56c3.413-3.413,3.413-8.533,0-11.947L261.973,334.36z" fill="#ffffff"/><path d="M313.173,260.973c3.413-3.413,3.413-8.533,0-11.947s-8.533-3.413-11.947,0c-3.413,3.413-3.413,8.533,0,11.947     C304.64,264.387,309.76,264.387,313.173,260.973z" fill="#ffffff"/><path d="M275.627,235.373c1.707,1.707,3.413,2.56,5.973,2.56s4.267-0.853,5.973-2.56c3.413-3.413,3.413-8.533,0-11.947     l-25.6-25.6c-3.413-3.413-8.533-3.413-11.947,0s-3.413,8.533,0,11.947L275.627,235.373z" fill="#ffffff"/><path d="M352.427,312.173c1.707,1.707,3.413,2.56,5.973,2.56s4.267-0.853,5.973-2.56c3.413-3.413,3.413-8.533,0-11.947     l-25.6-25.6c-3.413-3.413-8.533-3.413-11.947,0s-3.413,8.533,0,11.947L352.427,312.173z" fill="#ffffff"/><path d="M147.627,163.693c-3.413,3.413-3.413,8.533,0,11.947s8.533,3.413,11.947,0s3.413-8.533,0-11.947     S151.04,160.28,147.627,163.693z" fill="#ffffff"/><path d="M122.027,150.04c1.707,1.707,3.413,2.56,5.973,2.56s4.267-0.853,5.973-2.56c3.413-3.413,3.413-8.533,0-11.947l-25.6-25.6     c-3.413-3.413-8.533-3.413-11.947,0s-3.413,8.533,0,11.947L122.027,150.04z" fill="#ffffff"/><path d="M173.227,189.293c-3.413,3.413-3.413,8.533,0,11.947l25.6,25.6c1.707,1.707,3.413,2.56,5.973,2.56     s4.267-0.853,5.973-2.56c3.413-3.413,3.413-8.533,0-11.947l-25.6-25.6C181.76,185.88,176.64,185.88,173.227,189.293z" fill="#ffffff"/><path d="M99.84,184.173c3.413-3.413,3.413-8.533,0-11.947s-8.533-3.413-11.947,0s-3.413,8.533,0,11.947     S96.427,187.587,99.84,184.173z" fill="#ffffff"/><path d="M62.293,158.573c1.707,1.707,3.413,2.56,5.973,2.56s4.267-0.853,5.973-2.56c3.413-3.413,3.413-8.533,0-11.947l-25.6-25.6     c-3.413-3.413-8.533-3.413-11.947,0s-3.413,8.533,0,11.947L62.293,158.573z" fill="#ffffff"/><path d="M145.067,237.933c2.56,0,4.267-0.853,5.973-2.56c3.413-3.413,3.413-8.533,0-11.947l-25.6-25.6     c-3.413-3.413-8.533-3.413-11.947,0s-3.413,8.533,0,11.947l25.6,25.6C140.8,237.08,142.507,237.933,145.067,237.933z" fill="#ffffff"/><path d="M176.64,124.44c3.413-3.413,3.413-8.533,0-11.947c-3.413-3.413-8.533-3.413-11.947,0s-3.413,8.533,0,11.947     S173.227,127.853,176.64,124.44z" fill="#ffffff"/><path d="M139.093,98.84c1.707,1.707,3.413,2.56,5.973,2.56s4.267-0.853,5.973-2.56c3.413-3.413,3.413-8.533,0-11.947l-25.6-25.6     c-3.413-3.413-8.533-3.413-11.947,0s-3.413,8.533,0,11.947L139.093,98.84z" fill="#ffffff"/><path d="M215.893,175.64c1.707,1.707,3.413,2.56,5.973,2.56s4.267-0.853,5.973-2.56c3.413-3.413,3.413-8.533,0-11.947l-25.6-25.6     c-3.413-3.413-8.533-3.413-11.947,0s-3.413,8.533,0,11.947L215.893,175.64z" fill="#ffffff"/><path d="M79.36,342.893c-3.413,3.413-3.413,8.533,0,11.947s8.533,3.413,11.947,0s3.413-8.533,0-11.947     S82.773,339.48,79.36,342.893z" fill="#ffffff"/><path d="M53.76,329.24c1.707,1.707,3.413,2.56,5.973,2.56s4.267-0.853,5.973-2.56c3.413-3.413,3.413-8.533,0-11.947l-25.6-25.6     c-3.413-3.413-8.533-3.413-11.947,0c-3.413,3.413-3.413,8.533,0,11.947L53.76,329.24z" fill="#ffffff"/><path d="M142.507,394.093l-25.6-25.6c-3.413-3.413-8.533-3.413-11.947,0s-3.413,8.533,0,11.947l25.6,25.6     c1.707,1.707,3.413,2.56,5.973,2.56s4.267-0.853,5.973-2.56C145.92,402.627,145.92,397.507,142.507,394.093z" fill="#ffffff"/><path d="M19.627,351.427c-3.413,3.413-3.413,8.533,0,11.947s8.533,3.413,11.947,0s3.413-8.533,0-11.947     S23.04,348.013,19.627,351.427z" fill="#ffffff"/><path d="M57.173,377.027c-3.413-3.413-8.533-3.413-11.947,0c-3.413,3.413-3.413,8.533,0,11.947l25.6,25.6     c1.707,1.707,3.413,2.56,5.973,2.56s4.267-0.853,5.973-2.56c3.413-3.413,3.413-8.533,0-11.947L57.173,377.027z" fill="#ffffff"/><path d="M108.373,303.64c3.413-3.413,3.413-8.533,0-11.947s-8.533-3.413-11.947,0s-3.413,8.533,0,11.947     S104.96,307.053,108.373,303.64z" fill="#ffffff"/><path d="M45.227,240.493c-3.413,3.413-3.413,8.533,0,11.947l25.6,25.6c1.707,1.707,3.413,2.56,5.973,2.56s4.267-0.853,5.973-2.56     c3.413-3.413,3.413-8.533,0-11.947l-25.6-25.6C53.76,237.08,48.64,237.08,45.227,240.493z" fill="#ffffff"/><path d="M147.627,354.84c1.707,1.707,3.413,2.56,5.973,2.56s4.267-0.853,5.973-2.56c3.413-3.413,3.413-8.533,0-11.947l-25.6-25.6     c-3.413-3.413-8.533-3.413-11.947,0s-3.413,8.533,0,11.947L147.627,354.84z" fill="#ffffff"/><path d="M392.533,220.867c0,28.16,23.04,51.2,51.2,51.2s51.2-23.04,51.2-51.2c0-28.16-23.04-51.2-51.2-51.2     S392.533,192.707,392.533,220.867z M443.733,186.733c18.773,0,34.133,15.36,34.133,34.133c-5.12,0-8.533,3.413-8.533,8.533     c0,3.58,1.672,6.32,4.426,7.648c-3.172,5.845-8,10.673-13.845,13.845c-1.328-2.754-4.068-4.426-7.648-4.426     c-5.12,0-8.533,3.413-8.533,8.533c-18.773,0-34.133-15.36-34.133-34.133C409.6,202.093,424.96,186.733,443.733,186.733z" fill="#ffffff"/><path d="M326.827,103.96c-3.413,3.413-3.413,8.533,0,11.947s8.533,3.413,11.947,0c3.413-3.413,3.413-8.533,0-11.947     C335.36,100.547,330.24,100.547,326.827,103.96z" fill="#ffffff"/><path d="M301.227,90.307c1.707,1.707,3.413,2.56,5.973,2.56s4.267-0.853,5.973-2.56c3.413-3.413,3.413-8.533,0-11.947l-25.6-25.6     c-3.413-3.413-8.533-3.413-11.947,0s-3.413,8.533,0,11.947L301.227,90.307z" fill="#ffffff"/><path d="M352.427,129.56c-3.413,3.413-3.413,8.533,0,11.947l25.6,25.6c1.707,1.707,3.413,2.56,5.973,2.56s4.267-0.853,5.973-2.56     c3.413-3.413,3.413-8.533,0-11.947l-25.6-25.6C360.96,126.147,355.84,126.147,352.427,129.56z" fill="#ffffff"/><path d="M279.04,124.44c3.413-3.413,3.413-8.533,0-11.947s-8.533-3.413-11.947,0s-3.413,8.533,0,11.947     S275.627,127.853,279.04,124.44z" fill="#ffffff"/><path d="M330.24,163.693l-25.6-25.6c-3.413-3.413-8.533-3.413-11.947,0s-3.413,8.533,0,11.947l25.6,25.6     c1.707,1.707,3.413,2.56,5.973,2.56s4.267-0.853,5.973-2.56C333.653,172.227,333.653,167.107,330.24,163.693z" fill="#ffffff"/><path d="M355.84,64.707c3.413-3.413,3.413-8.533,0-11.947c-3.413-3.413-8.533-3.413-11.947,0c-3.413,3.413-3.413,8.533,0,11.947     C347.307,68.12,352.427,68.12,355.84,64.707z" fill="#ffffff"/><path d="M318.293,39.107c1.707,1.707,3.413,2.56,5.973,2.56s4.267-0.853,5.973-2.56c3.413-3.413,3.413-8.533,0-11.947l-25.6-25.6     c-3.413-3.413-8.533-3.413-11.947,0s-3.413,8.533,0,11.947L318.293,39.107z" fill="#ffffff"/><path d="M395.093,115.907c1.707,1.707,3.413,2.56,5.973,2.56s4.267-0.853,5.973-2.56c3.413-3.413,3.413-8.533,0-11.947     l-25.6-25.6c-3.413-3.413-8.533-3.413-11.947,0c-3.413,3.413-3.413,8.533,0,11.947L395.093,115.907z" fill="#ffffff"/><path d="M418.133,434.2c-5.12,0-8.533,3.413-8.533,8.533s3.413,8.533,8.533,8.533c5.12,0,8.533-3.413,8.533-8.533     S423.253,434.2,418.133,434.2z" fill="#ffffff"/><path d="M443.733,459.8c-5.12,0-8.533,3.413-8.533,8.533s3.413,8.533,8.533,8.533s8.533-3.413,8.533-8.533     S448.853,459.8,443.733,459.8z" fill="#ffffff"/><path d="M401.067,459.8c-5.12,0-8.533,3.413-8.533,8.533s3.413,8.533,8.533,8.533s8.533-3.413,8.533-8.533     S406.187,459.8,401.067,459.8z" fill="#ffffff"/><path d="M443.733,417.133c-5.12,0-8.533,3.413-8.533,8.533s3.413,8.533,8.533,8.533s8.533-3.413,8.533-8.533     S448.853,417.133,443.733,417.133z" fill="#ffffff"/><path d="M204.8,459.8c-5.12,0-8.533,3.413-8.533,8.533s3.413,8.533,8.533,8.533s8.533-3.413,8.533-8.533     S209.92,459.8,204.8,459.8z" fill="#ffffff"/><path d="M452.267,237.933c5.12,0,8.533-3.413,8.533-8.533s-3.413-8.533-8.533-8.533s-8.533,3.413-8.533,8.533     S447.147,237.933,452.267,237.933z" fill="#ffffff"/></g><g transform="matrix(0.10753786181988478 0.019117841888252673 -0.019117841888252673 0.10753786181988478 162.41239795029747 10.673977632754166)" id="L1_8"><path d="M334.448,461.601c-5.297,0-8.828,3.531-8.828,8.828c0,5.297,3.531,8.828,8.828,8.828c5.297,0,8.828-3.531,8.828-8.828     C343.276,465.132,339.745,461.601,334.448,461.601z" fill="#ffffff"/><path d="M25.483,276.222c5.297,0,8.828-3.531,8.828-8.828c0-5.297-3.531-8.828-8.828-8.828c-5.297,0-8.828,3.531-8.828,8.828     C16.655,272.691,20.186,276.222,25.483,276.222z" fill="#ffffff"/><path d="M281.483,46.705c5.297,0,8.828-3.531,8.828-8.828s-3.531-8.828-8.828-8.828c-5.297,0-8.828,3.531-8.828,8.828     S276.186,46.705,281.483,46.705z" fill="#ffffff"/><path d="M475.69,214.429c-5.297,0-8.828,3.531-8.828,8.828s3.531,8.828,8.828,8.828c5.297,0,8.828-3.531,8.828-8.828     S480.986,214.429,475.69,214.429z" fill="#ffffff"/><path d="M96.103,443.946H81.979L60.793,422.76v-14.124c0-5.297-3.531-8.828-8.828-8.828s-8.828,3.531-8.828,8.828v14.124     l-21.186,21.186H7.828c-5.297,0-8.828,3.531-8.828,8.828c0,5.297,3.531,8.828,8.828,8.828h14.124l21.186,21.186v14.124     c0,5.297,3.531,8.828,8.828,8.828s8.828-3.531,8.828-8.828v-14.124l21.186-21.186h14.124c5.297,0,8.828-3.531,8.828-8.828     C104.931,447.477,101.4,443.946,96.103,443.946z M51.966,466.898l-14.124-14.124l14.124-14.124l14.124,14.124L51.966,466.898z" fill="#ffffff"/><path d="M508.352,394.512l-30.897-68.855c-0.883-2.648-3.531-4.414-6.179-5.297c-0.586,0-1.219,0.051-1.863,0.137l-61.684-27.679     l-27.035-60.249c6.859-7.842,11.134-16.55,11.134-26.968c0-4.936-0.969-9.675-2.706-14.048c5.753,1.118,11.676,1.69,17.713,1.69     c23.835,0,45.903-8.828,61.793-25.6c3.531-3.531,3.531-8.828,0-12.359l-49.876-49.876l19.824-19.824     c5.345,3.5,11.739,5.259,18.576,5.259c9.71,0,18.538-4.414,25.6-11.476c7.062-6.179,10.593-15.007,10.593-24.717     c0-8.828-3.531-17.655-10.593-24.717c-14.124-14.124-36.193-14.124-50.317,0c-11.823,11.823-13.742,29.211-5.772,42.847     l-20.27,20.27l-49.876-49.876c-3.531-3.531-8.828-3.531-12.359,0c-21.802,21.802-29.778,52.096-23.967,80.129     c-4.075-1.578-8.418-2.446-13.109-2.446c-10.242,0-19.652,4.134-26.648,10.791l-60.347-27.079l-28.542-63.607     c-0.037-0.145-0.058-0.296-0.105-0.436c-0.328-0.985-0.78-1.969-1.352-2.863c-1.154-2.236-3.43-4.199-5.71-4.199     c-0.06,0-0.125,0.007-0.185,0.007L117.29,3.45c-3.531-1.766-7.062-0.883-9.71,1.766L26.366,86.429     c-2.648,1.766-3.531,5.297-2.648,7.945c0.883,2.648,2.648,5.297,5.297,6.179l65.809,29.53l28.541,63.606     c0.037,0.145,0.059,0.296,0.105,0.437c0.389,1.167,0.96,2.325,1.691,3.34c0.088,0.128,0.174,0.255,0.27,0.377     c0.05,0.063,0.104,0.119,0.155,0.18c0.159,0.189,0.319,0.377,0.496,0.552c0.175,0.177,0.362,0.336,0.55,0.495     c0.062,0.051,0.118,0.107,0.181,0.157c0.122,0.096,0.249,0.183,0.377,0.27c1.016,0.732,2.173,1.302,3.34,1.691     c0.076,0,0.138,0,0.202,0l55.31,24.819l-1.664,1.664c-8.947,8.947-12.556,21.03-10.836,32.511l-54.488,10.744     c-3.531,0.883-6.179,2.648-7.062,6.179c-1.766,3.531-0.883,6.179,1.766,8.828l30.896,30.896c0,0,0,0,0.001,0.001     c0,0,0.001,0.001,0.001,0.001l81.213,81.213c1.766,1.766,3.531,2.648,6.179,2.648c0.883,0,1.766,0,4.414,0.883     c3.531-0.883,5.297-3.531,6.179-7.062l11.007-55.823c1.33,0.136,2.665,0.209,4,0.209c9.71,0,19.421-3.531,26.483-11.476     l1.673-1.643l24.505,54.611c0.03,0.609,0.119,1.207,0.304,1.763c0.883,2.648,2.648,5.297,5.297,6.179l66.304,29.752     l29.033,64.703c0.883,2.648,3.531,4.414,6.179,5.297c0.883,0,0.883,0,1.766,0c2.648,0,5.297-0.883,6.179-2.648l81.214-81.214     C509.234,401.574,510.117,398.043,508.352,394.512z M444.793,43.174c3.531-3.531,7.945-5.297,12.359-5.297     s8.828,0.883,12.359,5.297c3.531,3.531,5.297,7.945,5.297,12.359c0,4.414-1.766,8.828-5.297,12.359     c-6.179,7.062-17.655,7.062-24.717,0S437.731,50.236,444.793,43.174z M351.221,61.712l47.992,47.567     c0.389,0.659,0.864,1.288,1.443,1.867c0.685,0.685,1.372,1.234,2.109,1.653l48.208,47.781     c-12.359,9.71-27.366,15.007-43.255,15.007c-19.421,0-37.076-7.062-50.317-20.303C331.8,129.684,330.034,89.077,351.221,61.712z      M115.524,21.987l51.2,23.834l-67.972,67.972l-51.2-23.834L115.524,21.987z M179.966,57.298l23.834,51.2l-67.972,67.972     l-23.834-51.2L179.966,57.298z M147.304,189.712l32.981-32.981l34.992-34.992l51.2,23.834l-67.972,67.972L147.304,189.712z      M226.752,374.208l-13.241-13.241l6.179-6.179c3.531-3.531,3.531-8.828,0-12.359s-8.828-3.531-12.359,0l-6.179,6.179     l-12.359-12.359l6.179-6.179c3.531-3.531,3.531-8.828,0-12.359c-3.531-3.531-8.828-3.531-12.359,0l-6.179,6.179l-13.241-13.241     l6.179-6.179c3.531-3.531,3.531-8.828,0-12.359c-3.531-3.531-8.828-3.531-12.359,0l-6.179,6.179l-13.241-13.241l41.49-7.945     l55.614,55.614L226.752,374.208z M246.53,318.069l-52.797-52.797c-4.74-7.903-3.753-18.484,3.005-25.243l95.338-94.455     c7.945-7.945,21.186-7.945,29.131,0l45.903,45.903c4.414,3.531,6.179,8.828,6.179,14.124c0,5.297-2.648,10.593-6.179,14.124     l-3.531,3.531c0,0,0,0,0,0l-81.214,81.214c0,0,0,0,0,0l-10.593,10.593C265.014,321.822,254.433,322.809,246.53,318.069z      M332.243,280.193l35.072-34.428l23.63,50.761l-67.972,67.972l-23.834-51.2L332.243,280.193z M403.303,308.884l50.598,23.554     l-67.972,67.972l-50.598-23.554L403.303,308.884z M422.724,464.25l-23.834-51.2l67.972-67.972l23.834,51.2L422.724,464.25z" fill="#ffffff"/><path d="M307.083,255.036C307.083,255.036,307.083,255.036,307.083,255.036l44.138-44.138c3.531-3.531,3.531-8.828,0-12.359     l-37.076-37.076c-3.531-3.531-8.828-3.531-12.359,0l-87.393,87.393c-1.766,1.766-2.648,3.531-2.648,6.179     c0,2.648,0.883,4.414,2.648,6.179l37.076,37.076c1.766,1.766,3.531,2.648,6.179,2.648c1.766,0,4.414-0.883,6.179-2.648     L307.083,255.036C307.082,255.036,307.083,255.036,307.083,255.036z M307.083,180.001l24.717,24.717l-31.338,31.338     l-24.717-24.717L307.083,180.001z M256.766,279.753l-24.717-24.717l31.338-31.338l24.717,24.717L256.766,279.753z" fill="#ffffff"/></g><g transform="matrix(0.10549389570951462 0 0 0.10549389570951462 216.98771589621902 110.98771267312577)" id="L1_9"><path d="M255,451.267c-5.12,0-8.533,3.413-8.533,8.533c0,5.12,3.413,8.533,8.533,8.533s8.533-3.413,8.533-8.533     C263.533,454.68,260.12,451.267,255,451.267z" fill="#ffffff"/><path d="M255,408.6c-5.12,0-8.533,3.413-8.533,8.533v8.533c0,5.12,3.413,8.533,8.533,8.533s8.533-3.413,8.533-8.533v-8.533     C263.533,412.013,260.12,408.6,255,408.6z" fill="#ffffff"/><path d="M255,485.4c-5.12,0-8.533,3.413-8.533,8.533v8.533c0,5.12,3.413,8.533,8.533,8.533s8.533-3.413,8.533-8.533v-8.533     C263.533,488.813,260.12,485.4,255,485.4z" fill="#ffffff"/><path d="M306.2,400.067c-5.12,0-8.533,3.413-8.533,8.533v17.067c0,5.12,3.413,8.533,8.533,8.533s8.533-3.413,8.533-8.533V408.6     C314.733,403.48,311.32,400.067,306.2,400.067z" fill="#ffffff"/><path d="M306.2,451.267c-5.12,0-8.533,3.413-8.533,8.533v25.6c0,5.12,3.413,8.533,8.533,8.533s8.533-3.413,8.533-8.533v-25.6     C314.733,454.68,311.32,451.267,306.2,451.267z" fill="#ffffff"/><path d="M203.8,459.8c-5.12,0-8.533,3.413-8.533,8.533v25.6c0,5.12,3.413,8.533,8.533,8.533c5.12,0,8.533-3.413,8.533-8.533     v-25.6C212.333,463.213,208.92,459.8,203.8,459.8z" fill="#ffffff"/><path d="M203.8,400.067c-5.12,0-8.533,3.413-8.533,8.533v25.6c0,5.12,3.413,8.533,8.533,8.533c5.12,0,8.533-3.413,8.533-8.533     v-25.6C212.333,403.48,208.92,400.067,203.8,400.067z" fill="#ffffff"/><path d="M186.733,186.733c5.12,0,8.533-3.413,8.533-8.533c0-23.893,18.773-42.667,42.667-42.667c5.12,0,8.533-3.413,8.533-8.533     s-3.413-8.533-8.533-8.533c-33.28,0-59.733,26.453-59.733,59.733C178.2,183.32,181.613,186.733,186.733,186.733z" fill="#ffffff"/><path d="M255,263.533c-5.12,0-8.533,3.413-8.533,8.533c0,5.12,3.413,8.533,8.533,8.533s8.533-3.413,8.533-8.533     C263.533,266.947,260.12,263.533,255,263.533z" fill="#ffffff"/><path d="M331.8,255c-5.12,0-8.533,3.413-8.533,8.533s3.413,8.533,8.533,8.533c5.12,0,8.533-3.413,8.533-8.533     S336.92,255,331.8,255z" fill="#ffffff"/><path d="M400.067,237.933c-5.12,0-8.533,3.413-8.533,8.533s3.413,8.533,8.533,8.533c5.12,0,8.533-3.413,8.533-8.533     S405.187,237.933,400.067,237.933z" fill="#ffffff"/><path d="M109.933,237.933c-5.12,0-8.533,3.413-8.533,8.533s3.413,8.533,8.533,8.533s8.533-3.413,8.533-8.533     S115.053,237.933,109.933,237.933z" fill="#ffffff"/><path d="M178.2,255c-5.12,0-8.533,3.413-8.533,8.533s3.413,8.533,8.533,8.533s8.533-3.413,8.533-8.533S183.32,255,178.2,255z" fill="#ffffff"/><path d="M511,246.467c0-39.635-80.498-59.332-121.593-66.365c-10.718-58.597-60.944-100.67-125.874-104.07V50.2h8.533     l8.533-8.533V7.533L272.067-1h-34.133L229.4,7.533v34.133l8.533,8.533h8.533v25.831     c-64.976,3.402-115.228,45.533-125.898,104.195C79.467,187.908-1,206.84-1,246.467c0,21.079,24.001,38.13,61.106,50.764     C87.072,353.618,165.265,391.533,255,391.533c89.227,0,167.036-37.489,194.425-94.144C486.795,284.739,511,267.634,511,246.467z      M246.467,16.067h17.067v17.067h-17.067V16.067z M255,92.867c65.404,0,115.582,43.968,119.409,104.126l-25.543,8.514     c-60.587,20.48-127.147,20.48-187.733,0l-25.543-8.514c0.083-1.308,0.189-2.608,0.315-3.901c0.194-1.364,0.394-2.735,0.456-3.967     C143.873,133.039,192.482,92.867,255,92.867z M425.667,304.493c-30.72,41.813-97.28,69.973-170.667,69.973     c-74.24,0-139.947-28.16-170.667-69.973c46.08,11.947,107.52,18.773,170.667,18.773S379.587,316.44,425.667,304.493z      M355.053,300.29c-0.482,0.06-0.964,0.12-1.447,0.179c-1.067,0.132-2.141,0.261-3.219,0.389     C320.587,304.36,288.255,306.2,255,306.2c-20.12,0-39.903-0.673-58.993-1.961c-112.568-7.703-179.941-36.516-179.941-57.773     c0-14.507,32.427-35.84,102.4-48.64c0,1.707,0,3.413,0,5.973v5.973l36.693,12.8c64,21.333,134.827,21.333,198.827,0l37.547-12.8     V203.8c0-2.56,0-5.12,0-5.973c69.973,13.653,102.4,34.133,102.4,48.64C493.933,264.995,442.742,289.264,355.053,300.29z" fill="#ffffff"/></g><g transform="matrix(0.1151645752169023 0.05193696440121756 -0.05193696440121756 0.1151645752169023 11.786777907513965 13.246960322680309)"><path d="M127,152.6c5.12,0,8.533-3.413,8.533-8.533c0-5.12-3.413-8.533-8.533-8.533s-8.533,3.413-8.533,8.533     C118.467,149.187,121.88,152.6,127,152.6z" fill="#ffffff"/><path d="M323.267,485.4c-5.12,0-8.533,3.413-8.533,8.533s3.413,8.533,8.533,8.533s8.533-3.413,8.533-8.533     S328.387,485.4,323.267,485.4z" fill="#ffffff"/><path d="M493.933,417.133c-5.12,0-8.533,3.413-8.533,8.533s3.413,8.533,8.533,8.533s8.533-3.413,8.533-8.533     S499.053,417.133,493.933,417.133z" fill="#ffffff"/><path d="M434.2,195.267c5.12,0,8.533-3.413,8.533-8.533s-3.413-8.533-8.533-8.533s-8.533,3.413-8.533,8.533     S429.08,195.267,434.2,195.267z" fill="#ffffff"/><path d="M476.867,33.133c5.12,0,8.533-3.413,8.533-8.533s-3.413-8.533-8.533-8.533s-8.533,3.413-8.533,8.533     S471.747,33.133,476.867,33.133z" fill="#ffffff"/><path d="M323.267,348.867c0-21.685-4.26-42.365-11.97-61.265c-23.16-60.125-82.188-102.575-151.016-102.575     c-17.92,0-35.84,3.413-53.76,9.387l-4.267,1.707l-0.289,1.737C41.662,221.478-1,280.152-1,348.867     c0,27.741,6.959,53.842,19.218,76.665c0.116,0.335,0.247,0.667,0.408,0.989c2.007,3.601,4.148,7.097,6.393,10.506     c27.012,41.642,72.616,70.078,125.094,73.594c0.034,0.002,0.067,0.004,0.101,0.006c1.592,0.106,3.19,0.188,4.794,0.247     c0.34,0.013,0.68,0.028,1.021,0.039c1.695,0.052,3.395,0.088,5.103,0.088c1.086,0,2.166-0.016,3.244-0.041     c11.451-0.224,22.611-1.625,33.359-4.101c2.852-0.572,5.722-1.186,8.623-1.831c0.487-0.244,0.955-0.526,1.402-0.834     C274.603,484.18,323.267,422.254,323.267,348.867z M137.24,287.427c1.707,0.853,3.413,1.707,5.12,2.56     c11.093,5.12,20.48,9.387,27.307,6.827c6.827-1.707,11.947-8.533,13.653-16.213c2.56-8.533,0-17.92-5.12-23.04     c-0.853-0.853,0-3.413,0-3.413c0.853,0.853,1.707,0.853,3.413,3.413c5.12,5.12,11.093,6.827,17.92,4.267     c11.947-3.413,19.627-18.773,21.333-31.573c0.853-3.413,0.853-7.68,0-11.093c44.373,19.627,76.8,62.293,82.773,113.493h-3.413     c-5.12-4.267-12.8-10.24-21.333-7.68c-11.093,4.267-12.8,17.92-14.507,29.013c0,2.56-0.853,5.973-0.853,6.827     c-3.413,5.12-7.68,7.68-12.8,7.68c-11.093,0-23.893-10.24-30.72-20.48c-0.853-1.707-0.853-4.267-1.707-6.827     c-0.853-5.12-1.707-11.093-7.68-14.507c-2.56-0.853-4.267-1.707-6.827-1.707c-4.267,0-9.387,1.707-15.36,2.56l-1.707,0.853     c-13.653,5.973-13.653,5.973-20.48,0.853c-1.707-1.707-2.56-3.413-3.413-5.973c-1.707-5.973-6.827-18.773-26.453-13.653     c-1.707,0-2.56,0.853-3.413,0.853C136.387,304.493,138.947,296.813,137.24,287.427z M109.08,227.693     c2.56-4.267,5.973-9.387,7.68-15.36c23.04-6.827,47.787-8.533,69.973-5.12c0,0.853-0.853,0.853-0.853,0.853     c-5.12,2.56-13.653,5.973-16.213,5.973c-14.507,0-26.453,8.533-36.693,15.36c-5.12,3.413-9.387,6.827-14.507,9.387     c-4.267,2.56-7.68-0.853-8.533-1.707C108.227,234.52,106.52,231.107,109.08,227.693z M186.733,442.733h30.72l-4.267,12.8     l-15.36,15.36c-1.707,1.707-2.56,3.413-2.56,5.973v12.8c-11.093,2.56-23.04,4.267-34.133,4.267c-1.472,0-2.941-0.027-4.407-0.072     c-0.295-0.009-0.588-0.023-0.882-0.033c-1.312-0.048-2.622-0.109-3.928-0.193c-0.105-0.007-0.21-0.013-0.314-0.02     c-41.835-2.781-80.499-23.742-105.91-56.824c-0.184-0.241-0.371-0.48-0.554-0.722c-0.404-0.533-0.795-1.077-1.192-1.617     c-2.292-3.135-4.463-6.364-6.502-9.683l17.876-17.876l15.36-7.68l29.867-7.68l10.24,6.827c0,0.853,0,0.853,0.853,0.853     l20.48,8.533c0.853,0.853,2.56,0.853,3.413,0.853h23.893l18.773,5.973V434.2C178.2,439.32,181.613,442.733,186.733,442.733z      M212.333,484.654v-4.374l14.507-15.36c0.853-0.853,1.707-2.56,1.707-3.413l8.533-25.6c0.853-2.56,0.853-5.12-0.853-7.68     c-1.707-1.707-4.267-3.413-6.827-3.413h-34.133v-17.067c0-3.413-2.56-6.827-5.973-7.68l-25.6-8.533     c-0.853-0.853-1.707-0.853-2.56-0.853H137.24L118.467,383l-12.8-7.68c-2.56-0.853-4.267-1.707-6.827-0.853L64.707,383     c-0.853,0-0.853,0.853-1.707,0.853l-17.067,8.533c-0.853,0.853-1.707,0.853-2.56,1.707l-14.509,14.509     c-8.223-18.21-12.798-38.431-12.798-59.736c0-55.137,30.643-103.016,75.853-127.564c-2.752,8.224-1.015,17.39,5.213,24.31     c7.68,8.533,18.773,11.093,29.013,5.973c5.973-3.413,11.947-6.827,17.067-11.093c8.533-5.973,17.067-11.947,26.453-11.947     c6.827,0,14.507-3.413,23.04-6.827c4.267-0.853,9.387-3.413,11.947-4.267c2.56,3.413,1.707,10.24,0.853,11.947     c-2.56,8.533-7.68,14.507-10.24,14.507c-11.093-10.24-20.48-7.68-26.453-2.56c-6.827,6.827-8.533,19.627-1.707,27.307     c1.707,1.707,2.56,5.12,1.707,7.68c0,1.707-1.707,3.413-2.56,4.267c-2.56-0.853-10.24-4.267-14.507-5.973     c-11.947-5.12-21.333-10.24-28.16-3.413c-5.973,5.973-1.707,14.507-0.853,17.067c2.56,6.827-0.853,13.653-5.12,20.48     c-3.413,5.12-6.827,11.093-2.56,17.067c4.267,6.827,13.653,5.12,27.307,1.707c3.413-0.853,5.12-0.853,5.12-0.853     c0.853,0.853,1.707,2.56,1.707,3.413c1.707,4.267,3.413,9.387,8.533,13.653c13.653,11.093,18.773,9.387,37.547,0.853l2.56-1.707     c1.707-0.853,3.413-1.707,4.267-1.707v0.853c0,4.267,0.853,9.387,4.267,13.653c8.533,13.653,26.453,28.16,45.227,28.16     c8.533,0,19.627-2.56,28.16-16.213c1.707-2.56,2.56-6.827,3.413-12.8c0-3.413,0.853-10.24,2.56-13.653     c0.853,0.853,3.413,1.707,5.973,5.12l2.56,2.56H306.2C306.2,411.048,267.223,463.99,212.333,484.654z" fill="#ffffff"/><path d="M297.667-1C245.613-1,203.8,40.813,203.8,92.867c0,20.831,6.702,40.018,18.071,55.546     c0.388,0.74,0.883,1.395,1.471,1.956c17.13,22.157,43.986,36.365,74.325,36.365c52.053,0,93.867-41.813,93.867-93.867     C391.533,40.813,349.72-1,297.667-1z M297.667,169.667c-18.438,0-35.275-6.384-48.46-17.067h48.46     c5.12,0,8.533-3.413,8.533-8.533c0-5.12-3.413-8.533-8.533-8.533h-63.995c-6.619-9.956-10.964-21.571-12.331-34.133h42.193     c5.12,0,8.533-3.413,8.533-8.533c0-5.12-3.413-8.533-8.533-8.533h-42.193c0.994-9.135,3.566-17.766,7.441-25.626     c0.205,0.011,0.408,0.026,0.619,0.026h85.333c5.12,0,8.533-3.413,8.533-8.533s-3.413-8.533-8.533-8.533h-74.469     c14.027-15.737,34.478-25.6,57.402-25.6c33.672,0,62.012,21.266,72.473,51.2h-21.273c-5.12,0-8.533,3.413-8.533,8.533     s3.413,8.533,8.533,8.533h25.126c0.305,2.802,0.474,5.646,0.474,8.533c0,5.876-0.669,11.581-1.897,17.067h-49.303     c-5.12,0-8.533,3.413-8.533,8.533s3.413,8.533,8.533,8.533h43.299C354.076,152.361,328.04,169.667,297.667,169.667z" fill="#ffffff"/><path d="M511,306.2c0-33.28-26.453-59.733-59.733-59.733c-33.28,0-59.733,26.453-59.733,59.733s26.453,59.733,59.733,59.733     C484.547,365.933,511,339.48,511,306.2z M451.267,348.867c-23.893,0-42.667-18.773-42.667-42.667c0-2.93,0.286-5.782,0.825-8.533     H434.2c5.12,0,8.533-3.413,8.533-8.533s-3.413-8.533-8.533-8.533h-17.27c7.715-10.418,20.118-17.067,34.336-17.067     c23.893,0,42.667,18.773,42.667,42.667c0,2.93-0.286,5.782-0.825,8.533h-24.775c-5.12,0-8.533,3.413-8.533,8.533     s3.413,8.533,8.533,8.533h17.27C477.888,342.218,465.484,348.867,451.267,348.867z" fill="#ffffff"/><path d="M7.533,58.733h13.653l20.48,20.48v13.653c0,5.12,3.413,8.533,8.533,8.533s8.533-3.413,8.533-8.533V79.213l20.48-20.48     h13.653c5.12,0,8.533-3.413,8.533-8.533s-3.413-8.533-8.533-8.533H79.213l-20.48-20.48V7.533C58.733,2.413,55.32-1,50.2-1     s-8.533,3.413-8.533,8.533v13.653l-20.48,20.48H7.533C2.413,41.667-1,45.08-1,50.2S2.413,58.733,7.533,58.733z M50.2,36.547     L63.853,50.2L50.2,63.853L36.547,50.2L50.2,36.547z" fill="#ffffff"/></g></defs><g fi:class="KUsePattern"><pattern id="pattern_L1_2" width="350" height="350" patternUnits="userSpaceOnUse"><use xlink:href="#L1_2" x="-350" y="-350"/><use xlink:href="#L1_2" x="0" y="-350"/><use xlink:href="#L1_2" x="350" y="-350"/><use xlink:href="#L1_2" x="-350" y="0"/><use xlink:href="#L1_2" x="0" y="0"/><use xlink:href="#L1_2" x="350" y="0"/><use xlink:href="#L1_2" x="-350" y="350"/><use xlink:href="#L1_2" x="0" y="350"/><use xlink:href="#L1_2" x="350" y="350"/></pattern><rect x="0" y="0" width="100%" height="100%" fill="url(#pattern_L1_2)"/></g><g fi:class="KUsePattern"><pattern id="pattern_L1_7" width="350" height="350" patternUnits="userSpaceOnUse"><use xlink:href="#L1_7" x="-350" y="-350"/><use xlink:href="#L1_7" x="0" y="-350"/><use xlink:href="#L1_7" x="350" y="-350"/><use xlink:href="#L1_7" x="-350" y="0"/><use xlink:href="#L1_7" x="0" y="0"/><use xlink:href="#L1_7" x="350" y="0"/><use xlink:href="#L1_7" x="-350" y="350"/><use xlink:href="#L1_7" x="0" y="350"/><use xlink:href="#L1_7" x="350" y="350"/></pattern><rect x="0" y="0" width="100%" height="100%" fill="url(#pattern_L1_7)"/></g><g fi:class="KUsePattern"><pattern id="pattern_L1_8" width="350" height="350" patternUnits="userSpaceOnUse"><use xlink:href="#L1_8" x="-350" y="-350"/><use xlink:href="#L1_8" x="0" y="-350"/><use xlink:href="#L1_8" x="350" y="-350"/><use xlink:href="#L1_8" x="-350" y="0"/><use xlink:href="#L1_8" x="0" y="0"/><use xlink:href="#L1_8" x="350" y="0"/><use xlink:href="#L1_8" x="-350" y="350"/><use xlink:href="#L1_8" x="0" y="350"/><use xlink:href="#L1_8" x="350" y="350"/></pattern><rect x="0" y="0" width="100%" height="100%" fill="url(#pattern_L1_8)"/></g><g fi:class="KUsePattern"><pattern id="pattern_L1_9" width="350" height="350" patternUnits="userSpaceOnUse"><use xlink:href="#L1_9" x="-350" y="-350"/><use xlink:href="#L1_9" x="0" y="-350"/><use xlink:href="#L1_9" x="350" y="-350"/><use xlink:href="#L1_9" x="-350" y="0"/><use xlink:href="#L1_9" x="0" y="0"/><use xlink:href="#L1_9" x="350" y="0"/><use xlink:href="#L1_9" x="-350" y="350"/><use xlink:href="#L1_9" x="0" y="350"/><use xlink:href="#L1_9" x="350" y="350"/></pattern><rect x="0" y="0" width="100%" height="100%" fill="url(#pattern_L1_9)"/></g><g fi:class="KUsePattern" transform="matrix(1 0 0 1 20 20)"><pattern id="pattern_UNKNOWN" width="350" height="350" patternUnits="userSpaceOnUse"><use xlink:href="#UNKNOWN" x="-350" y="-350"/><use xlink:href="#UNKNOWN" x="0" y="-350"/><use xlink:href="#UNKNOWN" x="350" y="-350"/><use xlink:href="#UNKNOWN" x="-350" y="0"/><use xlink:href="#UNKNOWN" x="0" y="0"/><use xlink:href="#UNKNOWN" x="350" y="0"/><use xlink:href="#UNKNOWN" x="-350" y="350"/><use xlink:href="#UNKNOWN" x="0" y="350"/><use xlink:href="#UNKNOWN" x="350" y="350"/></pattern><rect x="0" y="0" width="100%" height="100%" fill="url(#pattern_UNKNOWN)"/></g></svg>