<?xml version="1.0" encoding="utf-8"?>
<!-- Generator: Adobe Illustrator 16.0.3, SVG Export Plug-In . SVG Version: 6.00 Build 0)  -->
<!DOCTYPE svg PUBLIC "-//W3C//DTD SVG 1.1//EN" "http://www.w3.org/Graphics/SVG/1.1/DTD/svg11.dtd">
<svg version="1.1" id="Layer_1" xmlns="http://www.w3.org/2000/svg" xmlns:xlink="http://www.w3.org/1999/xlink" x="0px" y="0px"
	 width="1000px" height="1000px" viewBox="0 0 1000 1000" enable-background="new 0 0 1000 1000" xml:space="preserve">
<g>
	<path fill="none" d="M250,983.334H83.334V950c0-18.334,15-33.334,33.334-33.334h100c18.334,0,33.334,15,33.334,33.334v33.334H250z"
		/>
	<path fill="none" d="M583.334,983.334H416.668V950c0-18.334,15-33.334,33.334-33.334h100c18.334,0,33.334,15,33.334,33.334v33.334
		H583.334z"/>
	<path fill="none" d="M750,983.334h166.666V950c0-18.334-15-33.334-33.334-33.334h-100c-18.334,0-33.334,15-33.334,33.334v33.334
		H750z"/>
</g>
<path fill="none" d="M750,150H583.334v-33.334c0-18.334,15-33.334,33.334-33.334h100c18.334,0,33.334,15,33.334,33.334V150H750z"/>
<path fill="none" d="M700,150H300v-33.334c0-18.334,15-33.334,33.334-33.334h333.334c18.334,0,33.334,15,33.334,33.334V150H700z"/>
<path fill="none" d="M766.666,716.666h-200c-46.666,0-83.334-36.666-83.334-83.334v-400c0-46.666,36.666-83.334,83.334-83.334h200
	c46.666,0,83.334,36.666,83.334,83.334v400C850,680,813.334,716.666,766.666,716.666"/>
<path fill="none" d="M433.334,716.666h-200C186.668,716.666,150,680,150,633.332v-400c0-46.666,36.666-83.334,83.334-83.334h200
	c46.666,0,83.334,36.666,83.334,83.334v400C516.666,680,480,716.666,433.334,716.666"/>
<path fill="none" d="M716.666,716.666H283.334C236.668,716.666,200,680,200,633.332v-400c0-46.666,36.666-83.334,83.334-83.334
	h433.334c46.666,0,83.334,36.666,83.334,83.334v400C800,680,763.334,716.666,716.666,716.666"/>
<rect x="116.69" y="799.989" transform="matrix(0.5998 -0.8001 0.8001 0.5998 -556.7158 520.1793)" fill="#D36447" width="249.98" height="33.33"/>
<path fill="#D36447" d="M250,1000H83.334c-10,0-16.666-6.666-16.666-16.666V950c0-28.334,21.666-50,50-50h100
	c28.334,0,50,21.666,50,50v33.334C266.666,993.334,260,1000,250,1000z M100,966.666h133.334V950c0-10-6.666-16.666-16.666-16.666
	h-100c-10,0-16.666,6.666-16.666,16.666v16.666H100z"/>
<path fill="#D36447" d="M583.334,1000H416.668c-10,0-16.666-6.666-16.666-16.666V950c0-28.334,21.666-50,50-50h100
	c28.334,0,50,21.666,50,50v33.334C600,993.334,593.334,1000,583.334,1000z M433.334,966.666h133.334V950
	c0-10-6.666-16.666-16.666-16.666h-100c-10,0-16.666,6.666-16.666,16.666v16.666H433.334z"/>
<rect x="741.667" y="691.667" transform="matrix(0.8 -0.6 0.6 0.8 -338.3287 618.3081)" fill="#D36447" width="33.334" height="250"/>
<path fill="#D36447" d="M916.666,1000H750c-10,0-16.666-6.666-16.666-16.666V950c0-28.334,21.666-50,50-50h100
	c28.334,0,50,21.666,50,50v33.334C933.334,993.334,926.666,1000,916.666,1000z M766.666,966.666H900V950
	c0-10-6.666-16.666-16.666-16.666h-100c-10,0-16.666,6.666-16.666,16.666v16.666H766.666z"/>
<rect x="483.334" y="716.666" fill="#D36447" width="33.334" height="200"/>
<path fill="#D36447" d="M766.666,733.334H233.334c-55,0-100-45-100-100v-400c0-55,45-100,100-100h533.334c55,0,100,45,100,100v400
	C866.666,688.334,821.666,733.334,766.666,733.334z M233.334,166.666c-36.666,0-66.666,30-66.666,66.666v400
	c0,36.666,30,66.666,66.666,66.666h533.334c36.666,0,66.666-30,66.666-66.666v-400c0-36.666-30-66.666-66.666-66.666H233.334z"/>
<path fill="#D36447" d="M750,166.666H250c-10,0-16.666-6.666-16.666-16.666v-33.334c0-28.334,21.666-50,50-50h433.334
	c28.334,0,50,21.666,50,50V150C766.666,160,760,166.666,750,166.666z M266.666,133.334h466.666v-16.666
	c0-10-6.666-16.666-16.666-16.666H283.334c-10,0-16.666,6.666-16.666,16.666v16.666H266.666z"/>
<path fill="#D36447" d="M350,100c-10,0-16.666-6.666-16.666-16.666V16.666C333.334,6.666,340,0,350,0s16.666,6.666,16.666,16.666
	v66.666C366.666,93.334,360,100,350,100z"/>
<path fill="#D36447" d="M416.666,100c-10,0-16.666-6.666-16.666-16.666V50c0-10,6.666-16.666,16.666-16.666S433.332,40,433.332,50
	v33.334C433.334,93.334,426.666,100,416.666,100z"/>
<path fill="none" d="M534.083,492.405l-22.013-88.058l6.778-6.428c5.464-5.181,8.598-12.418,8.598-19.855
	c0-15.134-12.312-27.446-27.445-27.446s-27.446,12.312-27.446,27.446c0,7.435,3.135,14.672,8.601,19.856l6.777,6.428l-22.014,88.057
	H534.083z"/>
<path fill="#D36447" d="M642.147,263.458c-61.176-7.803-103.521-29.49-128.258-46.3c-4.111-2.801-8.915-4.281-13.89-4.281
	c-4.976,0-9.779,1.48-13.876,4.271c-24.748,16.819-67.091,38.506-128.273,46.31c-12.295,1.571-21.567,12.1-21.567,24.491v116.932
	c0,79.659,35.594,155.188,95.212,202.041c18.792,14.769,38.807,26.373,59.535,34.509c2.879,1.12,5.897,1.688,8.971,1.688
	c3.096,0,6.126-0.573,9.015-1.705c20.669-8.109,40.686-19.713,59.498-34.491c59.614-46.854,95.205-122.382,95.205-202.041V287.949
	C663.719,275.56,654.447,265.031,642.147,263.458z M631.719,404.881c0,69.921-31.021,136.045-82.976,176.879
	c-15.534,12.203-31.921,21.88-48.742,28.791c-16.835-6.919-33.217-16.595-48.732-28.789
	c-51.963-40.836-82.986-106.959-82.986-176.881V294.333c60.875-8.812,104.55-30.256,131.717-47.98
	c27.157,17.72,70.833,39.169,131.719,47.98V404.881z"/>
<path fill="#D36447" d="M530.818,415.63c8.87-8.412,14.024-20.161,14.024-32.476c0-24.725-20.115-44.842-44.842-44.842
	c-24.726,0-44.842,20.118-44.842,44.842c0,12.315,5.157,24.063,14.026,32.476l-22.726,90.904c-0.673,2.682-0.063,5.517,1.631,7.696
	c1.695,2.179,4.305,3.453,7.068,3.453h89.684c2.765,0,5.373-1.274,7.068-3.453c1.694-2.18,2.306-5.015,1.63-7.696L530.818,415.63z"
	/>
</svg>
